/* XPM */
static char *result[] = {
/* columns rows colors chars-per-pixel */
"64 64 199 2 ",
"   c #020202",
".  c #302D03",
"X  c #353535",
"o  c #363539",
"O  c #464917",
"+  c #5B5C1A",
"@  c #474A26",
"#  c #51562F",
"$  c #575A34",
"%  c #5D6138",
"&  c #676A25",
"*  c #6A6C27",
"=  c #6D712A",
"-  c #71742C",
";  c #676537",
":  c #696736",
">  c #676935",
",  c #6A6836",
"<  c #6D693A",
"1  c #716D3D",
"2  c #767931",
"3  c #74703F",
"4  c #6D6941",
"5  c #716D43",
"6  c #757242",
"7  c #797543",
"8  c #7C7945",
"9  c #767249",
"0  c #79754A",
"q  c #7C794C",
"w  c #7E7A50",
"e  c #A90200",
"r  c #9E2408",
"t  c #A22306",
"y  c #A22309",
"u  c #F90200",
"i  c #894F00",
"p  c #895000",
"a  c #807C47",
"s  c #817D4A",
"d  c #817D51",
"f  c #7F8438",
"g  c #DE8A00",
"h  c #E28700",
"j  c #E18900",
"k  c #FA8F00",
"l  c #F69100",
"z  c #F99100",
"x  c #F6F100",
"c  c #FAF000",
"v  c #888C43",
"b  c #84824D",
"n  c #88854F",
"m  c #8F9247",
"M  c #919647",
"N  c #93964A",
"B  c #96994C",
"V  c #9A9D4E",
"C  c #858154",
"Z  c #898654",
"A  c #8B8953",
"S  c #888559",
"D  c #8C895A",
"F  c #908D56",
"G  c #918E5D",
"H  c #9A9857",
"J  c #94915B",
"K  c #99955D",
"L  c #A19D5D",
"P  c #9EA152",
"I  c #A2A556",
"U  c #A5A45B",
"Y  c #A6AA5B",
"T  c #A9AD5C",
"R  c #ADB15F",
"E  c #8F8B60",
"W  c #949361",
"Q  c #9A9660",
"!  c #9C9A63",
"~  c #9A9A67",
"^  c #A09D64",
"/  c #A29D6E",
"(  c #A39E70",
")  c #9EA168",
"_  c #A4A165",
"`  c #ABA865",
"'  c #A4A46A",
"]  c #A9A56B",
"[  c #A6A96F",
"{  c #ABAA6D",
"}  c #B0AE69",
"|  c #AEB262",
" . c #B4B865",
".. c #B4B769",
"X. c #B4B36D",
"o. c #A8A674",
"O. c #ABA676",
"+. c #ABAB72",
"@. c #AEAA79",
"#. c #B1AE71",
"$. c #B2AE7D",
"%. c #AEB274",
"&. c #B3B475",
"*. c #B8B672",
"=. c #B6B874",
"-. c #BBBB74",
";. c #B4B37B",
":. c #B9B67A",
">. c #B6B979",
",. c #BBBC7C",
"<. c #C0BD7E",
"1. c #BEC077",
"2. c #BEC07D",
"3. c #C3C47B",
"4. c #C6C97E",
"5. c #C9CC7F",
"6. c #9B9F9E",
"7. c #97A29F",
"8. c #99A29F",
"9. c #AFB080",
"0. c #B6B381",
"q. c #BAB683",
"w. c #B6B886",
"e. c #BDBA85",
"r. c #BEBC88",
"t. c #9A9FA3",
"y. c #97A1A2",
"u. c #99A1A2",
"i. c #C1BE83",
"p. c #C1BE8A",
"a. c #BEC181",
"s. c #BFC18D",
"d. c #C3C482",
"f. c #C6C985",
"g. c #CACC83",
"h. c #C5C38C",
"j. c #C9C78D",
"k. c #C7CA88",
"l. c #CACC89",
"z. c #CED183",
"x. c #CED18B",
"c. c #D1D487",
"v. c #D2D58D",
"b. c #D6DA8B",
"n. c #DADD8E",
"m. c #C5C690",
"M. c #C9C791",
"N. c #C6C992",
"B. c #CBCB94",
"V. c #CDCE98",
"C. c #D1CE97",
"Z. c #CDD196",
"A. c #CED299",
"S. c #D3D690",
"D. c #D6D992",
"F. c #DADD95",
"G. c #D2D49C",
"H. c #D5D89E",
"J. c #DEDF9A",
"K. c #F9D997",
"L. c #F7D999",
"P. c #F9D99A",
"I. c #DDE194",
"U. c #DEE299",
"Y. c #E1E18F",
"T. c #E1E292",
"R. c #E4E997",
"E. c #E2E49C",
"W. c #E6EA9D",
"Q. c #D6DAA0",
"!. c #DADDA3",
"~. c #DDE1A5",
"^. c #DFE4A8",
"/. c #E7EAA1",
"(. c #EBEDA4",
"). c #E5E7AB",
"_. c #EEF1A6",
"`. c #EEF1A8",
"'. c #F1F3A7",
"]. c #F2F5AA",
"[. c #F6F9AD",
"{. c #F9FCAF",
"}. c #F1ECB2",
"|. c #F5F1B6",
" X c #FDFEB3",
".X c #FAF5BA",
"XX c #FFFFBB",
"oX c #FFFFC4",
"OX c #FFFFCB",
"+X c #FFFFD3",
"@X c #FFFFDA",
"#X c LightYellow",
"$X c #F7F7F6",
"%X c #F7F9F6",
"&X c #F8F8F6",
"*X c #F7F7F8",
"=X c #F9F7F9",
"-X c #F7F9F8",
";X c #F9F8F9",
/* pixels */
"..E ` T p.D.Q.|.{.[.oXoXoXOXoXN.5.$.) ' s b Z D *.-.S.-.J K a.B.=.D A C C Y d I I +.w.+.' ] I I ' q.q.:.0.;.0.;.;.0.>.0.q.+.U Y ",
"G E $ $ U D.Q.[. X{.oXOXoXoXOXd.g.$.;.[ 8 # f S *.*. .F v E B.B.m.>.h.p.r.XX+XD.b.0.q.q.[ ^ ^ P ^ :.0.;.;.z.x.Z.Z.l.z.;.0.' q w ",
"v F D $ # J.D.S.[. X{.[.OXoXOXf.@.@.$.' P q +.h.M.X.Z A A >.R.>.h.h.XX@X+X+X+X+X+X@Xx.A.c.c.;.' ^ ^ ;.$.%.x.B.].B.'.z.l.g.;.0 w ",
"v D | d s D.Q.S.x.].].{.`.N.W Q +.@.@.0.:.,.e.p.p.%.n n S &.%.Y ` r.XXXX+X+XOX+XOXOX+X@Xl.c.$.! 3 5 $.$.5.B.OXOXOXOXOX_.B.[.! 9 ",
"} | S C s @.D.S.x.x.@.! & & , < ~ +.@.@.$.;.q.w.e.r.@.C b %.{ C I XXXX X+X+XoX+XoXOXOXOX XOX! 6 1 1 ! +.].OXOXoXoXoXXXoXh.'.g.! ",
"M.` ;.d s { F. X X;.! 1 < , < J +.f.k.l.z.z.;.' :.q.q.i.e.n.I 8 q  X X X X Xy [.OX{.OXOX{.OX4 < 1 B @.4.`.oXoXOXoX`.`.oXoX(.`.4.",
").&.I.{ s +.e.q.) ! 1 < < m J 4.d.OXOXOXOXl.l.z.0.;.0.L [ ,.8 7 7 A.y  X X].z y [.OXr oXoX@.K M M ! O.f._.oXoXoXoX(._.(.oXoXW.d.",
"J.+.p.O.s a 8 ^ _ 3 6 N ! ] f.f.OXOXoXOXoXOXOXl.l.g.^ 3 V ! 6 6 $.A.z y t 4.y l t [.y oXoXo.@.+.O.O.O.g.oXoXoX.X(.,.E.|.XXoXE.h.",
"J.p.r.+.d 8 8 8 7 3 9 ~ @.O.f.OXOXoXoXOXXXOXoXOXoXl.g.N ! ^ 1 6 z.B.t c z y y z l y k y f.K @.! Q @.+.d.oXoXoXoX(.~ =./.|.XXXXr.",
"F.r.+.e.q.' 0 V ' ! B Q @.O.[.OXOXoX.XoX.XoXOXoXOXOX'.@.g.K 1 l y t y l x k c z c l z r g.O.K 4 4 +.O.4.oXoX.X(.E.X.>.I.E.}.XXw.",
"F.e.[ q.q.v.0.;.;.! 5 1 ].{.[.].OXoX`.'.'.'.(.oXoXoXoXf.f.! 6 r k c z y k x c x x z x y t t K 1 5 ~ @.3.oX`._.(.E.=.=.F.E.XXXXU.",
"  b.o. XXX XXXc.z.V 1 1 B.'.|.].`.'./.2.,./.`.oX.XoXOXoXm.4.K < r z x l x x x z x c l l y $.K 5 6 +.~ +.].].`.R.>.:...F.E.}.XXU.",
"t.   X XXX XXX+X$.B 3 K k.'.'.[.'./.r.-.-.,.w.(.oXoX.XoX`.m.Q < y y l z c z k x l z x c y y $.Q K O.N m _._.s.s.,.=.&.;.E.}. XU.",
"u.y.   X XOX+XOX$.B 1 O.k.f.d.a.3.3.,.,.>.>.>.E.(..XoXoXOXm.r l z k k y z y l k y z c k c k y 9.;.! < K d.m.s.2.,.>.&.&.E.E.XXF.",
"u.&X    OX+X+X@X@.N 1 l.B.k.d.d.a.e.,.,.,.>.>.w.(.(.(..XoXOX4.t t l y L.l t z t g t l z l t V ;.) 3 3 K 5.d.a.2.,.>.>.&.E.XX XU.",
"q.;Xu.      OXOX@.5 < l.f.f.f.f.d.d.2.,.>.>.>.>.w.(.(.oX.XoXh.K y l y L.y L.y L.j t l z y - 6 ;.H 3 3 @.k.d.a.2.1.,.>.w.W.E.XX=.",
"{ u.$Xu.      oX! & K l.f.f.4.d.d.i.,.,.>.>.>.:.=.,.E.`.oXoXOXy l t j P.P.P.p p L.t y z z y V c.' 6 6 g.].f.d.2.2.,.,.U.W.XXoX=.",
"d ' ;Xu.          & +.l.f.f.4.4.3.d.d.,.>.>.:.:.>.=.E.(..XoXoX_.t     K.j p   ;XP.y h y l z y v.) 9 5 ! f.f.d.1.2.,.,.U.XXXXXX~ ",
"s ] u.&Xu.          l.B.l.d.4.4.4.d.d.,.-.-.:.-.>.>.w.(..XoXOXd.].  X P.P.j o %XL.y P.y t y XX+Xc.V 3 H f.d.3.3.1.-.r.(./.XXOX~ ",
"s ]  X8.;Xu.          l.l.l.g.g.d.d.d.i.-.-.=.=.>.>.>.(.(..XoX(.m.  j L.L.P.P.P.P.j j y  XXX X+Xv.! < K l.d.d.1.1.1.2.(.oX.XoX( ",
"b ] XXXXu.-Xu.            l.l.l.l.f.d.<.2.-.=.=.>.>.=./.XXoXoX(.o.<   i P.K.P.P.j   y     XX+X+X{.~ * K f.d.a.3.3.,.,.(.XXoXOX/ ",
"n { XX+XOXu.;Xu.            l.l.l.l.d.d.2.-.-.>.>.>.w././.XXoXr.1.<   j p p P.h   u.  X u   +X+X{.;.* J k.d.d.a.,.2.a.`.'..XoX' ",
"n { XX@X+X8.;X;Xu.u.            l.l.4.d.3.e.>.>.>.&.J./.XXXXE.W.1.D O.  j P.j   g 8.X u         [.@.& K f.d.d.2.d.2.a.'.oXoXoXo.",
"A %.XXXXOX+Xy.-X;Xt.y.            f.f.3.1.2.>.>.;.9./.}.XXXX>.,.( ' G         g j u.o e   X X   |.@.* J d.d.d.d.2.d.s.].'.oXoXO.",
"A +.XX+X+X+X{.y.*X-X&Xt.              3.3.,.>.>.>.J.E.}.XXXX0.>.~ ,.(     X y.j ;XX u     X X X   5.< J f.d.a.3.d.2.(.].OXoX+X+.",
"A &.XXXXOX+X X[.y.$X-X-Xu.              d.,.>.>.&.F.XXXXXXXX&...:.oXoX      X u.;XX e   o X X X   g.< J f.d.3.2.3.4._.OXOXOXOX@.",
"A &.U.XX+X+X+XA.x.u.=X$X;Xu.7.              >.&.0.E.J. X X0.D.&.w.XXXX        X u.X u   X X X X   f.4 J d.k.d.4.3.f.[.{.OXOX[.) ",
"G &.U.oXXXOX+X{.{.! 8.;X=X;X;Xu.              *.&.E. X}. X+.F.&.F.XX|.          X     X X   X     g.K K k.k.f.4.4.f.{.OXOX+Xv.! ",
"G A ^.oX+X+X+XA.v.$.^ 8.$X$X;X;X6.t.              /.XXXX XD.D.$. XXXXX                X X   X     l.~ & @.B.k.l.l.B. X+XOX+Xc.' ",
"G A ^.XXXX+X+XA.G.$.^ 3 t.=X$X;X;X;Xu.8.            E.). XD.J.{ XXXXXX              X X X   X     l.Q 4 ! l.l.l.l.x. X X+X@Xb.] ",
"J A ).oX@X@X+X{.x.! B 9 5 8.&X;X$X;X-X-Xu.              XXD.J.+. XXX            X X X X X   X   u.  $.5 ! B.x.x.x.x. XXX+X Xn.Y ",
"J A ^.XXXX+X+X X$.6 = 5 3 G.t.;X*X-X$X;X;Xu.u.              J.}. XE.        ;X;X&XX X X X   X   u.  z.! ! x.v.v.S.S.Q.XXXXF.I.Y ",
"J A XXXX@X+X X{.~ O . @ 6 c.v.8.u.$X;X&X$X$X-X7.                E.E.      8.i i p ;Xo X X             ! = x.G.v.v.D.F. Xp.I.T.S ",
"G A R.oX+X+X{.A.$.@ . @ 1 ~ l.l.g.u.u.&X$X$X%X-Xy.u.                      j h g i   -XX X               7 ' b. XQ.Q. Xn.d #.&.D ",
"E D %.~.@X+X X{.g.Q 5 = 1 ! ;.G.v.l.l.u.;X$X;X-X&X;Xy.u.        +.Y.; j K.j h i       =Xo                 7 7 q.w.e.p.b b #.>.| ",
" .A n p.Q.S.v.l.g.g.$.K 1 1 ~ g.C.l.l.l.u.8.;X;X;X=X;X$X    ~   : +.j L.L.P.j   u.    ;XX   o           X   7 8 8 8 s b n >.M.w.",
",.A n s ' v.G.{.x.l.OX@.4 1 1 1 C.l.l.x.g.4.y.;X;X;X*X;X  + A       h i P.K.j     8.    &X-X          +.T.T.Y.I.q s d s { h.M.V.",
",.A b q ' v.l.OX+XOX+X'.@.M < 1 z.V.x.l.x.B. Xy.u.;X&X;X  ; (   X     g K.g   j     u.t.6.        { { +.{ +.+.+.Y.T.,.3.h.>.X.*.",
"A ; T i.S.G.+X+XOXOX+X X].f.B < ~ x.A.l.x.[. X XOXy.y.u.u.O.  X             j p i               +.[ : ; ; : ; > +.O.Y.s.{ n A A ",
"% . Y n.v.+XOXOXOXOXOX+X].].K 5 ! 9.x.A.x.{. X+X+XC.$.5 & 5.  X             p j g   I.        +.+.>   X   X     , ; [ T.Y b n A ",
"F $ { q.XXOX X{.OXOXoXOXOX[.@.Q 1 6 6 c.G.{.XX+X+X{.$.3 3     o                   { {   T.Y.+.+.< X       X     X , +.Y.' { } D ",
"*.T Y b.{. X X{.[.[.oX[.OX'.N.! 1 9 6 ' v. XXX X' c.' 7 3   X                         +.> ; : >   X     X   X     X : +.:.r.p.} ",
">.Y b [ A.[.m.B.f._.[.OXOXOX`.k.B 3 6 7 0.S.b.q.L U ^     X X                                     X     X   X X   X ; { :.q.[ { ",
"j.| 8 _ c.[.B.f.3.(.[.`.oXOXOX@.5 3 3 7 7 8 8 8 8 I   X X   o                                       X   X     X   +., >   q.q.,.",
"j.#.8 8 U x.l.4.m.[.oXOXOX[.f.$.5 = 7 V 0 8 8 q ] q.b.  X   X                                       X   X X   o : +.>     z.>.q.",
"k.%.s 8 ! x.l.f.'.[.oXoXOXOXg.@.B = 9 0.^ P q q _ ] q._                           $.g.#.            o   X X   X : { +.  B.z.;.;.",
"h.I.` 8 3 x.l.B.{.oXoX[.[.f.@.! B 6 6 :.q.0.' 8 q 7       8.u.              0.! = 5 #.~ 5 g.].      X     o     : { T.+._.B.$.;.",
"h.h.{ 8 8 x.x.'.{.oXOXOXOXl.K ! H 9 V 0.0.q.V 8 q     t.u.  u.y.u.      H.q.L 6 5 V ;.^ 1 Q l.B.m.        X       ; O.Y.Y.T.T.T.",
">.h.{ a 8 v.x.].OXOXoXOXl.K 1 B $.;.S.S.G.S.q.' ^                  XH.q.' _ 9 8 V #.c.! = H x.l.l.d.3.        u.&X  > +.+.+.+.+.",
"&.&.} a 8 b.G. X XOXOXOXV.! 6 9 $.c.v.v.+X X XH.H. Xb.q.q._ 8 8 8 w.{ ] ' 8 7 V q.[ 0.^ ' ! x.l.l.d.d.d.a.,.              `.B.@.",
"%.>.} s 8 F.D. X+XOX+Xx.A.) K ^ 0.XX+X+X+X@X+X XQ. Xv.b.b.q.8 8 8 8 _ _ 8 8 P w.[ 0 P _ 7 L l.l.l.l.d.3.a.,.,.,.,.W.`.oXoX_.l.@.",
"l.j.X.b b F.Q.XX+X+X+X{.x.^ ! _ L  XXXXX@X+X@X+X+X+X+X XG. X0.q 7 8 8 7 I _ q.q.^ q H ^ 8 ^ v.v.l.l.4.4.3.3.3.,.1./.].XXOX'.].z.",
"B.M.} n b I.!.XXXXOX+XG.c.9 7 7 9  XXX XXX+XXXOX@X+X+X+Xv. XS.b.[ :.q.q.q.w.q.+.+.' ' ^ 8 ^ S.v.v.l.l.g.4.3.3.d.a.m.'.oXOX].B.z.",
"S.B.X.n b I.F. XXX+X+X X[ 7 @ @ 7 v. X X X XXXXXXXXX+X+X+X+XS.b.:.q.b.b.+XXXXXq.q.+.q.] 8 ' F.S.v.v.x.g.g.f.f.d.d.d.[.[.OX]. Xc.",
"a.W.*.n n ).F.XXXX X0.H._ @ . O 2 [ D.D.b.b.b.Q. XXXOXXX+XXXXXb.q.w.b.+XXXXX@X+XD.e.e.] 8 ] D.D.D.S.v.v.l.5.l.l.f.N. XOXOX[.XX0.",
",.B.:.A n I. X Xb.I _ b.[ q @ # 8 ' F.D.F.n.n.b.D.Q.XX+X X_ _ q.q.b.b.+XXX+X@X@X!.n.n.] s s F.F.F.S.S.v.c.c.z.g.x.l. X X+X X0.' ",
"K w.>.A n &.p.p.2 8 8 ' w.' [ _ s q F.F.n.b.b.n.F.F.!.b.q P P +.e.] +.XXXX@X@X@X@XF.F.{ q b n.!.F.F.D.D.v.v.c.z.x.x.{.XX+XXXD.+.",
"W :.>.D n b s [ 8 8 P ' 0 q [ _ q a n.XXF.n.I.F.~. Xr.] s q I i.] a p. XoX+X@X@X@X!.^.U b s %.I.~.F.F.F.F.v.b.b.v.S. XQ.[ D.] d ",
"J  .>.;.S b s q 8 V ' [ 0 q _ ` a s s J.XXU.E.XXI.p.b b b Y i.p.Y { i.F.XXoX#X#X#X~.).#.C b b +.I.XX!.J.F.F.F.H.!.e.{ e.P %.p.` ",
"K G >.U.h.` q 8 q ;.c.0.;.' q.,.d s b b h.h.h.h.n n n b T h.h.#.b +.E.E.U.XXoX#X@X).F.p.%.S b b %.h.d.I. X~.r.e.,.] ] s C Y %.R ",
"..;.;.h.p.e.q.0.v.v.Z.G.x.c.q.q.+.d b b n Z A Z A S A R >.M.h.S $ &.W.E.E.oXoXoXXXh.R.&.;.T n Z n #.+.#.h.d.{ { s b b b Y h.>.| ",
",.>.$.#.r.D.S.x.A.].B.].{.x.G.q.r.#.T S R | | D D  .,.V.C.j.B.A % D R.XX).).R.j.T &.&.&.A A A A A A A n b n n b b C T ;.h.R.m.| ",
"q.D S Y e.v.+XOXOXOXOXOXOXOXA.v.b.p.$.} *.D ..C.C.S.C.a.-.e.C. .A F ,.B.R.B.*.v D  .w.| A A D D >.&.A A A S n T %.f.h.j.h.>.>.>.",
"..E T ` w.XX XOXoXoXOXoXOXoX+Xv.b.+.T Z v % v ,.C.G.d.e.W <.G.a. .J J J J J J D  .l.B.>.>. . .*.B.B.M.h.j.j.f.h.j.h.M.M.>.>.:.:."
};
