/* XPM */
static char *result[] = {
/* columns rows colors chars-per-pixel */
"64 64 198 2 ",
"   c #020202",
".  c #302D03",
"X  c #353535",
"o  c #393436",
"O  c #353439",
"+  c #464917",
"@  c #474A26",
"#  c #51562F",
"$  c #575A34",
"%  c #5D6138",
"&  c #676A25",
"*  c #6A6D28",
"=  c #6E722B",
"-  c #676935",
";  c #696835",
":  c #696738",
">  c #6D693A",
",  c #716D3D",
"<  c #767931",
"1  c #74703F",
"2  c #6D6941",
"3  c #716D43",
"4  c #757243",
"5  c #797543",
"6  c #7C7946",
"7  c #767349",
"8  c #79754A",
"9  c #7C794D",
"0  c #7E7A50",
"q  c #A90100",
"w  c #9E2506",
"e  c #A22306",
"r  c #A32309",
"t  c #F60200",
"y  c #894F00",
"u  c #895000",
"i  c #807C47",
"p  c #817D4A",
"a  c #817D51",
"s  c #7F8438",
"d  c #DF8B00",
"f  c #E28700",
"g  c #E18900",
"h  c #F98F00",
"j  c #F69200",
"k  c #F99100",
"l  c #FAEF00",
"z  c #F7F100",
"x  c #FAF000",
"c  c #888C43",
"v  c #84824D",
"b  c #88854F",
"n  c #8F9247",
"m  c #93954A",
"M  c #95994B",
"N  c #95994C",
"B  c #858154",
"V  c #898654",
"C  c #8B8953",
"Z  c #888559",
"A  c #8C895A",
"S  c #908D56",
"D  c #918E5D",
"F  c #9A9856",
"G  c #93915B",
"H  c #99955D",
"J  c #A09D5D",
"K  c #9EA152",
"L  c #A2A556",
"P  c #A4A35C",
"I  c #A6AA5B",
"U  c #A9AD5C",
"Y  c #ADB15F",
"T  c #908C61",
"R  c #949361",
"E  c #9B9A63",
"W  c #9A9965",
"Q  c #A09D64",
"!  c #A29D6E",
"~  c #A39F70",
"^  c #9EA168",
"/  c #A4A065",
"(  c #ABA865",
")  c #A4A46A",
"_  c #A9A56B",
"`  c #A6A96F",
"'  c #ACAA6D",
"]  c #B0AE69",
"[  c #AEB262",
"{  c #B4B865",
"}  c #B4B769",
"|  c #B4B46D",
" . c #A8A674",
".. c #ABA775",
"X. c #ABAB72",
"o. c #AEAA79",
"O. c #B1AE71",
"+. c #B2AE7D",
"@. c #AEB274",
"#. c #AFB07E",
"$. c #B3B475",
"%. c #B8B672",
"&. c #B6B874",
"*. c #BBBB74",
"=. c #B4B37B",
"-. c #B9B67A",
";. c #B6B979",
":. c #BBBC7C",
">. c #C0BD7E",
",. c #BEC077",
"<. c #BEC17D",
"1. c #C2C47B",
"2. c #C6C97E",
"3. c #C9CD7F",
"4. c #97A29E",
"5. c #99A29E",
"6. c #AFB080",
"7. c #B5B482",
"8. c #BAB683",
"9. c #B6B886",
"0. c #BDBA85",
"q. c #BEBC88",
"w. c #9A9FA3",
"e. c #97A1A2",
"r. c #99A2A3",
"t. c #C1BE83",
"y. c #C1BE8A",
"u. c #BEC181",
"i. c #BFC18D",
"p. c #C3C483",
"a. c #C6C985",
"s. c #CACC84",
"d. c #C5C38C",
"f. c #C9C78D",
"g. c #C7CA88",
"h. c #CACD89",
"j. c #CDD183",
"k. c #CED18B",
"l. c #D1D487",
"z. c #D2D58D",
"x. c #D6DA8B",
"c. c #DADD8E",
"v. c #C5C690",
"b. c #C9C791",
"n. c #C6C892",
"m. c #CBCB94",
"M. c #CCCE98",
"N. c #D1CE97",
"B. c #CDD196",
"V. c #CED299",
"C. c #D3D690",
"Z. c #D6D992",
"A. c #DADD95",
"S. c #D2D49C",
"D. c #D5D89E",
"F. c #DEDF9A",
"G. c #F8D997",
"H. c #F6D999",
"J. c #F9D999",
"K. c #DDE18E",
"L. c #DEE194",
"P. c #DEE299",
"I. c #E2E18F",
"U. c #E1E292",
"Y. c #E4E997",
"T. c #E2E49C",
"R. c #E7EA9D",
"E. c #D6DAA0",
"W. c #DADDA3",
"Q. c #DDE1A5",
"!. c #DFE4A8",
"~. c #E6E9A1",
"^. c #EBEDA4",
"/. c #E6E7A9",
"(. c #EEF1A6",
"). c #EEF1A8",
"_. c #F1F3A7",
"`. c #F2F5AA",
"'. c #F6F9AD",
"]. c #F9FCAF",
"[. c #EEE8B1",
"{. c #F1ECB3",
"}. c #F5F1B6",
"|. c #FDFEB3",
" X c #FAF5BA",
".X c #FFFFBB",
"XX c #FFFFC3",
"oX c #FFFFCB",
"OX c #FFFFD3",
"+X c #FFFFDA",
"@X c LightYellow",
"#X c #F7F7F6",
"$X c #F6F8F6",
"%X c #F8F8F6",
"&X c #F7F7F9",
"*X c #F9F7F9",
"=X c #F7F9F9",
"-X c #F9F9F9",
/* pixels */
"} T ( U y.Z.E.'.].'..XoXXXoXXXv.3.o.) ) 9 b V A %.:.z.*.G R u.k.;.A C B B I 0 L L X.0.X.) _ L K ) 8.8.-.=.7.=.=.=.7.;.7.8.o.I I ",
"D T $ $ P Z.E.}.|.].oXXXXXXXoXp.s.o.=.` 6 # s Z %.%.{ S c A m.m.b.=.d.y.y..XOXZ.z.8.8.7.` Q / K / -.7.=.=.j.k.B.V.h.j.=.7.Q 9 0 ",
"c S Z $ $ A.C.C.'.|.'.'.XXoXoXa.o.o.=.) K 9 ' d.d.| V C C :.Y.;.p.d..X+XOXOXOXOXOX+Xk.V.l.l.=.) Q Q =.+.=.k.m.`.m.`.g.h.l.+.8 9 ",
"c C ( B p Z.E.C.k.'._.|._.n.R R o.o.o.=.;.:.0.y.y.@.b b Z $.@.I ' q..X.XOXOXoXOXoXoXOX+Xh.l.+.E , 3 +.+.3.n.oXXXoXXXXX`.b.'.E 7 ",
"| ( Z B p X.Z.C.k.k.o.E & & ; > R o.o.#.+.=.8.9.0.y.X.a B @.' B K .X.X|.OXOXXXoXXXoXoXoX|.OXH 4 , , W o.`.oXoXoXXXXXXXXXd._.s.H ",
"b.[ =.a p ' A.|.|.+.E , > > > S ..a.s.h.j.j.=.) -.8.8.y.0.c.L 6 9 |..X|.|.|.|.'.oX'.oXoX].oX2 > , M X.2.).XXXXoXXX).).XXXX^.).3.",
"/.@.P.' p X.q.8.^ E , , > n G 2.a.oXoXoXoXh.h.j.7.-.7.P ` :.5 5 4 S.'.|.]._.g._.'.oXXXXXXXo.H m m E ..s.(.XXXXXXXX^.^.^.XXXX^.1.",
"P.X.y...p p 6 Q / 1 , m W ' a.a.oXXXoXXXoXoXoXs.h.s.Q , N / 4 4 =.B.M.k.s.a.a._.'.'.'.XXXX..o.X.......a.XXXXXX X^.*.T.}..XXXR.i.",
"F.y.y.X.a 6 6 6 5 1 3 W +.o.p.oXoXXXXXoX.XoXoXoXoXg.s.m H E 1 1 j.M.s.s.g.s.n.'.'.XXoXoXa.R o.E R o. .a.XXXXXXXX^.W &.~.}..XXXq.",
"A.q.X.8.8./ 6 F ) E N E o...'.oXoXXX.XXX XXXXXoXXXXX_.o.s.H , 1 W k.h.s.a.a.s.}.oXe oXoXp.X.H 3 2 ' o.2.XXXX X^.T.%.$.P.T.{..X9.",
"Z.0.` 8.8.x.7.+.=.E 3 , `.'.}.'.XXXX).)._.^._.XXXXoXoXa.s.E 2 , > h.h.a.g.r M.'.oXk r _.s.w H > 4 W o.1.XX_.).^.T.%.&.L.P..X.XP.",
"Z.x.` |..X.X.Xl.l.N , , m._.'.`.`.).~.<.:.~.^.XX XXXXXXXn.2.H > > g.h.s.s.j r r |.e k e k.r H 3 3 X.W ..'._.).Y.-.;.} A.T.{..XL.",
"Z.` |.|..X|.|.OX+.N , H g._.).`._.~.q.*.;.:.q.^.XXXX XXX^.v.W > > M.k.j.k.w z k e e j j e j w W H X.m n (.(.i.i.;.&.$.=.T.{.|.P.",
"Z.P |.|..XoXOXoX+.N , O.s.a.p.p.1.1.0.:.;.;.;.T.^. XXXXXoXv...> > s.k e w w j l j z k x k x r =.=.E , H a.v.i.*.:.;.&.$.T.T..XL.",
"D.8.D.|.oXoXOX+Xo.m , g.n.g.p.p.u.:.<.:.:.;.;.7.~.^.^..XXXoX2.2 > > e j z r r k z j l x k k r r e 1 , H a.p.u.<.:.;.;.$.R..X.XL.",
"8.K C.|.|.OXoXOXo.3 , g.g.s.a.g.p.p.:.:.;.;.;.;.9.^.^.XX.XXXd.G > 1 1 w k z h x z l j k z k j r J 1 , o.a.a.u.<.<.;.;.9.T.T..X$.",
"' K   |.|.OXoXoXE * H h.s.a.a.p.p.>.:.:.-.;.*.;.&.;.R.^.XXXXoXa.m , 4 r e j j x j k x k k l x r r 1 , j._.a.p.u.:.:.;.P.~..XXX&.",
"p ) r.  oXoXoXo.R & ..g.a.s.2.2.2.p.p.<.-.-.;.;.;.&.T.^. XXXXX).o.e k j k k e j e k h r j z k l k e 4 W s.a.p.<.<.:.:.P..X.X.XW ",
"9 ) 5.r.  oX'.h.m > h.m.s.s.a.2.1.p.t.:.:.*.;.;.;.;.9.^. XXXoXp._.H r r j r J.k r k e g r j k k r N , H a.p.1.1.,.*.q.^.^..XoXW ",
"v _ r.%X      s.2 > M.g.g.g.s.2.a.p.p.>.*.*.&.%.;.;.;.^.^. XXX^.n.H H e j e H.e J.e H.f w k h r z.E , H a.p.1.1.,.,.<.^.XX XXX~ ",
"v ' .X-X4.      > > g.h.h.h.h.h.g.g.p.u.<.*.&.&.;.;.;.~..XXXXX^. .> r k e r G.G.H.y y J.e w j h r W * H a.p.p.<.1.:.:.)..XXXoX! ",
"B ' .Xr.$Xe.      3 h.g.g.h.h.h.g.s.p.p.<.*.*.-.;.;.9.~.~..X.Xi.<.: n r     J.g y   *XJ.e d e h j r & H f.p.p.u.:.u.<.^.). XXX) ",
"b ' XXOX4.=X5.        M.h.h.h.h.h.g.2.p.<.:.-.;.;.$.F.~..XXXT.R.,.A .. .  o J.G.g X =XH.r H.e e r +.& H a.p.p.<.p.<.u._.XXXXXX .",
"C @..X.Xr.-Xr.          N.k.k.h.h.s.2.1.<.<.:.;.$.9.T.{..X.X;.;.! ~ G G   f G.J.J.J.H.H.f d r OX].+.& S a.p.p.>.p.u.i.`._.XXXX..",
"C O..XOXOXe.&Xr.            m.h.k.h.p.1.<.:.-.;.%.A.T.{..X.X7.;.W ,.~ D R   u J.J.J.H.g   e     `.s., S a.p.p.1.1.u.^.`.XXoXOXo.",
"C $..X.XoXOXr.-Xr.            z.k.h.2.2.p.:.:.;.$.A..X.X|..X$.%.;.XXXX_.<.  g u u G.g   e.  X t   s.> D a.p.1.1.1.1.^.oXoXoXoXo.",
"C $.P..XOXOXOXe.=Xr.              h.f.p.p.:.;.;.7.~.T.|.|.7.Z.$.7..X.X.XXX(.  d J.g   g r.X q       2 H a.p.p.1.2.a.'.|.oXoX'.^ ",
"D $.P.XX.XoXOXr.#X#Xw.e.            h.p.1.<.&.%.$.T.|.[.|.@.Z.$.A..X}.XX^.).        g g e.X t   X X   R a.g.a.2.2.a.'.oXoXOXl.E ",
"D C !.XXOXOXOXV.e.&X%X*X5.              p.>.&.%.$.F..X|.|.Z.Z.+..X.X.X.X}.^.    X w.f -XX q     X X X   o.m.g.h.h.m.|.OXoXOXl./ ",
"D C /..X.XOXOXV.V.e.%X%X%Xw.r.              &.%.$.T.F.[..XZ.F.X.|..X.X{.R.}.      X r.&XX t   X X X X   W h.h.h.h.k.|.|.OX+Xx._ ",
"G C /.XX+X+XOX].k.Q w.%X&X-X-X5.                $.T..X|.|.Z.F.X.|..XP.~.P.}.        X r.X q   X X X     W k.k.k.k.k.|..X+X|.c.I ",
"D C !..X.XOXOX|.6.3 = w.%X*X#X*Xr.r.              T.T.[.|.A.F.[.|.T.P.7.9.~.          O     X X   X     W k.z.z.z.C.E..X.XL.L.I ",
"R C .X.X+XOX|.].W + . @ r.%X-X-X-X$Xr.                .XXXA.@.P.T.T.P.$.;.~.                X X   X     = l.D.C.C.Z.Z.|.y.L.U.Z ",
"G C L.XXOXOX|.V.7.@ . @ 1 r.-X%X*X-X=Xe.r.                $.R P.P.T.L.| $.P.              X X X   X     4 ) l.|.E.E.|.c.B O.$.A ",
"D V =.Q.OXOX|.'.j.E 3 * 1 H r.r.-X-X%X&X-Xr.r.                7.F.7.$.=.%.            X X X X X   X   5.  4 5 8.8.0.q.v v @.=.[ ",
"{ C v y.E.C.z.k.s.s.+.H , 1 E h.r.-X#X-X$X=X-Xe.4.                $.$.$.&.        %X-X%XO X X X   X   r.  5 5 6 6 9 p v b ;.n.0.",
"<.C v v ) z.S.].g.g.oXo.2 , , , M.r.-X-X%X%X*X&X*Xr.r.                -.;.      4.y y y =XX o X       r.    8 9 9 9 p p ' d.m.m.",
"0.V v 6 / z.h.oXOXoXOX`.o.m > , s.B.r.4.=X%X%X*X%X#X*Xe.r.                      g g g u   %XX O               / ` 0.0.p.d.&.| %.",
"S % U q.Z.S.OXOXoXoXOX].`.3.N > W h.V.h.r.r.&X%X%X#X$X=X*Xr.r.r.      ` L.: d J.f d y       =XX                 P 8.0.y.' v V C ",
"- . I K.z.OXoXoXoXoXoXOX`.`.R 3 Q 6.k.S.k.].r.r.=X-X$X-X*X*X-X$X  1.  ; X.d H.H.J.g   4.    %XX               X   ;.0.` I b b C ",
"C $ ` 0.|.oX|.].oXoXXXoXoX'.o.H , 4 3 l.S.].|.OXr.r.%X-X-X-X*X-X  s.2.  ; f y H.J.g     4.    -XX             X O   7.` _ ' ] V ",
"&.U I x.|.|.|.].'.`.XX'.oX_.m.W , 4 4 ) z.|..X|.) l.r.5.%X-X$X  h.h.        g J.g   f g   r.r.%X                X     ;.-.0.d.O.",
";.U v ( S.'.n.n.a.^.'.oXoXoX_.g.N 1 5 5 7.Z.Z.8.J J Q 8 r.r.r.4.k.    X           y g u y         X.' ' U.U.o   X   X   ;.8.` ' ",
"n.( 6 / l.'.m.a.2.).`.`.XXoXoXo.3 4 1 5 5 5 6 5 6 L 8._ 6 ) z.Z.z.    X               d g   K.  ` - - - > ` I.U.X   X   +.-.0.:.",
"d.@.i 5 J k.g.2.n.`.XXoXXX'.s.o.4 = 1 F 8 6 6 9 _ 8.x.Q 6 6 x.D.    X                     X.'   >       X - ' ` U.o   X   l.;.8.",
"g.@.p 6 J k.g.a._.`.XXXXoXoXs.+.N = 5 8./ K 9 9 Q _ 8._ 6 6 ` D.    X                                   X   - ; X.I.  X   h.=.8.",
"d.U.( 6 5 k.j.m.].XXoX'.'.g.o.W N 4 5 -.7.8.) 5 8 6 L ` 9 9 6     X X                                   O     X ; ' c.  X   +.+.",
"g.d.' 6 5 k.k.`.'.XXoXoXoXh.H E H 4 N 7.7.8.K 5 6 6 / 0./ 6   X   X                                       X   X   - X.K.o   3.O.",
";.d.' 6 6 z.k.'.oXoXoXoXg.H , N +.=.C.k.E.C.8.) Q  .` 7.`   X X   X                                       X   X X   ; X.c.X   Q ",
"$.$.@.9 6 x.S.|.|.oXoXoXV.E 3 4 +.l.C.z.OX|.|.D.D.|.x.8.8.    X   X                     ) Q               O     X     - X.U.L.+.",
"%.=.[ p 6 Z.Z.|.OXoXOXk.V.) H / =..XOXOXOX+XOX|.D.|.z.C.x.8.6                         Q 4 J h.z.          X     X X   X ; - ' X.",
"g.f.| v v A.E..XOXOXOX].k.E Q / J .X.X|.+XOXOX+XOXOXOX|.S.      r.e.w.            0 L Q 5 Q z.z.k.h.2.          o X       - ; ; ",
"m.h.| v v U.W..X.XoXOXS.l.8 5 5 7 |..X.X.XOX.XoXOXOXOXOX    r.w.  r.r.4.         .) / _ 6 ) C.z.k.k.h.2.2.      X             j.",
"m.N.| b v P.A.|..XOXOX|.) 5 @ @ 5 x.|.|.|.|..X.X.X.XOXOX                OX.X.X8.8.` 0.) 6 / C.Z.z.z.k.g.s.s.        r.#X  4.&X  ",
"0.R.| b b Q.P.|..X|.8.D.) @ . + < ` Z.Z.x.x.x.E.|..XOX.XOX.X.Xx.8.8.x.OX.X.XOXOXA.0.0._ 6 _ A.Z.Z.C.C.z.h.3.g.h.s.              ",
":.N.%.C b U..X|.c.K ) l.` 6 @ # 6 ) A.Z.A.x.c.x.Z.E..XoX|.) / 8.8.x.x.OX.X+X+X+XW.x.c._ i 9 A.A.Z.Z.C.z.l.l.j.s.h.h.|.|.OX|.7.) ",
"G 0.;.C v @.y.q.< 6 6 ` 7.) ` / 9 i Z.A.x.c.c.x.A.A.W.x.9 K L  .0._ X..X.X+X+X+X+XF.A.' 9 v K.W.A.A.Z.Z.z.l.l.l.z.k.].|.OX.XZ.o.",
"R -.;.A b b i X.6 6 K ) 8 9 ` / i p A.|.A.A.K.A.W..Xq._ p p L t._ 9 y.|.XXOX+X+X+XW.W.I p v X.L.Q.A.A.A.Z.x.x.C.C.C.|.D.` A.' 0 ",
"G { ;.=.Z v p 9 6 K ) ` 8 8 / ( p p p A..XT.T..XL.p.v v p I t.y.I ' t.A..XXX@X@X+X!./.X.B v v X.K..XW.F.A.A.Z.D.E.8.` 0.L X.y.I ",
"G T ;.Y.d._ 9 6 8 =.k.=.-.) 8.:.a p b v d.y.d.d.b B b v U d.d.O.v O.T.P.P..XXX@X@XQ.P.y.@.Z v v @.d.p.L..XW.y.t.t._ _ p v I @.[ ",
"} :.=.d.y.0.8.7.z.k.B.V.k.l.8.8.X.a p B b b b C C Z C Y ;.b.d.Z $ $.Y.T.T.XXXXXX.Xd.Y.;.$.U C Z V O.O.O.p.y.' ' v v v v I d.=.[ ",
":.-.$.X.q.Z.z.k.V.'.m.'.'.z.S.8.y.X.U Z Y Y { A D { :.m.N.m.b.C % A Y.XX/./.Y.b.Y ;.$.O.Z C C C V C C v b b b v v B U =.v.Y.n.[ ",
"0.A Z P q.z.OXOXoXoXoXoXoXOXV.l.Z.y.O.%.%.A { m.N.N.N.i.*.:.M.{ C S <.m.R.m.%.c C [ :.[ C C V A -.$.V V Z Z b U @.p.d.v.b.;.;.;.",
"} A ( ( 8.|.|.oXXXXXXXXXoXXXOXC.x.O.U a c % c >.S.S.p.:.R >.S.p.{ G S G G G S A { m.m.;.;.{ { %.m.m.m.g.f.f.a.d.g.d.f.b.;.$.-.-."
};
