/* XPM */
static char *result[] = {
/* columns rows colors chars-per-pixel */
"64 64 200 2 ",
"   c #020202",
".  c #302D03",
"X  c #353535",
"o  c #383435",
"O  c #363539",
"+  c #464917",
"@  c #474A26",
"#  c #51562F",
"$  c #575A34",
"%  c #5D6138",
"&  c #676A25",
"*  c #6A6C27",
"=  c #6D712A",
"-  c #686734",
";  c #666936",
":  c #6A6835",
">  c #6A663E",
",  c #6D693A",
"<  c #716D3D",
"1  c #767931",
"2  c #74713F",
"3  c #6D6941",
"4  c #716D43",
"5  c #757243",
"6  c #797543",
"7  c #7C7946",
"8  c #757249",
"9  c #79754A",
"0  c #7C794D",
"q  c #7E7A50",
"w  c #A90200",
"e  c #9E2506",
"r  c #A22306",
"t  c #A32308",
"y  c #F70200",
"u  c #FB0200",
"i  c #894F00",
"p  c #885000",
"a  c #807C47",
"s  c #817D4A",
"d  c #817D51",
"f  c #7F8438",
"g  c #DE8A00",
"h  c #E38700",
"j  c #E18900",
"k  c #F88F00",
"l  c #F69200",
"z  c #F99100",
"x  c #F9EF00",
"c  c #F7F100",
"v  c #F9F000",
"b  c #888C43",
"n  c #84824C",
"m  c #88854F",
"M  c #8F9247",
"N  c #929549",
"B  c #95994B",
"V  c #95994C",
"C  c #858154",
"Z  c #898654",
"A  c #8B8953",
"S  c #888559",
"D  c #8C895A",
"F  c #908D56",
"G  c #918E5D",
"H  c #9A9857",
"J  c #93915B",
"K  c #99955D",
"L  c #A19D5E",
"P  c #9EA152",
"I  c #A2A556",
"U  c #A4A25D",
"Y  c #A6AA5B",
"T  c #A9AD5C",
"R  c #ADB15F",
"E  c #8F8B60",
"W  c #949361",
"Q  c #989862",
"!  c #9C9A63",
"~  c #9D9C6A",
"^  c #A09D64",
"/  c #A29D6E",
"(  c #A39F70",
")  c #9EA168",
"_  c #A4A065",
"`  c #ABA865",
"'  c #A4A46A",
"]  c #A9A56B",
"[  c #A6A96F",
"{  c #ABAA6D",
"}  c #B0AE69",
"|  c #AEB262",
" . c #B4B865",
".. c #B4B769",
"X. c #B4B46D",
"o. c #A8A574",
"O. c #ABA775",
"+. c #ABAB72",
"@. c #AEAA79",
"#. c #B1AE71",
"$. c #B2AE7D",
"%. c #AEB274",
"&. c #AFB07E",
"*. c #B3B475",
"=. c #B8B673",
"-. c #B6B874",
";. c #BBBB74",
":. c #B4B37B",
">. c #B8B67A",
",. c #B6B979",
"<. c #BBBC7C",
"1. c #C0BD7E",
"2. c #BEC077",
"3. c #BEC17D",
"4. c #C2C47B",
"5. c #C6C97E",
"6. c #C9CD7F",
"7. c #97A29E",
"8. c #99A29F",
"9. c #B6B481",
"0. c #BAB683",
"q. c #B6B886",
"w. c #BDBA85",
"e. c #BEBC88",
"r. c #9B9FA3",
"t. c #97A2A2",
"y. c #99A1A2",
"u. c #C1BE83",
"i. c #C1BE8A",
"p. c #BEC181",
"a. c #BFC18D",
"s. c #C3C483",
"d. c #C6C985",
"f. c #CACC84",
"g. c #C5C38C",
"h. c #C9C78D",
"j. c #C7CA88",
"k. c #CACD89",
"l. c #CED183",
"z. c #CED18B",
"x. c #D1D487",
"c. c #D2D58D",
"v. c #D6DA8B",
"b. c #DADD8E",
"n. c #C5C690",
"m. c #C9C691",
"M. c #C6C992",
"N. c #CBCB94",
"B. c #CCCE98",
"V. c #D1CE97",
"C. c #CDD196",
"Z. c #CED299",
"A. c #D3D690",
"S. c #D6D992",
"D. c #DADD95",
"F. c #D2D49B",
"G. c #D5D89E",
"H. c #DEDF9A",
"J. c #E2DF90",
"K. c #F8D897",
"L. c #F6D999",
"P. c #F9D999",
"I. c #DBE08F",
"U. c #DEE194",
"Y. c #DEE299",
"T. c #E1E293",
"R. c #E4E997",
"E. c #E2E49C",
"W. c #E7EA9D",
"Q. c #D6DAA0",
"!. c #DADDA3",
"~. c #DDE1A5",
"^. c #DFE4A8",
"/. c #E6E9A1",
"(. c #EBEDA4",
"). c #E5E7AB",
"_. c #EEF1A6",
"`. c #EEF1A8",
"'. c #F1F3A7",
"]. c #F2F5AA",
"[. c #F6F9AD",
"{. c #F9FCAF",
"}. c #EEE8B1",
"|. c #F1ECB3",
" X c #F5F1B6",
".X c #FDFEB3",
"XX c #FAF5BA",
"oX c #FFFFBB",
"OX c #FFFFC3",
"+X c #FFFFCB",
"@X c #FFFFD3",
"#X c #FFFFDA",
"$X c LightYellow",
"%X c #F7F7F6",
"&X c #F6F8F6",
"*X c #F9F8F6",
"=X c #F7F7F8",
"-X c #F9F7F9",
";X c #F6F9F9",
":X c #F9F8F9",
/* pixels */
"..E | ` i.S.Q.[.{.[.OXOXOX+XOXM.6.$.) ' s n Z D =.<.c.;.J W p.k.<.D A n C Y d I I +.e.[ ] ] I P ` 0.0.:.9.:.:.:.9.:.:.9.0.O.Y Y ",
"G E $ # U D.F.{..X XOX+XOXOX+Xs.f.@.:.[ 7 # f Z =.=. .F b G B.N.n.:.g.i.e.oX@XS.c.0.0.9.[ ^ _ H _ ,.0.:.:.l.z.C.Z.k.l.:.:.' 0 q ",
"b F S $ $ S.S.A.{..X[.[.OX+X+Xd.@.@.:.) P 0 +.g.g.X.Z A A ,.R.:.s.g.OX#X#X#X#X@X@X#Xz.Z.x.x.:.' ^ ^ :.$.:.l.B.].N.'.f.z.f.:.9 0 ",
"b D | C s S.Q.A.c.].].{.`.M.K Q @.O.$.:.>.<.e.i.i.%.m m Z %.:.T ` i.oXoX@X@X+X+X+X+X@X#Xk.x.$.^ 2 4 $.@.6.M.+X+X+X+X+X_.N.[.! 8 ",
"} | S d d #.S.A.z.z.@.! & & ; > Q @.@.:.$.:.9.0.i.e.#.d C %.{ n I oXoX.X@X+XOX@XOX+X+X+X.X+XK 5 < < ! +.].OX+XOXOXOXoXOXm.'.f.K ",
"m.` :.d s ] S..X.X:.K < , , > V O.d.j.j.l.l.:.' >.0.0.i.e.b.I 7 0 .X.X.X.X.X.X[.+X[.+X+X{.+X4 , < B @.5.`.+XOX+XOX`.`.OXOX(.`.6.",
").:.U.+.s +.w.w.) ! < < < M J 5.s.+X+X+X+Xk.z.l.$.:.:.^ [ <.7 6 5 Z.[..X.X].d.`.[.+X+XOXOX@.H M M ! O.d._.OXOXOXOX(._.(.OXOXW.s.",
"H.{ i.+.s s 7 ^ ^ 6 4 N Q { d.s.+XOX+XOX+X+X+Xf.k.x.^ < B ^ 2 5 :.C.B.l.j.5.f.`.e [.[.OXOXo.@.@.+.@.O.d.OXOXOXXX(.,.E. XoXOXE.g.",
"H.i.i.+.0 7 7 6 6 2 4 ~ $.O.d.+X+XOXOX+XOXOX+X+X+Xj.f.V ! ! 2 2 l.B.k.j.t d.M.[.z e +X+Xt Q @.! Q +.O.s.OXOXOXOX(.~ ,./. XoXoXq.",
"D.e.o.w.0.] 9 H ' ^ V Q O.O.[.+X+XOXXXOXXXOXOXOX+XOX].+.6.K < < ! k.k.f.z r t [.t z r +Xr +.K 3 4 +.O.5.OXOXXX(.E.=.*.Y.E. XoXq.",
"S.e.[ 0.w.v.9.9.:.! 4 < ]..X[.].OXOX`.`.].`.`.OXOXOX+Xd.j.! 3 < < j.j.l.r v z t r z l t z t K < 4 Q @.5.OX`.`.(.E.X.-.D.E.oXoXY.",
"S.v.[ .XoX.X.Xx.l.V 4 < N.`.[.].].'./.<.<.E.`.OXXXOXOXOXM.5.K , , z t e t z c z x z v z z t K 4 5 @.Q +.].].`.R.;.,.X.U.E.|.oXY.",
"S.[ .X.XoX.XoX@X$.N < K j.`.`.].`./.e.2.;.<.q.(.OXOXXXOX(.M.Q , , t z c z t z c c c c z c r t t K +.N M _._.a.a.,.,.*.9.E.|..XU.",
"b.L .X.X.X+X@X+X$.V < #.j.d.s.s.4.4.<.<.,.,.,.E.(.XXOXOXOXM.@., , l.r z c z v c c z c x z z e $.:.! < K d.n.a.;.,.,.,.*.E.E.oXY.",
"G.0.G..X+X@X+X#X@.N < j.N.d.d.s.p.w.3.<.,.<.,.q.(.(.(.XXOX+X4.3 , 2 r e z z v z z v z z v c t t ' < < K d.s.p.3.,.;.-.*.E.oX.XH.",
"0.P c..X.X+X@X@X@.4 < k.j.j.d.s.s.s.<.,.<.,.,.,.q.(.(.OXXXOXM.J t l z z z e z t z z r z v k v k t 2 < @.d.d.p.3.3.<.,.q.W.E..X,.",
"{   A..X.X+X+X+X! * K k.j.j.5.s.s.u.<.<.<.-.>.,.=.<.E.(.OXOXOXd.N t t k t P.z t k t j e z z z e ) 5 , f.].s.s.3.<.<.,.E./.oXOX-.",
"s 7.  .X+X@X+X@.W & +.j.j.5.5.5.4.s.s.<.<.-.>.,.-.,.E.(.XXOX+X'.@., t z t P.t L.t L.g t z z t A.' 8 2 ~ j.s.s.4.3.<.,.Y.oXoXoX~ ",
"s t.t.  @X+X[.k.N , j.B.k.d.5.5.5.s.u.1.<.;.,.-.-.,.q.(.XX+XOXs.`.t k t j L.L.P.i i P.t e z l e v.V , H j.f.4.4.2.;.e.(.(.oXOX~ ",
"n y.:X      ].f.3 < N.j.j.k.f.5.d.s.s.1.;.;.-.=.,.<.,.(.(.XXOX(.M.K t     P.j i   *XP.t j r z z t ! < Q j.s.4.<.2.2.3.(.OXXXOX/ ",
"n { :Xy.      f., , j.j.k.k.k.k.j.j.s.s.<.;.;.,.,.,.,./.oXOXOX(.o.: N   X L.P.j O %XP.t L.r t r {.~ * K s.s.s.4.3.<.<.`.oXOX+X( ",
"m ] y.:Xy.        < k.k.k.k.k.k.j.d.s.s.3.;.;.,.,.,.q././.oXoXa.3.> M   g P.P.L.L.P.L.j j t @X@X[.$.* K j.j.s.3.4.s.<.`.(.XXOX' ",
"m { oXy.:X7.        @.B.k.k.k.k.k.k.5.s.w.<.<.-.,.*.H./.oXOXE.W.2.F O.o.  p P.P.P.L.j   t     @X[.$.& K s.s.s.p.3.3.4.`.OXOXOXo.",
"Z *.oXoXy.=Xt.        B.Z.k.C.k.k.f.5.4.2.<.<.,.*.q.E.|.oXoX,.,.( ( J J   j i i L.j   y.  o y   [.@.& F s.s.s.s.p.p.a.`.].OXOXO.",
"A #..X#X#Xt.%X7.          z.z.k.z.k.f.4.3.<.<.,.-.H.E.}.oXoXq.,.~ ;.( J J   g P.j   j y.X u       f.< F s.s.s.4.s.s.(.].OXOX@X@.",
"A *.oXoX+Xt.%X:Xy.            z.k.k.f.4.4.w.<.*.*.D.oXoX.XoX*.X.,.oXOX`.3.        j h 7.X w   X X   > K d.s.4.4.4.4._.+X+X+X+X@.",
"A *.Y.oX@X@Xr.:X:Xr.              k.d.s.4.<.<.-.9.E.E..X.X9.D.*.q.oXOXOXOX    X 7.j j t.X y   X X   3 J d.d.s.s.4.d.[.[.+X+X[.) ",
"G *.Y.OXoX+X@Xt.*X%Xy.y.              s.s.<.;.-.*.E.oX}..X#.S.%.D.oX|.oX(.      o g &XX y   O X X X   J d.d.d.5.5.d..X+XOX@Xz.! ",
"G A ^.OX#X@X@XZ.y.*X%X:Xy.                ;.;.X.*.Y.oX.XoXS.A.$.oXoXoXoX X      X t.=Xo w   X o X X   * @.B.j.k.d.B..X@X@X@Xx._ ",
"G A ^.oXoX+X@XF.Z.y.&X*X*Xy.y.                -.X.E.Y.}..XS.H.*..XoXoX|.W.        X y.X u   X O X     4 ! k.k.k.k.z..X.X#X@Xv.] ",
"J A ).OX#X#X@X{.z.^ r.=X:X:X;X7.y.                /.XX.XoXS.H.+..XoXE.E.E.          O     X o   O     4 ! k.z.z.z.z..XoX#X.Xb.Y ",
"J A ^.oXoX#X@X{.:.4 = r.*X:X=X=X-Xy.r.                }..XS.H.}..XE.E.9.                X X X   o     ! ! z.A.c.c.A.Q.oXoXD.I.T ",
"J A oXOX#X@X{.{.! + . @ y.7.:X*X:X:X&Xt.y.                D.@.H.E.E.E.*.            X X o o O   X   y.  = x.G.c.S.A.S..Xi.U.T.S ",
"W A T.oX+X#X.XZ.9.@ . @ 4 ' y.:X:X*X*X:X:X7.r.                E.Y.E.D.X.          :X:X%Xo X O   X   7.  5 ' x..XQ.Q..Xb.C #.*.D ",
"G S *.~.#X#X.X{.k.K 4 * < ! $.t.&X&X:X&X&X%X:Xt.y.t.                *.*.        y.i p i &XX X       t.    5 7 0.w.e.e.n n #.:.{ ",
" .A m i.G.c.c.z.f.f.$.K < < ! f.y.y.=X=X:X*X:X&X*X%Xt.8.                        j j j i   &XX               6 7 7 7 s n m ,.[ U.",
"3.A n n ] c.F.[.z.j.+X@.3 < < < B.k.y.y.:X:X:X:X:X*X*X%Xr.t.            U.: j K.j j p     -XX                 0 0 0 s s +.+.T.T.",
"<.D n 7 ' c.k.+X@X+X@X].@.N < < l.Z.c.k.7.7.:X=X%X:X:X;X:X:Xy.r.      U.[ j P.P.L.j   y.    :X                  [ e.1.u.g.{ D.+.",
"V % Y i.A.F.@X@X+X+X@X{.`.f.N < ~ k.B.k.k.{.y.:X:X*X%X&X%X:X:X&X  2.  +.- j i L.K.j     r.7.&X              o   L 0.e.i.{ J.+.F ",
"% . Y b.c.@X+X+X+X+X+X@X].].K 4 ! $.c.F.c.{..X8.y.y.:X*X:X=X*X  s.4.4.      g j j   j p     y.              O     ,.w.+.+.T.[ A ",
"A $ { 0..X+X.X{.+X+XOX+X+X.X@.Q < 2 5 x.F.{..X#X@X{.y.t.:X:X*X  d.5.              p p p j                     X     0.[ - [ } Z ",
"=.T Y v..X.X.X[.[.].OX].+X`.M.! < 5 5 ' c..XoX.X' x.' 6 y.y.y.y.k.    X             p j   { +.            X   o     l.>.: +.i.#.",
",.T a { F.[.N.M.d.`.].+X+X+X].j.V 2 2 6 9.c.v.0.I U ^ 9 7 ^ z.c.z.  X                         T.          X     O     ; [ : +.{ ",
"h.{ a _ l.[.N.d.4.`.[.].oX+X+X@.4 4 6 6 6 7 7 7 2 L w.] 7 _ A.A.    X                       - J.      X     X   O     - +.; w.<.",
"h.+.a 6 U z.f.5.M.[.oXOXOX[.j.@.5 = 2 H 9 7 7 0 ] w.v.] 7 7 v.G.  X X                       - +.U.    o     X   X   o : [ x.-.0.",
"h.%.s 7 ! z.f.j.`.].OX+X+X+X6.@.B = 9 9.^ P 0 0 ^ ] 0.^ 7 7 [     X                           < +.T.    X   X   X   : [ - z.$.:.",
"h.T.` 7 5 z.l.M.[.OX+X[.[.d.@.) V 2 6 >.0.0.' 7 9 7 P [ q 7   X   X                             : [ +.[ o   O     { - o.  N.$.:.",
"j.g.[ 7 6 z.z.[..XOX+X+X+Xk.K ! K 5 V 9.9.>.H 7 7 7 ' w.'   X     X                               : ; : { { +.+.[ : +.o   N.f.#.",
",.g.{ 7 7 c.z.[.+X+X+X+Xj.K < V $.:.A.c.Q.A.0._ ^ [ [ 0.  X X   o o                     = H           : : - - - : -     O   f.! ",
"*.*.#.7 7 v.F..X.X+X+X+XZ.! 4 5 $.c.c.c.#X.X.XG.G..Xv.0.w.                          :.^ ' Q c.k.        X     X     X   o   C.@.",
"=.,.X.n 7 b.A..X#X+X+Xz.Z.) H / 9..X@X@X@X@X#X{.G..XA.A.        t.y.y.            9 P ^ 6 L z.k.k.j.          X X   O       j.@.",
"j.j.{ n n D.!.oX@X@X@X{.z.^ ^ _ L oX.XoX#X@X@X#X#X@X#X    y.t.  y.y.y.          ' 0 L ^ 6 ^ c.c.z.k.5.        X             [.l.",
"N.h.X.n n D.G.oXoX+X#XF.c.9 5 6 8 .XoXoXoX+XoX+X@X@X#X                0.0.0.0.[ [ ] ^ ] 7 ' c.c.c.k.k.5.5.        y.=X  7.&X  l.",
"V.N.X.m n T.H..XoX@X@X{.' 6 @ @ 6 v..X.X.X.XoXoX.XoX@X@X@X@Xc.v.>.0.v.v.@XoXoXe.w.[ 0.' 7 _ A.S.c.c.z.f.5.j.f.s.              c.",
"3.W.X.Z Z ~.U.oXoX.X0.G._ @ . + 1 +.S.S.b.v.v.G..XoX+XoX@XoXoXv.0.0.v.@XoXoX#X@XS.w.i.] 7 { D.A.A.A.c.c.c.f.j.k.j.M.{.+X+X[..X0.",
"<.V.=.A m T.oX.Xv.I _ v.[ 7 @ # 7 ] S.S.S.v.b.v.A.!.oX@X.X_ _ 0.0.v.v.#X.X#X#X#X!.b.v.] a 0 D.D.S.S.S.c.x.l.x.6.z.k..X.X@X.X0._ ",
"J w.,.A Z *.i.e.1 7 7 ' q.' [ _ q 7 S.D.b.b.b.b.S.D.Q.b.7 I I [ 0.' +.OXoX#X#X#X#XD.D.] s s I.!.D.D.A.v.c.x.c.l.z.z.{..X#XoXS.+.",
"W >.,.D m n a +.7 7 P [ 9 0 [ _ 7 s D.oXH.b.D.D.~.oXe.] s a I i.` n e..XOX@X#X#X$X!.^.Y n n +.U.~.D.U.D.S.v.v.c.c.A..XG.[ S.] d ",
"J ..<.:.Z s s 7 7 P ' ' 9 9 ] U s s s U..XY.Y.oXT.i.n n s Y u.i.I { u.U.oXoX#X$X#X!.).{ d n n +.U.oX~.D.D.D.b.G.!.w.[ i.I +.i.T ",
"J G ,.T.g.[ 0 7 9 :.x.:.>.' w.<.d s n n g.g.g.n.m m n m T g.i.#.n +.E.E.Y.OXOX$X#X).I.g.&.Z m n %.g.g.U..X~.i.w.<.] ] s n Y &.| ",
"..>.:.g.i.e.0.9.c.c.C.Z.z.x.9.w.+.d n C m m Z Z A D A | ,.h.M.S $ *.R.E.E.OXOXOXoXn.T.:.,.T A S Z #.#.{ g.i.{ { s s n n Y g.,.| ",
"<.<.#.+.i.S.c.c.N.].B.[.[.c.G.9.e.O.Y Z R | | D D | <.N.V.h.m.A % D R.OX).).R.h.| -.:.*.Z Z A A S A A A m m m n n Z Y ,.g.R.M.| ",
"0.D D Y q.c.@X@X+X+X+X+X+X@XV.c.b.i.#.#.=.D  .V.V.V.F.p.;.w.N. .A F 3.N.W.N.=.b A | ,.| A A D D ,.=.A Z Z Z m T %.j.g.h.m.:.*.,.",
"..D ` ] 0..X.X+XOXOX+XoX+XOX@Xc.b.#.T Z b % b 1.F.F.s.<.Q 1.F.s...J F J F J J D  .N.B.,.,. .| =.N.m.m.j.h.h.f.n.n.g.m.m.,.-.>.>."
};
