/* XPM */
static char *result[] = {
/* columns rows colors chars-per-pixel */
"64 64 198 2 ",
"   c #020202",
".  c #302D03",
"X  c #353535",
"o  c #363539",
"O  c #464917",
"+  c #474A26",
"@  c #51562F",
"#  c #575A34",
"$  c #5D6138",
"%  c #676A25",
"&  c #6A6D28",
"*  c #6D712A",
"=  c #686735",
"-  c #676934",
";  c #6A6835",
":  c #6A663B",
">  c #6D693A",
",  c #716D3D",
"<  c #767931",
"1  c #74713F",
"2  c #6D6A41",
"3  c #716D43",
"4  c #757243",
"5  c #797543",
"6  c #7C7946",
"7  c #757249",
"8  c #79754A",
"9  c #7C794D",
"0  c #7E7A50",
"q  c #AA0100",
"w  c #9E2505",
"e  c #A22306",
"r  c #A22309",
"t  c #F90200",
"y  c #8A4F00",
"u  c #885000",
"i  c #807C47",
"p  c #817D4A",
"a  c #817D51",
"s  c #7F8438",
"d  c #DE8900",
"f  c #E28700",
"g  c #E18900",
"h  c #F98F00",
"j  c #F69100",
"k  c #F99100",
"l  c #F9EF00",
"z  c #F7F100",
"x  c #F9F100",
"c  c #888C43",
"v  c #84824C",
"b  c #88854F",
"n  c #8F9247",
"m  c #929549",
"M  c #95994B",
"N  c #96994C",
"B  c #858154",
"V  c #898654",
"C  c #8B8953",
"Z  c #888559",
"A  c #8C895A",
"S  c #908D56",
"D  c #918E5D",
"F  c #9A9857",
"G  c #93915B",
"H  c #99955D",
"J  c #A19D5E",
"K  c #9EA152",
"L  c #A2A556",
"P  c #A4A25D",
"I  c #A6AA5B",
"U  c #A9AD5C",
"Y  c #ADB15F",
"T  c #8F8B60",
"R  c #949361",
"E  c #9B9A63",
"W  c #9A9965",
"Q  c #A09D64",
"!  c #A29D6E",
"~  c #A39F70",
"^  c #9EA168",
"/  c #A4A065",
"(  c #ABA865",
")  c #A4A36A",
"_  c #A9A56B",
"`  c #A6A96F",
"'  c #ABA96D",
"]  c #B0AE69",
"[  c #AEB262",
"{  c #B4B865",
"}  c #B4B769",
"|  c #B4B46D",
" . c #A8A574",
".. c #ABA775",
"X. c #ABAB72",
"o. c #AEAA79",
"O. c #B1AE71",
"+. c #B2AE7D",
"@. c #AEB274",
"#. c #AFB07E",
"$. c #B3B475",
"%. c #B8B673",
"&. c #B6B874",
"*. c #BBBB74",
"=. c #B4B37B",
"-. c #B9B67A",
";. c #B6B979",
":. c #BBBC7C",
">. c #C0BD7E",
",. c #BEC077",
"<. c #BEC17D",
"1. c #C2C47B",
"2. c #C6C97E",
"3. c #C9CD7F",
"4. c #97A39E",
"5. c #99A29E",
"6. c #AFB080",
"7. c #B5B482",
"8. c #BAB683",
"9. c #B6B886",
"0. c #BDBA85",
"q. c #BEBC88",
"w. c #9A9FA2",
"e. c #97A2A3",
"r. c #99A2A3",
"t. c #C1BE83",
"y. c #C1BE8A",
"u. c #BEC181",
"i. c #BFC18D",
"p. c #C3C483",
"a. c #C6C985",
"s. c #CACC84",
"d. c #C5C38C",
"f. c #C9C78D",
"g. c #C7CA88",
"h. c #CACD89",
"j. c #CED183",
"k. c #CED18B",
"l. c #D1D487",
"z. c #D2D58D",
"x. c #D6DA8B",
"c. c #DADD8E",
"v. c #C5C690",
"b. c #C9C791",
"n. c #C6C892",
"m. c #CBCB94",
"M. c #CDCE98",
"N. c #D1CE97",
"B. c #CDD196",
"V. c #CED299",
"C. c #D3D690",
"Z. c #D6D992",
"A. c #DADD95",
"S. c #D2D49B",
"D. c #D5D89E",
"F. c #DEDF9A",
"G. c #F7D996",
"H. c #F7D999",
"J. c #F9D99A",
"K. c #DEE18E",
"L. c #DDE194",
"P. c #DEE299",
"I. c #E1E18F",
"U. c #E1E292",
"Y. c #E4E997",
"T. c #E2E49C",
"R. c #E7EA9D",
"E. c #D6DAA0",
"W. c #DADDA3",
"Q. c #DDE1A5",
"!. c #DFE4A8",
"~. c #E6E9A1",
"^. c #EBEDA4",
"/. c #E6E7A9",
"(. c #EEF1A6",
"). c #EEF1A8",
"_. c #F1F3A7",
"`. c #F2F5AA",
"'. c #F6F9AD",
"]. c #F9FCAF",
"[. c #EEE8B1",
"{. c #F1ECB3",
"}. c #F5F1B6",
"|. c #FDFEB3",
" X c #FAF5BA",
".X c #FFFFBB",
"XX c #FFFFC3",
"oX c #FFFFCB",
"OX c #FFFFD3",
"+X c #FFFFDA",
"@X c LightYellow",
"#X c #F7F7F6",
"$X c #F6F9F6",
"%X c #F8F8F6",
"&X c #F7F7F9",
"*X c #F9F7F9",
"=X c #F7F9F9",
"-X c #F9F8F9",
/* pixels */
"} T ( U y.Z.E.`.].]..XoXXXXXXXv.3.o.) ) p b C A %.;.C.*.G G u.k.-.A b b B I 0 I L ` q.X._ _ L K ( 8.8.=.=.7.=.=.=.7.;.7.9.o.I U ",
"D T # # P A.E.}.|.|.oXoXXXoXoXa.3.+.7.) 6 @ s Z %.%.{ S c T B.n.v.;.d.y.q..XOXZ.x.8.7.7.` Q / F / ;.7.=.=.j.k.B.V.h.j.=.7.Q 9 0 ",
"c S A # @ A.Z.C.`.|.].'.XXoXoXp.o.o.+.^ K 9 X.d.v.| C C C :.Y.=.d.d.XX+X+X+XOXOX+X+Xk.V.l.l.=.) Q Q =.+.$.k.m._.m._.s.s.s.-.8 9 ",
"c A [ a p Z.E.C.k.`.`.].).n.H H ..o.+.=.;.:.0.q.y.$.v b V @.=.I ( y..X.XoX+XoXoXoXoXoX+Xh.l.+.Q , 3 +.+.3.m.oXXXoXoXoX_.m.`.E 7 ",
"] [ Z B p X.Z.C.k.k.o.E % % ; 2 H X.+.=.+.=.8.9.0.y.X.a B $.' v L .X.X.XOXoXoXoXXXoXoXoX|.oXH 4 , , ^ ..(.oXoXoXXXoX.XXXv._.s.H ",
"b.( =.a p ' A.|.|.=.E > > ; > S o.p.g.h.s.j.=.) -.9.8.y.0.c.L 6 8 |.|.|.|.|.].].oX'.oXoX].oX3 > , M ..3.(.XXoXoXXX(.(.oXoXR._.3.",
"/.=.L...p X.0.8.^ E > , > n F 2.p.oXoXoXoXs.j.j.+.-.7.J ` :.6 5 5 V.'.|.].`.g.).'.oXoXXXoX..G m m H ..a.(.oXXXXXXX^.^.(.XXXXR.a.",
"F.X.y.' p p 6 Q Q 5 1 m W X.a.p.XXoXoXoXoXoXoXs.h.j.Q , N Q 4 4 =.B.m.k.g.3.a.).`.'.'.XXXX..o.o.o.o...a.XXXX.X X^.*.T.{..XXXR.y.",
"F.y.y.X.a 6 5 5 5 1 3 W o...a.oXoXXXoXXX XoXoXoXoXs.3.M E E 1 1 j.B.h.g.a.a.n.'.'.r oXoXp.E X.E E o...p.oXXXXXXX^.W ;.~.}..X.Xq.",
"A.q.X.8.8._ 6 F ) E N E o.o.'.oXXXoX.XXX XXXXXoXoXoX_.o.s.H > 1 E h.g.s.g.r g.'.oXj r oXg.r H 3 3 X...1.XXXX X^.Y.%.$.A.T.}..X9.",
"A.0.` 8.8.l.7.7.7.E 3 , _.|.'.`.oXXX(.(._.(.(.XXXXXXXXp.s.E 3 > > h.s.h.s.j r r oXw k r s.r H , 3 E o.2..X).).^.T.%.$.F.Y..X.XP.",
"Z.x.` |..X.X|.l.j.N 1 , n._.}.`.`._.~.:.:.R.^.oX XXXoXoXn.2.F > > h.s.g.s.r x k r r k h r k r 3 3 X.E ..`.`.).Y.;.&.| L.P.[..XP.",
"Z.` |.|..X|.|.OX+.N , H s._.).`.).~.i.,.*.:.q.^..XXX XoX(.v.E > > B.k r r r k x j x j z k z r H H X.M n (.(.i.i.:.$.$.=.T.{..XL.",
"Z.P |.|.|.oXOXOX+.N , O.g.g.a.p.1.,.:.:.;.;.;.T.^. XXXXXXXd. .> > j.r j z w r k l j x z j k r r e E 1 G p.v.i.,.,.;.$.$.T.T.|.F.",
"D.8.S.|.oXOXoX+Xo.m , g.b.a.a.p.p.0.:.:.;.;.&.9.R.^.^. XoXoX2.> > > k.w k x j z x x j k x k j r ^ 1 1 G a.p.u.<.;.;.;.$.T..X.XL.",
"8.K   |.|.OXoXOX+.3 , g.g.a.a.p.p.u.<.:.:.;.;.;.9.^.^.oX XoXv.G > 1 1 e r j k z j k x k k x z r r 1 , +.a.a.u.<.<.:.;.9.~.T..X&.",
"X.K r.  |.oXOXoXW & E g.g.g.2.p.p.t.0.:.:.;.;.&.%.:.Y.^.oXoXoX2.m r j k j j r k r k k r j z j l k r 3 s._.a.u.u.:.:.;.T.~..XoX| ",
"p / w.r.  OXoXo.R % X.g.g.2.2.2.2.p.1.:.;.;.;.&.;.%.T.^. XXXoX_.o.> r r k r J.k r k e g r h h j r 4 1 E a.a.p.,.<.:.;.T..X.X.XW ",
"p ) 5.%X      h.m > h.m.g.g.2.2.1.p.t.>.:.*.;.;.;.;.9.^. XXXoXp._.H 3 r h r H.r G.r J.g r j j r l.N , F a.a.1.1.,.*.q.^.^..XoX! ",
"v _ |.*Xe.      2 > m.g.g.s.s.3.a.p.p.>.*.*.%.%.;.;.;.^.^. XXXR.n.G e k e r H.H.J.u y J.e e j k r E , E a.a.1.,.,.,.<.^.XX X.X! ",
"v _ .Xe.*Xw.      3 h.g.h.h.h.h.g.a.p.1.<.*.&.&.;.;.;.~..XXXoX^...; m r     J.g u   *XG.r g r k h r * H a.p.p.1.:.<.:.^.XX.XoX! ",
"b ' .XOXe.#X5.        h.h.h.h.h.g.a.a.t.<.*.&.;.;.;.9.~.~..X.Xq.1.> n o.  X J.J.g X -XH.r H.r r r +.% H g.p.p.0.<.p.<.(.). XoX) ",
"b ' .X+Xr.%Xr.          h.h.h.h.h.g.2.a.p.:.:.&.;.$.F.~..XXXY.R.,.A  ...  g J.J.H.J.J.H.g g r oX'.o.% H a.p.p.1.1.<.<._.XXoXXX` ",
"C @.XX.XoXw.%Xe.            k.h.h.s.2.1.:.>.:.;.$.9.T.{..X.X;.:.) ) T G G   u J.J.J.J.g   r     '.o.% S p.p.p.t.u.u.i.`._. XoX..",
"C O..X+X+XOX5.%Xe.            k.k.h.a.1.,.:.:.;.&.A./.[..X.X7.;.! *.~ T R   g u u H.g   e.  X t   s., S a.p.u.1.p.p.^._.oXoXoXo.",
"C $..X.XoXOX].e.*Xr.              h.2.1.p.:.;.;.&.A.|..X.X.X$.| ;.XXXX).,.<.  d J.g   g 5.X q       2 G p.a.1.1.1.1.(.oXoXoXoXo.",
"C $.L..XOXOXOX5.=X=Xr.e.            h.p.t.:.;.-.7.T.F..X|.6.A.$.9..X.X.XXX`.        g g r.o t   X X   G a.a.p.1.1.p.'.'.oXoX'.^ ",
"D $.P.XX.XoXOX].r.=X%X*Xe.              p.1.%.| =.T.|.[.|.@.Z.@.A..X}.XX^.(.    X r.g *XX q     X X X   g.a.g.2.2.g.|.oXoXoXz.E ",
"D C !.XX+XOXOXV.k.r.*X*X*Xr.r.              *.%.$.T..X|.|.A.Z.+..X.X.X.X}.^.      X w.&XX t   X X X X   o.m.g.h.h.m.|.OXOXoXl.) ",
"D C !..X.XoXOXS.V.=.5.%X=X-X*Xe.                | T.F.[..XZ.F.O.|..X.X{.R.}.        o e.X q   X X X     E h.h.h.h.k.|.|.OX+Xx._ ",
"G C /.XX+X+XOX].z.E N r.=X%X*X=Xr.5.              T..X|.|.Z.F.X.|..XP.~.P.}.          X     X X   X     W k.k.k.k.k.|..X+X|.c.I ",
"G C !..X.X+XOX].+.4 * 3 e.*X=X%X*X%Xr.                [.|.Z.F.[.|.T.P.7.9.~.                X X   X     W k.z.z.z.C.D..X.XA.L.I ",
"R C .XXX+XOX].].W O . + 4 r.*X=X*X=X%Xr.r.                A.O.T.T.T.T.$.$.~.              o X X   X     * z.S.z.C.Z.Z.|.y.L.U.Z ",
"G C U..XoX+X|.V.7.+ . + 4 W r.r.*X-X*X*X=Xe.r.                T.P.T.A.| $.            o X o X X   X   e.  ) x.|.E.E.|.c.B O.$.A ",
"D C $.Q.+X+X|.].s.H 3 & , H =.V.r.*X%X=X%X%X=X4.r.                7.$.$.%.        *X%X=XX X X o   X   r.  5 5 8.8.q.q.v v $.=.[ ",
"{ C b y.D.z.z.h.l.s.+.E , , W s.V.4.$X*X*X=X*X*X*Xr.e.                =.$.      r.y y y *XX X X       e.    5 6 6 6 p v b =.n.:.",
":.C b p ) x.M.].s.h.oXo.2 , > , B.h.e.e.*X=X*X*X*X%X=X5.e.                      g g g y   =XX X               8 9 9 a p ' v.b.m.",
"0.V v p / z.h.OXOXoX+X`.o.m , , j.V.k.h.w.r.%X=X=X=X%X=X*Xr.e.r.      X.U.- g G.d g y       =XX                 ` 0.>.X.U.U.U.U.",
"S $ I q.Z.S.OXoXoXOXOX].`.3.M > ^ h.V.k.h.].r.e.*X%X#X=X-X*X=X*X  ,.  - X.g J.H.J.g   e.    *XX               X   8.= X.X.' ' X.",
"$ . I K.z.+XoXoXoXoXoXoX`.`.R 3 E +.k.V.k.|.|.OXr.e.*X=X&X*X*X*X  1.1.  - g u H.H.g     r.    %XX             X X   = ' - ; ; ; ",
"m # ' 9.|.oX|.].oXoXoXoXoX|.o.H , , , l.S.|.|.+XoX|.4.r.#X%X*X  g.2.        g J.g   f f   r.r.*X                X - X.: _ ' ] ; ",
"&.U I x.|.|.|.].'.'..X`.oX(.m.E 3 4 4 ) z.|..X|.) l.) 5 r.r.e.e.k.    X           y d u u                   X   X - X.= -.0.y.O.",
";.U i ) S.].n.n.p.(.`.oXoXoX_.g.N 1 5 5 7.z.x.8.J J Q p 6 Q z.z.k.    X               g g   U.              X   X ' =   -.0.' ' ",
"f.' i ( l.'.B.p.1.(.'.`.XXoXoXo.3 1 4 5 5 6 6 6 6 L 8./ 6 Q C.C.    X                     X.X.  U.I.    X   X   X.X.  X   =.0.:.",
"f.' 6 6 F k.s.2.n.'.XXoXoX'.h.o.4 * 1 F 8 6 6 9 / t.x./ 6 6 l.D.    X                         - X.X.K.U.X     X.X.-   X   l.-.8.",
"d.@.v 6 Q k.s.s.(.`..XoXoXoXs.+.M * 6 7.Q K 9 9 ! ) 8.! 6 6 X.    X X                             - X.X.X.' ' ..= X     X   =._ ",
"g.L.' 6 5 k.h.m.'.XXoX'.'.p.o.W N 4 5 -.8.8.) 6 6 6 F ` 9 9   X   X                                 = = - ; ; -     X   X   X.U.",
"d.d.) 6 5 k.k.'.|.XXoXoXoXs.H E F 4 N 7.7.=.F 6 6 6 ( 9.(   X X   X                                       X   o X   X     o ' c.",
";.a.' 6 6 z.k.'.oXoXoXoXg.H , N 7.+.z.z.S.C.8./ / ` ) 9.'     X   X                     * F               X     X     X   X O.U.",
"$.$.' p 6 x.S.|.|.oXoXoXB.E 4 4 +.l.z.C.+X|.|.D.D.|.l.9.9./ 6                         Q ` E k.h.          X     X o   X     U.I.",
"&.$.| v 6 A.Z.|.OXoXoXk.V.^ H Q 7.|.OXOXOXOXOX|.D.|.C.Z.x.      r.r.r.            8 K Q 5 J k.h.s.s.a.          X X         U.I.",
"g.g.O.v v A.D..X+XOXOX].k.Q Q / J .X|..X+X+X+XOX+XOXOX|.    e.5.  r.e.e.        ) 8 J Q 5 Q C.h.h.g.a.2.1.      X             I.",
"b.b.| b v A.E..X.XoX+XV.z.8 5 5 8 |..X.X.XoX.XOX+XOXOX+X                9.8.8.X.' ) / ) 6 ) x.C.z.h.h.a.2.1.        w.&X  r.*X  ",
"N.N.| b b L.A.|..XOXOX|.) 5 + + 6 l.|.|.|.|..X.X.X|.OXOXOXOXz.x.=.8.x.x.oX.X.X8.9.' 8._ 6 ) Z.C.C.z.k.s.3.a.a.p.p.              ",
"<.R.%.b v !.L..X.X|.7.D./ + . O < ` Z.Z.x.x.x.E.|..XoX.XOX.X.Xx.8.8.x.OX.X.X+XOXZ.0.0._ 6 _ A.Z.Z.C.C.z.k.s.s.a.a.n.|.oXoX'..X7.",
":.m.%.C b U..X|.x.L ) c.) 6 + @ 6 ) A.Z.A.x.c.x.Z.D..XOX|./ / 8.8.x.x.+X.X+X+X+XE.c.c._ p 6 A.A.Z.Z.C.z.l.j.j.j.h.h.|.|.OX|.7._ ",
"G 0.&.V V $.y.0.< 6 6 ) 9.) ` / 9 9 Z.A.c.c.c.x.A.A.E.c.9 K L ` 0._ X.XX.X+X+X+X+XF.A._ 9 v L.E.A.A.Z.x.z.l.z.j.z.k.]..XOX.XZ.X.",
"R -.;.A v v p X.6 6 K ) 8 9 ` ( p p c..XA.c.K.F.E..Xy._ p i L t._ p q.|.XX+X+X+X@XW.Q.I p v X.L.Q.A.A.A.Z.x.x.C.z.C.|.D.` A._ a ",
"G { :.#.V p p 6 6 N ` ) 8 8 / ( p p p P..XP.P..XU.d.v p p I y.y.I ' t.F.|.XX+X+X+XW.!.O.B v v ' L..XQ.A.A.A.c.D.E.0.` 0.K @.y.I ",
"G R -.Y.d.' 0 6 8 -.l.7.-.) 0.=.a p p v d.d.d.d.b b b b U d.d.O.v ' Y.P.T..XoX@X@X/.U.y.@.V B b @.d.d.L.|.Q.y.0.>._ _ p v I #.[ ",
"} -.-.d.y.0.9.7.z.k.B.B.k.z.8.8...a v v b b V C C Z C Y ;.b.d.Z # $.T.T.T.XXoX.X.Xv.U.&.@.Y V V b X.O.O.d.y.' ' p v v v I d.;.[ ",
":.=.$.o.q.A.x.k.B.'.m.'.'.z.S.8.q.O.U Z Y [ Y A A { :.m.N.m.b.C $ A Y.XX/./.Y.n.[ $.$.+.A C C C C C C b b b b v v V I $.d.Y.n.[ ",
"8.A Z I 8.l.OXoXoXoXoXoXoXoXV.z.x.y.$.O.%.A { N.N.S.S.0.*.:.B.{ S C :.m.R.m.%.c C [ 9.[ C C A A :.$.C A V V b Y @.a.d.b.b.=.&.;.",
"} A ( ( 9..X|.oXoXXXoXXXoXoXoXz.x.X.U V c $ c >.N.S.u.<.R >.S.p.} G F S G S S D { k.m.;.;.{ [ %.m.h.f.d.f.f.a.d.d.v.f.v.:.$.-.-."
};
