/* XPM */
static char *result[] = {
/* columns rows colors chars-per-pixel */
"64 64 201 2 ",
"   c #020202",
".  c #302D03",
"X  c #353535",
"o  c #383435",
"O  c #353538",
"+  c #363737",
"@  c #464917",
"#  c #474A26",
"$  c #575A34",
"%  c #51562F",
"&  c #5D6138",
"*  c #686B26",
"=  c #6D712A",
"-  c #6A6834",
";  c #6D693A",
":  c #676834",
">  c #716D3D",
",  c #74713F",
"<  c #767931",
"1  c #6D6A42",
"2  c #716D43",
"3  c #757243",
"4  c #797543",
"5  c #7C7946",
"6  c #79754A",
"7  c #7C794C",
"8  c #767349",
"9  c #7E7A50",
"0  c #A90100",
"q  c #A60100",
"w  c #A22306",
"e  c #A22308",
"r  c #9E2506",
"t  c #F60200",
"y  c #FA0200",
"u  c #8A4E00",
"i  c #864F00",
"p  c #8A5000",
"a  c #817D4A",
"s  c #807C47",
"d  c #817D51",
"f  c #7F8438",
"g  c #DF8A00",
"h  c #E18900",
"j  c #F69200",
"k  c #F99100",
"l  c #F98F00",
"z  c #F8EF00",
"x  c #F9F000",
"c  c #F6F100",
"v  c #84824C",
"b  c #88854F",
"n  c #888C43",
"m  c #93954A",
"M  c #95994C",
"N  c #9A9D4F",
"B  c #919647",
"V  c #858154",
"C  c #898654",
"Z  c #8B8953",
"A  c #888559",
"S  c #8C895A",
"D  c #908D56",
"F  c #918E5D",
"G  c #94915B",
"H  c #99955D",
"J  c #9A9857",
"K  c #8F9247",
"L  c #A09D5D",
"P  c #9EA152",
"I  c #A2A556",
"U  c #A6AA5B",
"Y  c #A9AD5C",
"T  c #A4A35C",
"R  c #ADB15F",
"E  c #938F62",
"W  c #949361",
"Q  c #9C9A63",
"!  c #999864",
"~  c #8E8A60",
"^  c #A09D64",
"/  c #A29E6E",
"(  c #9EA169",
")  c #A4A165",
"_  c #A4A46A",
"`  c #A9A56B",
"'  c #A6A96F",
"]  c #ACA96D",
"[  c #ABA865",
"{  c #AEB262",
"}  c #B4B865",
"|  c #B4B36C",
" . c #B4B769",
".. c #ABA775",
"X. c #ABAB72",
"o. c #AEAA79",
"O. c #A8A674",
"+. c #B1AE72",
"@. c #B2AE7D",
"#. c #AEB274",
"$. c #AFB07E",
"%. c #B3B475",
"&. c #B6B874",
"*. c #BABB74",
"=. c #B4B37B",
"-. c #B9B67A",
";. c #B6B979",
":. c #BBBC7C",
">. c #B8B672",
",. c #B0AE69",
"<. c #C0BD7E",
"1. c #BEC077",
"2. c #BEC07E",
"3. c #C3C57B",
"4. c #C6C97E",
"5. c #C9CD7F",
"6. c #9A9F9F",
"7. c #97A39E",
"8. c #9AA29F",
"9. c #B6B381",
"0. c #BAB683",
"q. c #B6B886",
"w. c #BDBA85",
"e. c #BEBC88",
"r. c #AFB080",
"t. c #9A9FA3",
"y. c #979FA1",
"u. c #97A2A1",
"i. c #99A1A2",
"p. c #C1BE8A",
"a. c #C1BE83",
"s. c #BEC181",
"d. c #BFC18D",
"f. c #C3C482",
"g. c #C6C985",
"h. c #CACC84",
"j. c #C5C38C",
"k. c #C9C78D",
"l. c #CACC89",
"z. c #C7CA88",
"x. c #CED183",
"c. c #CED18B",
"v. c #D1D487",
"b. c #D2D58D",
"n. c #D6DA8B",
"m. c #DADD8E",
"M. c #C9C791",
"N. c #C6C992",
"B. c #CBCB94",
"V. c #C9CA94",
"C. c #D1CE97",
"Z. c #CED299",
"A. c #CDD196",
"S. c #D3D690",
"D. c #D6D992",
"F. c #DADD95",
"G. c #D2D49C",
"H. c #D5D89E",
"J. c #DEDF9A",
"K. c #F6D999",
"L. c #F9D999",
"P. c #F8D898",
"I. c #E0DF8C",
"U. c #DEE194",
"Y. c #DEE299",
"T. c #DBE08F",
"R. c #E2E292",
"E. c #E4E997",
"W. c #E2E49C",
"Q. c #E7EB9D",
"!. c #D6DAA0",
"~. c #DADDA3",
"^. c #DDE1A5",
"/. c #DFE4A8",
"(. c #EBEDA4",
"). c #E6E8A8",
"_. c #EEF1A6",
"`. c #EEF1A8",
"'. c #F1F3A7",
"]. c #F2F5AA",
"[. c #F6F9AD",
"{. c #F9FCAF",
"}. c #F1ECB2",
"|. c #FDFEB3",
" X c #FFFFBB",
".X c #F8F3B8",
"XX c #EEE8B1",
"oX c #FFFFC3",
"OX c #FFFFCB",
"+X c #FFFFD3",
"@X c #FFFFDA",
"#X c LightYellow",
"$X c #F7F7F6",
"%X c #F7F9F6",
"&X c #F9F8F6",
"*X c #F7F7F9",
"=X c #F9F7F9",
"-X c #F7F9F9",
";X c #F8F8F9",
":X c #F9F7F6",
">X c None",
/* pixels */
" .~ { [ p.D.!.]..X[.oXoXoXoXoXN.5.o._ _ 7 b C S >.:.b.*.G W s.c.;.S C b V U d I I X.w.X._ ` I I ) 0.0.-.9.=.=.=.9.=.;.9.0.X.U U ",
"F ~ $ $ T D.!.[.|.|.oXOXoXOXOXg.h.o.=.' 5 % f A >.>.} D n F B.V.V.=.j.p.w. X+XD.S.0.9.0.' ^ _ N ) ;.9.=.=.x.c.A.Z.l.x.=.9./ 7 d ",
"n D C $ $ F.S.b.[.{.[.[.oXOXOXg.o.o.=._ P 7 ] j.j.| Z Z Z ;.E.;.f.j.oX@X@X+X+X+X+X@Xc.Z.v.v.9._ L ^ @.@.=.x.B.'.B.'.x.l.h.@.6 7 ",
"n S { d a D.!.S.c.[.[.[.`.N.W H o.o.o.=.;.:.w.p.p.%.v b C %.$.U [ p. X X+X+XOX+XOXOX+X@Xl.x.=.Q > 2 @.@.5.V.OXOXOXOXOX_.B.[.Q 8 ",
",.{ A V a X.F.S.c.l.o.Q * * : ; ! X.o.@.=.=.9.0.e.e.+.V V #.] v I  X X X+XOXOXOXoXOXOXOX|.OXH 2 > 3 ! o.'.OXOXOXoXoXoXoXk.'.5.Q ",
"M.[ =.d a ] F.|.|.=.Q > ; ; ; D ..g.z.z.h.x.=._ -.0.0.p.w.m.I 5 6 |.|.|.|.|.|.{.OX[.OXOX{.OX2 ; > m X.4.`.oXoXOXoX_.`.oXoX(.(.4.",
").=.F.X.a X.w.0._ Q > ; ; K G 4.g.OXOXOXOXl.c.x.9.-.9.L _ ;.5 4 3 G.[.|.|.'.g.`.[.oXOXoXoXo.H B B Q o.z.`.oXoXoXoX(.(.(.oXoX(.f.",
"J.X.p.] a a 6 ^ ) 3 3 m Q ] f.g.OXoXOXoXOXOXOXh.l.h.Q , N ( 3 3 =.A.A.l.h.4.z.`.[.[.[.oXoX..o.X...+...f.oXoXoX.X(.:.Y..X XoXQ.p.",
"J.p.p.X.a 5 5 4 3 , 2 Q o.o.f.OXOXoXOXOX XOXOXOXOXh.h.M H Q , , x.B.c.h.h.z.M.[.[.OXoXOXf.! ..! ! ..X.g.oXoXoXoX(.! &.(.}. XoXe.",
"F.e.X.0.0.` 6 N _ Q M ! o.o.[.OXoXoX XoX.XoXoXoXOXoX'...h.H > > ! c.z.h.z.e h.[.OXoXOXOXh...H 2 2 X...4.oXoX.X(.W.>.=.Y.W.}. Xq.",
"F.0.' 0.0.b.9.9.=.Q 2 > ].|.[.].oXoX`.`.'._._.oXoXoXOXg.h.Q 2 > e z.h.r e z.V.{.OXOXOX'.z.+.H > 2 ! o.3.oX`._._.W.| %.F.W. X XY.",
"D.n.' |. X X|.v.x.N > > V.`.[.].`.`.(.2.:.).(.oX.XoXoXOXN.e w e e j x c k j k e w w V.V.z.@.H 2 2 X.! ..[.'.`.W.*.&. .Y.W.}. XU.",
"D.' |.|. X|.|.+X@.M > H z.'.`.].'.).e.*.&.:.q.(.oXoX XOX(.V.! j j e j j e l.l.[.{.OX[.[.h.@.@.Q H X.m K _.Q.d.e.;.&.%.9.W.XX|.Y.",
"D.T |.|.|.OX+X+X@.M > ..z.g.f.f.3.1.2.:.:.;.:.W.(..XoXl e e w x j j k j j x k e |.|.c.b.@.( @.@.=.Q > H g.N.d.2.:.;.%.%.W.W. XU.",
"!.0.H.|.OX+X+X@Xo.m > z.V.g.g.g.f.w.:.:.:.&.&.q.(.(.(..XoXj j w j x z z x j x x j e e v.^ 3 N =._ > > H 5.f.2.2.:.;.&.%.W. X XU.",
"0.N S.|.|.+XOXOXo.2 > l.z.g.g.f.f.s.:.:.:.&.;.;.q.e e j j c x j x z j k e e e e i.i.i.+ X X X X O y.8.6.u.g.f.2.2.;.;.q.Q.W. X&.",
"X.i.;X;Xi.i.    Q * W z.z.z.4.a.f.a.:.:.:.-.&.8.i.o O 7.y.l e j l j c x i.i.i.i.+ X + X 8.i.7.b.( 3 > h.'.g.f.2.:.:.;.W.Q. XoX&.",
"a _ i.  OXOXOX@.W * X.l.z.4.4.4.3.f.a.:.:.&.;.;.;.&.r w j e e e e e e l z x e e t.8.+ X X X X + + X X X X X y.i.8.8.:.Y. X XoX! ",
"a t.  |.+XOX[.z.m ; l.V.h.g.4.4.4.f.3.<.:.*.&.;.:.&.q.(.e h h K.L.i.i.i.X X y.t.j j w w r  X|.+Xv.N > H z.z.3.1.1.*.e.(.(.oXoX! ",
"v ` i.;X$X    h.1 ; Z.z.l.z.h.h.g.f.f.a.*.*.&.>.;.e j j l e L.h w P.g g e e 6 4 P t.i.i.i.X X X X X X X + i.7.u.i.1.2.(.oX.XoX/ ",
"V ` *X;X-X;Xi.i.    l.l.l.l.l.l.z.g.f.2.:.*.*.&.;.i.i.8.i.y.t.P.u u L.6.i.i.t.t.X + o o o X X i.y.i.t.8.t.g.s.3.1.w.:.(. XoXOX/ ",
"b ]  X+X=Xy.  @.* ; z.l.k.l.l.l.z.z.g.f.3.*.*.=.;.;.q.g L.L.h i   ;Xe h L.L.K.j j j u.i.i.i.8.+X[.@.* W g.g.f.s.2.3.2.`.`..XoX_ ",
"b ]  X;Xu.;Xy.      o.Z.l.l.l.l.l.z.4.f.2.:.:.;.u.i.X X + 7.u.i.X =X=X=Xj i.t.i.7.i.3 Q {.|.+X+X[.o.* G g.f.f.s.3.2.s.`.oXoXoXO.",
"Z #. X Xi.y.=Xi.        C.c.c.l.l.h.h.3.1.w.-.&.&.q.W.}. X  P.K.P.L.L.K.e j e       3 Q u.X X X X o + X y.t.y.i.u.s.d.].'.oXoX..",
"Z +. X8.i.;X;X$X=X*X%Xi.6.6.i.y.          :.:.;.%.y.i.t.o O X O 6.u.K.h   u.X i.6.7.O X i.8.u.u.8.h.; G f.f.s.3.f.3.(.'.oXOX+X..",
"Z %. X XOX+X|.[.+.2 > 2 Q |.l.b.c.l.h.3.f.:.:.&.%.F. X X    g u p P.    y t y   X J ; G B.OX+XOX[.h.; G g.g.3.3.3.3.`.OXOXOXOX@.",
"Z %.Y. X+Xi.t.-X;Xi.i.i.i.i.i.          f.:.;.;.9.W.W.|. X9.F.  K.h g -X*X;X0 0 q X       {.oXOX'.z.1 G z.f.f.3.3.z.[.[.OXOX[.( ",
"F %.Y. X XOX+Xi.%X&X8.i.          l.z.g.f.:.*.>.%.W. XXX|.X.    X X i.i.i.i.i.i.X o                     X X X o i.u.i.OXOX+Xv.Q ",
"F Z /.oX+X+X+XZ.i.&X=X&Xi.y.i.i.        f.:.*.| %.Y. X|.|.F.D.@.|. X XO -X&X+ o o O X X X         X o o X B.l.l.l.B.|.+XOX+Xv.) ",
"F Z /.oX X+X+XZ.Z.@.Q 3 2 b.b.c.i.y.i.          %.W.J.XX XD.J.] |.      o u.t   + X X X X X o X               X O X X |.+X@Xn.` ",
"G Z ). X@X+X+X{.b.^ i.:X=X&X&X8.            *.*.%.W. X|.|.D.J.X. X X      X 0   8.i.u.u.y.X             X X X X X O X X i.i.u.i.",
"G Z /.oX X+X+X|.@.2 = 8.;X;X;X;Xi.i.              W.W.XX|.F.J.XX              t t t O O     X X X X O O i.i.7.8.u.7.H. X XF.U.Y ",
"W Z  X X@X+X{.|.! @ . # i.;X&X;X=X:Xi.i.u.i.u.              X.J.W.W.W.%.  q 0     X X X X X [.|.OX].l.Q = v.H.b.S.D.D. Xa.U.R.A ",
"G Z R.oX+X+X|.Z.r.# . # , i.;X;Xu.i.i.i.i.        .X X X%.%.W W.Y.            X 7.6.O X         X O O + i.u.i.|.!.!.|.m.V X.%.S ",
"E Z #.^.+X@X|.{.l.H 2 = > Q i.i.;X;X&X;X;Xi.i.                q.F.9.%.          X O O +             @.N 3 4 4 0.0.w.a.v v +.;.{ ",
"} Z b e.!.S.b.c.h.x.@.H > > Q l.u.&X&X&X&X:X$Xu.i.                &.=.%.      X X X O X O X X X X           4 5 5 7 a v b ;.V.q.",
":.Z b v ) b.G.[.l.h.OXo.1 ; > > A.i.i.i.-X-X;X&X-Xi.i.          ;.;.&.;.;.;.  u.*X-XX X X     ; >X2 +.9.( N 6 6 7 9 a a ] k.V.B.",
"q.Z v 5 _ b.l.OX+XOX+X].o.m > > l.A.l.c.l.t.i.-X%X=X;Xy.i.                i.i.p u p ;X&X-X$X-X      o.7.X X           X X 7.8.>.",
"G & U a.S.G.OX+XOXOX+X|.].h.M ; ! i.i.i.%X*X;X&X;X;X=X;X;Xy.8.i.      X.R.: h K.h u     &X      i.i.i.X + X o X X.X.R.R.U.R.R.I.",
": . U m.b.+X+XOXOXOXOX+X].'.H 2 Q @.b.G.c.|.|.i.i.i.i.:X;X*X=X$Xi.    - ' h P.h h     i.i.-X  o X   z.h.h.Q 3 3 L =.w.' U v b X.",
"Z $ ] q.|.OX|.{.OXOXoXOXOX{.o.H > , 2 v.G.8.u.;X%X-X;X;X;X;X;X;X&Xi.i.h g L.K.K.L.h h h           X O R.U.U.R.o X X u.i.i.: : : ",
">.Y I n.|.|.|.[.[.[.oX].OX'.B.! > 3 3 _ b.|. X|.) n._ 3 u.i.;X&X            g L.h   h     : X.            ] : - ; c.x.=.:.e.p.+.",
";.Y a ' G.[.V.N.z.(.'.OXOXOX'.z.M > 4 4 9.D.n.0.L T i.6.i.u.i.i.  o X X O 8.X X X X X i.t.i.R.: U.R.] X.- X       h.A.=.i.i.o O ",
"k.[ s _ v.[.V.h.4.(.[.[.oXOXOXo.2 3 3 4 4 4 4 5 4 I 0._ 5 ) b.            O X X       h h R.: R.8.i.i.X X X X                   ",
"j.#.s 5 L c.h.4.V.].oXOXoX[.g.@.2 = 4 N 6 4 5 7 ) w.n.) 5   O X                                     X O           X       x.;.0.",
"j.#.a 4 ^ x.h.z.(.[.oXoXOXOXh.@.M = 8 9._ P 7 7 _ ) 0.` 5 6 _   O   X +   X     B.@.h.+ + X X X         X X X                   ",
"z.U.[ 5 3 c.l.B.[.oXOX{.[.g.o.! M 3 4 -.0.9._ 5 6 5 P ' 7 5 5 w.      X   X X O =                 O X             X X o X o     ",
"k.j.] 5 4 c.c.[.{.oXOXOXOXz.H Q J 3 N 9.9.0.N 5 5 5 _ w.[ 7 5 X.H.D.D.H.  i.i.t.                      X + X X X X X X     i.i.;X",
"&.k.] 5 5 b.v.[.OXOXoXOXz.H > M @.=.S.S.G.S.0._ ^ ' ' 0.' 7   i.i.  8.8.i.      N -.v.Q = J l.l.z.f.                i.-X;Xk.h.( ",
"%.#.,.7 5 n.G.|.|.+XOXOXZ.Q 8 3 @.v.b.b.+X|.|.H.!.|.n.9.0.                              _ ^         X X     o + X O       i.-Xi.",
"%.;.| v 5 D.D.|.+XOX+Xc.Z.( H ^ 9. X+X+X+X@X+X|.H.|.S.S.n.9.5 5 5 5 ) ) 6 5 N 0.' 6 N ) 3 L c.l.                    8.%X-X  i.  ",
"z.k.,.v v F.!. X+X+X+X{.c.^ ^ ^ L |. X X@X+X@X+X+X+X+X|.G.|.w.6 5 5 5 5 P _ w.9._ 6 L ^ 5 ^ b.b.c.z.            1.              ",
"M.M.| b v U.~. X XOX+XG.v.6 3 3 8 |. X|. XOX X+X@X+X+X+Xb.|.S.n._ ;.0.0.0.0.w.X.' _ ) ` 5 _ S.b.b.l.l.h.3.3.f.<.s.j.'.oXOX'.B.x.",
"S.B.| b v U.F.|. X+X+X|._ 5 # # 4 n.|.|.|.|. X X X X+X+X+X+Xb.n.;.0.n.n.+X X X0.0.' 0.` 5 ) D.S.b.b.l.h.h.h.g.g.f.f.[.[.OX[.|.b.",
"w.Q.| b b /.U.|. X|.0.H._ # . @ < O.D.D.n.n.n.!.|. XOX X+X X Xb.0.w.b.+X X X+X+XF.w.0.` 5 ` F.D.S.S.b.b.c.5.z.h.z.V.|.OXOX[.|.q.",
":.C.*.C V R. X|.n.I ) n.' 5 # % 5 _ D.F.F.n.m.n.D.H. X+X|.) ) w.0.n.n.@X X@X@X@X!.m.m.` s 7 F.F.F.S.D.b.v.v.x.h.l.l.|.|.+X|.9._ ",
"G w.&.Z C %.p.a.< 5 6 ' 9._ ' ) a 7 D.F.m.n.m.n.F.D.~.n.6 I I ' w._ X. XoX@X@X@X@XF.F.] 7 v T.~.F.F.D.n.b.v.v.v.c.c.[. X+X XD.X.",
"W ;.;.A b v a ' 5 5 P _ 6 6 ' [ 5 a m. XF.F.U.F.^. Xe.] s s I p.` s p.|. X+X#X@X@X^./.T v v X.U.^.F.F.F.D.n.n.S.b.S.|.H.' F.` d ",
"G  .q.;.C a a 7 5 N _ ' 6 6 ) [ a a a J. XU.W. XR.p.v a a U a.p.U ] a.F. XoX@X#X#X^.).X.a v v ] U. X^.F.F.F.D.!.~.0.] e.P #.p.Y ",
"G W ;.R.j.] 7 5 6 -.v.9.;._ 0.:.d a v v j.j.j.j.b b b b Y j.j.+.v ] W.W.Y. XoX#X@X^.U.p.#.A V b #.j.j.T. X^.p.w.:.] ` a v U $.[ ",
" .-.-.j.p.w.0.9.b.b.Z.B.c.b.9.0.X.d a V b Z C C Z S Z { ;.M.j.A $ %.W.W.W.oXOX X Xj.W.-.=.R C C b +.] %.j.f.] ] v v v v Y f.;.{ ",
":.;.@...e.D.S.c.B.[.B.].[.b.H.0.p...Y C R R { S S { :.B.C.B.M.Z & S E. X).).E.N.{ %.%.%.S Z Z Z S Z b b b b v v v V U =.j.E.V.{ ",
"0.~ A U q.n.+XOXOXOXOXOXOX+XZ.n.n.p.%.+.%.S } C.C.C.G.s.*.:.Z.} D D :.B.Q.M.>.n Z { q.{ Z Z Z S :.%.Z C C C b U #.f.j.k.M.;.=.;.",
" .S Y [ 0. X|.OXOXoXOXoXOXoXOXb.n.+.Y b n & n <.G.G.f.:.W <.G.s.} G G G G G D F } b.M.&.:.{ { >.V.M.V.z.k.k.z.k.k.j.V.M.;.%.%.:."
};
