/* XPM */
static char *result[] = {
/* columns rows colors chars-per-pixel */
"64 64 206 2 ",
"   c #020202",
".  c #302D03",
"X  c #353535",
"o  c #383435",
"O  c #353538",
"+  c #363737",
"@  c #4E5019",
"#  c #494C27",
"$  c #585935",
"%  c #51562F",
"&  c #5D6139",
"*  c #666925",
"=  c #696B26",
"-  c #6E712B",
";  c #6A6835",
":  c #6D693A",
">  c #686736",
",  c #716D3D",
"<  c #74703F",
"1  c #767931",
"2  c #71742C",
"3  c #716D43",
"4  c #757242",
"5  c #797543",
"6  c #7C7946",
"7  c #79754A",
"8  c #7C794C",
"9  c #757149",
"0  c #736F46",
"q  c #A90100",
"w  c #A60100",
"e  c #A22306",
"r  c #A22308",
"t  c #9E2506",
"y  c #F60200",
"u  c #FA0200",
"i  c #8A4E00",
"p  c #864F00",
"a  c #8A5000",
"s  c #817D4A",
"d  c #807C47",
"f  c #817D51",
"g  c #7F8438",
"h  c #DF8A00",
"j  c #E18900",
"k  c #F69200",
"l  c #F99100",
"z  c #F98F00",
"x  c #F9F000",
"c  c #F6F100",
"v  c #F8EF00",
"b  c #84824D",
"n  c #88854F",
"m  c #888C43",
"M  c #8F9246",
"N  c #93954A",
"B  c #96994C",
"V  c #9A9D4F",
"C  c #919547",
"Z  c #858154",
"A  c #898654",
"S  c #8B8953",
"D  c #888559",
"F  c #8C895A",
"G  c #918E5C",
"H  c #918E56",
"J  c #94915B",
"K  c #99955D",
"L  c #9A9856",
"P  c #A09D5D",
"I  c #9DA152",
"U  c #A2A556",
"Y  c #A6AA5A",
"T  c #A9AD5D",
"R  c #A4A35C",
"E  c #ADB15F",
"W  c #949461",
"Q  c #9A9660",
"!  c #9C9B63",
"~  c #9A9967",
"^  c #8F8B60",
"/  c #A19D64",
"(  c #A29E6E",
")  c #A19D70",
"_  c #9EA168",
"`  c #A4A065",
"'  c #A4A46A",
"]  c #A9A56B",
"[  c #A6A96F",
"{  c #ACAA6D",
"}  c #AAA864",
"|  c #AEB262",
" . c #B4B865",
".. c #B4B36C",
"X. c #B4B769",
"o. c #A7A373",
"O. c #ABA775",
"+. c #ABAB72",
"@. c #AEAA79",
"#. c #AAA877",
"$. c #B1AE72",
"%. c #B2AE7D",
"&. c #AEB275",
"*. c #AFB07E",
"=. c #B3B375",
"-. c #B6B875",
";. c #BBBC74",
":. c #B4B37B",
">. c #B9B67A",
",. c #B6B97A",
"<. c #BBBC7C",
"1. c #B8B672",
"2. c #B0AE69",
"3. c #C0BD7E",
"4. c #BEC077",
"5. c #BEC07D",
"6. c #C2C47B",
"7. c #C6C97E",
"8. c #CACD7F",
"9. c #9A9F9F",
"0. c #97A39E",
"q. c #9AA29F",
"w. c #B6B381",
"e. c #BAB683",
"r. c #BDBA85",
"t. c #BDBC88",
"y. c #B6B985",
"u. c #9A9FA3",
"i. c #979FA1",
"p. c #97A2A1",
"a. c #99A1A2",
"s. c #C1BE8A",
"d. c #C1BE83",
"f. c #BEC181",
"g. c #BFC18D",
"h. c #C3C482",
"j. c #C6C985",
"k. c #CACC84",
"l. c #C5C38D",
"z. c #C9C78D",
"x. c #CACD89",
"c. c #C7CA88",
"v. c #CED184",
"b. c #CED18B",
"n. c #D1D487",
"m. c #D2D58D",
"M. c #D6DA8B",
"N. c #DADD8E",
"B. c #C4C690",
"V. c #C9C791",
"C. c #C6C992",
"Z. c #CBCC94",
"A. c #CCCE98",
"S. c #D1CE97",
"D. c #CED299",
"F. c #CDD196",
"G. c #D3D690",
"H. c #D6D992",
"J. c #DADD95",
"K. c #D2D49C",
"L. c #D5D89E",
"P. c #DEDF9A",
"I. c #F6D999",
"U. c #F9D999",
"Y. c #F8D898",
"T. c #E0DF8C",
"R. c #DDE194",
"E. c #DEE299",
"W. c #DBE08F",
"Q. c #E2E292",
"!. c #E4E997",
"~. c #E2E49C",
"^. c #E5E89E",
"/. c #E9EE9B",
"(. c #D6DAA0",
"). c #DADDA3",
"_. c #DDE1A5",
"`. c #DFE4A8",
"'. c #E7EAA1",
"]. c #EBEDA3",
"[. c #E3E7A9",
"{. c #EEF1A6",
"}. c #EEF1A8",
"|. c #F1F3A7",
" X c #F2F5AA",
".X c #F6F9AD",
"XX c #F9FBAF",
"oX c #F1EDB3",
"OX c #F5F1B6",
"+X c #FDFEB3",
"@X c #FFFEBB",
"#X c #FAF7B7",
"$X c #FFFFC4",
"%X c #FFFFCA",
"&X c #FFFFD3",
"*X c #FFFFDA",
"=X c LightYellow",
"-X c #F7F7F6",
";X c #F7F9F6",
":X c #F9F8F6",
">X c #F7F7F9",
",X c #F9F7F9",
"<X c #F7F9F9",
"1X c #F8F8F9",
"2X c #F9F7F6",
"3X c None",
/* pixels */
"X.^ 2.Y s.H.(. XXXXX$X$X$X%X$XC.8.@._ ' d b S F 1.;.G.;.J K f.x.,.F S Z Z Y 8 Y U +.t.+.' ] U U ` e.e.>.w.w.:.:.w.:.:.w.e.[ R T ",
"G ^ $ $ R J.(.OX+X+X$X%X$X$X%Xj.8.%.w.[ 6 % g D =.1. .H m ^ A.Z.z.:.l.s.s.@X&XH.m.e.w.e.[ / ' V / >.w.:.:.v.b.F.A.b.v.:.w.' 6 f ",
"m F D $ % J.H.G. X+X.X.X$X%X$Xj.@.@.:.' I 8 { l.l...A S S <.!.,.l.l.@X*X*X*X&X&X&X*Xb.D.n.n.:.' / / :.%.=.x.A. XZ. Xc.v.n.%.7 8 ",
"m S | Z s H.(.G.b..X XXX}.C.W W @.#.@.:.>.<.t.s.s.=.n n A +.:.T } t.@X@X&X&X%X%X%X%X&X*Xx.v.%./ < 3 %.%.8.Z.$X%X%X$X%X|.Z.XX~ 9 ",
"2.| D Z s @.H.G.b.b.@.! * * ; : ! #.@.%.w.=.e.r.t.t.$.f Z &.{ s U @X@X+X&X%X%X%X$X%X%X%X+X%XK 3 , , ! #.|.$X%X%X$X$X@X$Xl.|.k.K ",
"V.| :.f s { J.+X+X:.K , : : : J O.j.c.c.k.v.:.' >.r.e.s.t.N.U 6 8 +X@X+X+X+XXXXX%X.X%X%XXX%X3 , , N @.7.}.$X$X%X$X}.}.$X$X].].8.",
"[.=.R.{ s +.t.e._ ! , , , M J 7.j.%X%X%X%Xc.x.v.%.=.w.P [ ,.6 6 < K..X+X+X Xc.}..X%X$X$X$X@.J C C K +.j.}.$X$X$X$X].].}.$X$X].h.",
"P.O.s.O.s 6 6 / ` 4 , N ~ ] j.j.%X$X%X$X%X%X%Xj.x.x./ < V ! < 4 :.F.F.k.c.8.c.}..X.X.X$X$XO.@.#.@.@.#.j.$X$X$X#X].,.~.OX@X@X^.g.",
"P.s.s.+.s d 6 5 4 < 9 ~ @.#.j.%X$X$X%X%X$X$X%X%X%Xk.8.B ! ! < < v.A.x.c.k.j.C..X.X$X%X%Xj.! #.! ~ @.O.j.$X$X$X$X].~ -.'.OX@X@Xy.",
"J.r.+.r.e.( 7 V ' / B Q @.#..X%X%X$X#X$X#X$X$X%X%X%Xe @.8.K , , ! x.k.c.c.c.j..X%X$X%X%Xj.{ K 3 : +.O.6.$X$X@X].~.1.:.E.~.oX$Xy.",
"J.r.[ e.e.m.w.w.:.! 3 , |.+X.X X$X$X}.}. X].}.$X$X$X%Xr e ! 3 e , c.k.c.c.c.C..X%X%X%X|.x.@.K , 3 ! #.j.#X X}.].~.1.-.J.~.+X@X~.",
"H.M.[ +X@X@X+Xn.v.B , , Z. XOX X X X'.<.<.'.e e r l l l v x l r e t r v.x.k.x.XXXX%XZ.Z.j.%.K 3 3 +.! #..X X}.^.;.-...R.~.oX@XR.",
"H.[ +X+X@X+X+X&X%.B , K k. X}. X}.'.t.4.4.,.y.].$X$X#Xr l k r k z A.k.x.x.x.v..X+X%X.X.Xk.%.%.! ~ $.N M {.{.g.f.<.-.&.w.~.oX@XJ.",
"H.P +X+X+X%X&X&X%.B , +.j.j.h.h.6.6.<.<.,.,.,.~.e l x l k l k l x e r r l b.b..X+X+Xb.b.=._ %.%.=.Q , K j.B.g.,.<.-.-.=.~.~.@XR.",
"L.e.K.+X%X&X&X&X%.N : x.V.j.j.j.6.r.5.<.,.r r l x x k x v x x k e k l XXm.b.b.m.m.:.m.n./ 9 V %.' < , K j.h.f.5.<.-.-.-.^.@X+XE.",
"r.I G.+X+X&X%X&X@.3 , a.p.9.u.O O X X + o a.a.a.e e r r l k v v l c c k z r e n./ 5 ' w./ 2 4 w.L 3 , @.j.h.h.f.5.,.-.w.^.^.@X=.",
"{ V H.+X+X&X%X%X! = K k.j.c.7.j.6.q.u.0.O O X X 9.a.p.a.v c l l l e l a.0.X O q.0.6 ' e.' 7 V n.' 3 , k. Xj.h.5.    p.a.;X,Xa.;.",
"s ' L.+X%X%X0.u.0.a.O O O O X O O O X X O O q.p.r e v x l r r e r r r l e e w.6 6 6 ' e.e.+X+Xm.' 9 4 ! j.j.h.4.5.5.<.E.  a.@X~ ",
"s ' +X+X&X%X Xk.N : c.Z.j.j.7.7.6.7.6.t e e k l u.u.O O a.a.u.U.I.h j r 4 5 5 5 6 I y.>.+X@X@X&Xn.V , L j.j.6.6.4.;.y.{.].  a.) ",
"b ] +X&X&X&X.Xa.p.0.a.O O X O X X X O u.p.a.a.1.,.,.t r j h U.e j I.r l k k e 5 I :.e.' +X@X+X&Xb.! 3 Q l.h.6.6.4.    ,X:Xq.$X) ",
"b ] @X@X&X&X Xk.: , x.u.a.9.a.a.a.O O X O O O X a.u.a.a.q.U.i a U.a.u.a.9.q.a.w.e.:.' G.@X@X&X&XXX~ = Q z.h.    a.a.1X<X<X>X%X) ",
"Z { @X&X%X%X X%.= : c.x.x.x.Z.x.k.q.a.a.p.a.k l l I.U.U.j e ,X  p j U.U.h =.! / _ I 5 _ +X%X&X&XXX:.= W j.j.h.f.6.  a.,X}.@X$X( ",
"n { @X&X&X%X.X%.3 K @.A.x.x.x.x.x.c.7.h.f.<.p.q.a.u.a.l ,X>X,XX a.a.p.+ O X a.a.! V 4 ! XX+X&X%X.X@.= K h.h.      i.,Xp.,X%X$X[ ",
"S &.$X@X%X&X.X0.a.a.a.a.o O o o O O X p.4.5.      e k r I.U.U.I.I.I.  J K N : , _ L 4 ! +X&X&X&X.X@.= H         a.>Xa.a. X#X$XO.",
"S ..@X*X&X&X.Xx.B , , K .Xb.x.u.q.a.0.p.O X q.q.p.o p.  j I.p.a.+ X O O u.p.a.+.k.Q :           u.9.q.q.a.<X<X,X,X,X-Xa.q.$X&X@.",
"S =.@X@X&X&X+X.X$.3 , 4 ! XXb.b.x.x.j.7.h.<.,.X   y y y     I.a i j     4.6.o.O.@.L : Q Z.&X%X&X Xj.3 J j.h.6.6.6.6.}.%X%X%X%X@.",
"S =.E.@X%X&X&XD.b.< < < , K.m.x.b.x.j.      X q q q ,X:X<Xj j I.  @X@X$X$X}.6.o.o.H > *           a.a.9.p.a.a.1X,Xu.a..X%X%X.X_ ",
"G =.E.@X@Xa.p.a.o X o O                     X X a.u.a.a.p.a.O X     OX@X].}.$X4.h.W > * W XX%X          a.a.<X-Xq.j.+X%X%X%Xm.! ",
"G S `.$X&X&X&XD.n.:.! X X o X         X X X X O O O :X;XO H.H.*.@X@X@X@XOX].$X5.g.6.G >         a.a.i.p.,X,X:Xa.j.A.+X&X&X&Xn.' ",
"G S [.@X@XO X X O               X O X O X X O O   y q.o       $.+X@X@XoX'.OX$X$X          p.a.p.&Xx.Q 3 Q x.x.b.x.b.+X+X&X&XM.] ",
"a.p.a.p.O X O O O O X O             + p.9.q.q.q.  q O       P.+.+X@X~.'.P.OX'.@X].'.            p.<X>X,X<Xa.b.b.b.m.+X@X&X+XN.Y ",
"J S [.$X@X&Xu.0.q.0.q.a.X O X X X X     O X y y y               +X~.E.w.y.'.@X              a.p.1X,X<X,Xp.b.m.m.m.G.L.@X$XJ.R.Y ",
"J S @X$X*X&X+XXXG @ . # , v.m.v.k.k.X O X X O     q w   @XJ.@.E.~.E.              a.q.p.u.a.:X1X1X:X,Xq.2 n.K.G.G.H.J.+Xs.R.Q.D ",
"J S Q.$X&X&XXXD.%.i.i.a.X X X O         X X q.q.O             E.~.~.J.=.,.P.'.        a.p.p.a.p.,X,Xa.V 4 ' n.+X(.(.+XN.f $.=.F ",
"^ S -.).*X&X+XXXx.K 3 = , !             O X O X           ~ -.w.J.                p.a.,X,X:X<X,Xa.a.*.V 4 4 5 e.r.t.t.s b +.-.| ",
" .S b s.(.G.m.x.k.k.          + X X X X X X X O X       ;.$ ~                 a.0.:X:X<X:X:X;Xp.x.@.v.! 4 5 5 6 6 6 s b b ,.Z.y.",
"5.S n b ' m.K..Xx.x.%X@.3 , : 3XA.    O O O 2X>Xa.  ].].) @ J ;.          u.a.;X:X,X<X<Xa.a.p.: : 3 %.:._ V 7 8 6 8 8 b =.l.V.Z.",
"y.q.0.X X           X O q.M       :X;X:X;X:Xi i i p.i.                a.a.2X,X;X>Xa.u.g.h.G : : : N @.=.w./ / ` [ r.3.d.l.-...1.",
"T.!.W.Q.Q.Q.+.+.X O X X X 0.a.q.      :X    i h I.j > Q.{       a.p.a.:X,X,X,X<X2X;X>X<Xa.p.p.: : K @.@.~ < 4 9 ` e.r.s.$.b S S ",
"$.. Y N.G.&X%X%X$X%X%X%X X X  O O   ;Xa.a.    j j I.h { ;     a.;X,X,X,X;Xa.a.a.a.$X].f.6.] W M C ! c.c.k.! 4 4 L ,.r.[ Y b n S ",
"; ; ; a.a.0.O X X T.Q.R.T.O o           j j j I.I.I.U.j h a.a.2X,X,X:X<X2X,X>X,X,Xa.a.B.o.o.h.6.j.j.j.C. Xx.k.x.m.n.w.[ ] { 2.A ",
"=.T Y M.+X+X+X> ; ; +.            +.>     h   j U.h             ;X;Xa.p.j.Z..X X%X$X].B.J o.B.{.$X%X%X$X%X%X XZ.A.b.v.,.>.t.h.$.",
"+ X a.q.K..XC.      X ; +.{ Q.R.> Q.q.u.q.+ X X O X 9.X O X O   a.u.p.a.q.9.+XXX%XC.C.j.O.j.}.].%X$X$X$X$X%X%X%X%Xk.F.:.>.e.+.{ ",
"                  X X X O p.p.a.T.> Q.j j       O X O             m.n.v.v.x. XXX%X X}.7.o.j.j.$X%X$X%X X$X X$X$X$X%X Xb.:.w.>.r.",
"z.{ d       +           X X                                     X O   n.m.x. X+X+Xj.k.@.O.j.%X%X%X X X X X X X$X$X$X%XZ.b.v.,.e.",
"                  X X X         O O + O O I 8 8     O   O X   O   H.H.m.m.m.K.b.A.%.x.$.K O.XX.X X X].g.<./.}.$X#X$X$X}.C.v.:.:.",
"    X X O O X             X X                 5 X O X   X       L.H.H.H.m.K.w.! - 3 $.~ 3 k. XC.C.h.f.;.6.,.y.'.}.#X$X$X}.Z.%.:.",
",Xp.q.    X X + X + X X O                       u.0.u.  ' 6 6 [ L.H.H.L.L.w.P 4 4 V :.! , K k.Z.C.h.h.6.<.<.<.y.}.#X@X$X].Z.k.$.",
"-.l.{ ,X,Xp.                < B %.:.m.m.(.G.e.(       a.q.0.  p.a.  ).w.[ ` 5 5 V :.n.K - L x.x.j.h.6.<.<.<.,.;.,.|.#X%X$Xl.k._ ",
"a.<Xp.      X X O X     O O         G.m.                              ] ` 8 5 V e.' e./ ' ! m.x.z.j.h.h.5.<.4.,.,.^. X#X%X}.A.@.",
"  a.  :X:Xq.                    :.@X&X&X&X*X&X+XK.+XG.G.M.e.6 6 6 6 ' R 6 5 I e.] 7 I / 4 P x.x.x.j.j.6.r.5.<.<.4.'.}.$X$X{.k.@.",
"              @X            / ! P @X@X+X*X&X*X&X&X&X&X+XK.+Xe.7 6 6 6 6 I ' e.e.` 8 P / 6 / m.m.b.j.7.7.6.6.6.3.4.'.}.@X$X|. Xv.",
"S.z...b b J.).@X@X%X&XK.n.7 4 4 7 +X@X@X@X%X@X%X*X&X&X&Xm.+XG.M.[ >.e.e.e.e.r.[ [ ] ' ` 6 ( m.G.m.x.x.7.7.6.6.6.h.g. X@X%X XA.v.",
"G.Z...n b R.J.+X@X&X&X+X' 5 # # 5 M.+X+X+X+X@X@X@X@X&X&X&X&XG.M.>.w.M.M.&X@X@Xe.e.[ r.' 6 ` H.M.G.m.b.x.k.j.z.h.h.j..XOX%X.X+Xb.",
"r./...S n _.E.@X@X+Xw.L.' # . @ 1 [ J.H.N.M.M.(.+X@X%X@X&X@X@XH.e.e.M.&X@X@X&X&XH.r.r.' 6 ] J.H.H.G.G.b.b.8.x.j.j.C.+X%X%X.X+Xe.",
"<.S.1.S n Q.@X+XM.U ` M.[ 6 # # 6 ( H.H.J.M.N.M.H.(.@X&X+X' R e.e.M.M.&X@X*X*X*X).N.N.] s d J.J.H.H.G.m.n.v.v.v.x.b.+X+X&X+Xw.' ",
"W <.,.S n &.s.s.1 6 6 ' y.' [ ` 8 d J.H.N.N.M.N.H.J.).M.6 U U [ r.[ +.@X@X*X*X*X*XJ.P.] s s N.).J.J.H.M.m.n.n.n.b.b.XX+X&X@XH.+.",
"W >.,.F n b s +.6 6 I ' 7 8 [ } d d J.@XJ.N.R.J._.@Xt.] d d U s.] d s.+X$X&X*X*X=X).`.U b b &.R.).J.J.J.H.M.M.m.m.G.+XL.o.J.] f ",
"K X.,.:.D s s 6 6 I ' ' 8 7 ` } d s s J.@X~.~.@XQ.l.b b s Y d.s.Y { d.J.@X$X=X=X*X).[.{ Z s b +.R.@X_.J.J.J.H.L.(.r.[ t.I #.s.T ",
"K F ,.Q.l.{ 8 5 7 :.n.w.:.' e.>.f s n b l.s.l.l.n b n Z T l.s.$.s $.~.~.E.@X$X=X*X[.R.l.&.D Z b =.l.l.W.@X_.s.d.<.{ ] s b Y &.| ",
"X.>.:.l.s.t.e.w.m.b.F.D.m.n.e.e.#.f s Z n A A S S F S E -.V.V.A $ =.~.~.~.$X$X$X@Xl.!.:.:.E S S b $.{ =.l.l.{ { b b s b T h.:.| ",
"<.>.%.+.t.J.m.m.D. XA..X.Xm.K.e.d.+.T A E | | F F | <.A.Z.Z.Z.S & S !.$X[.[.!.V.E =.=.=.F A n A F S n n n b b b b Z T =.C.!.C.| ",
"e.F D Y y.m.&X%X%X%X%X%X%X&XD.n.N.s.%...=.F  .S.S.G.K.r.1.r.F. .H H <.A./.Z.1.m S 2.y.| S S H F ,.=.A A A A n T &.j.z.C.Z.:.,.,.",
"..^ T } e.@X+X%X$X$X$X$X%X$X&XG.M.+.T n m & m <.S.K.h.3.Q 3.K.f. .J H J H J H G  .b.Z.,.;.| | 1.Z.Z.Z.c.z.z.j.z.l.l.z.V.-.=.>.>."
};
