/* XPM */
static char *_a156a828a7f46e28df42181020f1046mApyV2eT2NEnG3Dn[] = {
/* columns rows colors chars-per-pixel */
"64 64 203 2 ",
"   c #020202",
".  c #302D03",
"X  c #353535",
"o  c #393436",
"O  c #353439",
"+  c #464917",
"@  c #474A26",
"#  c #51562F",
"$  c #585A34",
"%  c #5D6138",
"&  c #666925",
"*  c #686B26",
"=  c #6E712B",
"-  c #71742C",
";  c #676935",
":  c #696835",
">  c #696639",
",  c #6D693A",
"<  c #716D3D",
"1  c #767931",
"2  c #74703F",
"3  c #6D6A41",
"4  c #716D43",
"5  c #757242",
"6  c #797543",
"7  c #7C7946",
"8  c #767248",
"9  c #79754A",
"0  c #7C794D",
"q  c #7E7A50",
"w  c #A90100",
"e  c #9E2506",
"r  c #A22306",
"t  c #A32309",
"y  c #F60200",
"u  c #894F00",
"i  c #807C47",
"p  c #817D4A",
"a  c #817D51",
"s  c #7F8438",
"d  c #DF8B00",
"f  c #E28700",
"g  c #E18900",
"h  c #F98F00",
"j  c #F69200",
"k  c #F99100",
"l  c #FAEF00",
"z  c #F7F100",
"x  c #FAF000",
"c  c #888C43",
"v  c #84824D",
"b  c #88854F",
"n  c #8F9246",
"m  c #919547",
"M  c #92954A",
"N  c #96994C",
"B  c #9A9D4F",
"V  c #858154",
"C  c #898654",
"Z  c #8B8953",
"A  c #888559",
"S  c #8C895A",
"D  c #908D56",
"F  c #918E5C",
"G  c #9A9856",
"H  c #93925C",
"J  c #99955D",
"K  c #A09D5D",
"L  c #9DA152",
"P  c #A2A556",
"I  c #A4A35C",
"U  c #A6AA5B",
"Y  c #A9AD5C",
"T  c #ADB15F",
"R  c #908C61",
"E  c #949461",
"W  c #969962",
"Q  c #9C9B63",
"!  c #9B9866",
"~  c #A19D64",
"^  c #A29D6E",
"/  c #A29E70",
"(  c #9EA168",
")  c #A4A165",
"_  c #ABA865",
"`  c #A4A46A",
"'  c #A9A56B",
"]  c #A6A96F",
"[  c #ACAA6D",
"{  c #B0AE69",
"}  c #AEB262",
"|  c #B4B865",
" . c #B4B769",
".. c #B4B46C",
"X. c #A7A373",
"o. c #ABA675",
"O. c #A7AA70",
"+. c #ABAB72",
"@. c #ABA778",
"#. c #AEAA7A",
"$. c #B1AE72",
"%. c #B2AE7D",
"&. c #AEB274",
"*. c #AFB07E",
"=. c #B3B375",
"-. c #B8B672",
";. c #B5B876",
":. c #BCBC74",
">. c #B4B37B",
",. c #B9B67A",
"<. c #B6B97A",
"1. c #BBBC7C",
"2. c #C0BD7E",
"3. c #BEC077",
"4. c #BEC07D",
"5. c #C2C47A",
"6. c #C6C97E",
"7. c #CACD7F",
"8. c #97A29E",
"9. c #99A29E",
"0. c #AFB080",
"q. c #B6B381",
"w. c #BAB683",
"e. c #B6B985",
"r. c #BDBA85",
"t. c #BEBC88",
"y. c #9A9FA3",
"u. c #97A1A2",
"i. c #99A2A3",
"p. c #C1BE83",
"a. c #C1BE8A",
"s. c #BEC282",
"d. c #BFC18C",
"f. c #C3C482",
"g. c #C6C985",
"h. c #CACC84",
"j. c #C5C38D",
"k. c #C9C78D",
"l. c #CACD89",
"z. c #CDD183",
"x. c #CED18B",
"c. c #D1D487",
"v. c #D2D58D",
"b. c #D6DA8B",
"n. c #DADD8E",
"m. c #C4C690",
"M. c #C9C791",
"N. c #C6C992",
"B. c #CBCC94",
"V. c #CCCE98",
"C. c #D1CE97",
"Z. c #CDD196",
"A. c #CFD299",
"S. c #D3D690",
"D. c #D6D992",
"F. c #DADD95",
"G. c #D2D49C",
"H. c #D5D89E",
"J. c #DEDF9A",
"K. c #F8D997",
"L. c #F6D999",
"P. c #F9D999",
"I. c #DDE18E",
"U. c #DEE193",
"Y. c #DEE299",
"T. c #E2E18F",
"R. c #E1E292",
"E. c #E2E49C",
"W. c #E5EA98",
"Q. c #E6E99E",
"!. c #D6DAA0",
"~. c #DADDA3",
"^. c #DCE0A5",
"/. c #DFE4A8",
"(. c #EBEDA3",
"). c #E6E7A8",
"_. c #EEF1A6",
"`. c #EEF1A8",
"'. c #F1F4A7",
"]. c #F2F5AA",
"[. c #F6F9AD",
"{. c #F9FCAF",
"}. c #EEE8B1",
"|. c #F1ECB3",
" X c #F5F1B6",
".X c #FDFEB3",
"XX c #FAF7B8",
"oX c #FFFFBB",
"OX c #FFFFC4",
"+X c #FFFFC6",
"@X c #FFFFC9",
"#X c #FFFFCB",
"$X c #FFFFD3",
"%X c #FFFFDA",
"&X c LightYellow",
"*X c #F7F7F6",
"=X c #FAF6F7",
"-X c #F6F8F6",
";X c #F8F8F6",
":X c #F7F7F9",
">X c #F9F7F9",
",X c #F7F9F9",
"<X c #F9F9F9",
/* pixels */
" .R _ Y a.D.!.[.{.[.oX@XOXOX@XM.h.%.` ` p v Z S -.1.v.:.H H s.x.,.S C C V U a P P O.w.O.' ' P L ` w.w.,.q.>.>.>.q.>.,.q.w.O.I Y ",
"F R $ $ I F.!. X.X.X@X@XOX@X@Xg.g.0.>.` 7 # s A -.-.| D c F V.M.M.<.j.a.r.OX$XD.b.w.w.w.' Q ) L ) ,.q.>.>.z.x.Z.A.h.z.>.q.` 7 q ",
"c D A $ # F.D.S.[..X[.[.OX@X@Xg.#.#.>.` L 0 [ j.j. .C Z C <.W.<.f.j.oX%X%X%X$X$X%X%Xx.A.x.c.>.` ~ ~ >.%.&.x.V.].N.].l.l.h.,.9 q ",
"c Z _ V p D.!.S.l.[.'.{.`.m.E W #.+.#.>.,.,.t.t.a.&.b C C =.>.U [ t.oXoX@X%X@X@X#X#X$X%Xx.z.%.Q < 4 %.%.h.B.@X@X@X@X@X].B.[.! 8 ",
"..} A a a $.D.S.x.x.#.Q & & : , W @.#.#.%.>.q.w.r.a.$.V a &.[ v P oXoX.X$X$XOX#XOX#X#X#X.X#XQ 4 < < Q #._.@X#X@X@XOXoXOXj.`.h.J ",
"M._ >.a p ' F..X.X%.Q , , , , D o.g.l.l.z.z.>.` ,.w.w.a.r.n.P 7 0 .X.X.X.X.X.X[.@X[.#X#X.X@X4 , < M @.6._.OXOX@XOX_.`.OXOX(._.7.",
"/.>.U.+.p +.r.w.( Q < < , n H 6.g.@X@X@X@Xl.x.z.q.,.q.K O.1.7 6 9 Z.[..X.X].g.`.[.OX@XOXOXo.J M M Q o.g._.@XOXOXOX(._.(.OXOX(.f.",
"Y.+.a.+.p i 7 ~ ~ 6 5 M W [ g.g.@X@X@X@X@X@X@Xl.l.h.Q < B Q 5 5 %.Z.B.l.l.6.l.`.[.[.[.OXOX@.+.@.$.#.o.g.OXOXOXXX(.1.E. XoXOXQ.t.",
"J.a.a.+.0 7 7 6 6 2 4 Q #.@.g.@X@XOX@X@XOXOX@X@X@Xg.h.M J ~ 2 2 z.Z.l.l.l.g.B.[.[.OX@XOXg.! o.Q Q @.+.g.OXOXOXOX(.! ;.(.|.oXoXt.",
"F.a.+.r.w.' 9 G ` Q M ! #.@.[.@XOX@XoXOXXXOXt OX@XOX[.+.h.J < < Q l.l.l.g.g.g.[.@XOX@X@Xg.+.J < 3 +.o.6.OXOXXX(.E...=.J.Q.|.oXe.",
"F.w.] w.w.b.q.>.>.~ 4 < '..X X[.@XOXt `.`.t h OXOX@Xt g.l.W 4 , , l.l.g.l.g.N.{.@X@X#X`.h.#.E < 3 W @.6.OX`._.(.E. .;.Y.E.oXoXY.",
"F.b.` .XoXoXoXc.z.N < < N.].[.].'.'.e 1.t h t OXr t k OXN.6.J , , l.l.g.g.l.l.{..X#XV.N.h.%.J 4 4 $.W @.[.'.`.W.1.;...F.E.|.oXY.",
"v.] .X.XoX.XoX$X%.N < J l.'.`.[.'.e k t j j t t k z e @X_.M.W , , B.z.l.l.l.l.[..X$X[.[.h.%.#.Q Q $.M M _._.d.d.1.;.=.q.E.}..XY.",
"D.K .X.X.X#X$X#X%.M < +.g.g.f.f.s.t x k z j x j x j t e r k @., < 7.[.x.x.x.x.{..X.Xv.x.%.( q.%.%.J < H g.m.d.1.1.;.;.=.E.E.oXU.",
"H.w.H..X#X$X@X%X%.M < l.M.k.g.r t t k k x l j z k t t l k t 6.3 < < x.[.x.x.x.v.x.>.v.z.~ 5 B >.` < < J 6.f.4.4.1.;.;.=.E.oXoXU.",
"w.L S..X.X@X$X$X@.4 < l.g.g.g.f.t j k z k k x z x h z k e OXj.H , < < x.{.c.G.c.~ 6 ` q.~ - 5 >.K < < %.g.g.f.4.1.1.<.e.Q.E.oX;.",
"[ L b.oX.X$X#X@XW = J l.g.g.6.t t l l h k l k k x j j r t OX@Xg.M 2 2 2 v..X.Xq.6 6 ` q.` 8 B c.` 4 < h.].g.f.s.1.1.;.E.Q.  OX .",
"p ` H..X@X@X#X#.E * o.l.g.g.r h l h z j t h j r j r k k j k t `.o., 2 2 8 q.w.6 7 7 ] w.w..X.Xx.( 8 5 Q g.g.f.1.4.1.1.E.  i.OX! ",
"p ` .X.X$X#X[.l.M , l.N.g.g.6.r k k k t g r k t k P.t k t t @Xf.'.J 4 2 2 6 6 6 7 L w.,..XoXoX%Xc.N < J g.g.5.5.3.:.r.  i.i.OX^ ",
"p [ .X$X$X#X[.g.3 , B.l.l.l.h.h.t k k e g L.r K.r L.t k r XXOX(.N.J ! N 5 6 9 6 G ,.w.] .X.X.X$Xv.Q < J g.g.f.2.5.      ;X8.OX^ ",
"v [ oX.X$X#X[.g., , l.l.l.l.l.t j h e r K.u u P.K.K.t t j t OX(.X., n ! %.,.q.>.e.,.( v.oXoX$X$X.XQ = J g.f.f.5.      u.<XOX@X^ ",
"V [ oX$X@X$X[.%.* < l.g.l.k.t k k t g t K.<X  u g P.    t oXoXd.5., m #.%.=.Q ! ` L 6 ` .X@X$X$X[.%.* J g.f.f.      8.*Xi.oXOXX.",
"V [ OX%X$X@X[.@., Q %.V.l.x.l.t r t L.t P.<XX g K.K.X   oXOXE.Q.3.S @.O.J J < 5 Q B 5 Q .X.X$X#X[.#.& H g.        8.:Xi.OXOXOXX.",
"Z &.oXoX@X$X.Xh., Q ! V.C.l.k.x.l.t g g L.P.P.K.K.K.g   oXoX<.1.! X.F H H M , < ( G 2 Q .X$X$X$X[.#.* H           i.>Xy.].oXOX+.",
"Z $..X%X%X#X.Xx.m < < Q [.l.x.x.    r   g L.K.K.P.u   |.oXoXq.<.! 4.^ H E J W +.h.J 2 ! .XOX#X$X].g.            i.-Xu.].@X@X$X#.",
"Z =.oXoX@X$X.X[.+.< 4 < ~ {.x.  y X   u.  g K.u u g   oXoX.X=...<.OXOX`.4.4.X.O.o.J , J N.$X$X@X[.            i.<Xi.(.@X@X@X@X#.",
"Z =.Y.oX$X%X$XA.v.< 5 2 < G.      w X i.f   g K.g   E.oX.Xq.D.=.e.oXoXOXOX`.5.X.o.D > & @.{.@X              y.,Xi.g..X].#X@X[.( ",
"F =.Y.oXoX@X$X{..XQ 5 5 2   X X   y X u.g g         .X}..X&.D.=.F.oX XoX(._.OX4.s.H > & W [.            u.y.*X*Xi.g..X@X@X@Xv.! ",
"F Z /.oX%X%X$XA.x.%.~ <   o X X     w X <Xf i.O     .XoX.XF.D.%..XoXoXoX X(.OX1.d.5.D >               9.:X;X<Xi.g.V..X$X$X#Xc.` ",
"F Z /.OXoX@X$XA.G.%.~ 5   O X X O   y X -Xi.X       J.}..XS.J.&.oXoXoX X(. XoXOX(.(.              u.y.:X<X-Xi.l.l.x..X.X%X%Xb.' ",
"H Z ).oX%X%X$X{.x.~ N 8     X X X   w X i.O         .XoXoXS.J.+..XoXQ.E.F. X(.OX                9.;X<X<X:Xy.x.x.v.x..XoX%X.Xn.P ",
"E Z /.OXoX%X$X{.%.4 = <     X   O O     O           E.}..XF.J.}..XY.Y.q.q.).oX              i.i.>X;X:X:Xi.x.v.v.v.S.H.oXoXF.U.Y ",
"H Z oXOX%X$X.X{.W + . @     X   X X                 oX.XOXF.#.Y.E.E.E.=.>.                i.;X<X:X<X;Xi.= x.G.v.S.D.D..Xa.U.R.C ",
"H b E.oX@X%X{.G.q.@ . @     X   X X X               oXoX=.=.E Y.Y.E.J.                i.8.<X:X:X<X;Xi.B 6 ( c..X!.!..Xn.V $.=.S ",
"H C =.^.%X%X{.{.l.J 8   9.  X   X X X X X             oX=.! =.q.F.                i.i.<X:X<X<X-Xi.u.>.B 5 6 6 w.w.r.j.p v #.>.} ",
"| Z C a.!.v.v.g.h.z.#.  i.  o   X X X X <X<X;X        OX-.$ !                 8.i.;X:X;X<X-X<Xi.l.>.h.! 6 6 6 7 7 7 v v b <.N.1.",
"4.Z b v ` b.A..Xl.l.    u.      X o X -Xu u u 9.      )./                 i.i.<X-X-X:X:X:X,Xu., , 3 $.q.( B 9 9 7 0 p 0 &.j.M.B.",
"r.A b 7 ) v.l.$X$X              X X ;X  u g g g                       i.u.:X;X:X:X;X<X<Xi.i.> , , M @.,.q.! Q ` o.r.p.f.f.>...-.",
"M % U r.D.G.$X@X                O -X      u d g P.g : R.O.      i.i.9.;X-X;X;X;X;X:Xi.i.5.X.H : , J #.#.Q 2 7 6 I w.t.r.[ b Z Z ",
"; . U n.v.%X#X  X               X ;X    8.  g L.L.L.g +.,   N.  ;X<X:X<X<X:X:X-Xu.u.(.f.5.` E n n W h.l.l.J 5 8 J >.e.[ U b b Z ",
"Z $ [ e..X@X  X X             X -X    8.    g K.L.u g :   z.V.  <X<X<X<X;X<Xi.i.OX@Xj.d.X.X.f.6.g.g.g.N.].l.l.l.v.c.q.O.` [ [ Z ",
";.Y U n.{.    X                 <Xi.i.  g g   g P.g         x.x.  <X<X;Xi.i.[.[.@XOX_.m.J X.m._.@X@X@XOX@X@X].V.Z.x.z.,.1.t.f.$.",
">.Y v ]   X   X   X I.E.[ [ +.        u u g u           X     v.8.i.i.i.h.l.[.[.@XN.N.g.X.f.(.(.@XOX@XOX@X@X@X@X@Xl.Z.q.,.w.] [ ",
"k._ 7 )   X   X R.T.+.; ; ; ; +.  R.  g g               X     S.S.S.z.z.z.l.]..X#X`._.6.o.g.g.@X@X@XOX].OX].OXOXOX@X].z.,.w.w.1.",
"M.[ 0   X   o R.[ [ ; X       :   [ +.                    o     S.S.c.c.x.x.[..X.Xl.l.+.@.g.@X@X@X].'.'.`.`.`.OXOXOXOXB.l.z.<.e.",
"k.&.p   X   R.O.: ;   X                                   X     D.D.D.S.v.x.G.l.A.#.h.$.J +.[.{.].].(.d.4.Q._.OXXXOXOX_.m.z.>.,.",
"g.E.  X   R.] : X     O                                   X X     D.D.b.S.G.q.Q = 5 %.Q 4 g.].M.M.f.f.1.:.4.t.E.`.oXOXOX'.B.%.%.",
"j.f.  o I.O.:   X   X                                       X   X   S.H.H.q.K 6 5 N %.Q < ! h.N.m.g.5.4.4.1.1.t.).XXOXOX_.M.h.$.",
"<.  X T.O.:   X X   X                                       o   X o   w.] ~ 6 9 G >.c.Q = G l.l.g.g.s.1.4.1.1.:.;._.XX@XOXN.g.( ",
"=.U.R.[ ;     X     O               v.v.                    X   X     ) ` 7 6 L w.` ,.~ ` ~ l.l.g.g.f.f.4.1.1.1.<.W.`.oX@X(.M.%.",
"O.[ ; > X   X X     X           >.oX$X%X%X                        7 ' ) 6 7 L w.` 7 G ) 9 K v.l.l.g.g.5.f.1.2.1.1.W._.OXOX'.l.#.",
"> : ;       o O           ~ ~ ~ J oX.X.X%X%X%X            y.i.i.      6 L ` w.w.` 0 L ~ 6 ~ v.v.l.l.6.6.5.5.2.5.4.).`.oXOX'.].z.",
"k.            X       G.c.8 6 6 9 .XoXoXoX#XoX@X        8.i.y.  i.i.    w.w.w.O.X.) ` ) 7 ~ v.v.v.x.l.h.6.5.p.2.4.j.`.OX@X].V.z.",
"  <Xy.  *Xi.        $X.X) 9 @ @ 6 b..X.X.X.XoXoXoXoX$X%X                @XoXoXw.e.[ t.` 7 ) F.b.S.x.x.h.h.g.g.g.g.g. X].@X[..Xx.",
"              oXoX.Xq.H.` @ . + 1 X.D.D.b.b.b.!..XoX#XoX%XoX.Xb.w.w.b.$XoXoX%X$XD.t.w.' 7 ' D.D.D.S.S.x.x.h.h.h.g.N..X#X#X.X.Xw.",
"1.C.-.Z b U.oX.Xb.P ` b.` 7 @ # 7 ' D.F.F.b.n.b.D.H.oX#X.X~ ) e.w.b.b.%XoX%X%X%X!.n.n.' 0 v F.D.D.D.S.v.c.z.z.h.l.z..X.X$X.Xq.) ",
"E 1.,.Z b &.a.t.1 7 7 ` e.` O.) a 7 F.D.n.n.b.n.F.F.!.n.0 L P ] r.' ] oXOX%X%X%X%XF.F.[ p 0 n./.F.F.D.b.b.c.c.c.x.x.{..X%XoXD.+.",
"E 1.,.S b v 0 &.7 7 L ` 9 0 ` _ 7 i F.oXF.n.U.F.~..Xa.' i i P r.' 7 a..XoX%X%X%X%X/.~.U v v +.U.~.U.F.F.D.v.v.b.S.S..XH.] D.' a ",
"H  .<.>.V v 0 7 7 L ` ` 9 9 ` _ i p p U.oXY.E.oXR.a.p v p U f.a.U ' p.U.oXOX%X%X%X~.).[ V v v o.U.oX^.D.F.F.b.H.!.e.[ r.L &.a.Y ",
"H S -.W.j.[ q 7 6 ,.z.q.,.` w.,.a p v v j.j.j.j.b C b C Y j.j.[ v $.E.E.Y.oXOX&X%X/.U.j.&.V C v &.j.j.U.oX~.a.a.r.[ ' 0 v U ,.Y ",
" .,.=.j.a.r.w.q.c.x.A.A.v.c.w.w.+.a v v b b b C C S Z T ,.j.M.S $ =.Q.E.E.OX@XOXOXj.R.>.>.T Z C C =.$.[ f.t.$.[ p v v v U j.%.T ",
"r.1.$.+.r.D.S.x.V.[.V.[.[.v.G.w.r.#.Y A T } } F S | 1.B.C.B.M.Z % S W.oX).).W.M.} =.;.=.A C Z b S b b b C v v v v V Y >.m.W.N.} ",
"r.S A U t.v.%X#X#X#X@X#X#X@XA.v.b.a.=.$.-.S | C.C.C.C.s.-.1.B.| Z D 1.B.W.B.-.c Z } 1.} Z Z S S 1.=.Z S C A C Y &.g.j.k.M.<.;.,.",
" .S _ ' w..X.X@X@XOX@XOX#XOX$Xv.b.+.Y C c % c 1.C.H.j.1.! 2.G.f.| H H H H H F S  .l.V.<.;.| | -.M.k.M.l.k.k.g.g.N.j.M.M.<.=.-.1."
};
