/* XPM */
static char *aa0dec29b9d5490b94a657fe5f280da0AoLCsGH08uvn66lN[] = {
/* columns rows colors chars-per-pixel */
"64 64 201 2 ",
"   c #020202",
".  c #2A2700",
"X  c #353535",
"o  c #363539",
"O  c #464917",
"+  c #484B26",
"@  c #51562F",
"#  c #565934",
"$  c #5D6139",
"%  c #676A25",
"&  c #6E712B",
"*  c #71742C",
"=  c #686735",
"-  c #676934",
";  c #6A6835",
":  c #6A663D",
">  c #6D693A",
",  c #716D3D",
"<  c #767931",
"1  c #74703F",
"2  c #6D6A41",
"3  c #716D43",
"4  c #757242",
"5  c #797543",
"6  c #7C7946",
"7  c #767248",
"8  c #79754A",
"9  c #7C794D",
"0  c #7E7A50",
"q  c #AA0100",
"w  c #9E2505",
"e  c #A22306",
"r  c #A22309",
"t  c #F90200",
"y  c #8A4F00",
"u  c #885000",
"i  c #807C47",
"p  c #817D4A",
"a  c #817D51",
"s  c #7F8438",
"d  c #DE8900",
"f  c #E28700",
"g  c #E18900",
"h  c #F98F00",
"j  c #F69100",
"k  c #F99100",
"l  c #F9EF00",
"z  c #F7F100",
"x  c #F9F100",
"c  c #888C43",
"v  c #84824D",
"b  c #88854F",
"n  c #8F9246",
"m  c #919547",
"M  c #92954A",
"N  c #96994C",
"B  c #9A9D4F",
"V  c #858154",
"C  c #898654",
"Z  c #8B8953",
"A  c #888559",
"S  c #8C895A",
"D  c #918E56",
"F  c #918E5C",
"G  c #9B9957",
"H  c #93925C",
"J  c #99955D",
"K  c #A09D5D",
"L  c #9DA152",
"P  c #A2A556",
"I  c #A4A35C",
"U  c #A6AA5B",
"Y  c #A9AD5C",
"T  c #ADB15F",
"R  c #908C61",
"E  c #949461",
"W  c #969962",
"Q  c #9C9B63",
"!  c #9B9866",
"~  c #A19D64",
"^  c #A39F70",
"/  c #9EA169",
"(  c #A4A065",
")  c #ABA865",
"_  c #A4A46B",
"`  c #A9A56B",
"'  c #A6A96F",
"]  c #ABAA6D",
"[  c #B0AE69",
"{  c #AEB262",
"}  c #B4B865",
"|  c #B4B769",
" . c #B4B46D",
".. c #A7A373",
"X. c #ABA675",
"o. c #ABAB72",
"O. c #ABA778",
"+. c #AEAA79",
"@. c #B1AE72",
"#. c #B2AE7D",
"$. c #AEB274",
"%. c #AFB07E",
"&. c #B3B375",
"*. c #B8B672",
"=. c #B5B876",
"-. c #BBBC74",
";. c #B4B37B",
":. c #B9B67A",
">. c #B6B97A",
",. c #BBBC7C",
"<. c #C0BD7E",
"1. c #BEC177",
"2. c #BEC07D",
"3. c #C2C47A",
"4. c #C6C97E",
"5. c #C9CD7F",
"6. c #97A39E",
"7. c #99A29E",
"8. c #AFB080",
"9. c #B6B381",
"0. c #BAB683",
"q. c #B6B985",
"w. c #BDBA85",
"e. c #BEBC88",
"r. c #9A9FA2",
"t. c #97A2A3",
"y. c #99A2A3",
"u. c #C1BE83",
"i. c #C1BE8A",
"p. c #BDC282",
"a. c #BFC18D",
"s. c #C3C482",
"d. c #C6C985",
"f. c #CACC84",
"g. c #C5C38D",
"h. c #C9C78D",
"j. c #CACD89",
"k. c #CDD183",
"l. c #CED18B",
"z. c #D1D487",
"x. c #D1D58D",
"c. c #D6DA8B",
"v. c #DADD8E",
"b. c #C4C690",
"n. c #C9C791",
"m. c #C6C992",
"M. c #CBCC94",
"N. c #CCCE98",
"B. c #D1CE97",
"V. c #CDD196",
"C. c #CED299",
"Z. c #D3D690",
"A. c #D6D992",
"S. c #DADD95",
"D. c #D2D49C",
"F. c #D5D89E",
"G. c #DEDF9A",
"H. c #F7D996",
"J. c #F7D999",
"K. c #F9D99A",
"L. c #DEE18E",
"P. c #DDE194",
"I. c #DEE299",
"U. c #E1E18F",
"Y. c #E1E292",
"T. c #E4E997",
"R. c #E2E49C",
"E. c #E5E89E",
"W. c #E9EE9B",
"Q. c #D6DAA0",
"!. c #DADDA3",
"~. c #DDE1A5",
"^. c #DFE4A8",
"/. c #EBEDA3",
"(. c #E6E7A9",
"). c #EEF1A6",
"_. c #EEF1A8",
"`. c #F1F3A7",
"'. c #F2F5AA",
"]. c #F6F9AD",
"[. c #F9FCAF",
"{. c #EEE8B1",
"}. c #F1ECB3",
"|. c #F5F1B6",
" X c #FDFEB3",
".X c #FAF6BA",
"XX c #FFFFBB",
"oX c #FFFFC3",
"OX c #FFFFC6",
"+X c #FFFFC9",
"@X c #FFFFCB",
"#X c #FFFFD3",
"$X c #FFFFDA",
"%X c LightYellow",
"&X c #F7F7F6",
"*X c #F6F9F6",
"=X c #F8F8F6",
"-X c #F7F7F9",
";X c #F9F7F9",
":X c #F7F9F9",
">X c #F9F8F9",
/* pixels */
"| R ) Y i.Z.Q.].[.[.XXOXOXOX+Xb.4.#./ ` 9 v Z S -.:.Z.-.H H p.j.:.S Z V V U 0 P P ' e.o.` ` P L ` 0.0.0.9.;.;.;.9.;.&.0.0.o.U U ",
"F R # # I A.Q.|. X X+X+XOXOX+Xd.f.;.;.' 6 @ s A *.*.} D c R V.M.n.>.g.i.i.XX#XA.A.;.9.9.' ~ _ B ~ :.;.;.;.k.l.V.N.l.k.%.0.~ 9 9 ",
"c Z A # # S.Z.x.'. X[.].+XOX+Xd.O.+.;._ L 9 ] g.g. .C Z Z >.T.>.g.g.XX$X$X$X#X#X$X$Xl.C.z.z.;.( ~ ~ ;.#.;.k.N.'.N.'.j.l.f.;.8 0 ",
"c S { V p A.Q.Z.l.'.'.[.).m.E W O.+.+.;.:.,.w.e.i.$.b C C &.$.U ) w.XXXX#X#X+X#X@X@X#X$Xj.z.#.~ , 3 #.#.4.M.+X+XOX+XOX).N.].Q 7 ",
"[ { A V v o.S.Z.x.j.+.Q % % ; : W O.+.+.#.;.0.0.w.i.o.V V $.] V P XXXX X+X#XOX@XOX+X+X@X X@XJ 2 , 1 Q +.`.OX+XOXOXOXoXOXg.`.f.J ",
"n.) ;.a p ] S. X X#.Q , > ; : G X.d.j.j.k.k.;._ :.0.0.i.w.v.P 6 9  X X X X X X X+X].@X@X X+X3 , , M +.5.).OXOX+XOX).).OXOX/.).5.",
"(.;.P.X.p o.0.0._ Q , , , n H 4.d.+X+X+X@Xj.l.k.;.:.9.K ' :.6 5 5 C.].[. X'.d./.].OX+XOXOXX.H M m W o.d.).OXOXoXoX/.)./.XXoX/.s.",
"I.o.i.] p p 6 ~ ~ 1 , M W ] d.s.+X+X+X+X+X+X@Xd.f.f.Q 4 B Q 5 4 #.C.M.j.j.d.d.).].].].OXOXo.+.X.+.+.X.s.OXoXoX.X/.-.R.|.XXOXE.w.",
"G.i.e.o.0 p 6 6 5 1 3 Q #.O.d.+X+XOXOXOXXX+Xr +X+Xj.f.M J ~ 1 , k.N.j.j.d.d.m.].].+XOX@Xs.W @.! W +.X.s.OXoXoXoX/.! >./.}.XXXXq.",
"S.w.o.w.0.~ 6 B _ Q M ! +.O.].+XOXOXr OX.Xr j OXOXOXe +.f.J , , Q j.j.j.j.d.f.].+XOX@X@Xf.X.J 3 3 o.X.4.OXoXXX/.R.*.&.I.E.}.oXq.",
"S.w.' 0.0.c.9.#.;.Q 3 , `. X].'.OXOXr `.r h w OXr e j d.j.Q 2 , > d.f.j.f.d.m.[.+X+X@X).f.+.J , 3 W O.4.XX_.)./.I.*.=.S.R.XXXXI.",
"A.c... XXXXXXXz.z.N , , M.`.|.'.'.r h r h h r r j z r OXb.4.J > > j.f.f.j.f.j.[. X+XM.m.d.;.J 2 3 @.W O.].`.).T.:.=.| P.R.}.XXP.",
"A.'  X XXX XXX#X#.M , J d.`._.].'.r z j z j x j z j r r r j Q > > N.k.j.f.l.j.]. X@X].].k.#.#.! J @.M n ).).a.a.>.=.=.9.R.}. XP.",
"A.I  X X X+X#X@X#.N , o.d.d.s.r r r k j z x j x k r e z j r O.> > f.].l.l.l.l.[. X Xl.l.#./ ;.%.#.Q , J d.b.a.>.>.>.&.&.R.R.XXI.",
"F.0.D. X@X#X+X$X#.M , j.n.d.d.d.r k k x k j z x z h x h w +X4.2 , > l.].l.l.l.l.l.;.l.z.! 8 B ;.( 4 , J d.s.s.2.,.-.=.&.E. X XG.",
"0.L Z. X X#X@X#X+.3 , d.h.d.d.r r z l k k x j j z j j r r OXg.H > 1 1 l.[.l.C.c.( 5 _ 9.~ * 4 ;.J , , +.d.s.s.2.2.>.>.9.E.  XX=.",
"o.L x.XX X@X#XOXQ & J j.d.d.r h l h z j e j j r k r k j j j e d.M , 1 1 x. X X0.5 5 _ 0._ 8 B z._ 4 > k.'.d.s.3.,.,.:.R.  y.OX*.",
"p ( F. X+X@X@X+.J % o.j.d.d.4.e h h h r g e h r k K.r k e r OX).+., 1 1 4 ;.0.5 6 6 ' 0.0. X Xx._ 7 3 Q d.d.s.<.2.,.>.  t.y.XXQ ",
"p `  X X#X@X].j.M : j.M.d.d.4.4.r j j r g K.r K.r J.r h r OXOXs.`.J 3 4 1 5 7 5 6 L q.;. XXXXX#Xz.N 1 G d.d.3.3.1.      &X7.OX! ",
"v `  X#X#X#X'.f.2 : M.d.j.j.f.e h j r e K.y y H.J.J.r r k e OX/.m.J J N 4 8 6 4 L ;.0._  XXX X#Xx.Q , E d.s.s.3.      t.;X.XOX^ ",
"v ` XX X#X#X].f.> > j.j.j.j.r k j r g e K.>X  y d K.    r oXoX/...; M Q 9.9.9.9.0.;.( Z.XXXX#X#X X! & F d.s.s.      t.;Xt.oXOX^ ",
"C ] XX#X+X@X].+.% , j.j.j.j.j.r r e J.r J.>XX g K.K.X   /.XXXXa.3.: M +.+.@.Q Q / L 5 /  X@X#X#X[.#.& E h.        7.&Xt.)..XOX_ ",
"b ] OX$X#X@X'.#.3 J +.N.j.j.j.j.j.r g g J.K.K.J.J.K.d   XXXXR.E.1.S X.X.E J , 4 Q B 5 Q [. X#X#X].+.% H           r.-Xy.OXOXOX..",
"Z $.XXXX@X#X].f.> ! ! N.B.l.l.j.    e   g K.K.K.K.u   }.XXXX>.>.^ _ F H G M > > / G 4 Q  X#X@X#X].+.            t.;Xr.`.'.XXOXX.",
"Z @. X$X$X#X Xl.M 4 , J ].l.l.  t X   t.  d J.y y g   }.XXXX9.=.! ,.^ H H W W o.f.J , Q  X+X#X+X'.            t.>Xt./.'.+X+X#X+.",
"Z &.XXXX+X#X].].@.2 1 1 ~ [.      q X t.g   g K.g   XXXX XXX&.*.>.XXoX).1.2...o.X.G > J N.+X+X              t.>X7.4./.+X+X+X+X+.",
"Z &.I.XX#X#X#XC.x., 1 1 ,   X X   t X y.g g         R. X X9.S.&.9.XXXXoXoX_.2...X.F : % O. X            t.t.:X:X7.d.[.].@X@X]./ ",
"F &.I.oXXX+X#X[.[.~ 3 4   X X X     q o >Xg t.X      X{. X$.A.$.I.XX|.OX/.).OX1.p.H : %               t.;X;X:Xt.4.d. X+X+X+Xl.~ ",
"F Z ^.oX$X#X$XV.l.#.~ 1   X o X o   t o ;X7.X       XX X XA.A.#. XXXXXXX|./.oX,.g.3.              t.t.>X>X>Xy.j.d.N. X#X#X@Xz._ ",
"F Z (.XXXX+X$XC.D.#.~ 1     X X X   q X y.o         R.{.XXA.G.@. XXXXX}./.|.XXoX                y.>X>X>X:Xy.l.j.f.l. X X$X$Xc.` ",
"H Z (.oX$X#X#X].l.Q N 7     X   X X     X           XX X XZ.G.o.XXXXI.(.G.|./.              6.t.:X;X=X;Xy.j.l.l.l.x. XXX$X XS.P ",
"H Z ^.XXXX$X#X X#.4 & 3     X   X X                 R.{. XS.G.{. XR.I.9.q.                t.;X:X;X;X>Xt.Q l.x.x.x.Z.F.XXXXS.P.Y ",
"H Z XXOX$X#X X[._ . . +     X   X X o               XXXXXXS.$.I.R.R.R.                y.t.;X>X>X*X>Xy.~ * k.F.Z.Z.A.A. Xi.P.Y.C ",
"E Z Y.XX+X$X[.C.9.+ O   t.  X   X X X X o             XX&.&.R R.I.                t.y.:X>X;X>X;Xy.t.#.B 1 _ z. XQ.Q. XL.V @.&.S ",
"F Z &.~.$X$X X[.z.Q 3   t.  o   o X X X :X:X>X        XX=.! &.                r.6.:X;X;X;X*X;Xt. X+X;.N 5 4 8 9.0.e.e.v b o.&.{ ",
"} Z v i.!.x.l.j.f.f.    7.      X o o >Xy y y y.      OX=.                y.y.:X:X;X*X;X=X;X6.o.j.#.k.Q 5 5 5 6 6 9 6 v b >.N.q.",
",.Z v p _ c.C. Xf.              X X :X  y g g f                       y.y.:X>X>X>X;X>X>X7.r.; > : 3 @.8._ B 8 9 9 9 p p ] g.M.M.",
"Y.Y.Y.Y.` x.j.#X                X ;X      y g g H.g = Y.]       t.y.t.>X:X;X*X&X:X&Xy.r.s.F : > > M #.#.#.~ ~ ( ' w.w.s.g.>. .*.",
"o.] ] o.o.; +X  X               X ;X    t.  g K.J.J.g o.;   d.  >X;X>X>X;X&X>X>Xt.y./.a.3...H ; > J +.o.Q 4 , 8 I 0.w.w.@.b b Z ",
"- ; = - o.;   X X             X *X    t.    g J.J.u g ;   f.m.  ;X=X>X*X;X>Xt.t.OXOXE.s.3._ W c n W j.j.j.Q 4 4 K ;.w.] P v b Z ",
"; # ] w.; ] ; X                 ;Xt.y.  g d   g K.g         M.j.  >X;X;Xr.7./.`.+XOXg.a.....s.4.s.d.d.m.'.j.j.j.l.z.0.' ` ] ] Z ",
"*.Y P c.; o.; X   X                   y y g y           X     j.y.y.t.t.d.M.].].+XOX/.b.H ..m.).+X+X+XOX+X+X'.M.N.l.k.;.,.w.s.@.",
">.Y 6 '   ; ] X   X               Y.  g g               X     c.z.f.z.f.f.j.].[.+Xm.m.d.X.s.)./.+XOXOXoX+X+X+X+X+Xj.V.;.:.0.o.] ",
"g.] v   o   ] '   X   X     U.Y.  o.'                     X     x.z.z.z.k.j.'.[.+X'.`.4...d.d.+X+XOXOX'.OX'.OXOXOX+X'.k.;.0.0.,.",
"h.] 6   o   ; o.o.    o Y.L.o.] ;                         X     Z.Z.z.z.x.j.[. X Xj.j.+.o.d.+X+X+X'.`._.`.`.`.OXOXOXOXM.j.k.:.w.",
"o.$.  X     X ; o.] o.o.o.o.-                             X o     Z.Z.Z.Z.x.D.j.N.+.f.@.J X.].].].'./.g.p.W._.oX.XOXOX).m.k.;.;.",
"Y.o.  X   X     - - = = ; =                                 X   o   A.c.Z.D.9.Q & 3 #.Q 3 f.'.M.b.s.p.-.1.>.a.E.)..XOXOX).M.#.;.",
"L.] o     X   X X   X                                       X   X X   F.D.0.K 4 4 B #.Q , J d.M.m.s.s.2.1.,.>.q./..XXXoX).m.f.@.",
"Y.o.X   X     X     X               x.x.                    o   X     0.' ( 5 7 B ;.z.Q & G j.j.d.d.s.,.,.,.>.-.-.)..XOX+Xm.d./ ",
"Y.U.    X   X X     X           #.z.x.x.#X                        0.X._ _ 6 5 L 0._ 9.~ _ Q l.j.d.d.s.s.p.,.,.,.>.E._.XXOX/.M.#.",
"U.Y.        o X           / L ~ 9.XX#X#X#X#X$X            y.t.t.      I 5 6 L 0._ 8 B ~ 4 K l.l.j.d.s.4.s.,.<.,.2.E.).OXOX`.f.+.",
"Y.            X       [.Z.~ ~ ~ K XX XXX$X$X#X#X        y.y.t.  y.t.    P ( 0.0._ 8 P ~ 6 ~ x.l.l.d.4.4.3.3.3.<.1.E._.XXOX`.`.k.",
"  >Xy.  =Xt.        #XF.l.8 5 5 8  XXXXXXX#XXX+X$X#X#X#X                0.0.0.' o.` ~ ` 5 ( A.x.x.j.j.d.4.3.s.u.w.b.`.OX+X'.N.k.",
"               XXX$X#X X_ 5 + + 6 z. X X X XXXXXXXXX#X$X#X#Xx.c.:.0.c.c.+XXXXX0.0.' 0._ 6 ` A.x.Z.x.l.f.5.d.s.s.s.s.].].+X]. Xl.",
"w.W.*.Z b (.S.XXXX X,.D.( + . + < ` A.A.c.c.c.Q. XXX#XXX#XXXXXx.0.0.c.#XXXXX$X#XS.0.i.` 6 ` A.A.A.Z.x.x.l.f.f.f.j.m. X@X+X]. X0.",
",.N.*.Z b P. X Xv.L ( c.' 5 @ + 6 _ S.A.A.v.c.c.c.Q.XX@X X( ( w.0.c.c.$XXX$X$X$X!.c.v.` p 9 S.S.A.A.Z.x.z.k.k.k.k.j. X X#X X9._ ",
"E ,.&.Z Z $.i.w.< 6 6 _ 0.( ' ( 8 p S.A.v.v.v.v.S.S.Q.v.9 L P ' w.` o.XXoX$X$X$X$XS.S.] 9 v v.!.S.S.A.A.Z.z.z.z.l.l.[.XX#XXXA.o.",
"E ,.:.S C v p o.6 6 L _ 8 9 ' ` p p v.XXS.v.P.S.!. Xi.` i i P i.` 6 i. XXX$X$X$X$X~.^.I p v $.P.~.S.S.S.A.c.z.Z.x.Z. XF.' S.` a ",
"H } q.>.C p p 9 5 L _ ' 8 8 ( ( p p p P.XXR.R.XXY.i.p v p U u.i.P ] u.I.XXOX$X$X$X!.(.] V v v ] L.XX~.S.S.S.v.F.Q.w.' w.L +.i.Y ",
"H R &.T.g.` 9 6 8 :.k.9.&.' w.,.a p v v g.i.g.g.b C b b Y g.g.@.b @.R.P.I.XX+X%X$X(.S.g.$.C V v $.g.g.L.XX~.i.u.w.) ` p v U $.{ ",
"| :.;.g.i.e.0.9.x.l.C.C.x.z.0.0.o.a v V b Z C C Z A Z T :.n.b.A # &.T.R.R.oXOXoXXXg.T.;.&.Y C C b o. .] g.i.] ] 9 v v b Y g.>.{ ",
",.:.#.@.e.A.Z.l.V.'.N.].].l.F.0.i.o.U C T T { S S } ,.M.B.j.n.Z $ S T.oX(.(.T.g.T &.&.&.S Z Z C S Z b C C v v v v C U &.g.T.m.{ ",
"0.S C U e.z.$X+X@X+X+X+X+X#XC.z.v.i.#.[ @.F } B.B.B.D.w.-.w.M.} D D ,.M.W.M.-.c S } q.{ Z Z Z S >.&.Z Z C C b U &.s.g.g.n.>.&.:.",
"| S ) ) 0. X X+X+XOXOXoX+XOX#Xx.c.] Y C c $ c <.D.D.p.3.E <.D.s.} F H D H H D S } j.M.:.:.} } *.M.h.M.h.h.j.d.h.h.b.h.M.>.:.&.>."
};
