/* XPM */
static char *fdea247dec9f4645b40a54d0380bcb139Iem8WoSUKjCxeg3[] = {
/* columns rows colors chars-per-pixel */
"64 64 200 2 ",
"   c #020202",
".  c #302D03",
"X  c #353535",
"o  c #363539",
"O  c #464917",
"+  c #474A26",
"@  c #51562F",
"#  c #575A34",
"$  c #5D6138",
"%  c #686B26",
"&  c #6E712B",
"*  c #71742C",
"=  c #696736",
"-  c #676935",
";  c #6A6836",
":  c #686639",
">  c #6D693A",
",  c #716D3D",
"<  c #767931",
"1  c #74703F",
"2  c #716D43",
"3  c #757142",
"4  c #737047",
"5  c #797543",
"6  c #7C7945",
"7  c #767248",
"8  c #79754A",
"9  c #7C794C",
"0  c #A90200",
"q  c #9E2408",
"w  c #A22306",
"e  c #A22309",
"r  c #F90200",
"t  c #894F00",
"y  c #895000",
"u  c #807C47",
"i  c #817D4A",
"p  c #817D51",
"a  c #7F8438",
"s  c #DE8A00",
"d  c #E28700",
"f  c #E18900",
"g  c #FA8F00",
"h  c #F69100",
"j  c #F99100",
"k  c #F8EF00",
"l  c #F6F100",
"z  c #FAF000",
"x  c #888C43",
"c  c #84824D",
"v  c #88854F",
"b  c #8F9246",
"n  c #919547",
"m  c #92954A",
"M  c #96994C",
"N  c #9A9D4F",
"B  c #858154",
"V  c #898654",
"C  c #8B8953",
"Z  c #888559",
"A  c #8C895A",
"S  c #908D56",
"D  c #918E5C",
"F  c #9A9857",
"G  c #93915B",
"H  c #99955D",
"J  c #A09D5D",
"K  c #9DA152",
"L  c #A2A556",
"P  c #A4A35C",
"I  c #A6AA5B",
"U  c #A9AD5C",
"Y  c #ADB15F",
"T  c #8F8B60",
"R  c #949461",
"E  c #9A9660",
"W  c #9C9B63",
"Q  c #999A66",
"!  c #A19D64",
"~  c #A29D6E",
"^  c #A39F70",
"/  c #9EA169",
"(  c #A4A065",
")  c #ABA865",
"_  c #A4A46A",
"`  c #A9A56B",
"'  c #A6A96F",
"]  c #ABAA6D",
"[  c #B0AE69",
"{  c #AEB262",
"}  c #B4B865",
"|  c #B4B769",
" . c #B4B36D",
".. c #A7A373",
"X. c #ABA675",
"o. c #ABAB72",
"O. c #AAA876",
"+. c #AEAA79",
"@. c #B1AE72",
"#. c #B2AE7D",
"$. c #AEB274",
"%. c #B3B375",
"&. c #B8B672",
"*. c #B5B876",
"=. c #BBBC74",
"-. c #B4B37B",
";. c #B9B67A",
":. c #B6B97A",
">. c #BBBC7C",
",. c #C0BD7E",
"<. c #BEC177",
"1. c #BEC07D",
"2. c #C2C57B",
"3. c #C6C97E",
"4. c #CACD7F",
"5. c #9B9F9E",
"6. c #97A29F",
"7. c #99A29F",
"8. c #AFB080",
"9. c #B6B381",
"0. c #BAB683",
"q. c #B7BA86",
"w. c #BDBA85",
"e. c #BEBC88",
"r. c #9A9FA3",
"t. c #97A1A2",
"y. c #99A1A2",
"u. c #C1BE83",
"i. c #C1BE8A",
"p. c #BEC181",
"a. c #BFC18D",
"s. c #C3C482",
"d. c #C6C985",
"f. c #C9CC84",
"g. c #C5C38D",
"h. c #C9C78D",
"j. c #CACD89",
"k. c #CDD183",
"l. c #CED18B",
"z. c #D1D487",
"x. c #D2D48D",
"c. c #D6DA8B",
"v. c #DADD8E",
"b. c #C4C690",
"n. c #C9C791",
"m. c #C6C993",
"M. c #CBCC94",
"N. c #CCCE98",
"B. c #D1CE97",
"V. c #CDD196",
"C. c #CED299",
"Z. c #D3D690",
"A. c #D6D992",
"S. c #DADD95",
"D. c #D3D49C",
"F. c #D5D89E",
"G. c #DEDF9A",
"H. c #F9D997",
"J. c #F7D999",
"K. c #F9D99A",
"L. c #DEE293",
"P. c #DEE299",
"I. c #E1E18F",
"U. c #E1E292",
"Y. c #E4E997",
"T. c #E2E49C",
"R. c #E6E99E",
"E. c #E9EE9B",
"W. c #D6DAA0",
"Q. c #DADDA3",
"!. c #DDE1A5",
"~. c #DFE4A8",
"^. c #E7EAA1",
"/. c #EBEDA4",
"(. c #E4E7AB",
"). c #EEF1A6",
"_. c #EEF1A8",
"`. c #F1F3A7",
"'. c #F2F4AA",
"]. c #F6F9AD",
"[. c #F9FCAF",
"{. c #F1EDB3",
"}. c #F5F1B6",
"|. c #FDFEB3",
" X c #FAF6BA",
".X c #FFFFBB",
"XX c #FFFFC3",
"oX c #FFFFC6",
"OX c #FFFFC9",
"+X c #FFFFCB",
"@X c #FFFFD3",
"#X c #FFFFDA",
"$X c LightYellow",
"%X c #F7F7F6",
"&X c #F7F9F6",
"*X c #F8F8F6",
"=X c #F7F7F8",
"-X c #F9F7F9",
";X c #F7F9F8",
":X c #F9F8F9",
/* pixels */
"| T [ I i.A.W.].[.].XXoXXXoXoXb.3.#./ _ 9 c C A &.=.x.=.G G p.M.*.A V v B I 9 I K ' e.' ] _ L L ( 0.0.;.-.-.9.-.-.9.-.q.0.o.I I ",
"D T # # P S.W.}.|.|.oXOXoXoXOXd.f.-.-.' u @ a Z *.&.} G n T M.m.h.:.g.i.i..X@XA.Z.0.0.0.' ! ( N ( ;.-.9.-.k.l.V.V.j.k.-.9.! 9 p ",
"x S Z # @ S.Z.Z.].|.].].OXoXOXd.+.+.#._ K 9 ] g.g. .V C C :.Y.:.d.i.XX#X#X@X@X@X@X#Xl.C.z.z.9._ ! ! -.#.-.k.M.'.N.'.d.f.k.#.8 9 ",
"x A { p i A.W.Z.j.].'.[._.m.R R +.O.+.-.;.;.w.i.i.%.c V A $.$.I ) i..X.X@X@XOX@XOX+X@X#Xj.z.#.Q , 2 #.#.f.M.OXOXOXOXOX'.M.].W 7 ",
"[ { Z p p @.S.Z.x.l.+.Q % % ; > R +.#.#.#.-.0.w.w.w.o.B B $.] c K .X.X.X@X@XoXOXoXOX+X+X|.OXF 2 , , / o._.oXOXoXoXOX.XoXg.'.f.H ",
"n.) -.p i ` S.|.|.-.H , > ; > S X.d.d.j.f.k.-./ ;.e 0.i.w.v.L 6 9 |.|.|.|.|.[.[.OX].+X+X|.OX2 , , M O.3._.oXoXOXoX/._.oXoX/.`.3.",
"(.-.S.@.i o.w.0./ W , > > b H 2.d.OXOXOX+Xq l.k.e j 9.J ' e 6 6 3 D.[.|.|.'.d._.].XXOXXXoX+.H b n H O.d.).oXXXXXXX/./._..XXX^.d.",
"P.o.i.] i u 6 ! ( 3 1 m Q ] d.d.OXOXOXoXOXe OXe j e W e w j 3 1 -.C.M.k.d.f.d._.].].].XXoXX.+.+.+.+.O.d.XXXXXX X/.>.T.}..XoXR.w.",
"P.i.i.o.c 6 6 1 1 1 4 Q +.O.d.OXOXoXoXoXe j e h j e e j k w 3 , k.M.l.d.j.d.m.].[.OXOXoXd.H +.R W O.O.d.oXoXXX.X/.Q *.R.}..X.Xe.",
"S.w.o.w.0...6 F _ ! M E +.O.}.OXoXoX XoXq j h z j z j l j e w e h j.j.d.d.d.d.[.OXoXOXOXd.o.H 2 2 ] O.3.oXoX X/.T.&.*.P.R.{..Xq.",
"S.w...0.0.c.9.9.-.W 2 , '.].].].oXXXe w e l j l l z l j e j k j e d.f.d.j.d.m.].+X+X+X_.f.+.H , 2 R O.2..X'.).).T.| *.S.T..X.XP.",
"A.c._ |..X.X|.z.k.N , , M.'.].'.'.'.^.e h h z l j z k l h k j e > j.d.l.d.k.d.[.|.+XM.M.f.#.H 2 3 o.Q O.].'.).R.*.*. .G.T.{..X  ",
"A.' |.|..X|.|.@X#.M 2 E f.'._.'.'.^.e e k z j j l j j k j h e e > N.d.l.k.d.l.].|.OX].].k.#.#.W W +.n b ).).a.q.:.*.*.9.T.{.  r.",
"A.P |.|.|.+X@X@X#.M , @.d.d.s.s.2.w j z g k h e j h w j e j j j h e ].l.l.l.l.[.|.|.l.l.-.W 8.#.+.W , H d.b.a.>.>.:.%.%.T.  t.t.",
"F.0.D.|.+X@X@X#X+.m , d.n.d.d.s.p.w.w h j h w s w j e h J.e h w e > l.[.l.l.l.l.l.-.l.k.! 7 N #.( 1 , H f.s.1.1.>.*.*.%.    %X7.",
"0.K x..X|.@X+X+X+.2 , h.d.d.d.d.s.s.>.e j j w d J.e H.e J.e j e > 1 1 l.[.l.W.z._ 5 _ 9.! * 3 9.F 2 , @.d.s.s.1.1.>.      5.:X*.",
"] K x..X|.@X+XOXQ % H h.f.f.3.u.s.u.e j j e e J.y y H.K.K.d e h e 1 1 1 l.|.|.0.5 5 _ 0._ 8 N z._ 3 2 f.'.d.p.1.>.      y.:Xy.&.",
"i _ D.|.oXOX+X+.R % o.d.f.d.3.3.2.e j j w d w H.:X  y f J.    w +.> 1 1 3 9.0.5 6 6 ' 0.0.|.|.l._ 7 1 Q d.d.s.          t.:X.XQ ",
"i _ |.|.@X+X].j.m > d.N.d.d.f.3.3.s.e w e K.e J.:Xo f J.K.X   s.).H 3 3 3 1 5 5 6 K q.;.|..X.X@Xz.M , F d.d.          y.:Xt.OX~ ",
"c _ |.@X@X+X].f.2 , N.d.d.d.f.f.d.d.u.u.e d d H.J.H.K.J.J.f   /.m.H H M 8 5 8 5 K -.0._ |..X|.@Xl.W 2 H d.          y.*X7.}.XX~ ",
"c ] .X.X@X+X].d.> , d.j.h.f.j.h.j.d.d.    e   f K.K.K.K.y   oX^...> m Q #.-.9.9.0.-.( Z..X.X@X@X|.Q &             y.;Xy..XXXOX~ ",
"c ] .X@XOX@X].+.% , j.d.j.l.j.j.j.d.  r o   y.  f K.y y f   .Xa.2.: n +.+.%.W W / K 5 / |.OX@X@X].-.            y.:Xy./._. XXX..",
"V ] oX@X@X+X].+.> H #.N.j.j.h.j.        r X t.f   d H.d   .XT.R.<.A X.X.H H 3 3 W N 5 Q |.|.@XOX            t.y.;X;Xy.'.oXoXXX..",
"C $..X.X+X@X].f., E Q N.N.z.l.l.  X X   0 o t.f f         .X*.>.~ ~ G G H n > > / F 3 W |.@X@X            r.r.-X&Xt.a.'.'. XoXo.",
"C @.|.#X@X@X[.l.m 1 , H ].j.l.  o X X     r X :Xf y.X     .Xq.:.Q <.^ G R R Q o.f.H , Q |.              y.:X&X&Xy.s./.'.oXOX@X+.",
"C %..X.X@X@X[.].@.2 , 1 ! [.l.  X X X o   0 X ;Xy.X       .X%. .*.XXXX_.<.1...O.O.F > H               y.&X:X&Xt.2.2._.OXOXOXOX+.",
"C %.P..X@X@X@XC.z.1 1 1 2 D.x.  X X X X   r X 6.X         +.S.%.q..X.XXXXX_.<.' X.D               7.y.&X:X-Xt.2.2.d.].[.+X+X]./ ",
"D %.P.oX.XOX@X[.|.W 7 3 2 Z.j.    X   X X     X           $.A.$.S..X}..X/._.oX<.s.              y.-X:X-X:Xy.d.3.d.d.[.OXOX@Xz.W ",
"D C ~.XX@X@X@XC.j.#.W 3 1 x.x.    X   X X                 A.A.#.|..X.X.X}./.oX              r.y.&X:X:X:Xy.M.j.j.f.M.|.@X@X@Xz._ ",
"D C (..X.X@X@XC.D.#.! 3 2 x.x.    X   X X X               A.P.o..X.X.X{.^.}.            y.r.&X:X:X&X:Xy.W j.j.j.j.l.|.|.@X@Xc.` ",
"G C (.XX#X#X@X[.l.W N 4 3 x.  r.  X   o X X X X             G.o.|..XT.R.              7.&X&X:X%X:X:X7.2 Q j.l.l.l.l.|..X@X|.v.I ",
"G C ~..X.X@X@X|.#.3 & , 1 B.  r.  X   X X X X &X:X:X        G.{.|.T.              y.y.:X:X-X&X-X:Xr.k.W W l.Z.x.x.Z.F..XXXS.P.I ",
"R C .X.X#X@X|.[.Q O . + 1             X X o :Xy y y y.      $.P.                y.&X&X-X&X:X%Xy.7.].l.W * z.D.x.x.Z.A..Xw.P.U.A ",
"D C U.XX@X@X[.C.-.+ . +               o X &X  y s d d                       y.y.&X&X-X%X&Xy.y.OXOX@X#.N 1 _ c.|.W.W.|.v.B @.%.A ",
"R C :.W.#X@X|.[.j.W 2                 o &X      y d d J.d > U.]         y.y.;X&X&X:X-X;Xy.D ] m.|.+X#.N 1 6 5 0.w.w.e.c c %.:.{ ",
"} C c i.W.Z.c.j.f.f.  X           X   X -X    y.  d J.J.J.s ] >   *.    &X:X:X:X:X&Xy.y.= ; S +.d.#.j.W 3 7 5 6 6 6 i c c -.m.:.",
">.C c c _ x.D.[.U.I.U.U.o.          ;X&X    y.    f J.H.t d       :.;.  :X:X%X:X=Xt.^./.D ; ; > > 2 +.9./ N 8 6 9 9 9 c o.h.h.M.",
"q.C c u ( x.I.I.o.] ] o.o.] o.        5.7.y.    f   f H.d     X   =.:.  -X&X:Xy.t.XXe.a.2.D : > > m +.-.9.W ! ( ' w.u.s.g.*. .&.",
"S : U w.c.P.O.o.- = ; ; ; ; ' ]               y y d             X   <.y.r.y.7._./.oX/.e.2...G ; > H +.+.Q 3 3 7 P q.w.w.] c V C ",
"$ . I v.L.' - =     X   X   - ] O.        L.  f d y             X   2.<.s.2.^._.oXoX/.s.2._ R b b R k.j.k.W 3 7 J -.w.] I c C C ",
"C # ] >.I.o.- X     X       X ; o.+.I.U.  o.]                   X     d.s.s./.'.OXoXa.g.X...s.3.d.d.d.m.'.j.d.l.z.z.0.' _ ] [ C ",
"&.U I v.] ; X     X   X     o   - - = - ]                         X   f.f.b.[.].OXoX/.b.G ..b./.oXOXOXOXOXOX_.M.N.j.k.;.;.w.s.@.",
":.I u ' ] = X   X X   X     X                                     X X     f.[.[.OXm.m.d.' s.)._.OXoXoXoXOXOXoXOXOXj.V.-.;.0.X.] ",
"h.[ 6   = = o.  X     X   o                                       X   o X   '.[.OX_._.3.O.d.s.OXOXoXoX'.oX'.oXoXOXOX'.l.-.-.w.>.",
"h.] u     - o.- o   X X   X                                       X   X   j.].|.|.j.f.+.+.d.OXoXOX'.'.).)._.].XXoXoXoXh.j.k.*.0.",
"h.$.i 6   o.X.; X   X X   X             ! K 9                           Z.z.D.j.C.+.f.@.H o.{.|.].'.^.a.1.R.).oX.XoXoX).M.l.-.-.",
"h.L.` 6 o.L.` ;     o     o       3 3 -.0.0._ 6 6 6               y.t.      9.W & 2 @.Q 2 d.'.n.b.s.s.=.<.>.e.T./. XXXXX`.M.#.-.",
"I.U.U.L.U.] ;       X         W F 7 N -.9.0.K 5 6 6 _ w.      y.t.5.  y.r.    7 7 N -.W , H f.n.b.s.s.2.1.>.:.e./. XXXoX).m.f.@.",
"o.o.o.o.o.;   &Xy.        H , M #.#.x.l.W.Z.0._ ! ' ' 0.' 9 6                 5 N -.z.H & F j.j.d.d.s.w.1.>.>.=.:./. XoXOXb.f./ ",
"%.%.]               +XOXN.W 3 3 9.z.Z.x.@X|.|.F.D.|.x.0.0.( 5 6 6 0.] ( _ 6 5 N 0._ 0.! _ W x.j.d.d.s.2.p.>.>.=.>.R._. XoX_.M.+.",
"%.:.[ c 6 A.A.|.@XOX@Xl.C./ H ! -.|.@X@X@X#X@X|.W.|.A.c.c.0.6 6 6 6 _ ( 6 6 K 0._ 8 N ( 3 J l.j.h.d.d.2.,.>.>.>.1.R.).oXoX).f.+.",
"d.h. .c c S.W..X@X@X@X[.l.! W ( J .X.X|.#X@X#X@X@X@X@X|.D.|.0.8 6 6 6 6 K ( 0.0._ 9 J ! 6 ! x.l.l.f.f.2.2.2.s.>.<.R._..XoX).].k.",
"n.n.[ v c S.Q..X.XOX@XD.z.8 3 5 8 |..X.X.X@X.XOX#X@X@X@Xx.|.Z.c.' ;.0.0.0.0.w.' ' _ ( _ 5 _ A.x.z.j.d.f.2.2.s.2.1.g._.oXOX'.M.k.",
"B.B. .v c U.S.|..X@X@X|...5 + + 7 c.|.|.|.|..X.X.X.X@X@X@X@XZ.c.;.0.c.c.@X.X.X0.0.] 0.` 6 ( A.A.A.x.z.j.j.d.d.d.s.d.}.].+X].|.x.",
"1.E.%.V B (.L.|..X|.-.F._ + . O < ] A.A.c.c.c.W.|..X+X.X@X.X.XA.0.q.c.@X.X.X@X@XA.w.w.` 6 ` A.A.A.Z.x.j.z.f.f.f.d.m.|.+X+X[.|.q.",
"=.B.&.C v U..X|.c.K _ c.' 6 + @ 6 _ S.A.S.c.v.c.A.W..X@X|._ P 0.0.c.c.@X.X#X#X#XQ.v.v.` i i S.S.A.A.A.x.z.z.f.f.f.l.|.|.@X|.0.! ",
"G p.;.C V $.s.w.< 9 6 _ q._ ' ! p 6 S.S.v.v.v.v.S.S.W.v.9 K L ' w._ o..XXX#X#X#X#XG.G.o.i 9 v.Q.S.S.A.A.A.z.z.k.l.l.[.|.@X.XA.X.",
"G ;.;.Z V B i o.6 6 K _ 6 9 o.) u i S.|.S.v.v.G.Q.|.i.` u u L i.` u i.|..X@X$X#X#XQ.Q.L c c $.L.!.S.S.S.A.c.c.A.c.Z.|.F.' S.' B ",
"G | :.:.Z c 9 6 6 F ' _ 9 8 ! ) i i i P..XG.P..XU.s.c i c I u.i.I ] u.S..XXX#X$X#X~.!.@.B c c o.U..XQ.S.S.A.A.F.W.0.] w.L o.i.I ",
"G T ;.T.s.` 9 6 8 *.z.-.-._ 0.0.p i i c i.n.g.g.V B v c U g.g.@.c @.T.P.P..XoX$X$X~.U.i.$.Z c c -.s.g.L.|.!.i.i.w.` ] i c I -.U ",
"| ;.-.g.e.e.0.0.l.l.V.C.z.z.0.0.o.p c c v C V C V Z C Y :.h.h.Z # %.Y.T.T.XXoX.X.Xb.U.;.:.Y V V B @.o.%.g.i.] ) c c c c I s.-.{ ",
">.>.%.o.e.A.Z.l.C.].M.].].l.D.0.0.+.U V U { { A D } >.M.M.M.n.C $ C R.XX(.(.R.m.{ %.%.%.Z C C v C C v c v c v c c B U $.b.Y.m.{ ",
"0.T Z P e.z.@X+X+X+XOXOX+XOXD.z.v.i.%.@.&.A | B.B.B.B.p.&.w.N.} C S >.N.E.M.&.x C { :.{ C C A A >.*.C A V V v U $.d.h.h.m.-.;.;.",
"| A U ` 0..X|.OXOXoXOXoX+XoX@XZ.c.o.U V x $ x =.D.D.s.w.H ,.D.s.| G S H S S S D | l.N.;.:.{ } &.n.n.n.d.h.h.d.g.h.g.h.m.:.*.;.;."
};
