/* XPM */
static char *_c7651de4dae4972e31fb459ef71ff18KC4K4o99hPLLqUpc[] = {
/* columns rows colors chars-per-pixel */
"64 64 198 2 ",
"   c #020202",
".  c #2A2700",
"X  c #353535",
"o  c #383435",
"O  c #363539",
"+  c #464917",
"@  c #474A26",
"#  c #51562F",
"$  c #565934",
"%  c #5D6138",
"&  c #666925",
"*  c #686B26",
"=  c #6E712B",
"-  c #71742C",
";  c #686734",
":  c #666936",
">  c #6A6835",
",  c #6A663E",
"<  c #6D693A",
"1  c #716D3D",
"2  c #767931",
"3  c #74703F",
"4  c #6D6A41",
"5  c #716D43",
"6  c #757242",
"7  c #797543",
"8  c #7C7946",
"9  c #767248",
"0  c #79754A",
"q  c #7C794D",
"w  c #7E7A50",
"e  c #A90200",
"r  c #A22306",
"t  c #A32308",
"y  c #F70200",
"u  c #894F00",
"i  c #885000",
"p  c #807C47",
"a  c #817D4A",
"s  c #817D51",
"d  c #7F8438",
"f  c #DE8A00",
"g  c #E38700",
"h  c #E18900",
"j  c #F88F00",
"k  c #F69200",
"l  c #F99100",
"z  c #F8EF00",
"x  c #F7F100",
"c  c #F9F000",
"v  c #888C43",
"b  c #84824D",
"n  c #88854F",
"m  c #8F9246",
"M  c #919547",
"N  c #92954A",
"B  c #96994C",
"V  c #9A9D4F",
"C  c #858154",
"Z  c #898654",
"A  c #8B8953",
"S  c #888559",
"D  c #8C895A",
"F  c #908D56",
"G  c #918E5C",
"H  c #9A9856",
"J  c #93925C",
"K  c #99955D",
"L  c #A09D5D",
"P  c #9DA152",
"I  c #A2A556",
"U  c #A4A25D",
"Y  c #A6AA5B",
"T  c #A9AD5C",
"R  c #ADB15F",
"E  c #908C61",
"W  c #949461",
"Q  c #9C9B63",
"!  c #9A9865",
"~  c #A19D64",
"^  c #A29D6E",
"/  c #9EA168",
"(  c #A4A065",
")  c #ABA865",
"_  c #A4A46B",
"`  c #A9A56B",
"'  c #A6A96F",
"]  c #ABAA6D",
"[  c #B0AE69",
"{  c #AEB262",
"}  c #B4B46C",
"|  c #B4B868",
" . c #A7A373",
".. c #ABA675",
"X. c #ABAB72",
"o. c #ABA778",
"O. c #AEAA7A",
"+. c #B1AE72",
"@. c #B2AE7D",
"#. c #AEB274",
"$. c #B3B375",
"%. c #B8B672",
"&. c #B5B876",
"*. c #BCBC74",
"=. c #B4B37B",
"-. c #B9B67A",
";. c #B6B97A",
":. c #BBBC7C",
">. c #C0BD7E",
",. c #BEC077",
"<. c #BEC07D",
"1. c #C2C47A",
"2. c #C6C97E",
"3. c #CACD7F",
"4. c #97A19D",
"5. c #99A29F",
"6. c #AFB080",
"7. c #B6B381",
"8. c #BAB683",
"9. c #B6B985",
"0. c #BDBA85",
"q. c #BEBC88",
"w. c #9B9FA3",
"e. c #97A1A2",
"r. c #99A2A2",
"t. c #C1BE83",
"y. c #C1BE8A",
"u. c #BEC282",
"i. c #BFC18C",
"p. c #C3C482",
"a. c #C6C985",
"s. c #CACC84",
"d. c #C5C38D",
"f. c #C9C78D",
"g. c #CACD89",
"h. c #CED183",
"j. c #CED18B",
"k. c #D1D487",
"l. c #D2D58D",
"z. c #D6DA8B",
"x. c #DADD8E",
"c. c #C4C690",
"v. c #C9C791",
"b. c #C6C993",
"n. c #CBCC94",
"m. c #CCCE98",
"M. c #D1CE97",
"N. c #CDD196",
"B. c #CFD299",
"V. c #D3D690",
"C. c #D6D992",
"Z. c #DADD95",
"A. c #D2D49C",
"S. c #D5D89E",
"D. c #DEDF9A",
"F. c #E2DF90",
"G. c #F6D999",
"H. c #F9D999",
"J. c #DBE08F",
"K. c #DEE193",
"L. c #DEE299",
"P. c #E1E293",
"I. c #E4E997",
"U. c #E2E49C",
"Y. c #E6E99E",
"T. c #E9EE9B",
"R. c #D6DAA0",
"E. c #DADDA3",
"W. c #DCE0A5",
"Q. c #DFE4A8",
"!. c #EBEDA4",
"~. c #E6E7A8",
"^. c #EEF1A6",
"/. c #EEF1A8",
"(. c #F1F3A7",
"). c #F2F5AA",
"_. c #F6F9AD",
"`. c #F9FCAF",
"'. c #F1ECB3",
"]. c #F5F1B6",
"[. c #FDFEB3",
"{. c #FBF6BA",
"}. c #FFFFBB",
"|. c #FFFFC3",
" X c #FFFFC6",
".X c #FFFFC9",
"XX c #FFFFCB",
"oX c #FFFFCD",
"OX c #FFFFD3",
"+X c #FFFFDA",
"@X c LightYellow",
"#X c #F7F7F6",
"$X c #F6F8F6",
"%X c #F9F8F6",
"&X c #F7F7F8",
"*X c #F9F7F9",
"=X c #F6F9F9",
"-X c #F9F8F9",
/* pixels */
"} D { ) y.C.R._.`._.}..X X X Xb.s.O./ _ a b A D %.-.l.*.J J u.g.-.D A b C Y q I I X.0.X._ ` I P _ 8.8.-.7.=.7.=.=.=.-.7.8.X.Y U ",
"G E $ $ U C.R.].[.`..X X X X.Xp.s.@.=.' 8 # d S %.%.| G v G n.n.v.;.d.y.y.}.OXC.l.8.8.7._ ( ( P ( -.7.=.=.h.j.m.B.j.h.=.7._ q w ",
"v F S $ $ Z.C.l._.[._._..X.X.Xa.O.O.@._ P q ] d.d.} n A A :.I.;.p.d. X+X+X+X+XOX+X+Xj.B.k.k.=._ ~ ~ =.@.#.j.n.).b.).s.g.s.=.0 q ",
"v A { C a x.R.V.j._.).`.^.b.W W O.X.O.=.-.:.q.y.d.$.b n S #.=.T ] 0.}.}.OXOX.XoX.XoXOX+Xj.h.@.Q 1 5 @.@.3.n..X.X.X.X.X(.n._.Q 0 ",
"[ { S C b X.C.V.j.j.O.! * & > , W O.O.@.@.=.8.9.0.q.X.C s #.] q I }.}.[.OX.X.X.X X.X.X.X[..X! 6 1 3 Q O.^..X.X X X.X}. Xd.(.s.K ",
"v.) =.s a ] C.[.[.=.K 1 < < > H ..a.s.g.s.h.=._ -.8.0.y.0.x.I 8 q [.[.[.[.[.[.[..X_.oX.X[..X5 < 1 M O.2.^. X X.X X^.^. X X!.^.3.",
"~.=.K.X.a X.8.8._ Q 1 1 1 m J 2.a..X.X.X.Xg.j.h.=.=.7.L ' :.7 7 7 B.`.[.[.).a.^._..X.X|.|...K m M Q X.a.^. X X|. X!.^.!.|.|.!.1.",
"D.X.q...a p 8 ^ ( 3 3 N ! X.p.p..X.X.X.X.X.X.Xr g.h.Q 3 V ~ 7 6 =.m.m.g.a.2.a./._._.).|. Xo.O.X...O...a. X X|.{.!.*.U.].}.}.~.q.",
"L.y.q.X.a 8 8 7 7 3 5 Q O.o.a..X.X X Xt }..Xt l .Xs.h.t K ~ 3 3 s.n.j.s.g.a.b._._..X.X.Xa.K ..Q W O.X.s. X|. X X!.! &.!.].}.}.q.",
"Z.q.X.0.8.^ 0 V _ Q B ! O.o.]..X X X{.t {.t l t .Xr r l s.K 1 1 Q j.a.s.a.a.s.`..X XoX.Xs...K 5 4 X.o.1. X|.{.!.U.%.$.L.U.'.}.9.",
"Z.0.X.8.8.l.7.7.=.Q 5 1 (.[._.)..X Xr k t k l t t k c r g.K 5 1 < j.a.a.s.a.b.`..X.X.X/.s...K 1 5 ! O.1.}.^.^.!.U.} &.Z.L.}.}.L.",
"C.z._ [.}.}.[.k.h.B 1 1 b.^.[.).).(.t l l c k c k x l t r r l , < a.a.j.s.g.s.`.[.oXn.b.g.@.K 5 5 X.! .._.).^.Y.-.&.} L.U.'.}.L.",
"C._ [.[.}.[.[.OX@.B 1 K g.(.^.).r t r x l x x x x l t k x k t < < N.j.s.g.j.j.).[.oX)._.h.@.@.! K X.B m ^.^.i.q.:.&.$.7.U.'.[.L.",
"z.~ [.[.[.oXOXOX@.B 1 ..g.p.p.p.p.r k l c x k c x c l z l r X.< < h.).j.j.j.j.`.[.[.j.j.@./ @.7.=.! 1 K a.d.i.:.:.;.$.$.U.U.}.Z.",
"S.8.R.[..XOXoX+XO.N 1 g.b.a.a.t t t c z l l c l l c l k r r 2.4 < < j.`.j.j.j.j.j.=.l.k.~ 9 V @./ 3 1 K a.p.u.<.*.;.&.&.U.}.}.K.",
"8.P V.[.[.OXoXoXO.5 1 g.g.g.p.t j c j c l r l l t l t j l k k t < 6 3 j._.j.S.k._ 7 _ =.~ - 6 =.L 6 1 O.a.a.1.<.:.:.&.9.Y.U.}.&.",
"] P l.}.[..XOX.X! * K g.g.p.2.t r l k k t f t l t j H.t j t r a.N 1 3 3 l.[.[.7.7 7 _ 8._ 0 V k._ 3 1 s.).p.p.u.<.:.&.U.Y.    | ",
"a _ S.[..XoXoXO.K & ..g.g.s.r j z t l l r f G.r G.t H.t l t t /...1 3 3 6 =.8.8 8 8 ' 8.8.[.[.k./ 9 6 Q g.p.p.,.<.:.:.U.    r.! ",
"a _ [.[.OX.X_.g.M < f.v.g.g.2.t t k l t t H.u u G.G.G.h t j t p.).K 5 6 6 6 7 7 8 P 9.-.[.}.}.+Xk.B < K p.a.1.>.,.*.q.    e.r.^ ",
"a ` [.OXoXOX).s.5 1 b.g.p.g.2.t l k r h t H.%X  u h H.    t  X!.v.K K B 9 7 9 8 P -.7._ [.}.[.OXl.Q 6 K g.p.2.1.,.        =X4. .",
"b ` }.[.OXOX_.s.< < g.g.g.g.g.t r t t G.t H.-XO h G.G.X   r |.!. .< M / @.=.7.7.8.=._ V.}.}.OXOX`.Q * W a.a.p.1.        r.-X.X^ ",
"Z ] }.OX.XOX).O.* 1 g.g.g.g.t l l t t h h G.G.G.G.H.G.h   |.}.i.1., m O.@.+.Q Q / P 7 / [.oXOXOX`.@.* K f.p.p.        r.-Xr.|. .",
"n ] }.+XOX.X_.@.1 W 6.m.g.g.g.t r     t   h G.G.H.G.i   }.}.U.Y.,.A  .X.K K 1 6 Q V 6 Q _.[.+X.X`.O.& K p.          5.*Xr. X|. .",
"A #. X}..XOX_.s.1 ! ! m.m.j.g.g.  y X   r.  g G.i u h   }.}.&.:.^  .G J J M 1 1 / H 6 Q [.OXoXOX_.O.& G           e.-Xr.).{. XX.",
"A +.}.+XOXOX[.j.B 1 3 Q _.g.j.      y o r.h   h H.h   '.}.}.7.&.! ,.^ J W W Q X.s.K 1 Q [..X.XOX).s.            r.%Xe.^..X.XOXO.",
"A $.}.}..X+X_._.X.1 1 1 ~ `.  O X   e X 5.h f         }.}.[.$.%.;. X X^.,.<. .o...H < K m..X.XOX).            r.-X%Xw..X.X.X.XO.",
"A $.K.}.OXOXOXB.l.1 6 1 1 A.  X X   y X r.h g 4.X     [.[.7.Z.$.9.}.}.}. X^.,.o...G > & o.[. X              r.-X*Xw.`.`.oX.X)./ ",
"G $.L.|.}..XOX`.`.~ 9 6 6   X X X X   y O $Xh O       '.[.#.C.#.Z.}.]. X!.^. X,.u.W , & W               r.r.$X%Xr.a.`.oX.XoXj./ ",
"G A Q.|.+XOX+XN.l.@.~ 1     X X X O   e X -Xe.X       [.}.V.C.@.[.}.}.}.].!.}.<.i.1.J                 e.*X&X-Xr.g.n.[.OXOXOXk.( ",
"G A ~.}.}.oXOXB.A.@.~ 6       X O X   y X r.o         '.[.Z.D.X.}.}.}.'.~.].}.|.Y.                r.r.%X*X=Xe.g.g.j.[.[.+XOXz.` ",
"J A ~.|.+X+XOX`.g.~ B 9       X   o X     X           [.[.C.D.] [.}.L.~.K.].~.                5.5.-X-X-X=Xw.j.j.j.j.[.}.+X[.x.Y ",
"J A Q.}.}.+XOX`.@.6 = 1       o   X X X                 }.C.D.'.[.U.L.7.9.                r.e.-X$X&X*X$Xr.j.l.V.l.V.S.}.}.Z.K.T ",
"J A }.}.+XOX`._.H X . @   r.  O   X X X X X             }.Z.#.L.U.U.U.                r.r.$X-X-X%X-Xe.r.= k.A.V.V.V.C.[.y.K.P.S ",
"E A I. X.X+X[.B.$.+ + @   r.  X   O X X *X-X&X          $.$.W U.L.                r.e.-X%X*X%X*X-Xr.r.B 6 _ z.[.R.R.[.x.C +.$.D ",
"] A $.W.+X+X[.[.h.K 5     5.      X X -Xu i i r.        &.!                 e.e.e.-X#X$X%X$X$X&Xr.4.=.V 7 6 7 8.9.0.y.b b X.=.{ ",
"P.X.b y.S.l.l.j.s.h.              X %X  u h g h                         5.e.*X*X$X*X%X$X-X-Xe.r.s.@.g.Q 7 7 7 8 8 8 a b b ;.v.:.",
"K.P.] a _ l.A._.g.                X *X    i h h G.h > Z.            e.w.#X$X-X*X$X-X-X-Xr.r.e.< < 5 +.6._ V 0 8 8 q a b $.d.v.n.",
"X.Z.] a ( l.j..X                  -X    r.  f G.G.H.g ) K.      r.r.*X*X-X-X$X*X-X-X4.r.5.e., < < N 6.O.6.~ ~ ^ ' 0.0.p.d.;.} %.",
"F X.P.X.C.A.OXoX  X               %X5.r.    h G.G.i h > X.      #X&X-X%X$X#X*X-X-Xr.r.r.1. .J < < K O.#.Q 3 3 7 ( 0.0.0.] b A A ",
"$ X.F.X.l.+X.X    o               r.    i g   f h f         n.    %X-X#X%X-Xr.5.5.r.!.1.1._ W m m ! s.g.g.Q 6 9 H -.0.X.Y b n A ",
"F $ ' > }. X    X                     h i u u               n.    %X-X*Xr.r.r.r..X Xd.i... .p.1.p.a.a.b.).a.g.j.j.k.7._ ' ] } A ",
"%.R X.> [.      X   X             X.]   h u             X     j.r.r.r.r.5.r.`.)..X X^.c.W  .d.^..X.X.X.X.X.X).n.m.j.h.-.-.0.p.X.",
";.T > ] :     X     X           P.                        X   l.4.r.r.r.s.g.`.`..Xc.b.a. .p.!.!. X.X X X.X.X X.X.Xs.N.=.-.8.X.] ",
"f.) > X.>     O   X     X       F.:                       X     l.l.j.j.s.g.).`..X).^.2...a.a..X.X X X). X). X X.X.X).j.=.8.-.0.",
"f.X.8 X.> X   o   X     X     F.O.>                       X X   C.V.k.k.j.j._.[.[.a.g...O.g..X.X.X).(.^.^.^.^. X X X Xn.s.h.&.8.",
"f.#.a : ] :   X   X   O     K.X.>                           X     C.C.l.l.j.A.g.m.@.g.X.K ] _._._.).!.i.<.~.^. X{.|. X^.n.j.=.7.",
"f.K.    X.: X.    X   o ] X.X.>                             X   X   C.C.V.S.7.Q = 9 $.Q 5 3.(.v.b.p.p.*.*.<.i.Y.^.{.|. X^.n.@.=.",
"a.d.    o ' > ` X.X.` X.> : >                               X     X   S.S.7.L 6 6 H @.K 1 ! g.b.b.p.p.<.,.&.:.9.!.{.|. X^.v.3.+.",
"-.    o     > > > > : > :                                   X X   X X   _ ( 7 0 V =.l.~ = H g.g.a.p.1.p.:.:.:.*.:.!.{. X Xb.a.Q ",
"$.K.  X   X     o     X             l.l.                              _ _ 8 7 V 7._ @.~ _ ~ g.g.g.p.p.p.u.:.:.*.:.Y.!.|. X^.n.#.",
"X.]       X   o X               7.}.OXOX+X                r.w.e.        8 8 P 8._ q V ~ 6 L l.g.g.p.p.1.p.:.:.:.:.Y.^. X X^.g.O.",
": ;             O         Q ~ ~ L [.}.}.+XOX+X            r.r.r.  r.r.    _ 8.8._ q I ~ 8 ~ l.l.l.g.s.1.1.1.1.t.,.Y./.}..X).).h.",
"v.  -X5.  %Xr.        S.k.0 7 9 0 [.}.}.}.oX}..X        5.                0.8.' ` _ ` ~ 7 _ l.l.g.l.g.3.2.2.p.1.u.d.(. X.X).n.h.",
"                    OX[._ 7 @ @ 7 z.[.[.[.[.}.}.}.}.+XOX                .X}.}.8.8.' 0.` 8 ` V.C.l.l.g.g.s.p.a.p.p.p._._..X_.[.j.",
"              }.}.[.-.S.( @ . + 2 _ C.C.x.z.z.R.[.}..X}.OX}.}.C.8.8.z.OX}.}.+XOXC.0.0.` 8 ` C.Z.V.V.V.l.g.3.g.s.a.b.[..XoX_.}.7.",
":.j.-.A n K.}.[.z.P _ k.' 7 # # 0 ` C.C.Z.z.x.z.x.S.}.OX[.( U 8.0.z.z.+X}.+X+X+XR.x.x.` a 8 Z.Z.Z.V.V.l.k.k.s.h.g.j.[.[.OX[.7._ ",
"J u.-.n A #.y.q.2 8 8  .7._ ' ( w 8 Z.Z.C.x.x.x.Z.Z.E.z.8 I P ] 0.( X.}.|.+X+X+X+XD.D.] q 8 x.E.Z.C.x.C.l.k.k.k.j.j.`.}.OX}.C.X.",
"W -.-.D b b a X.8 8 P _ 8 q _ ) p p Z.[.Z.x.x.Z.E.}.q.` a 8 Y y.` a y.[.|.OX+X+X+XE.E.Y b b #.K.W.Z.Z.Z.C.z.z.l.l.C.[.S.' Z.` s ",
"J | ;.-.S b a 8 8 V ' _ q q _ ) a a a U.}.L.U.}.K.d.b b a Y t.y.Y ] t.K.}. X+X+X+XQ.W.] C b b X.K.}.W.Z.Z.Z.C.R.R.0.' 0.P O.y.T ",
"J E &.L.d.] q 8 0 -.k.=.=._ 8.-.s a a b d.d.d.d.n b b Z T d.y.+.b ] U.U.L.}..X@X@XW.I.d.#.S b b #.d.d.J.}.W.y.y.0.) ` a b Y #.{ ",
"| -.=.d.y.q.8.7.l.j.N.B.j.k.8.8.X.s a b n Z Z A A A A R :.v.v.S $ } Y.U.U.|..X}.}.c.I.=.=.T n S A +.+.] p.y.] ) a b b b T p.;.{ ",
":.:.+.X.q.C.V.j.m._.n._._.j.S.8.y.X.T Z R { { F D | 8.n.n.g.v.A % D I.|.~.~.Y.v.R %.$.+.D A A A S A n A n n n b b C T ;.d.Y.b.{ ",
"0.D S T q.k.+XoX.X.X.X.X.XOXB.k.z.y.@.} $.G { M.M.M.A.u.*.0.n.| A F :.n.T.n.} v A { <.{ A A A D :.$.A A S S n T #.p.c.d.v.=.=.&.",
"| D ) ` 8.[.[..X.X X.X X.X XOXl.z.+.T s v % v :.A.A.p.:.K :.A.u.| W J F J J F G | n.n.-.-.{ | %.b.v.v.a.f.f.a.d.g.c.f.d.:.&.-.-."
};
