/* XPM */
static char *result[] = {
/* columns rows colors chars-per-pixel */
"64 64 215 2 ",
"   c #000000",
".  c #090906",
"X  c #0C0C09",
"o  c #191913",
"O  c #312F15",
"+  c #4B4D1C",
"@  c #4A4C28",
"#  c #51562E",
"$  c #565934",
"%  c #557527",
"&  c #5C6536",
"*  c #5B7331",
"=  c #5B7934",
"-  c #656724",
";  c #686336",
":  c #6C6939",
">  c #716D3C",
",  c #687839",
"<  c #747639",
"1  c #394A52",
"2  c #716D43",
"3  c #6E7142",
"4  c #757242",
"5  c #797642",
"6  c #747947",
"7  c #7C7946",
"8  c #797649",
"9  c #7D7A4C",
"0  c #4E6962",
"q  c #527373",
"w  c #5C7B76",
"e  c #807D47",
"r  c #817D4A",
"t  c #817E51",
"y  c #008000",
"u  c #0C8609",
"i  c #1B8811",
"p  c #2A931D",
"a  c #528E34",
"s  c #67863D",
"d  c #78903A",
"f  c #7B904E",
"g  c #7A994A",
"h  c #71B14D",
"j  c #78A853",
"k  c #878A46",
"l  c #84824C",
"z  c #88854F",
"x  c #889749",
"c  c #93974A",
"v  c #959A4C",
"b  c #858254",
"n  c #898654",
"m  c #8B8953",
"M  c #888559",
"N  c #8C895B",
"B  c #918E54",
"V  c #918E5C",
"C  c #849551",
"Z  c #8A9A59",
"A  c #93915C",
"S  c #96995B",
"D  c #9B9C5C",
"F  c #A19E5E",
"G  c #82A547",
"H  c #88A658",
"J  c #9EA252",
"K  c #97A55C",
"L  c #89B55B",
"P  c #A2A556",
"I  c #A4A05F",
"U  c #A6AA5B",
"Y  c #A9AD5D",
"T  c #ABB25E",
"R  c #8E8A60",
"E  c #908E60",
"W  c #949361",
"Q  c #989863",
"!  c #9C9B62",
"~  c #9C9C69",
"^  c #A19D63",
"/  c #A29E6D",
"(  c #A39F70",
")  c #9AA86B",
"_  c #98B866",
"`  c #90B16A",
"'  c #A4A165",
"]  c #A4A46A",
"[  c #A9A56B",
"{  c #A7A969",
"}  c #ACAA6D",
"|  c #B0AE69",
" . c #AEB263",
".. c #A5BB69",
"X. c #A4BE6B",
"o. c #B3B865",
"O. c #B3B36C",
"+. c #A5A472",
"@. c #AAA775",
"#. c #A5AA70",
"$. c #ABAC73",
"%. c #ABA778",
"&. c #AEAB79",
"*. c #B1AE72",
"=. c #B2AE7D",
"-. c #A6B774",
";. c #ADB376",
":. c #B3B375",
">. c #B5B874",
",. c #BAB873",
"<. c #B4B37B",
"1. c #B9B67A",
"2. c #B5BA7B",
"3. c #BABC7C",
"4. c #C0BD7E",
"5. c #87C45F",
"6. c #99C668",
"7. c #8FC977",
"8. c #A3C16C",
"9. c #AAC373",
"0. c #A6C678",
"q. c #B6C577",
"w. c #BEC37C",
"e. c #B5CC7B",
"r. c #BCCA7C",
"t. c #A9D277",
"y. c #B5DA7F",
"u. c #C5C87C",
"i. c #C6C97E",
"p. c #AD31B5",
"a. c #DE63E7",
"s. c #7A9C9F",
"d. c #6B94A5",
"f. c #779CA7",
"g. c #B6B381",
"h. c #BAB683",
"j. c #B6B984",
"k. c #BDBA85",
"l. c #BDBC88",
"z. c #C1BE83",
"x. c #C1BE8A",
"c. c #ACC580",
"v. c #BDC282",
"b. c #BCCB86",
"n. c #BEC18D",
"m. c #BADA84",
"M. c #B4DA94",
"N. c #C3C483",
"B. c #C6C985",
"V. c #C9CC85",
"C. c #C5C38D",
"Z. c #C9C78D",
"A. c #CBCD89",
"S. c #C5D385",
"D. c #CDD183",
"F. c #CED18B",
"G. c #C5DB88",
"H. c #D1D586",
"J. c #D2D58D",
"K. c #D6DA8B",
"L. c #DADD8E",
"P. c #C9C691",
"I. c #C6C993",
"U. c #C8C993",
"Y. c #CBCC94",
"T. c #D1CE97",
"R. c #CBD296",
"E. c #CED299",
"W. c #D3D690",
"Q. c #D6D992",
"!. c #DADD95",
"~. c #D3D49C",
"^. c #D4D99E",
"/. c #C7E68D",
"(. c #D9E28F",
"). c #C6E490",
"_. c #CAE492",
"`. c #DDE194",
"'. c #DEE299",
"]. c #D3EA9A",
"[. c #E5EA97",
"{. c #E2E59C",
"}. c #E5E99E",
"|. c #D6DAA0",
" X c #DADDA3",
".X c #DDE1A5",
"XX c #DAEBA9",
"oX c #D9EDB5",
"OX c #E6ECA0",
"+X c #EBEDA3",
"@X c #E2E7AA",
"#X c #E7F3A6",
"$X c #EEF2A5",
"%X c #F1F3A7",
"&X c #F2F5AA",
"*X c #F5F9AC",
"=X c #F9FCAF",
"-X c #F1ECB2",
";X c #E5F3B9",
":X c #FDFEB3",
">X c #F4F6B8",
",X c #F8F4B9",
"<X c #FFFEBB",
"1X c #FFA5FF",
"2X c #FFA8FD",
"3X c #A5CEDE",
"4X c #EBF6C5",
"5X c #F3FBC2",
"6X c #FFFFC3",
"7X c #F4FBC9",
"8X c #FFFFCA",
"9X c #FFFFD3",
"0X c #FFFFDA",
"qX c LightYellow",
"wX c white",
/* pixels */
"O.R  .Y x.W.~.*X=X*X<X8X6X6X8XC.i.=.] ] e l z N ,.4.J.4.A W v.F.1.M z z b U 9 U P $.k.$.] [ P P ] h.h.1.g.<.<.<.g.g.1.g.k.$.U U ",
"V R $ $ U Q.|.,X=X,X8X8X8X6X8XB.B.=.<.#.e # d M :.O.Y k d N Y.Y.P.1.C.C.k.<X9XQ.J.h.g.h.] ^ ] v ^ 1.g.1.<.D.F.R.R.A.D.<.g./ 9 9 ",
"k B M $ $ !.W.J.=X:X=X*X8X8X8XB.&.&.=.] J 9 $.C.Z.{ p.p.p.#.(.#.N.C.<X0X0X9X9X9X9X0XJ.E.H.H.g.] ^ ^ <.g.:.F.Y.%XY.%XV.V.V.=.8 9 ",
"k n  .n l Q.|.W.H.*X%X=X$XI.W S %.$.=.=.1.1.k.x.C.:.l l f p.p.p.K j.>X<X9X9X8X9X8X8X9X9XF.D.=.^ > 2 =.&.V.A.8X8X8X8X8X%XY.*X! 8 ",
"|  .M n r $.!.W.J.F.&.! - - : : ! $.=.=.=.1.h.h.k.l.$.b r ;.{ f p.p.p.*X9X8X8X8X8X8X8X8X:X8XD 2 > 2 ! &.%X8X8X8X6X8X<X8XZ.%XV.F ",
"P. .<.t r [ Q.:X:X=.! > : : > B +.B.B.A.D.V.<.) 1.h.k.k.k.L.P 7 6 #Xp.p.p.p.*X=X8X=X8X8X=X8X2 > > c $.u.$X8X8X8X6X$X$X8X8X}.+Xi.",
".X=.{.} r $.h.h.) ^ > > : c S u.B.8X8X8X8XA.F.D.<.1.g.I #.3.7 5 5 E.#Xp.p.p.p.p.p.5X8X6X8X$.A c c Q %.B.$X8X6X6X6X+X+X+X<X8X+XN.",
"{.@.x.[ r r 7 / ^ > 2 c Q [ B.N.6X8X8X8X8X8X8XA.A.V.! 4 v ^ 4 4 <.E.Y.S.p.p.p.6.p.p.p.p.6X%.&.&.*.%.%.B.6X6X<X,X+X,.{.,X<X<X{.C.",
"!.x.k.$.r e e 7 5 < 4 / %.%.B.8X8X6X8X8X<X8X>XXXXXX.6.d C Z > 2 D.E.A.B.A.p.p.p.p.p.p.p.p.p.@.Q Q %.@.N.8X6X6X6X+X~ >.OX>X<X6Xl.",
"!.k.$.x.h./ 8 v / ^ v W %.%.*X8X6X8X<X>X_.M.                * * Q S.A.V.B.B.p.p.p.p.p.p.p.y p.p.2 $.@.u.6X6X<X+X[.:.:.'.{.-X<Xj.",
"!.l.+.h.h.K.g.g.g.^ 2 2 &X=X&X&X8X6XG.t.    d.d.d.d.d.d.1 1     * 9.r.B.V.B.I.p.p.p.p.p.p.p.p.p.p.p.%.u.<X$X$X+X{.>.:.!.{.<X<X'.",
"Q.K.] :X<X<X:XH.D.v > > Y.%X,X&X$Xm..   q d.d.d.d.d.1 1 d.d.d.d.    X.r.V.V.V.:Xp.p.p.p.p.p.p.p.p.p.p.@.*X%X$X}.,.1.O.`.{.-X<X`.",
"Q.] :X:X<X:X:X9X=.v > S V.&X%X-Xm.. q q d.d.d.d.1 1 d.d.d.3X3X3X3Xd.  9.q.A.A.*X:Xp.p.p.y p.p.p.p.p.p.p.p.+Xl.n.2.>.>.g.{.-X:X!.",
"Q.I :X<X<X8X9X9X=.v > @.B.B.N._   q q d.d.d.d.1 d.d.d.d.d.d.3X3X3X3Xd.  9.e.F.=X:Xp.p.p.p.y p.p.p.p.p.p.p.p.n.k.2.1.2.:.{.{.<X!.",
"^.k.~.:X9X9X9X0X&.B > A.P.V.X.. d.d.d.d.d.d.1 d.d.d.d.d.d.d.3X3X3Xd.3Xd.  9.q.F.F.:.p.a.p.p.y p.p.p.y p.p.p.p.w.3.>.>.:.{.<X<X`.",
"2.v r.#Xo o O ;X] 2 > A.V.N._   d.d.q q q q 1 d.d.d.d.d.d.d.3X3X3Xd.d.q q   c.H.' 6 p.p.p.p.y p.p.p.p.y p.p.p.p.w.3.1.j.}.{.<X>.",
"H   .   d.d.f.X X % C q.V._   d.q q q q q 1 q q q q d.d.d.d.d.d.d.d.q q q   ].) 5 7 #.p.a.p.p.y p.a.p.p.y p.p.p.3.3.>.{.OX<X8X,.",
"  d.d.d.q q q q w   .   _ L   q q q q q q 1 q q q q q q d.d.d.d.d.d.q q q q   , 7 7 ) p.a.p.p.y p.p.p.p.y p.p.p.p.3.2.{.<X<X<X! ",
"d.      q q       d.d.f.      q q q 1 1 1   1 1 1 q q q q d.d.d.d.d.q q q q   , , J k.:.p.a.p.p.y p.a.p.p.y p.a.p.p.l.+X+X<X8X~ ",
"  i   q     y._ *     w d.d.d.  q 1 1 1 1   1 1 1 1 q q q q d.d.d.d.q q q q q   g 1.g.#.p.a.p.p.y p.a.p.p.y p.p.p.p.3.+X6X,X6X/ ",
"a   q   w . #Xi.: * _     d.d.d.  1 1 1 1   1 1 1 1 1 1 q q q d.d.d.d.q q q q   ) 1.^ F.p.a.a.p.p.y p.a.p.p.y p.a.p.p.+X<X6X8X/ ",
",     M.. X $X&.- > B.9.L   w d.q   1 1 1 1   1 1 1 1 1 1 q q d.d.d.d.d.q q q   j v 4 ] *Xp.a.p.p.y p.a.p.p.y p.a.p.p.[.$X,X6X+.",
"f Z XXXX. X *X&.: W g.E.A.L   q q q   1 1 1   1 1 1 1 1 1 q q q d.d.d.d.d.q q q   g 4 ! *Xp.a.p.p.y p.a.a.p.p.y p.a.p.p.6X6X6X+.",
"z ;.6X:X;X7X*XD.2 W Q U.E.A.h   q q 1         1 1 1 1 1 1 1 q q d.d.d.d.d.d.q q   x 4 ! =Xp.a.a.p.y y p.a.p.p.y p.a.p.p.#X<X8X%.",
"m O.<X9X9X9X=XF.v > > ! &Xe.h   1 1 1 q q q 1     1 1 1 1 1 q q d.d.d.d.d.d.q q   C > ~ *Xp.a.a.p.p.y p.a.p.p.y p.a.a.p.p.8X9X$.",
"m :.<X<X9X9X=X*X*.2 4 : g t.  1 1 q q q 1 1 1 q q     1 1 1 q q d.d.d.d.d.d.d.d.  f : S U.8Xa.a.p.p.y p.a.a.p.y y p.a.p.p.8X8X=.",
"m :.'.<X8X9X9XE.F.< * =     1 q q q q 1 1 q q q q q 1   1 1 q q d.d.d.d.d.d.3Xd.  f ; - %.*Xa.a.p.a.y p.a.a.p.p.y p.a.p.p.8X*X~ ",
"V :.'.6X<X9X9X&X_.f     1 1 q q q 1 1 1 q q q q d.1 1 1       q d.d.d.d.3Xd.3X  _ Z : - W *Xa.a.p.a.y y a.a.p.p.y p.a.a.p.oXF.^ ",
"V z .X6X0X9X7X0.    q 1 1 q q q 1 1 1 q q q d.d.1 1 1 q q q q     d.d.d.3X3X3X  -.v.N ; A &Xa.a.a.a.y y a.a.p.a.y p.a.a.p.p.H.' ",
"A m @X<X<X7XoX  1 q 1 q q q q 1 1 1 q q q d.d.1 1 q q q q q d.d.d.  d.d.3X3Xd.  G.+XA - V #Xa.a.a.a.y y a.a.p.a.y q.a.a.p.p.K.[ ",
"W m @X6X0X;X  1 q 1 q q q q q 1 1 q q q q d.1 1 q q q q q d.d.3X3Xd.  d.d.3X  ].'.OX( ; B }.a.a.a.a.a y a.a.a.a.u D.a.a.p.a.(.U ",
"V m @X<X=XoX  q q q q q q q 1 1 q q d.d.q 1 1 1 q q q q d.d.d.3X3Xd.  d.d.d.  XX6X+X( - - u.a.a.a.a.8.g a.a.a.a.y p a.a.p.a.(.U ",
"A m <X6X;X  1 q q q q q q 1 1 q d.d.d.d.1 1 q q d.d.q q d.d.d.d.3X3Xq   3X  G.:X6X{.w.; - A a.a.a.a.9.Z a.a.a.a.h y a.a.a.a.!.M ",
"W m `.6X;X  1 q q q q q 1 1 q d.d.d.d.d.1 q d.d.d.d.d.q q q d.d.d.3Xd.  d.  G.6X<X6X3.k ; B a.a.a.a.) x a.a.a.a.R.E.a.a.a.a.$.m ",
"E m ;..XoX  1 q q q q q 1 d.d.d.d.d.d.1 d.d.d.d.q         q q d.d.d.d.d.  e.'.>X,X<XOX] ; B a.1Xa.a.#.x a.a.a.a.<.1.a.a.a.a.>. .",
"o.m l <.0.  1 q q q q 1 q d.d.d.3Xd.d.d.d.d.d.d.  1 1 1 1   1 q q d.d.d.  ` }.6X6X6Xl.w.; : a.a.a.a.r.K a.a.a.a.6 f a.a.a.a.Z.j.",
"w.l s s     1 q q q q q d.d.d.d.d.d.3X3Xd.d.d.q   1 1 1 1 q     1 q q d.d.  G.+X,X6XOX+XN : a.1Xa.a.#.;.a.1Xa.a.6 9 a.a.a.a.Z.Y.",
"-.s     q   1 1 q q q q d.d.d.d.d.3X3X3X3Xd.d.  1 1 1 1 q q d.d.    1 q d.  G.,X<X6Xl.n.u.V a.1Xa.a.$.&.a.a.a.a.) k.a.a.a.a.O.>.",
"s   q q q q   1 q q q q d.d.d.d.d.3X3X3X3Xd.q   1 q q q q q d.d.  H   1 q d.. Q.+X6X+Xl.u.+.a.1Xa.C =.&.a.1Xa.a.I k.a.1Xa.a.z m ",
"  0       q     1 q q q q d.d.d.d.d.3X3Xd.d.    wX    q q q q   X.q.8.  q d.3X  XX6X+Xw.w.a.1X1Xa.Q V.V.a.1Xa.a.D 1.a.a.a.a.k m ",
"    g j   q     1 1 1 q q q q d.d.d.d.3X3Xq   7.    wX  wX    q.B.i.q.  w q 3X  XX8XC.n.+.a.1X1Xa.B.B.I.a.2Xa.9.F.D.a.1Xa.a. .M ",
"K G g   w   m.y.    1 1 1 q q q q   d.d.3Xd.  y.g L   %   Z b.A.D.A.i.q.  q d.  XX8X+XI.W 1X1Xa.>X8X6Xa.1X2Xa.I.R.F.a.1Xa.a.v.*.",
"2.T s   f   b.-.L 6.    1 1 1     q d.d.d.d.w   x K g 3 , ) H.J.J.D.V.q.  d.d.  XXI.I.B.+.2X2Xa.8X8X8Xa.1X1Xa.8X8XV.a.1Xa.) #.} ",
"Z.{ ,   . m.U.A.q.t.5.        1 1 q q d.d.3Xd.  = J l.] 7 ' W.W.J.H.H.q.  d.  m.>X&X%Xu.+.1X1Xa.8X6X8X1X1Xa.>X8X8Xa.1X1Xa.1.h.3.",
"Z.} < , f b.0.X.`     1 1 1     1 1 q q d.d.3Xd.  ;.L.' 7 7 J.|.Q.J.H.e.  d.  /.:XS.V.@.a.1X2X;X8X%X&X1X1Xa.$X6X6Xa.1X1Xa.D.2.h.",
"Z.&.f 5 ( -.      1 1 1 1 1 1 q     1 q d.d.3X3X  S k.' 7 7 #. XW.Q.L.9.  d.  _ U.g.V.$.1X1Xa.#X%X&X+X1X1Xa.$X8X<X1X1Xa.b.F.<.h.",
"C.{.{ r 4 9.    1 1 1 1 q     1 q q     q d.3X3X  , P +.9 7 7 h.|.Q.b.  w d.  g % , $.W 1X1XOXI.I.u.a.1X2X..l.{.+X1X1Xa.$XY.=.<.",
"C.N.{ 7 5 t._ h   q 1 q   h s     1 q q q q d.d.  < ] h.[ 7 7 $.|.Q.e.  q d.d.      ) a.1Xa.A.I.I.N.1X1Xa.2.2.k.+X1X1Xa.$XP.V.*.",
":.B.} 7 7 9.    q d.q q d.  % s j     1 q q q   g +.#.h.#.7 7 7 K.:X0.  d.d.d.q   3X. 1X1XC A.A.B.N.1X1X>.3.2.,.a.2X1X#X8XI.V.! ",
":.:.*.r 7 q.  q d.    q d.  , 6 #._ _         0.|.:XK.h.h.' 7 7 7 -.  q d.  d.  y   1X1Xa.! F.A.B.a.1Xa.w.3.3.3.1X2Xa.<X6X#XY.&.",
":.:.| l 7 m.      u   d.  Z D ^ g.<X9X4X4X4X7X:X|.:XW.W.K.h.7 7 7 ,   d.3X  d.d.  y 1X1X, F F.A.A.1X1X..w.3.w.3.1X1X}.6X8X$XA.&.",
"V.Z.*.l l !.b.).M.  d.d.. ! ^ ^ F :X<X:X9X0X9X9X9X9X9X:X~.:Xh.8 7 , . d.  a   3X  1X1XS 5 ^ J.J.1X1Xa.u.4.u.w.a.1Xa.$X6X8X&X&XD.",
"Y.Z.O.l l !. X<X).  . X S.8 4 4 8 :X<X<X<X8X<X8X0X9X9X9XJ.:XW.K.] . s.3X  j   3X  1XZ ' 7 ^ W.J.1X1Xr.i.i.u.N.1X1Xj.&X6X8X%XR.D.",
"T.T.O.z l {.!.:X6X7X8X:X' 7 @ @ 5 K.:X:X:X:X<X<X<X<X9X9X9X9XJ.K.1.<.X   M.)..   1XH k.[ 7 ] W.1X1Xb.F.V.B.B.1X1Xa.N.*X*X8X&X:XH.",
"w.[.,.z l .X!.:X<X:Xg.^.' @ O + < { Q.Q.K.K.K.^.:X<X8X<X9X<X<XK.h.j.L.7X;X].. 2Xe.h.k.] 7 [ W.1XV.W.J.F.F.i.1X1Xq.I.:X8X8X=X:Xh.",
"3.Y.1.m z [.:X<XL.J [ H.] 5 @ + 7 / !.!.!.K.L.K.Q.^.<X9X:X] ' h.h.K.K.0X<X0X9X7X^.L.L.[ r r 1XG.Q.Q.Q.J.H.1X1Xr.A.A.:X:X9X:Xg.] ",
"A v.1.n z ;.x.l.< 7 5 ] h.] { ' 9 r Q.!.K.L.L.L.Q.!. XL.7 P P #.k.[ $.<X6X0X0X0X0X!.!.{ r 1XL. X!.!.Q.J.J.1Xi.H.F.F.=X<X9X<XQ.$.",
"W 3.:.N z l e $.7 7 J #.8 9 { [ e r L.<X!.!.!.!..X<Xl.[ r e P z.[ 7 k.:X<X9X0X0XqX X.XU l r $.`. X!.`.!.2XH.K.Q.W.W.:X^.#.!.[ t ",
"A o.3.<.M l r 7 7 v #.] 8 8 ] ' r r r '.<X`.{.<X{.x.l r r U x.x.U } x.`.<X<XqXqX0X X@X} b b l } `.<X.X2X!.!.Q.^.|.k.#.k.J &.x.Y ",
"A E :.[.C.[ 9 7 7 :.H.g.1.] h.4.t r r l C.C.C.C.k l z l Y C.x.*.l } {.{.'.<X8XqX0X@X`.C.:.b l n ;.C.C.`.:X.Xx.x.k.[ [ e l U :.Y ",
",.1.<.C.x.l.h.g.J.F.E.Y.J.H.h.h.$.t l l z z m n m M m  .3.Z.Z.M $ :.{.[.{.6X8X<X<XC.[.<.:.Y z n z *.O.*.x.C.} } 9 l l b Y N.2. .",
"3.1.:.$.l.Q.W.F.E.*XY.*X*XF.~.h.k.&.U M  . . .V V  .3.Y.Y.Y.P.m & N [.6X@X@X[.P.T :.:.:.N N m m N z z n k l l l l b Y :.I.'.I. .",
"h.R M Y l.H.9X8X8X8X8X8X8X8X~.H.K.x.:.| :.N o.T.T.T.T.v.,.k.T.o.B m 3.Y.[.Y.,.k m  .2. .m m N N 3.:.N n M M z Y :.N.Z.Z.Z.2.:.1.",
"O.N Y [ h.<X:X8X8X6X8X6X8X8X9XW.K.$.Y n k ; k 1.~.~.N.4.W 4.~.N.o.V A A A A B V o.T.Y.3.:.o. .,.P.Y.P.B.Z.P.B.Z.B.C.Z.P.2.:.1.3."
};
