/* XPM */
static char *result[] = {
/* columns rows colors chars-per-pixel */
"64 64 217 2 ",
"   c #010101",
".  c #0B0B08",
"X  c #11110C",
"o  c #2A2600",
"O  c #3D380D",
"+  c #454918",
"@  c #474A26",
"#  c #51562E",
"$  c #575A34",
"%  c #447D26",
"&  c #58762B",
"*  c #5D6139",
"=  c #5A7434",
"-  c #666A25",
";  c #696C26",
":  c #6F712A",
">  c #646E3B",
",  c #6D693A",
"<  c #716D3D",
"1  c #657637",
"2  c #747638",
"3  c #394A52",
"4  c #3E5055",
"5  c #475658",
"6  c #525F59",
"7  c #54625B",
"8  c #6E6C43",
"9  c #716D42",
"0  c #6E7A42",
"q  c #757142",
"w  c #767546",
"e  c #797642",
"r  c #7D7946",
"t  c #797649",
"y  c #7D7A4C",
"u  c #566E68",
"i  c #527373",
"p  c #5D7B75",
"a  c #6C7864",
"s  c #627E76",
"d  c #807D47",
"f  c #807E4A",
"g  c #817E51",
"h  c #79923C",
"j  c #6B9546",
"k  c #739948",
"l  c #6EA749",
"z  c #7AA455",
"x  c #668278",
"c  c #9C8C00",
"v  c #F7F708",
"b  c #888C43",
"n  c #84824D",
"m  c #88854F",
"M  c #8A9648",
"N  c #93954A",
"B  c #969A4B",
"V  c #96994C",
"C  c #858154",
"Z  c #898654",
"A  c #8B8953",
"S  c #888559",
"D  c #8C895A",
"F  c #908D55",
"G  c #918E5E",
"H  c #879653",
"J  c #979454",
"K  c #94915C",
"L  c #99955E",
"P  c #9A995E",
"I  c #A09D5D",
"U  c #87AA59",
"Y  c #9EA152",
"T  c #96A05F",
"R  c #8AB25A",
"E  c #92B35C",
"W  c #A2A556",
"Q  c #A4A35B",
"!  c #A6AA5B",
"~  c #A9AD5D",
"^  c #ADB15F",
"/  c #8E8A60",
"(  c #908E60",
")  c #949361",
"_  c #9A9662",
"`  c #959B62",
"'  c #9C9A62",
"]  c #9C9D69",
"[  c #A19D63",
"{  c #A29E6E",
"}  c #91AE66",
"|  c #9EA269",
" . c #9AB265",
".. c #96B966",
"X. c #9DBD6A",
"o. c #A4A165",
"O. c #A7A867",
"+. c #A4A46A",
"@. c #A9A56B",
"#. c #ACAA6C",
"$. c #B0AE69",
"%. c #AEB263",
"&. c #A4B66A",
"*. c #B2B764",
"=. c #B4B36C",
"-. c #B5B96A",
";. c #A7A673",
":. c #ABA775",
">. c #A6A970",
",. c #ABAC72",
"<. c #AEAA79",
"1. c #B1AE71",
"2. c #B2AE7D",
"3. c #A7B576",
"4. c #ADB375",
"5. c #B3B375",
"6. c #B8B672",
"7. c #B6B873",
"8. c #BABB74",
"9. c #B4B37B",
"0. c #B9B67A",
"q. c #B6B979",
"w. c #BBBC7C",
"e. c #C0BD7E",
"r. c #82C26C",
"t. c #A5C26A",
"y. c #ABC472",
"u. c #BDC077",
"i. c #B5C778",
"p. c #BEC17D",
"a. c #C3C47B",
"s. c #C6C97E",
"d. c #CACD7F",
"f. c #C0D17C",
"g. c #6E8B8E",
"h. c #729190",
"j. c #76969A",
"k. c #6B94A5",
"l. c #769BA5",
"z. c #809D9A",
"x. c #8BA795",
"c. c #B6B381",
"v. c #BAB683",
"b. c #B7B986",
"n. c #BDBA85",
"m. c #BEBC88",
"M. c #87A8A7",
"N. c #8BACB1",
"B. c #C1BE83",
"V. c #C1BE8A",
"C. c #BEC181",
"Z. c #BEC980",
"A. c #BEC28C",
"S. c #B9DB88",
"D. c #C3C483",
"F. c #C6C985",
"G. c #CACC84",
"H. c #C5C38C",
"J. c #C9C78D",
"K. c #C7CA88",
"L. c #CACC89",
"P. c #CED184",
"I. c #CED18B",
"U. c #D1D487",
"Y. c #D3D887",
"T. c #D2D58D",
"R. c #D6DA8B",
"E. c #DADD8E",
"W. c #C9C791",
"Q. c #C6C992",
"!. c #C8C993",
"~. c #CBCC94",
"^. c #D1CE97",
"/. c #CDD196",
"(. c #CED299",
"). c #D3D690",
"_. c #D6D992",
"`. c #DADD95",
"'. c #D2D49B",
"]. c #D5D89E",
"[. c #CDE391",
"{. c #DDE194",
"}. c #DEE299",
"|. c #D7EB98",
" X c #E4E997",
".X c #E5E997",
"XX c #E2E59C",
"oX c #E5E99E",
"OX c #D6DAA0",
"+X c #DADDA3",
"@X c #DDE1A5",
"#X c #DAEAA7",
"$X c #DFF0B0",
"%X c #E7EAA1",
"&X c #EBEDA4",
"*X c #E2E7AA",
"=X c #EEF1A6",
"-X c #EBF2A8",
";X c #F1F4A7",
":X c #F2F5AA",
">X c #F6F9AD",
",X c #F9FCAF",
"<X c #F1ECB2",
"1X c #E9F5B5",
"2X c #F4F5B7",
"3X c #FDFEB3",
"4X c #FAF5BA",
"5X c #FFFEBB",
"6X c #A5CEDE",
"7X c #ACD1D5",
"8X c #FFFFC4",
"9X c #F6FCCB",
"0X c #FFFFCB",
"qX c #FFFFD3",
"wX c #FFFFDA",
"eX c LightYellow",
"rX c white",
/* pixels */
"-./ $.~ V._.OX>X3X>X5X8X8X8X8XQ.G.2.| +.d n m D 6.e.^.e.K K Z.~.7.D A Z C ! g W W ,.v.,.@.+.W Y O.v.v.v.c.9.9.9.c.9.5.c.v.,.! ! ",
"G D $ $ Q `.'.2X3X>X0X0X8X0X0XD.G.<.9.>.r # h S 6.6.*.A b ( ~.~.!.9.H.V.v.5XqX_.).v.v.v.>.[ o.P o.7.9.9.9.P.I./.(.I.P.9.c.+.y y ",
"b F S $ # `._.T.>X3X,X>X8X0X0XF.<.<.c.o.Y y #.H.J.$.m A A q. X9.D.V.5XwXwXwXwXqXqXwXT./.U.U.9.+.[ [ 9.2.9.L.L.;X~.;XL.L.G.2.t y ",
"b A $.g n _.OX).T.:X:X,X=XQ.` ` <.:.<.c.0.w.m.m.V.5.m m Z 5.9.! #.V.5X5X0XwX0X0X0X0X0XwXL.P.9.' < 9 2.2.d.~.0X0X0X0X0X;X~.>X' t ",
"$.$.S n f ,._.T.T.L.<.' - - , , ` ,.<.2.2.9.v.v.n.V.,.g C 5.#.g W 5X5X5XqX0X0X0X0X0X0X0X3X0XP 9 < 9 ' <.:X0X0X0X8X0X5X0XJ.;Xd.P ",
"W.%.9.C g #._.3X3X2.' < , , , F :.F.G.K.P.P.9.@.7.v.v.V.v.E.W r y 3X3X3X3X3X3X,X0X>X0X0X,X0X9 , < B ,.d.=X0X0X0X8X;X&X0X0X&X&Xd.",
"*X9.{.:.f ,.v.v.+.' < < , N K a.F.0X0X0X0XK.L.d.2.5.c.I >.w.t e e (.>X3X3X;XF.-X>X0X0X8X0X:.K N N ' :.F.&X0X8X8X8X&X&X&X5X8X&XD.",
"`.:.V.#.f d r { [ 2 < N _ :.F.F.8X0X8X0X0X0X0XG.L.U.[ q B o.2 w 9./.~.L.G.F.G.-X>X>X>X5X0X:.<.<.,.<.:.D.8X8X5X4X&X8.XX2X5X8XoXm.",
"`.V.V.,.g r r r t q 9 ] <.<.D.0X0X8X8X0X5X0X0X0X0XG.G.V P [ q 9 L./.P.K.F.F.Q.>X>X0X0X0XF.' ,.' ] :.:.F.8X8X8X5X&X] w.oX<X5X8Xm.",
"`.m.,.m.v.@.t B o.[ V _ <.<.>X0X8X0X4X0X5X8X8X0X0X0X;X,.G._ < 2 ' K.K.K.s.s.F.>X0X8X0X0XD.:.L 8 8 ,.:.a.0X0X5X&XXX=.9.`.oX<X5Xb.",
"`.v.>.v.v.T.c.c.c.' 9 < ;X3X>X:X8X8X-X-X&X&X=X8X8X0X0Xs.F.` >     x p p p x x h.8X8X0X=XG.<.P < , ] <.a.5X;X-X&XXX-.9.`.XX5X5X}.",
"_.E.@.,X5X5X3XU.P.V 9 < !.=X2X:X:X=X&XC.w.%X=X0X4X8X0X0X3.    i i k.k.k.i i k.k.i h.Q.L.G.2._ 9 < :.' :.:X:X-XoXw.6.-.`.XX<X5X{.",
"_.@.3X3X5X3X3XqX2.V < _ G.=X=X2X:X%Xm.8.8.8.b.&X5X8X4X#X  3 3 3 k.k.k.k.k.k.i i k.k.l.M.P.9.2._ ' ,.N N =XoXH.m.q.q.q.c.XX<X3X`.",
"_.I 3X5X3X0XqXqX2.V < 1.G.K.D.D.a.p.w.w.q.w.q.XX&X4X1X  3 3 3 i i i k.k.k.k.k.k.i 6X6X6Xj.| 2.c.9._ < K F.Q.A.p.q.q.5.5.XXXX5X{.",
"].v.'.3X0XqXqXwX<.N < K.~.D.D.D.D.w.w.w.w.q.q.b.%X&XS.  3 3 3 i i i i k.k.k.k.k.k.i 6X6X6Xh.B 2.] e < L F.D.C.p.8.q.q.6.%X3X5X{.",
"v.Y ).3X3XqX0XqX<.8 < K.K.G.G.D.D.D.w.w.w.5.q.q.b.}.  3 3 3 3 3 i i i i k.k.k.k.k.6Xk.6X6X6Xh.9.I < < 2.F.D.D.C.u.w.9.b.XXoX5X5.",
",.Y T.5X3X0XqX0X] - L K.G.K.s.D.B.D.w.w.w.q.q.q.7. .  3 3 3 3 3 3 3 3 i i k.k.k.k.6X6Xk.6X6Xj.P.o.9 9 d.:XF.D.p.w.w.q.XXoX5X0X-.",
"f o.].3X0X0X0X<._ - :.G.G.F.s.s.a.B.C.p.w.5.0.7.5.U   i 3 3 3 3 3 k.k.3 i k.k.k.k.6X6X6Xk.6X6Xz.| t < ] K.D.D.p.p.p.w.XX5X5X5X] ",
"f +.3X3XqX0X>XL.N , K.~.K.G.F.s.s.D.e.w.w.8.q.q.4.  i i i i i k.k.k.k.k.3 i k.k.k.k.6X6X6Xk.6XN.P.V 9 P G.D.a.a.u.8.m.&X&X5X0X] ",
"n @.3XqXqX0X:XG.9 , ~.K.K.K.s.G.F.F.p.q.-.8.8.6.&.  3 i i i i k.k.k.k.k.k.3 k.k.k.k.k.6X6Xi k.6Xz.[ < L F.D.a.a.u.u.w.&X8X4X5X{ ",
"n @.5X5XqXqX>XG.< < K.L.L.L.L.L.i...      &.7.6.&.  3 i i i i k.k.k.k.k.k.k.k.k.k.k.k.k.k.k.i 6XM.| ; _ G.D.D.p.e.p.w.=X8X8X0X{ ",
"m #.5XqX0X0X>X<.; < K.L.L.L.Z.X.    k.k.6X  &.q.4.  3 3 i i i i k.k.k.k.k.k.k.k.k.k.k.k.k.k.i k.N.<.; ) K.D.D.C.a.w.D.&X&X4X8X+.",
"m @.5XwXqXqX:X2.> H X X . X..   p s   p k.k.   .q.U   3 i i i i k.k.k.k.k.k.k.k.k.k.k.k.k.k.i k.6Xj.; K D.D.D.C.C.p.p.=X8X0X0X@.",
"A 4.5X5X0XqX>Xt..   k.k.k.. i x     R     i k.  z z   3 i i i i i k.k.k.i i i k.k.k.k.k.k.k.i k.k.j.; J D.D.D.D.C.C.A.:X;X5X0X:.",
"A 5.3XwXwX0X[.X 6Xk.    k.k.k.  ..F.D.u.R   i k.      3 3 i i i i i k.3 i i i i k.k.k.k.k.k.k.i k.j., J D.D.D.a.a.D.&X;X0X0X0X,.",
"A 5.5X5XqX9X. 1X    i j.    l.  X.L.F.s.D.E   i k.k.i     3 3 i i i 3 3 i i i i i k.k.k.k.k.k.i k.6Xg.G F.D.a.a.a.a.-X0X0X0X0X2.",
"A 5.}.5XqX9X.   R   k.  & ..  j.  L.F.D.D.w.U   k.6Xk.k.k.  3 3 i i 3 3 3 i i i i k.k.k.k.k.k.i k.6Xg.` F.F.D.a.a.F.>X,X0X0X>X] ",
"G 5.}.8X5X0X9X-X[.. 9 . < y.. 7X. L.K.F.a.w.&.  i k.6X6X6Xk.  3 3 i 3 3 3 3 i i i k.k.k.k.k.k.i k.6Xj.) F.F.F.F.F.F.,X0X0XqXI.[ ",
"G m @X8XwXqXqX(.y.  . > 9 T.y..   L.K.D.D.e.8.U   k.k.6X6Xk.3   3 3 i 3 3 3 3 i i i k.k.k.k.k.i k.6Xj.- <.~.L.L.K.~.3X0X0X0XU.+.",
"K A *X5X5X0XqX'.(.c.' w q T.I.F.L.I.L.F.D.w.7. .  3 i k.k.k.i     3 i i 3 3 3 3 i i k.k.k.k.k.i k.6Xj.9 _ L.L.L.L.I.5X3XwXwXR.@.",
"K A *X8XwXwXqX,XI.' V 9 q ^.T.U.I.I.K.D.D.w.8.6.z   3 i i i i   i 3   i i i 3 3 i i k.6X6Xk.k.i k.6Xs 8 ] L.I.I.I.I.3X5XwX3XE.! ",
"K A *X5X5XwXqX,Xc.q : q q ^.I.G.G.G.K.F.a.B.w.w.U   3 3 3 i i 3 i k.3   i i k.3 3 i k.6X6Xk.k.i k.6Xs ] ' I.T.T.T._.].5X5X`.{.! ",
"K A 5X8XwXqX,X3X] O o @ q P.T.L.U.G.K.D.D.D.p.U   3   i k.k.i i 3 k.i   3 i i k.3 i k.k.k.k.k.i k.6Xs P : U.'.T.)._._.3XV.{..XZ ",
"( A .X5X0XwX3X(.c.+ + @ 9 { L.L.G.L.L.F.a.D.E   3 3   i k.k.i i 3 i k.i   i i k.k.k.k.k.k.k.i k.k.6Xs M w o.T.3XOXOX3XE.Z :.1.S ",
"G A 4.@XwXwX3X>XL._ 9 ; < P 2.^.L.L.L.G.i. .  3 3 3 3   i k.k.i i 3 i i   i i k.k.k.k.k.k.6Xk.6Xk.i z M w e e v.v.m.V.n n 4.q.%.",
"*.A m V.].T.T.I.G.G.2._ < < [ G.^.I.i.X.    i i i 3 3   3 i i k.i 3       3 i i i k.k.k.6X6Xk.6X6Xi   6 2 e e t r r f n n 9.~.q.",
"w.A m f +.T.'.,XL.L.0X<.8 < < < ^.X.    i k.k.k.i i 3 3   3 3 i i 3 3 3   3 i     i k.k.6X6Xk.6X6X  3 s 6 B t t y y f f 1.J.!.~.",
"n.A m r o.T.L.0XqX0XqX:X<.N < 8 &.  i k.k.k.6X6Xk.3 3 3 3       3 3 3 3 3   i       i k.6X6Xk.6X6X    s 7 [ [ { >.v.B.D.H.5.=.5.",
"F * ~ m._.'.qX0X0XqXqX>X=XG.N =   p k.k.k.6X6X6Xk.i 3 3 3 i i i   3 3 3 3   i   c   i k.6Xk.6X6Xk.  z   6 , 2 t o.v.v.m.#.m A A ",
"* O W E.).qX0X0X0X0X0XqX:X=XH   i k.k.k.6Xk.k.k.k.i 3 3 i i k.k.i i   3 3   i   v   i k.k.i 6X6X  j X.  7 H w w Q 9.v.4.W n Z A ",
"A $ #.n.3X0X3X,X0X0X0X0X0X3XU   k.k.k.k.k.k.k.k.i i 3 i i 6X6Xk.k.i i   3   3 i     k.k.k.i 6Xk.  } y.  x 7 Z.I.I.U.c.>.O.#.=.S ",
"7.~ W R.3X3X3X,X>X>X5X:X0X|.  i k.k.k.6X6Xk.k.k.i   3 i k.6X6Xk.k.k.i 3     3 i i k.k.k.i 6Xk.  S.9X[.  i 5 %X~.~.P.P.9.w.v.D.1.",
"q.! f >.'.>XQ.Q.D.=X:X0X0X$X  k.k.6X6X6Xk.k.k.i   3 3 i k.k.k.k.k.k.i 3   3 rX3 i i k.i k.k.i   #X9X  i i 4 2X0X0XL./.c.0.v.,.@.",
"K.$.d o.U.>X~.G.s.=X>X:X5X$X  i k.6X6Xk.k.i i     3 3 i i k.k.k.k.k.i 3   i 3   rXi 3 i i     #X8X$X  i k.3 1X8X0X0X;XP.9.c.w.n.",
"J.$.n e P I.L.s.Q.:X8X0X0X|.  i i k.k.i i i         3 3 i i k.k.k.i 3   i i k.k.    rX    ..1X9X$X. p k.k.k.7 8X8X0X0XL.L.P.9.v.",
"J.4.y e [ I.G.F.;X:X5X0X0X0X..  i i i i 3   3   k j     3 3 i i 3     3 i i k.k.6X6X  k k @.>X:X  x.  i k.k.5 0X5X8X0X=X~.P.9.w.",
"K.{.#.r e I.P.~.,X0X0X>X>XG.:.j       3 3 3 3   < e k l           3 3 3 i i k.k.k.6X6X  = F.;XW.    l   k.3 X.oX&X4X0X8X;X!.<.9.",
"K.H.@.r e I.I.:X>X8X0X0X0XG.P j   i i i i 3   1 d d o.n.H = = k ..    3 3 i i k.k.6X6X  > _ G.Q.A...5   k.3 3.b.&X4X5X8X=X!.d.2.",
"9.H.O.y e I.I.>X0X0X0X0XL.L 1   i i k.k.i i   o.o.>.>.b.@.f r d i.  i       i i k.k.k.  - P L.L.D.a   i k.4 3.8.q.-X4X0X0XJ.K.| ",
"5.5.#.n r E.'.3X3X0X0X0X~.'   u   k.  3 k.  [.].OX3XR.c.v.{ r r 1   i i   %     i i   M | ' T.L.K.  5 k.4  .w.8.8.oX&X4X8X;X~.,.",
"5.9.%.n r `.E.3XwX0XqXI./.|     k.  r.  k.  9X3X].3X).).Y.v.d 2   u i k.  & h U     k [ 2 Q I.L.K.i.     .p.w.w.p.%X-X0X8X=XK.<.",
"L.K.1.n f `.OX5XwX0XqX,XI.' H . k.  S.  M.. qXwXqXqXwX3X].4Xc.j   i k.k.p   3.b.T w Y o.e { T.T.I.P.d.i.p.a.a.p.u.%X;X5X0X;X:XP.",
"~.J.=.m m `.+X5X5X0XqX'.P.t 0 1 .   -X#X. 1X5X0XwXqXwXqXT.,X).y.  i 3 k.3   c.>.>.o.@.o.t o.).T.T.L.L.d.a.a.D.e.D.H.:X8X0X;X~.P.",
"^.~.=.m d XX`.3X5XwXqX3X| r @ @ 2 Y.3X3X3X3X5X5X3X5XqXqXwXqXI.. x   i 3   -X5Xb.b.>.v.+.r +._.).).T.I.G.G.G.G.D.D.D.>X>X0X>X3XT.",
"p..X6.Z m *X_.5X5X3Xv.].[ @ o + 2 @._._.E.T.R.'.3X5X0X5XqX5X>X    z     |.5XwXqX`.v.V.@.r @._.E.).).T.T.L.d.L.G.F.!.,X0X0X>X3Xv.",
"w.^.7.Z n .X3X3XR.W +.R.@.e # # r { `._._.E.E.E._.OX5XqX3Xo.o.4.3.f.i.9X3XwXwXwX+XE.E.@.f f _.`.`.).).).T.U.P.G.L.I.3X3XwX3Xc.o.",
"K n.q.A m 9.V.v.2 2 y +.c.o.>.o.f r `.`.E.E.E.E.`._.OXE.y Y Y ,.n.O.,.5X8XwXwXwXwX`.`.O.f y E.@X`.`._._.).U.U.U.I.I.,X3XwX3X`.>.",
"` w.5.S m n f ,.d d Y +.y y >.O.d f E.5X`.E.{.`.+X5Xm.#.f n W v.O.y v.5X5XwXwXwXwX@X@XO.n n ,.{.@X`.`.`._.R.R.T.T.).3X'.>.`.@.g ",
"K -.w.9.Z f f r d B ;.@.t y o.O.f f f }.5XXX`.5X.XV.f n n W B.V.! #.V.{.5X5XwXeXwX@X@X:.C n n :..X5X+X`.`._._.].OXn.>.V.Y ,.V.%.",
"K D 9. XH.@.f r t 5.U.c.5.+.v.0.g f f n V.H.Q.V.n n n Z ~ K.H.1.m ,.{.XX}.5X0XeXwX@X.XH.4.Z Z n 5.V.D.{.5X@XV.V.n.O.@.f n ! 2.~ ",
"-.w.5.W.V.v.b.c.T.I././.I.T.v.v.,.g f n m m Z Z A S A ^ q.J.J.S $ 5.XXXXXX8X0X5X5XW..X9.9.^ Z Z m 1.#.5.H.D.#.#.y n n n ~ K.9.%.",
"w.0.2.,.m._.T.T./.>X/.:X,XI.'.v.V.,.~ S %.%.%.G G *.w.^.^.J.!.A * D  X8X*X*X.X!.^ 5.1.5.S A m A S A m m m n n n n C ~ 5.J.}.Q.%.",
"w./ S ! b.R.qX0X0X0X0X0X0X0X(.R.E.V.5.$.6.D *.^.^.^.^.C.6.n./.*.F F w.~.oX~.6.b A *.q.*.A A D D w.5.A A S A m ~ 4.D.J.J.W.c.9.7.",
"$.D ~ @.v.5X3X0X0X8X0X0X0X0X0XT.R.:.~ Z b * b 0.'.'.D.n._ e.'.p.-.K K K J F F G *.^.~.9.q.*.*.6.!.J.!.J.!.J.D.J.J.J.J.!.q.5.7.w."
};
