/* XPM */
static char *result[] = {
/* columns rows colors chars-per-pixel */
"64 64 224 2 ",
"   c #000000",
".  c #0B0B09",
"X  c #1F1F18",
"o  c #2A2600",
"O  c #3D380D",
"+  c #333329",
"@  c #454918",
"#  c #474A26",
"$  c #51562E",
"%  c #575A34",
"&  c #4C7A2B",
"*  c #51762D",
"=  c #5D6139",
"-  c #5A7834",
";  c #656826",
":  c #696B26",
">  c #6E722A",
",  c #70722A",
"<  c #646B34",
"1  c #6D693A",
"2  c #716D3C",
"3  c #657839",
"4  c #767635",
"5  c #394A52",
"6  c #3F5154",
"7  c #485658",
"8  c #495959",
"9  c #58655B",
"0  c #6D6A42",
"q  c #726D42",
"w  c #757142",
"e  c #757447",
"r  c #797642",
"t  c #7C7945",
"y  c #797649",
"u  c #7D794C",
"i  c #75755C",
"p  c #556866",
"a  c #527373",
"s  c #5B7974",
"d  c #617D75",
"f  c #807D47",
"g  c #807E4A",
"h  c #817E51",
"j  c #208E18",
"k  c #569334",
"l  c #6F8B3B",
"z  c #76993D",
"x  c #73944B",
"c  c #78984C",
"v  c #75B14E",
"b  c #7FAA59",
"n  c #698377",
"m  c #768E79",
"M  c #9C8C00",
"N  c #F7F708",
"B  c #888C43",
"V  c #84824C",
"C  c #88854F",
"Z  c #8E9446",
"A  c #919647",
"S  c #93964A",
"D  c #96994C",
"F  c #9A9D4F",
"G  c #858254",
"H  c #898654",
"J  c #8B8953",
"K  c #888559",
"L  c #8C895A",
"P  c #908D55",
"I  c #918E5E",
"U  c #899852",
"Y  c #979657",
"T  c #93915B",
"R  c #99945E",
"E  c #A09D5D",
"W  c #87A85B",
"Q  c #9DA152",
"!  c #91AF5A",
"~  c #89B05B",
"^  c #A2A556",
"/  c #A4A45B",
"(  c #A6AA5B",
")  c #A9AD5D",
"_  c #ADB15F",
"`  c #8E8A60",
"'  c #908E60",
"]  c #949361",
"[  c #9A9660",
"{  c #979964",
"}  c #9C9A62",
"|  c #9C9D69",
" . c #A09D63",
".. c #A29E6E",
"X. c #8CA863",
"o. c #97A966",
"O. c #9DA36A",
"+. c #9CB769",
"@. c #9EB070",
"#. c #A4A066",
"$. c #A7A867",
"%. c #A4A46A",
"&. c #A9A56B",
"*. c #ACAA6C",
"=. c #B0AE69",
"-. c #AEB263",
";. c #A4B86B",
":. c #B3B865",
">. c #B4B36C",
",. c #A7A673",
"<. c #ABA775",
"1. c #A5AA70",
"2. c #ABAC72",
"3. c #AEAA7A",
"4. c #B1AE72",
"5. c #B2AE7D",
"6. c #A3B775",
"7. c #ACB474",
"8. c #B3B375",
"9. c #B8B672",
"0. c #B6B873",
"q. c #BBBC74",
"w. c #B4B37B",
"e. c #B9B679",
"r. c #B6B979",
"t. c #BBBC7C",
"y. c #C0BD7E",
"u. c #99C869",
"i. c #9FD079",
"p. c #A9C57A",
"a. c #BEC077",
"s. c #BEC17D",
"d. c #BAC87B",
"f. c #AAD378",
"g. c #C3C47B",
"h. c #C6C97E",
"j. c #CACD7F",
"k. c #779185",
"l. c #789894",
"z. c #6B94A5",
"x. c #7299A6",
"c. c #839C8D",
"v. c #B6B481",
"b. c #BAB683",
"n. c #B6BA85",
"m. c #BDBA85",
"M. c #BEBC88",
"N. c #81A3A6",
"B. c #8CACAC",
"V. c #94B2A8",
"C. c #96B4AE",
"Z. c #8EADB0",
"A. c #C1BE83",
"S. c #C1BE8A",
"D. c #BEC181",
"F. c #BFC18D",
"G. c #BACB8A",
"H. c #ADD688",
"J. c #B9DC83",
"K. c #B9DD93",
"L. c #BDE186",
"P. c #C3C482",
"I. c #C6C985",
"U. c #CACC83",
"Y. c #C5C38C",
"T. c #C9C78D",
"R. c #C7CA88",
"E. c #CACC89",
"W. c #C4D086",
"Q. c #CED184",
"!. c #CED18B",
"~. c #D1D487",
"^. c #D2D58D",
"/. c #D6DA8B",
"(. c #DADD8E",
"). c #C5C690",
"_. c #C9C791",
"`. c #C6C992",
"'. c #CBCC94",
"]. c #CCCE98",
"[. c #D1CE97",
"{. c #CDD196",
"}. c #CFD299",
"|. c #D3D690",
" X c #D6D992",
".X c #DADD95",
"XX c #D2D49B",
"oX c #D5D89E",
"OX c #D0E28E",
"+X c #DDE194",
"@X c #D6E996",
"#X c #DEE299",
"$X c #E5E997",
"%X c #E3E59C",
"&X c #E5E89E",
"*X c #CBD6A6",
"=X c #D6DAA0",
"-X c #DADDA3",
";X c #DDE1A5",
":X c #D1E9AD",
">X c #E7EAA1",
",X c #EBEEA4",
"<X c #E2E7AA",
"1X c #EEF1A6",
"2X c #EEF3A9",
"3X c #F1F4A7",
"4X c #F2F5AA",
"5X c #F6F9AD",
"6X c #F9FCAF",
"7X c #F1ECB2",
"8X c #EBF6BD",
"9X c #FDFEB3",
"0X c #F7F5B8",
"qX c #FFFEBB",
"wX c #A5CEDE",
"eX c #A9D1DE",
"rX c #EFF8C3",
"tX c #FFFFC4",
"yX c #F5FBC9",
"uX c #FFFFCA",
"iX c #FFFFD3",
"pX c #FFFFDA",
"aX c LightYellow",
"sX c white",
/* pixels */
">.` -.$.S.XXXX4X9X5XtXtXtXuXtX).j.5.O.%.g C C H 9.t.^.y.Y ] m.E.e.L J V G ( u / ^ 2.m.1.&.&.^ Q %.m.n.t.v.w.w.w.v.w.w.v.b.2./ ( ",
"I L % % / .XXX9X9X5XtXuXtXtXuXP.U.3.w.%.t $ B K 8.9.:.P B ` '.'._.r.Y.S.S.qXiX X^.b.b.b.%. .#.Q #.e.w.5.w.Q.!.{.}.E.Q.w.v.%.u h ",
"B L J % % .X X^.5X9X5X5XuXtXuXI.3.3.v.%.Q u 2.S.Y.4.C J P t.$Xw.P.S.tXpXpXiXiXiXiXpX!.}.~.~.v.%. . .5.5.8.!.'.3X'.4XU.Q.E.5.y u ",
"B J -.G g (.=X|.!.5X4X9X1X`.] { 3.2.3.w.e.t.m.S.S.1.l l G 4.w.) *.S.qXqXiXiXuXiXuXuXiXpX!.Q.5.[ 2 w 5.5.j.'.uXuXuXuXuX1X'.5X} e ",
"=.-.K G g 2. X|.^.E.3.} : ; 1 1 { 3.3.3.5.w.n.m.m.X.    x 4.*.x ^ qXqXqXiXuXuXuXtXuXuXuX9XiX} q 2 q { 3.3XtXuXuXtXtXtXuXT.3XU.R ",
"T.=.w.h g *. X9X9Xw.[ 2 1 1 1 P <.I.I.E.Q.Q.w.O.;.  wX  2. X^ t u 9X9X9X9X9X9X5XuX5XuXuX6XuX0 1 2 S 3.j.1XtXtXuXtX1X1XtXtX,X1Xj.",
"<Xw.%X*.g 2.b.b.%.[ 2 2 2 Z Y g.I.uXuXuXuXU.!.Q.b   wX  c 8.e r r }.6X9X9X4XR.2X5XuXuXtXtX2.R A A } <.I.1XuXtXtXtX,X,X,XqXtX&XP.",
".X<.S.&.g g t .. .r q S { 2.P.I.tXuXtXuXuXi + ;.v   z.  k k     o.G.G.I.U.h.I.1X5X5X5XtXtX<.2.3.4.3.<.P.tXtXtX0X,Xe.#X0XqXtX&XY.",
"+XS.S.2.g f f r r w e | <.<.Y.uXuXtXtXuXqXi uX. j   z.  j   wX  a a a s n d.'.5X5XuXuXtXI.{ 2.} } 3.<.I.uXtXtXqX,X| 0.>X7XqXtXM.",
".XS.,.m.b...y F %.} D [ 3.<.5XuXuXtXqXtXtX0XX C.. a z.a   wX    z.a a z.z.a m 4XuXtXuXuXU.,.R 0 0 2.<.g.tXtX0X,X%X>.8.#X>X7XqXn.",
".Xm.,.b.v.^.v.v.w.} q 2 4X5X5X4XtXtX2X2X,X,XOX  z.z.wXwXz.  z.z.z.z.z.a a z.x.x.C.uXuX3XE.3.[ 2 q { 2.g.tX3X1X,X%X0.0..X%XqXqX#X",
" X/.%.9XqXqX9X~.Q.F q 2 ].4X5X4X4X2X>Xa.t.>X1Xi.  a z.wX  a a z.z.z.z.z.z.a wXwXwXC.`.'.E.3.[ q q 2.{ <.5X4X1X%Xe.0.>.#X%X7XqX+X",
" X%.9X9XqX9X9XiX5.S 2 [ R.4X1X4X2X>XM.a.0.d.n.u.  a a   a a a a z.z.z.z.z.z.a wXwXwXV.3Xj.w.3.[ [ 4.S Z 1X1XF.F.r.0.0.v.%X7X9X.X",
" X/ 9XqX9XuXiXiX5.D 2 4.R.I.P.P.g.t.t.m.r.r.7.  5   a   5 a a a a z.z.z.z.z.wXz.wXwXeXB.w.#.v.3.w.} 2 R I.).F.t.t.r.r.8.%X%XqX.X",
"oXb.XX9XuXiXiXpX3.S 2 R._.R.I.P.P.D.s.t.e.0.7.  5   z.  5 5 5 5 a a z.z.z.z.wXwXz.wXwXx.[ y F v. .w 2 R h.P.P.s.t.0.8.8.%XqXqX+X",
"m.Q |.9X9XiXuXiX3.q 2 E.R.R.I.P.P.D.t.t.t.e.0.      z.  5 5 z.z.5 a z.z.z.z.wXwXwXz.wXwXl., r w.E q 2 3.I.P.P.D.t.r.r.n.&X%XqX0.",
",.Q ^.qX9XuXiXtX} > R U.R.R.h.P.P.A.t.t.t.r.e.    a z.  z.z.z.z.z.5 a z.z.z.z.wXwXwXz.wXl.e Q !.%.e q U.4XI.P.s.t.t.r.%X&XqXtX0.",
"g #.oX9XuXuXiX3.] ; <.R.I.j.h.h.g.P.g.t.e.r.0.7.  a z.  z.z.z.z.z.z.5 z.z.z.z.z.wXwXa z.wXB.6X!.%.q 2 | R.P.P.a.s.s.t.#XqXqXqX| ",
"V #.9X9XiXuX5XU.S 1 R._.R.U.h.h.h.P.A.y.t.q.r.r.  a a   z.z.z.z.z.z.z.z.z.z.z.z.z.z.z.a wXB.9XiX~.D q Y R.U.g.g.a.q.M.,X>XtXtX| ",
"V %.9XiXuXiX4XU.0 2 ].E.R.T.U.h.I.P.P.A.q.0.q.9.W   a   a z.z.z.z.z.z.z.z.z.z.z.z.z.z.a z.N.0XiX!.} q } P.P.g.g.a.a.t.,XtX0XtX..",
"V &.qXqXiXiX5Xj.1 2 R.R.E.E.U.U.R.I.P.P.s.q.9.0.!   z.  a z.z.z.z.z.z.z.z.z.z.z.z.z.z.a z.wXZ.iX6X| : R P.P.P.y.a.s.m.,XqXtXuX..",
"H *.qXiXuXiX4X3.: 1 E.E.U.T.E.T.E.I.P.P.s.q.q.r.W   z.  a a z.z.z.a a a z.z.z.z.z.z.z.a z.z.Z.yX6X5.: R R.I.P.P.s.s.s.1X,XqXtX..",
"C *.qXiXiXuX5X5.q R v.].E.E.E.!.E.R.h.P.D.t.e.r.  a wX  5 a a z.5 a a a a z.z.z.z.z.z.z.a z.Z.rX5X3.; T P.P.P.P.D.s.D.4XtXtXtX,.",
"H 7.tXqXuXiX5XU.2 ] { ].[.!.!.!.E.U.I.g.a.t.t.0.  a z.z.  5 a 5 5 a a a a a z.z.z.z.z.z.a z.eXZ.4X5.; Y P.P.P.A.P.D.M.4X4XqXtX<.",
"J 4.qXiXiXiX6X!.S 2 2 } 5XE.!.[.E.E.U.g.a.m.t.X.  z.eXeX  5 a 5 5 5 a a a a z.z.z.z.z.z.a z.wXZ.3XU.2 P I.P.D.g.P.s.,X4XuXtXiX3.",
"J 8.qXqXuXiX6X5X3.w w 2  .9XE.!.!.T.U.g.P.t.q.  a z.wXwXa   a 5 5 5 5 a a a z.z.z.z.z.z.a z.wXZ.3XU.1 T I.P.g.g.g.g.1XuXuXuXuX3.",
"J 8.#XqXiXiXiX}.^.q w 2 w [.!.!.^.T.R.P.P.t.7.  a z.z.z.a   5 a 5 5 5 5 a a a z.z.z.z.z.a z.wXZ.1XI.0 I I.P.P.h.g.I.6X5XuXuX5XO.",
"I 8.#XtXqXuXiX6X6X .e w w !.!.!.E.E.U.I.g.t.!   5 a z.a a   5 a a 5 5 5 5 a a z.z.z.z.z.a z.wXZ.4XU.{ [ I.R.P.I.h.I.6XuXuXuX^.} ",
"I C ;XqXpXiXiX}.^.5. .q w !.^.^.^.E.E.P.P.t.v   5 a a a 5   5   a a a 5 5 a a z.wXwXz.z.a z.wXk.yXR.{ : 3.].R.E.R.].9XuXiXiX~.%.",
"T J <XtXqXiXiX}.XX5. .w w !.[.!.!.E.E.P.P.;.  5 5 5 z.a a 5 a 5   a a z.5 5 a z.wXwXz.z.a z.wXc.iXR.} q } E.E.E.E.!.9X9XiXiX/.&.",
"T J <XtXiXiXiX9XE. .D e w [.^.Q.E.!.U.P.P.W     5 5 z.z.a 5 z.5   5 a a z.5 a z.z.z.z.z.a z.eXc.yX'.3.q } E.!.!.!.^.9XqXiX9X(.( ",
"T J <XqXqXpXiX9X5.w > q w [.!.Q.E.U.R.P.~   5   5 a z.z.a 5 z.a 5   a a z.z.z.z.z.z.z.a z.z.eXc.yX9X!.} } !.^.^.^.|.oXqXtX.X+X( ",
"] J qXqXpXiX9X6X} @ o # w Q.!.Q.U.d.+.    5 5 5   5 a z.a a 5 z.a   a a z.z.z.z.z.z.wXz.wXz.n #XiX5X!.[ > ~.XX^.|. X XqXS.+X$XG ",
"I J $XtXiXiX6X}.3.# O # q O.!.D.+.    a a a 5 5   5 a a z.a 5       5 a a a z.z.z.wXwXz.wXwXd :XiXiXw.F w %.^.9X=X=X9X(.V 2.4.L ",
"I J 7.;XpXiX9X6XQ.} q : 2 Y W     s z.z.a a a 5 5   5 5 a a 5 5 5   5 a     a z.z.wXwXz.wXwX  H.9XiX5.F r r r b.m.m.M.V V 7.r.-.",
":.J C S.=X|.^.E.U.U.5.] -     s z.z.z.z.z.a a 5 5 5 5 5 5 5 5 5 5 5   a       a z.wXwXz.wXwX  O.E.3.Q.[ w r r t t t g V V 8.'.m.",
"t.J V g %.^.XX5XE.E.uXX.  a z.z.z.z.z.wXwXz.5 5 5 5 5     5 5 5 5 5   a   M   a z.wXz.wXwXz.  < 1 q 4.v.O.F u u u u h g 4.Y.'.'.",
"t.L V g #.^.!.uXiXuX*X  a z.z.z.z.z.wXz.wXz.a 5 5 5 a a a   5 5 5 5   a   N   a z.z.a wXwX  * 1 1 S 3.w.v.}  . .1.m.t.P.Y.8.>.9.",
"P % ) m. XXXiXiXuX:X  a z.z.z.wXwXz.z.z.z.a a 5 5 a a z.z.a a   5 5   5 a     z.z.z.a wXz.c T 1 1 R 3.3.| w w y  .n.m.M.*.C J J ",
"= O ( (.|.iXuXuXuXK.  a z.wXwXwXz.z.z.z.a a 5 5 a a wXwXz.z.a a       5 a a z.z.z.a wXz.  c ] Z Z { I.E.U.[ w e E e.m.*.( V C J ",
"P % *.A.9XuX9X5XyXK.  a z.eXwXz.z.z.a a a 5   5 a z.wXwXz.z.z.a 5   5 sX5 a a z.a z.z.a   8 P.h.P.I.I.`.4XU.E.!.^.~.v.1.&.*.=.J ",
"9.) / /.9X9X9X5X5Xf.  a a z.z.z.a a a 5 5   5 5 a z.z.z.z.z.z.a 5   a 5   sXa 5 a a     a 7 Y.1XuXuXtXuXuXuX4X'.'.E.Q.r.e.m.S.4.",
"0.) x &.XX5X'._.I.@Xu.  a a a a 5 5 5       5 5 a a z.z.z.z.z.a 5 a a a a     sX    b   n 9 OX,XtXuXtXtXuXtXuXuXuXU.{.w.e.v.2.*.",
"T.*.f  .~.5X'.I.h.2XOXv     5 5 5       & &   5 5 a a z.z.z.a 5   a a z.a   v   H./.1Xu.  n 9 tXuXtXuX4XtX4XtXtXtXuX4X!.5.t.n.t.",
"T.4.V r } !.U.h.`.4XH.  a a a a 5 5   z t t -     5 a a a     5 a a z.z.z.  u.L.9XI.U.%.  a p yXuX4X4X4X2X4X1XtXtXtXtX'.E.Q.e.n.",
"Y.7.t t  .!.U.I.2XJ.  d a z.z.a a   - b.%.F u 3 x           5 5 a a z.wXz.a   p.}.5.U.W   a p >X4X4X,XF.D.>X1XtXqXtXtX1X'.!.5.t.",
"R.$X$.t r !.E.'.@X  k.  x.  5 z.5   3 e.v.b.%.r r - k x j . 5 5 a a z.z.eXz.  U > e o.  s z.8 6.).P.g.t.q.t.M.>X,X0XtXtX3X'.5.5.",
"Y.S.*.t r !.!.4X@X    x.  k   z.  - F v.v.v.Q t f f #.@.  7   5 5 a z.z.wXwX  3 w z   d z.z.x.9 `.P.g.s.t.t.r.M.1X0XtXtX&X'.j.4.",
"0.Y.$.g r ^.~.5XyXK.  x.  k   l.  2.^.^.*X Xb. .%.,.1.o.  5   5 5 a a z.wXeX  - D   6.  a z.x.9 I.P.P.g.t.t.t.q.q.,XqXtXuX).E.} ",
"8.8.*.g t  XXX9X9X8XH.    x *   W ~.^.^.iX9X9X=X=X9X/.o.  5 5 5   5 a z.z.z.  c @.    k   z.6 d.R.I.P.P.s.t.t.t.r.&X2X0XtX,X'.5.",
"8.8.=.V t  X/.9XiXtXrXp.G. .U c w.qXiXiXiXpXiX9X*X6X|.u.  a a   &     a a   z v.1.q z 7   z.8 W.U.R.P.g.D.t.y.t.s.&X1XtXtX1XU.3.",
"R.T.>.V V .X=XqXiXiXiX9X!. . . .E qXqX9XiXiXpXiXiXiX8X  k.a x.  & & &     c w.b.O.y 9   a z.p !.E.R.U.g.g.g.g.t.a.>X2XqXuX4X4XQ.",
"'.'.>.C V .X-XqXqXuXiXXXQ.y r r y 9XqXqXqXiXqXuXiXiX:X  a z.z.m   +.w.o.@.b.b.1.1.o.  7 x.8 W.|.^.E.E.U.h.g.P.y.D.Y.4XtXuX1X'.Q.",
"[.'.>.C C +X.X9XqXiXiX9XO.t # # r /.9X9X9X9XqXqXqXqX*X. a 5 z.6   6././.iXqXqXm.m.1.;.    Y  X|.|.^.E.U.U.U.I.I.P.P.5X5XuX5X9X!.",
"y.$X9.C C >X.XqXqX9Xb.oX#.# o @ 4 %. X X/././.=X9X2X  *X. a 6   X.b./.iXqXqXiXiX.Xb.M.o.r &..X X X|.^.^.E.j.R.U.I.`.9XuXuX6XqXv.",
"t.[.e.J C +XqX9X/.^ %./.%.u # $ f %..X X X(././..XG.    u.    W n././.pXqXpXpXpX-X(./.%.g g  X.X.X|. X^.~.~.U.Q.!.E.9X9XiX9Xv.%.",
"R m.r.J C 7.S.m.4 t t %.b.%.1.#.u f .X X(.(.(.(..X Xp.u.k z z %.m.%.,.qXqXpXpXpXpX.X.X,.g g (.-X.X.X X X^.~.~.~.!.!.6X9XiXqX X2.",
"] e.r.K C V g 2.t t Q 1.y u *.#.f g (.qX.X(.+X.X-XqXS.*.g t ^ S.&.g S.9XtXiXpXpXaX-X;X( V V 7..X;X.X.X.X X/./.|.^.|.9XoX1..X&.h ",
"T :.t.r.H V g u t F %.%.y t %.#.g g g +XqX.X%XqX$XS.g g g / A.S.( *.A..XqXtXaXaXpX-X<X4.h V V *.$XqX-X.X.X.X/.oX-Xb.,.m.^ 2.S.$.",
"T ' 8.%XY.&.u t t w.~.v.w.1.b.t.h g V V S._.Y.Y.H g C C -.S.S.4.V *.%X%X#XqXtXaXpX<X+XS.8.K V H 7.S.P.+XqX-XS.S.t.&.*.g V ( 7._ ",
":.t.8.).M.M.b.v.^.!.{.XX^.~.b.b.,.V V G C J H J J L J _ e.T.T.K % 8.%X%X%XtXtXqXqX).$Xw.8.) J H C 4.4.4.Y.S.*.*.V V V V ) P.r.-.",
"m.e.4.2.M. X|.!.}.5X'.4X4X^.XXb.b.3.) G _ _ -.L I -.t.'.'.'.'.J = L $XtX<X<X$X'.-.8.4.8.L H J J K J C C V J C V V G ) 8.Y.%X_.-.",
"b.L K #.M.~.iXuXuXuXuXuXuXiXXX~.(.S.8.4.8.L :.[.[.[.[.m.q.m.[.:.P J t.'.&X'.9.B J -.n.-.J J L L t.8.J J H H C ) 7.P.Y.T._.w.r.r.",
">.L ) *.b.qX9XuXtXtXtXtXuXtXiX^./.4.) C B = B y.XXXXP.y.] y.XXD.:.Y I I Y Y P L :.!.'.r.r.:.-.9._.'._.R.T._.P.T.Y.).T.'.r.8.e.e."
};
