/* XPM */
static char *result[] = {
/* columns rows colors chars-per-pixel */
"64 64 217 2 ",
"   c #000100",
".  c #0B0C07",
"X  c #0F0F09",
"o  c #14150E",
"O  c #191A13",
"+  c #302C04",
"@  c #212219",
"#  c #387619",
"$  c #454918",
"%  c #4E6C1C",
"&  c #474A26",
"*  c #51562E",
"=  c #575A34",
"-  c #566D33",
";  c #646624",
":  c #696B26",
">  c #6D712A",
",  c #71752A",
"<  c #676335",
"1  c #6D693A",
"2  c #716D3C",
"3  c #6B743B",
"4  c #747439",
"5  c #364951",
"6  c #54645F",
"7  c #6D6941",
"8  c #726D42",
"9  c #757142",
"0  c #797642",
"q  c #7C7945",
"w  c #767249",
"e  c #797649",
"r  c #7D7A4C",
"t  c #517474",
"y  c #587A76",
"u  c #9D2424",
"i  c #9E2A28",
"p  c #807D47",
"a  c #817E4A",
"s  c #817E51",
"d  c #1C8F14",
"f  c #249019",
"g  c #3E9629",
"h  c #51822F",
"j  c #459A2D",
"k  c #5A8936",
"l  c #589539",
"z  c #718C3A",
"x  c #63A53D",
"c  c #798748",
"v  c #659843",
"b  c #76924B",
"n  c #63A944",
"m  c #73A54B",
"M  c #71B44E",
"N  c #78A552",
"B  c #78B753",
"V  c #6C8677",
"C  c #7CBE61",
"Z  c #9D8D00",
"A  c #888B45",
"S  c #84824C",
"D  c #88854F",
"F  c #8F9548",
"G  c #929549",
"H  c #95994C",
"J  c #979A4C",
"K  c #848254",
"L  c #898653",
"P  c #8B8953",
"I  c #888559",
"U  c #8C895B",
"Y  c #918E55",
"T  c #918E5D",
"R  c #869655",
"E  c #9A9857",
"W  c #94925C",
"Q  c #99955E",
"!  c #A09D5D",
"~  c #88A75A",
"^  c #9DA152",
"/  c #87B758",
"(  c #93B55E",
")  c #A1A556",
"_  c #A4A35C",
"`  c #A6AA5C",
"'  c #A9AD5D",
"]  c #ACB15E",
"[  c #8F8B60",
"{  c #949361",
"}  c #9A9663",
"|  c #959962",
" . c #9C9A62",
".. c #9C9C69",
"X. c #A09D63",
"o. c #A29D6E",
"O. c #A39F70",
"+. c #9CA666",
"@. c #97B666",
"#. c #91B368",
"$. c #A4A166",
"%. c #A7A867",
"&. c #A3A46A",
"*. c #A9A56B",
"=. c #ACAA6C",
"-. c #B0AE69",
";. c #AEB263",
":. c #A3B46B",
">. c #AEBA6C",
",. c #B3B865",
"<. c #B4B36C",
"1. c #A8A574",
"2. c #ABA775",
"3. c #A5A970",
"4. c #ABAC72",
"5. c #AEAA7A",
"6. c #B1AE73",
"7. c #B2AE7D",
"8. c #AEB376",
"9. c #AAB47A",
"0. c #B3B475",
"q. c #B8B672",
"w. c #B6B973",
"e. c #BBBC74",
"r. c #B4B37B",
"t. c #B9B67A",
"y. c #B7B979",
"u. c #BBBC7C",
"i. c #C0BD7E",
"p. c #8BC45F",
"a. c #8CC669",
"s. c #97C76B",
"d. c #98CC72",
"f. c #A9C775",
"g. c #A6CD76",
"h. c #BDC177",
"j. c #BEC07D",
"k. c #B5C879",
"l. c #B7D27E",
"z. c #C2C47B",
"x. c #C6C97E",
"c. c #C9CD7F",
"v. c #6B95A7",
"b. c #AFB581",
"n. c #B6B381",
"m. c #BAB683",
"M. c #B7B986",
"N. c #BDBA85",
"B. c #BDBC88",
"V. c #C1BE8A",
"C. c #BEC181",
"Z. c #BFCA81",
"A. c #BFC18D",
"S. c #B6DB86",
"D. c #B8DCA1",
"F. c #BFE0A6",
"G. c #C3C483",
"H. c #C6C985",
"J. c #C9CC84",
"K. c #C5C38D",
"L. c #C9C78D",
"P. c #C7CA88",
"I. c #CACD89",
"U. c #CDD183",
"Y. c #CED18B",
"T. c #C6D98A",
"R. c #D1D487",
"E. c #D1D58D",
"W. c #D6DA8B",
"Q. c #D9DD8E",
"!. c #C9C791",
"~. c #C6C992",
"^. c #C7C993",
"/. c #CBCC94",
"(. c #D1CE97",
"). c #CCD296",
"_. c #CED299",
"`. c #D3D690",
"'. c #D6D992",
"]. c #DBDD96",
"[. c #D2D49B",
"{. c #D5D99E",
"}. c #DBE08F",
"|. c #C6E495",
" X c #DDE195",
".X c #D5E897",
"XX c #DEE199",
"oX c #E5EA97",
"OX c #E2E49D",
"+X c #E5E89E",
"@X c #D6D9A0",
"#X c #D9DCA2",
"$X c #DDE1A5",
"%X c #DEE7A6",
"&X c #D5ECB2",
"*X c #E7EAA1",
"=X c #EBEDA4",
"-X c #E1E5A9",
";X c #E8E8A8",
":X c #EEF1A6",
">X c #EEF1A8",
",X c #F1F4A7",
"<X c #F2F5AA",
"1X c #F6F9AD",
"2X c #F9FCAF",
"3X c #F1ECB2",
"4X c #E1F1B4",
"5X c #F5F5B3",
"6X c #FCFEB3",
"7X c #FAF6BA",
"8X c #FFFEBB",
"9X c #A6CFDF",
"0X c #FFFFC4",
"qX c #FFFFCB",
"wX c #FFFFD3",
"eX c #FFFFD8",
"rX c white",
/* pixels */
"<.[ ;.%.V.'.@X1X5X2X8XqX0XqX0X~.J.7.&.&.q D P U i.i.Y.i.W { C.I.t.U P S K ` s ) ) 3.m.3.*.%.) ^ &.t.m.m.n.r.n.r.r.n.r.n.m.4.` ` ",
"T U = = _ '.[.5X6X2XqX0X0X0XqXG.x.7.7.*.q * z I <.<.,.Y A T /./.!.y.K.V.V.8XwX'.'.m.m.m.*.o.$.^ $.t.r.r.r.U.Y.)._.I.U.r.n.$.r r ",
"A Y P = = ].`.`.2X2X2X1XqX0XqXH.2.7.7.&.^ r =.K.L.<.D P P y.oXy.P.V.0XeXeXwXwXwXwXeXY._.R.R.n.&.X.X.n.7.r.U./.<X^.<XI.I.J.r.e r ",
"A U ;.s S '.@X`.Y.1X1X1X:X~.{ | 5.3.7.n.t.u.B.B.V.0.D a I 0.8.` %.B.8X8XwXwXqXwXqXqXwXeXY.U.7. .2 8 7.7.c./.qXqXqX0X0X<X/.1X .w ",
"-.;.I L a 4.'.W.Y.Y.7.| : ; 1 1 | 4.5.7.7.r.m.m.V.V.=.a L 4.=.s ) 8X8X8XwXwXqXqX0XqXqXqX6XqX .8 2 8 | 5.,X0XqX0XqX0X0X0X~.,XJ.Q ",
"!.;.r.s a =.'.6X6X7. .2 1 1 1 Y 2.H.J.P.U.U.n.&.t.m.V.V.V.Q.) q r 6X6X6X6X6X6X1XqX1XqXqX2XqX8 1 2 G 5.x.:XqX0XqX0X:X=X0X0X=X,Xx.",
"-Xr. X2.a 2.m.m.+. .2 1 1 F W x.H.qXqXqXqXP.I.U.7.r.7.X.&.u.e 0 0 _.1X6X6X<XP.>X1XqXqX0X0X2.Q G G  .2.H.:X0X0X0X0X=X=X:X8X0X+XH.",
"].2.V.=.a p q o.X.0 9 G  .*.H.H.qXqX0XqX0XqXqXJ.I.U.X.2 J $.0 9 7.)./.U.I.x.H.>X1X1X1X0X0X2.5.2.4.6.2.H.0X0X0X7X=Xe.XX7X8X0X+XV.",
" XV.V.3.r p p 0 0 4 8 ..5.2.P.qXqX0X0XqX8XqXqXqXqXI.J.H Q X.9 4 U./.I.I.H.P.~.1X1X0XqXqXH.Q 4. . .4.2.G.0X0X0X8X=X..y.*X3X8X0XB.",
"].V.3.V.m.$.e E o.X.H } 5.2.1XqXqX0X8X0X7X0X0X0XqX0X,X5.J.} 2 2 | Y.I.I.H.J.H.1XqX0XqXqXH.4.Q 8 7 4.2.x.qX0X7X=XOXq.0.XX*X3X8XM.",
"].m.3.m.m.W.n.n.n. .8 2 1X5X1X<X0X0X>X>X>X=X<X0X0X0X0XG.J. .7 2 1 P.I.J.J.P.~.2XqXqXqX,XI.2.} 2 7 | 2.x.8X>X:X:XOX<.w.].OX8X8XXX",
"'.Q.&.6X8X8X6XR.U.J 8 2 /.>X5X<X<X:X=Xu.u.*X=X0X7X0XqX0X~.x.Q 1 1 I.J.P.J.P.I.2X2XqX/./.I.5.Q 8 8 0...2.<X<X:XOXy.y.<. XOX3X8X X",
"'.*.6X6X8X6X6XwX7.H 2 Q J.>X>X<X>X*XB.h.e.u.M.=X0X0X7X0X=X~.| 1 1 ).Y.I.I.I.I.1X6XqX1X1XJ.7.7.X. .4.G G :X:XA.A.y.y.0.r.OX3X6X X",
"'.! 2X8X6XqXwXwX7.H 2 2.J.H.G.G.z.z.N.u.y.y.y.OX=X7X0X0XqXK.2.1 2 J.<XY.Y.U.Y.2X6X6XY.R.7.+.7.7.7. .2 W H.K.A.u.u.y.w.0.OXOX8X X",
"{.m.{.6XqXwXwXeX5.G 2 P.!.H.H.G.C.u.u.u.u.y.u.M.*X=X=X8X0XqXz.7 2 2 U.2XY.Y.Y.E.E.0.E.R.X.w J 7.&.8 2 Q x.G.j.j.u.y.y.0.OX8X6XXX",
"m.^ `.6X6XwXqXwX5.8 2 I.I.H.H.H.G.G.j.u.y.y.0.r.M.=X=X0X8X0X~.W 1 2 2 E.6XY.[.R.X.e &.n.X., 9 n.! 2 2 7.H.H.G.j.j.y.y.M.+X+X8X0.",
"4.^ W.8X6XwXqXqX .: { I.J.J.x.G.V.z.u.u.u.u.0.u.w.u.OX:X0X0XqXH.G 2 0 2 E.2X6Xm.0 e &.m.3.e J R.&.8 8 J.<XH.G.z.u.u.y.OX+X8X0Xw.",
"a $.{.6XqXqXqX5.} : 2.P.G.H.x.x.z.V.G.u.u.0.y.0.y.w.OX:X7X0X0X>X5.1 9 9 0 m.n.0 q q 3.m.m.6X6X`.&.8 2 ..P.G.G.j.j.u.u.OX8X8X8X..",
"a &.6X6XwXqX1XP.G 1 P./.I.H.J.x.x.z.V.i.u.w.y.y.y.y.M.=X7X0X0XG.:X .9 9 9 0 0 0 q ^ m.t.6X8X6XwXR.J 4 Q J.G.z.z.j.e.B.=X=X8X0X..",
"S *.6XwXwXqX1XJ.7 2 /.P.P.I.x.J.H.H.z.i.e.e.w.q.y.y.y.=X=X7X0X=X~.Q Q H w w e 0 ^ t.m.&.6X6X8XwXY.X.8 Q P.G.z.z.h.h.u.=X8X7X0Xo.",
"K *.8X8XwXqX1XJ.1 1 P.I.I.I.I.P.P.P.G.z.z.e.y.w.@.:.4.W.8X0X0X*X1.1 F ..n.5.n.n.M.t.$.`.8X8XwXwX5X&.: Q K.G.G.h.z.u.u.=X0X0XqXo.",
"L =.8XwXqXwX1X5.: 1 P.I.P.I.I.I.P.P.G.G.u.e.:.:.u u u u T.8X0XA.h.1 F 2.5.0. .X.+.E 0 &.6XqXwXwX1X7.: Q G.H.G.j.u.C.C.:X=X8X0XO.",
"D =.8XwXwXqX1X5.2 } b._.I.I.I.Y.I.I.x.z.u.:.u u u u l.i u %X}.*Xz.U 2.2. .Q 3       9  .2X6XwXqX1X7.: Q H.G.G.V.G.j.C.<X0X0X0X1.",
"P 8.0X8XqXwX1XJ.8 { } /._.Y.I.Y.P.h.z.k.w.@.u u :.9.OX%X.Xu i h.o.&.W T E z   v.v.  2  .6XwXwXwX1X2.: Y G.G.G.z.G.j.B.<X<X8X0X2.",
"P -.8XeXwXwX2XY.H 2 2  .2XI.E.Y.f.  (   m u u :.y.].OX3X8X1Xn.y...e.&.T b   v.5   b 1 +.6X0XqXwX<XJ.1 W H.G.G.z.z.C.=X<X0XqXqX5.",
"P 0.8X8XwXwX2X1X4.8 2 8 } 2XI.j.  rX  rX  u u :.0.].8X8X8X8X0.+.+.|.|.g.  v.5     z - Q ^.qXwXqX1XJ.1 W H.G.z.h.z.x.:XqXqXqXqX5.",
"P 0.XX8XwXwXwX_.Y.2 0 2 8 _.k.    t t   rX  u m n.OXOX6X6Xb.s.          t v.v.v.9X    % 2.5X0XqX<XG.7 W G.H.G.x.z.H.1X2XqXqX1X+.",
"T 0.XX0X8XqXwX6X6XX.w 0 9 l.    Z   t t   u u   v OX6X3X6Xm   t v.v.v.v.v.v.v.5   v.9X  N 5XqXwX5XJ.Q { H.H.H.H.H.H.1XqXqXwXY.X.",
"T P %X0XeXwXwX_.Y.7.X.8 2 w.    Z     t   u   v.  T.8X8X.X  t v.            v.v.5       b 1X2XqXwXG.| : 5./.I.P.I./.6XwXwXwXR.$.",
"T P -X8X8XwXwX_.(.7.X.9 2   t         t t   v.v.  l.XX;Xa.  t v.  s.|.g.d.d.    9X  k % T >XqX4X&X    - Q I.Y.I.I.Y.6X6XwXwXW.*.",
"W P -X0XeXeXwX2XE.X.H w 9   v.t     t t t t t v.  f.6XM   t t   p.6XOXOX].5Xl.g.    v < Y ,XS.    t t   l I.I.Y.Y.E.6X8XwX6X].` ",
"W P -X8X8XwXwX6Xn.8 > 8 9   v.v.t t t t t t   t   s.n   t t t   d.XX-Xn.M.*X8X0X|.f.o.< ; /   t t t t t   #.`.E.`.`.@X8X8X]. X` ",
"W P 8X0XeXwX6X6XE $ O & 9   t v.v.v.t t t t t     d f   t t t   x XXXX0.y.*X*X8X8X*Xu.< #   t t t t t t   / ).Y.`.'.k.d.m a.T.P ",
"T P oX8XwXwX2X_.7.$ $ & 8   t v.v.v.t t t t t t t     t t t       j / w.8.XXg.d.d.d.B z   t t t v.v.  t t   / 6X@Xa.        v c ",
"[ U 8.$XeXeX6X1XJ.Q 8 > 2 R   y v.t t t t t t t t t t     t t t t     f j g           l   t t v.v.v.  t t   h M.~   t v.v.9X  x ",
",.P D V.@X`.E.Y.J.U.7.Q 2 2   v.t t t t t t t t t t t t t       t t t       t t t t t   t t v.v.9X  /   t t   %   t v.        m ",
"u.P D S $.'._.1XU.P.qX5.7 2 2   v.5 t t t 5 5 t t t t t t t t t       t t t t t t t   t t v.v.9Xv.  N N   t     t v.v.v.9X  x @.",
"u.L D q $.E.Y.qXwXqXwX<X5.G 2   v.5 t t t 5 5 5 t t t t t t t t t t t     t t t t t   t t v.v.9Xv.  v 3.  t t t v.v.      9X  ~ ",
"Y < ` B.'.[.wXqXqXwXwX5X<Xx.G 1   t 5 t t t 5 5 5 5 5 5 5 t t t t t t t t   t t t t t t v.v.9X9X  k 3.5.v   t v.9X9X  t       b ",
"< + ` Q.`.wXqXqXqXqXqXwX<X<X} 8  .. t 5 t t t 5 5 5 5 5 5 5 t v.v.v.v.v.t t   t t t t v.v.9X9Xv.  l I.I.J.v   v.9X    y   c c P ",
"P = =.m.6XqX6X2XqXqXqXqXqX5X5.} 8 8   t 5 t t 5 5 5 5 5 5 5 v.v.v.v.v.v.v.v.t   t t t v.v.9X9Xv.  n H.~.<XZ.      ( ~   . =.<.L ",
"w.] ` W.6X6X6X2X1X<X8X<XqX,X/.| 2 w . t t 5 t t 5 5 5 5 5 t v.v.v.v.v.9Xv.v.v.t   t v.t v.v.v.5 v.  C qXqXqXT.f.f.H.U.8.u.m.K.6.",
"y.` S &.[.1X~.~.G.:X<XqXqXqX,XI.H 8 0   t 5 t t 5 5 5 5 t t v.v.v.v.9X9X9Xv.v.v.      v.v.v.5 v.9X  a.0XqX0XqXqXqXP.).r.r.m.3.=.",
"~.%.q %.R.1X/.P.x.:X1X<X0XqXqX5.8 4 0   t t 5 t t 5 5 t t v.v.v.v.v.v.9Xv.v.v.v.v.  v.v.t t v.v.9X  a.<X0X<X0X0XqXqX<XY.r.t.m.u.",
"L.=.q 0 ! Y.I.x.~.1X0XqX0X1XP.5.9 > 0 G   t 5 t t t v.v.v.v.v.v.v.v.v.v.v.v.v.v.v.5 v.v.v.v.v.9X9X  B <X>X<X>X0X0X0X0X/.Y.U.r.m.",
"K.8.S 0 X.U.I.H.>X<X8XqXqXqXJ.5.H > w n.  t t 5 t v.v.v.v.v.v.v.v.5 5 5 5 5 5 v.v.5       t v.9X  B M #.@..X=X0X8X0X0X:X/.U.r.M.",
"L. X=.q 4 Y.I./.6X0XqX1X1XH.5.+.H 9 e t.  t t 5 t v.v.v.5 5 v.v.5 5 5 5 5 5 5 5 v.v.5   t v.v.9X            #.*X=X7X0X0X:X/.7.r.",
"L.G.=.q q Y.Y.<X1X0XqXqXqXP.Q  .Q 9 J n.. 5 t 5 v.v.v.v.5 5 5 5 5 5 5 t t t t t 5 v.5 v.v.v.9X  t v.v.v.9X9X  b.=X7X0X0X+X/.c.6.",
"y.P.*.q 0 E.R.2XqXqX0XqXP.} 2 H r.n.E.`.X 5 t 5 v.v.v.v.v.5 5 5 5 5 t t t t t t t v.5 v.v.t v.v.v.v.v.t v.9X  >.u.=X7X0XqX~.J...",
"0.0.=.S q W.[.6X6XwXqXqX). .w w 7.R.E.Y.@ 5 5 t 5 v.v.v.v.5 5 5 5 t t t t t t t t v.5     v.v.v.v.v.t v.v.  ( u.e.OX>X8X0X:X/.5.",
"0.y.=.S q '.'.6XwXqXwXY.[.+.Q X.r.8XwXwXeX  5 t 5 v.v.v.v.v.5 5 5 t t t t t t t t 9X5 t t v.v.      t v.v.  :.u.u.+X:X0X0X,XI.5.",
"P.L.<.S S ].@X8XwXwXwX2XY.X.X.X.! 8X8X6XeXo 5 t v.t v.v.v.v.v.5 5 t t t t t t t v.v.5         M   t t t   @.j.u.j.+X,X8X0X,X,XU.",
"/./.<.S S  X#X8X8XqXwX[.R.e 9 0 e 6X8X8X8XO t t v.t v.v.v.v.v.5 5 t t t t t t v.v.9X5 l # g n B   t t   ( h.G.G.C.K.<X0XqX<X/.U.",
"(./.<.D S OX].6X8XeXwX6X&.e & & 0 W.6X6X6X6X  t v.v.t v.v.v.9Xv.v.5 t t t t v.v.9X9X5 l q *.T.  t t   ( k.J.H.G.G.G.1X1XqX1X6XY.",
"u.oXq.P S -X X8X8X6Xm.{.X.& + $ 4 &.'.'.W.W.X t v.v.v.t v.v.v.v.9X9Xv.v.v.9X9X9Xv.t 5 l q *.f.  t t   f.U.J.I.J.P.^.6XqXqX1X8Xn.",
"u.(.t.D D }.6X6XW.) $.W.=.q & * q *.'.].'.Q.@ t v.v.v.v.t v.v.v.9X9Xv.v.9X9X9X9Xt 5 / =.S 3   t t   / f.R.U.U.J.Y.I.6X6XwX6Xm.$.",
"{ u.r.P D 8.V.V.4 q q &.m.$.3.&.r q ].].Q.W.Q.. t v.5 v.v.t t t v.v.v.9X9X9Xv.v.9X5 @.=.q   t t 5 5     f.U.R.J.Y.Y.6X8XwX8X'.4.",
"{ u.y.I D S a 4.p q ^ &.e r *.%.q a Q.8X].Q. X@ t v.5 5 v.v.v.v.t t t v.v.v.9X9X5 a.$X` c   t t t t t y     f.`.E.`.6X@X&.].*.s ",
"W ,.u.y.I S q q q J &.&.q e $.%.a a a  X8XXXXX8Xo t v.5 5 5 v.v.v.v.v.9X9X9X9X5 F.#X-X=.s h   t t t 5 5 t V   T.#Xm.3.m.) 8.V.%.",
"Q [ 0.XXK.=.r q e 0.W.n.r.&.m.u.s a S S K.K.K.K.D X   5 5 5 5 t t t v.v.9X5 5 D.eX$XOXK.0.K h     t t t       8.u.*.=.a S ` 8.] ",
",.t.r.K.V.m.m.n.E.Y.)._.E.R.m.m.4.s S K D D D L P U P X   5 y t t t t 5 5 S.|.0X8X~.oXr.0.] L k k   t     #.~ =.c S S S ` G.0.;.",
"N.t.0.4.V.`.`.E.(.1X/.1X5XR.[.m.B.4.` I ;.;.;.U U ;.u./.(.6 6 5 5 5 5 S.a.-XoX!.] 0.6.0.U L D P c     k     q S a K ] 0.K.oX^.;.",
"t.[ I ` M.W.wXqXqXqXqXqXqXwX[.E.Q.V.8.-.q.T ,.(.(.(.[.C.e.N.(.,.P c @./.oX/.q.A P ;.y.;.U P U P   V   c   . D ' r.G.K.K.~.t.r.t.",
"<.U ' *.M.8X6XqXqX0X0X0XqX0XwXE.W.2.' S A < A V.(.[.G.u.} u.[.G.,.W Y W W T Y T ,.(./.u.0.,.;.q.@ O !.P.L.L.H.K.L.L.L.!.y.t.0.u."
};
