/* XPM */
static char *result[] = {
/* columns rows colors chars-per-pixel */
"64 64 214 2 ",
"   c #000000",
".  c #090906",
"X  c #0D0D09",
"o  c #13130D",
"O  c #15150D",
"+  c #302D0D",
"@  c #1D720E",
"#  c #177D0D",
"$  c #277A15",
"%  c #34781A",
"&  c #4B4D1C",
"*  c #426D1B",
"=  c #4A4B29",
"-  c #51562E",
";  c #585A35",
":  c #4A7427",
">  c #52732B",
",  c #5D6139",
"<  c #676927",
"1  c #6F722A",
"2  c #6E6A3A",
"3  c #716D3C",
"4  c #657538",
"5  c #747538",
"6  c #394A52",
"7  c #46534E",
"8  c #455554",
"9  c #55625C",
"0  c #6D6A41",
"q  c #716D42",
"w  c #757242",
"e  c #757347",
"r  c #797642",
"t  c #7C7946",
"y  c #797649",
"u  c #7D794C",
"i  c #546865",
"p  c #527373",
"a  c #9C2A2A",
"s  c #A33633",
"d  c #AD5447",
"f  c #807D47",
"g  c #807E4A",
"h  c #817E51",
"j  c #BA6957",
"k  c #BF7261",
"l  c #178710",
"z  c #298B1C",
"x  c #29921B",
"c  c #2E8D21",
"v  c #378B24",
"b  c #369526",
"n  c #518E2D",
"m  c #49962A",
"M  c #58933A",
"N  c #7C8E3B",
"B  c #5CA03D",
"V  c #699743",
"C  c #77914A",
"Z  c #76964C",
"A  c #67A947",
"S  c #72A84B",
"D  c #77B255",
"F  c #7BBE64",
"G  c #888B43",
"H  c #84824D",
"J  c #88854F",
"K  c #8B9345",
"L  c #95994B",
"P  c #96994C",
"I  c #858154",
"U  c #898654",
"Y  c #8B8953",
"T  c #888559",
"R  c #8C895A",
"E  c #908D55",
"W  c #918E5E",
"Q  c #869A56",
"!  c #93915C",
"~  c #99955E",
"^  c #999A5A",
"/  c #A09D5D",
"(  c #85A75C",
")  c #9EA152",
"_  c #82B152",
"`  c #A2A556",
"'  c #A4A35B",
"]  c #A6AA5B",
"[  c #A9AD5D",
"{  c #ADB15F",
"}  c #8F8B60",
"|  c #949361",
" . c #989863",
".. c #9C9A62",
"X. c #9C9D69",
"o. c #A19D63",
"O. c #A29E6E",
"+. c #8AAC64",
"@. c #9BA56A",
"#. c #99BA67",
"$. c #A4A165",
"%. c #A7A867",
"&. c #A4A46A",
"*. c #A9A56B",
"=. c #ACAA6C",
"-. c #B0AE69",
";. c #AEB263",
":. c #A5BC6B",
">. c #B3B866",
",. c #B4B36C",
"<. c #A6A472",
"1. c #ABA775",
"2. c #A6A970",
"3. c #ABAC72",
"4. c #ABA778",
"5. c #AEAA79",
"6. c #B1AE72",
"7. c #B2AE7D",
"8. c #AEB376",
"9. c #A7BD75",
"0. c #B3B375",
"q. c #B8B672",
"w. c #B5B974",
"e. c #BCBC74",
"r. c #B4B37B",
"t. c #B9B67A",
"y. c #B6BA7A",
"u. c #BBBC7C",
"i. c #C0BD7E",
"p. c #8AC467",
"a. c #BEC077",
"s. c #B2C679",
"d. c #BEC17E",
"f. c #A9D078",
"g. c #C2C47A",
"h. c #C6C97E",
"j. c #C9CD7F",
"k. c #75979A",
"l. c #6B94A5",
"z. c #7197A5",
"x. c #B6B381",
"c. c #BAB683",
"v. c #B6B985",
"b. c #BDBA85",
"n. c #BDBC88",
"m. c #C1BE83",
"M. c #C1BE8A",
"N. c #BEC281",
"B. c #BEC28C",
"V. c #BBDA84",
"C. c #B0DA8C",
"Z. c #C3C482",
"A. c #C6C985",
"S. c #CACC84",
"D. c #C5C38D",
"F. c #C9C78D",
"G. c #CACD89",
"H. c #CDD183",
"J. c #CED18B",
"K. c #C6DD8A",
"L. c #D1D487",
"P. c #D2D58D",
"I. c #D6DA8B",
"U. c #DADD8E",
"Y. c #C4C690",
"T. c #C9C791",
"R. c #C6C992",
"E. c #CBCC94",
"W. c #D1CE97",
"Q. c #CDD196",
"!. c #CED299",
"~. c #D3D690",
"^. c #D6D992",
"/. c #DADD95",
"(. c #D2D49C",
"). c #D5D89E",
"_. c #C9E290",
"`. c #DDE194",
"'. c #DEE299",
"]. c #DFEA9B",
"[. c #E4E997",
"{. c #E5E997",
"}. c #E2E59C",
"|. c #E6E99E",
" X c #D6DAA0",
".X c #DADDA3",
"XX c #CBE7A1",
"oX c #DDE1A5",
"OX c #DAE8A9",
"+X c #E4E8A7",
"@X c #EBEDA4",
"#X c #E6F2A7",
"$X c #EEF1A6",
"%X c #F1F3A7",
"&X c #F2F5AA",
"*X c #F6F9AD",
"=X c #F9FCAF",
"-X c #E1E2BF",
";X c #F1ECB2",
":X c #E9F5B5",
">X c #F5F1B6",
",X c #FDFEB3",
"<X c #FAF5BA",
"1X c #FFFEBB",
"2X c #A4C9D5",
"3X c #A5CEDE",
"4X c #ADD2DA",
"5X c #F7FCC1",
"6X c #FFFFC4",
"7X c #FFFFCB",
"8X c #FFFFD3",
"9X c #FFFFDA",
"0X c LightYellow",
"qX c white",
/* pixels */
",.} ;.%.M.(.(.*X*X*X6X6X6X6X6XY.j.7.@.&.g H J R q.t.~.i.! ! N.E.t.Y J J I ] u ` ` 3.b.3.&.*.` ` *.c.c.c.x.x.r.r.x.r.r.x.b.2.] ] ",
"W R ; ; ' /.).,X,X,X6X7X6X7X7XA.S.7.r.*.t - N T q.q.>.E G | E.E.T.y.D.M.M.1X8X^.~.c.c.x.*.o.o.) o.t.t.r.r.H.J.Q.!.G.H.r.x.O.u h ",
"J Y Y ; - /.~.~.*X,X=X&X6X7X7XA.5.5.r.@.) u 3.D.D.,.J Y Y y.[.y.Z.D.6X9X9X8X8X8X8X9XJ.!.L.L.x.@.o.o.7.7.8.H.E.&XE.&XS.G.G.t.y u ",
"G Y ;.I H ^. X~.J.&X&X,X$XY.|  .4.1.7.r.t.t.b.M.M.0.J J T 0.8.[ =.n.1X1X8X8X7X8X7X7X8X9XJ.H.7...3 q 7.7.j.E.7X7X7X7X6X%XE.&X..e ",
";.;.T I H 3.^.I.J.J.5. .< < 2 2  .4.5.7.7.r.c.c.b.M.3.I h 8.=.u ` 1X1X1X8X8X6X8X6X7X7X7X,X7X~ q 3 w ..3.&X6X7X7X6X7X1X7XF.%XA.~ ",
"T.;.r.h g *.^.,X,Xr...2 > : : C 4.A.A.G.S.H.r.&.t.c.c.M.b.U.` t y ,X,X,X,X,X,X*X7X*X7X7X=X7Xq 2 3 L 4.h.$X7X6X7X6X$X$X6X6X@X$Xj.",
"+Xr.}.1.g 3.c.c.@...$ $ %   n   #.7X7X7X6XG.S.H.7.t.x.' 2.t.t r r !.=X,X,X&XA.$X*X6X7X6X6X4.~ L L ^ 4.A.$X6X6X6X6X@X@X$X1X6X|.Z.",
"/.1.M.*.g g t O.$.% #     qX  -X  XX:X5Xs j k F.G.S.o.3 P $.r w r.!.E.S.S.S.A.$X*X*X*X6X6X4.5.1.4.4.4.A.6X6X6X<X@Xu.}.>X1X6X|.D.",
"/.M.n.3.g t t t r #   qX  qX    . XXa a a s j j 7XA.S.L ..o.w w H.E.G.G.S.A.R.=X*X7X7X6XA.~ 1.....5.1.A.6X6X6X6X@X .w.+X>X1X1Xn.",
"/.n.3.n.c.*.y P M v   qX          a a a a s d j j 6Xj d S.~ 3 3 X.S.G.A.A.G.A.=X7X6X7X7XA.1.~ q 0 =.1.h.7X6X1X@X}.q.w.'.}.;X1Xv.",
"/.n.*.c.c.I.x.x.l   l.          a a a O [.$X$X6Xa d d A.A...2 2 2 G.A.G.A.A.R.=X7X7X7X$XG.1.| 3 q  .5.Z.1X$X$X@X}.w.w./.}.1X1X'.",
"^.I.<.,X1X1X,XL.x   p l.      a a a   l.6 }.@X6X<X6X6X6XR.h.~ 2 2 J.A.S.G.S.A.=X=X7XE.E.G.7.~ q q 3. .4.&X&X$X|.t.w.,./.}.;X1X'.",
"^.*.,X,X1X,X,X8Xz     p l.          l.l.6 w.v.@X6X6X<X6X$XR. .2 2 E.H.G.J.A.J.*X,X7X*X*XH.7.7.....1.L K $X@XB.n.y.y.0.x.}.;X,X/.",
"^.o.,X,X1X7X8X8Xz       p l.      l.l.l.6 D y.].@X<X6X6X6XY.4.2 2 H.*XJ.J.J.J.=X1X,XJ.J.7.@.7.x.7...3 ~ A.Y.B.u.y.y.0.0.}.}.1X/.",
").c.).,X7X7X8X9Xc       p p l.l.l.l.l.p p 6 S @.+X@X$X<X6X7Xh.2 2 q J.=XJ.J.J.J.J.r.J.L.o.e P r.&.3 3 ~ h.Z.Z.d.u.t.w.w.}.1X1X'.",
"c.) ~.,X,X8X7X7Xc       p p p l.l.p p p l.l.6 6 +.K.@X6X<X:XB.! 2 3 3 J.=XJ.).L.$.r &.x.o.1 r 7./ 3 3 7.A.A.d.g.u.u.w.v.|.}.1Xw.",
"3.) I.1X,X8X7X7Xz   p p p p p p p p p   l.3X3Xp 6 6 f.V.OXi i 9 K 3 q w P.,X,Xx.r r *.x.&.e ) J.&.q q S.&XZ.Z.N.d.u.y.}.}.1X6Xw.",
"g $.).,X7X7X7X5.~ %   p p p p p p p   l.3Xl.p 3X3Xl.6     l.3X4X9 7 4 r r r.c.r t t 2.c.v.,X,XJ.&.e 3 X.A.A.Z.a.d.u.y.].1X1X1XX.",
"g &.,X,X8X7X&XG.K %   p p 6 p p p   p l.p l.3Xl.l.p 6 l.l.l.l.  p k.6 n w r e t r ) c.t.,X1X,X8XL.L 3 ^ A.A.g.g.a.e.n.@X@X6X6XX.",
"H *.,X8X7X8X&XS.0 $   l.p 6 6 p 6   p 6 l.l.l.p l.l.l.l.3X3X3Xl.    k.8 4 > y r ) x.c.2.,X,X1X8XJ.o.q ..A.A.Z.g.a.a.d.@X1X<X6XO.",
"I *.1X1X8X8X*Xj.3 2 b   p p 6 6 6     p l.l.6 l.3X3Xl.l.3X3Xl.l.l.p   8 9 8 ( +.x.u.$.I.1X1X8X8X,XX.< ~ A.Z.Z.a.a.d.b.@X6X6X7XO.",
"J =.1X8X7X8X&X5.< 2 x   p p 6 6 6 6   p p   p 3X3Xl.l.l.l.l.l.l.p l.l.l.l.k.6 6 Z Z r &.,X7X8X8X&X7.< ~ A.A.Z.d.d.g.d.@X@X<X6X&.",
"J =.1X8X8X7X*X7.2  .z   l.p p 6 6 6 6     p l.l.l.l.l.l.p p l.l.l.l.l.l.l.l.3X2X6 6 : Q ,X1XXXXX_.+.< C A.Z.N.N.N.g.N.&X6X6X6X<.",
"Y 8.6X1X7X8X*XS.2 ~ z   l.p p 6 6 6 6 6   p p l.l.l.p 6 p l.l.l.l.l.l.l.l.3X3X3X3Xl.  Z V.XX6 6 6 6 6 6 ( a.N.Z.N.N.n.&X&X6X6X4.",
"Y 6.,X9X8X8X=XJ.L 3 #   l.l.p p 6 6 6   l.p p p p   6 p l.l.l.l.l.l.l.l.l.3X3X3X3Xl.p   6 6 l.l.l.l.3X3X6 B d.g.Z.Z.@X&X7X6X8X5.",
"Y 0.1X1X8X8X=X*X5.3 l   l.l.l.p 6 6 6   3X3Xp     6 p p l.l.p l.l.l.l.l.l.l.3X3Xl.l.l.p l.l.l.l.l.l.3X3Xl.6 m g.g.g.@X7X7X7X7X5.",
"Y 0.'.1X7X8X8X!.J.3 @   p l.l.p 6 6 6   3Xl.p   6 6 6 p p p l.l.l.l.l.l.l.l.l.l.l.l.l.l.l.l.p p l.l.l.l.l.6 b g.g.A.*X*X7X7X*X@.",
"W 0.'.6X6X7X8X=X,XQ $   p l.l.p 6 6 6   l.p     6 6 6 6 p p l.l.l.l.l.l.l.l.l.l.l.l.l.p p p l.l.l.p l.p p 6 b h.h.A.,X7X7X7XP.o.",
"W J +X6X9X8X8X!.J.b   6 p l.p p 6 6   l.l.  6 6   6 6 6 p l.l.l.l.p l.l.l.l.l.l.l.l.p 6 p l.l.p 6 p p p   b G.G.G.E.,X8X8X8XL.&.",
"! Y oX1X1X8X8X!.!.v   p l.l.p 6 6 6   l.l.  6 6 6   6 p p l.l.l.l.l.p p l.l.l.l.l.p p   p p   6 6 p p 6   x E.J.G.J.,X,X8X8XI.*.",
"! Y +X6X8X8X8X=XJ.v   p l.p 6 6 6 6   p l.  6 6 6 6   6 p l.l.3X3X3Xl.6 p l.l.l.p p 6       F   6 6 6   c s.G.J.J.J.,X1X8X1XU.` ",
"! Y +X6X1X9X8X,Xx.$   l.l.p 6 6 6 6 6   l.  6 6 6 6 6   p l.l.l.3X3X3Xl.6 p p p p 6   * * _   6 6 6   v ! P.~.P.~.~. X1X1X/.`.[ ",
"! Y 1X6X9X8X,X*X~ @   l.l.6 6 6 6 6 6   p l.  6 6 6 6 6   p l.l.l.l.l.3Xl.  p p 6   S < < M   6 6   A ! 1 L.).~.~.^.^.,XM.`.{.I ",
"W Y {.1X8X8X,X!.7.@   l.p 6 6 6 6 6 6 6   l.  6 6 6 6 6   p l.l.l.3Xl.l.l.  6 6   f.s.G *   6 p   F @.P e &.L.,X X X,XU.I 6.6.R ",
"W Y 8.oX8X9X,X,XS.n   l.p 6 6 6 6 6 6 6   p l.  6 6 6 p p   p l.l.l.3X3Xl.l.    p.6X+XQ   8 p 6     M m r r r c.c.b.n.u J 5.y.;.",
">.Y J n. X~.P.J.S.A   l.p 6 6 6 6 6 6 6   l.l.l.    p p p   6 p l.l.l.3X3Xl.  p.:X1XB.#.  p p l.l.z.    % 5 r t t u H H H 0.E.u.",
"u.Y J u $.P.!.*XG.S   l.p 6 6 6 6 6 6   p l.l.  l.l.  p p p     p p l.l.3X3Xl.  f.1X|.@XV   l.l.l.6 l.l.  m y u u u h g 6.F.T.E.",
"b.Y H H *.J.J.7X8X:XD   l.p 6 6 6 6 6   l.  p l.    3X  p p   x     p l.l.l.l.  C.6Xn.B.8.  l.6 l.  6     M o.o.2.b.i.m.D.8.,.q.",
"W < ] b.^.(.8X8X7X8XC.  l.p 6 6 6 6   l.  p   3X  p     p p   S m     p l.l.  f.@X6X@XB.:.  l.  6 l.  S M 2 w y ' c.b.Z.=.J Y Y ",
", + ] U.~.8X7X7X7X7X8XC.  p p 6 6 6     p p   l.  p p p p p   +.D   6 6 p p   V.6X6X@XZ.>.. z.    k.. #.H.o.q e / r.v.2.] J J Y ",
"Y ; =.b.,X7X,X=X7X7X7X7X  z.p p 6 6 6 p p p p     p p p p   A G.#.  6 6 6   V.%X6X6XY.B.<.Z X . #.. #.B.%XG.G.J.P.L.x.2.%.=.-.U ",
"w.[ ` I.,X,X,X*X=X&X6X&X7X. z.p p 6 6 p p p p p p p p p p   s.G.G.:.  6 6   V.&X7X6X@XY. .<.9.K.5X:X5X7X7X7X%XE.E.G.H.r.y.M.M.6.",
"w.[ t *.!.*XE.R.A.@X&X7X7X7X  l.p p p p p p p p p p p p   V I.P.J.h.  6   :.*X=X7XY.R.A.<.Z.@X$X7X6X6X6X7X7X6X7X7XS.Q.x.t.v.=.=.",
"F.-.H $.H.=XE.A.h.$X*X&X6X7X7X.   l.l.p p p p p p p l.  4 $.~.~.P.A.  p   p.*X=X7X&X&Xh.4.A.A.6X7X6X7X&X6X%X7X6X7X7X&XH.r.x.u.b.",
"F.=.t t $.J.S.h.R.*X6X7X7X&XA.5.q     z.l.l.l.l.z.    &.f r I.).^.  p l.6   f.#X,XG.S.5.4.A.7X7X7X&X&X&X$X%X%X6X6X6X7XE.G.H.r.c.",
"F.8.g t ..J.S.A.$X&X6X6X7X7Xj.7.P 1 y X .       . o.c.*.t u 2. X^.. p l.l.l.    +.<.S.6.~ 1.=X*X&X&X@XB.d.|.$X6X<X6X6X$XE.H.r.t.",
"F.`.%.t r J.J.R.*X6X7X=X*XA.5.X.P w r t.c.c.&.t y f ) =.u t t c. X. l.6 l.l.l.l.    ( @.q A.%XT.F.Z.d.e.a.u.B.|.$X<X6X6X$XE.7.r.",
"D.D.%.t r J.J.*X=X6X7X7X7XG.~ ..~ e P x.x.b.P r t t &.b.$.u t 3. Xo l.    l.      l.X ..3 ..G.T.Y.Z.Z.Z.u.u.y.n.@X<X6X6X$XT.S.6.",
"w.D.%.u t P.L.*X7X7X6X7XG.~ 3 P 7.r.~.P. X~.x.&.O.*.2.x.2.u u f (.+ l.. V   l.  n . O o.1 ~ G.G.A.A.Z.u.d.u.u.e.y.@X<X7X6XR.S.X.",
"w.0.=.H t I.(.,X,X8X8X7XQ. .e e 7.L.P.P.8X,X,X).).,XI.c.c.$.t r y ; k.o @.. l.  @.&.t.o.O.o.J.G.A.A.Z.Z.d.u.u.e.u.|.$X<X7X$XE.5.",
"w.0.;.H t ^.^.,X8X7X7XG.!.&.~ o.x.1X8X8X8X8X9X,X).,X~.~.L.c.t t r ; = $.r 5 O O 2.y P *.3 / J.J.G.A.Z.g.N.u.i.u.u.|.$X6X6X$XS.8.",
"F.F.,.H H /.).1X8X8X8X,XJ.o.o.o./ ,X1X1X9X8X8X9X8X8X8X,X).,Xc.y t t t u ) &.c.c.&.y ` $.r o.~.J.G.G.h.h.g.g.g.i.a.@X$X1X7X&X&XH.",
"E.T.,.J f '..X1X1X7X8X(.L.y r r r ,X1X1X1X8X1X7X8X8X8X8X~.,X~.I.&.t.c.c.c.b.c.2.2.&.*.&.t o.~.P.P.G.G.h.h.g.Z.i.b.Y.&X6X7X%XE.H.",
"W.E.,.J H './.,X1X8X8X=X&.e = = r I.,X,X,X,X1X1X1X1X8X8X8X8X~.I.t.c.I.I.8X1X1Xc.c.2.c.O.g o.^.^.~.~.J.G.S.A.A.m.Z.Z.*X*X7X*X,XP.",
"d.|.q.Y H .X'.1X1X,Xc.).$.= + & 5 *.^.^.I.I.I.).,X1X8X1X8X1X1XI.b.c.I.8X1X1X8X8X^.c.m.*.f *.^.^.~.~.~.J.J.H.G.A.A.R.,X7X7X*X,Xc.",
"u.E.q.Y J {.,X,XI.` $.I.2.5 = = g *.^.^.^.U.I.U.^. X1X7X,X&.$.c.c.I.I.9X1X9X9X9X.XU.U.*.f g /./.^.^.^.P.L.H.H.H.S.J.,X,X8X,Xx.&.",
"! b.r.Y J 8.M.b.5 t t &.v.&.2.$.u f ^.^./.U.U.U./.^..XU.u ` ) 2.b.&.2.1X1X9X9X9X9X/./.=.g g U..X/./.^.^.~.L.L.L.J.P.=X,X8X1X^.4.",
"| e.t.R J H f 8.t t ) &.y u *.%.f g U.1X/.U.U./.oX1Xb.*.f f ` M.*.u M.1X6X8X9X9X0X.XoX] H g 8./.oX/././.^.I.I.~.P.~.,X).2./.*.I ",
"! >.y.r.T H u t f ) &.&.y y &.$.g g g /.1X'.}.1X{.M.H g H ` m.M.] =.M./.,X6X9X0X0X.X+X1.I g H 3.{.1X.X/./.^.I. X Xc.2.b.) 8.n.[ ",
"! | r.{.D.%.u t r r.L.x.r.*.c.u.h g H H D.D.D.D.J H J J [ D.D.6.H =.{.'.}.6X6X0X9X+X`.Y.8.T U H 8.M.Z.`.1XoXM.M.m.*.*.g C [ 0.[ ",
">.u.r.D.M.b.b.x.J.J.W.(.P.L.c.v.4.h g I J J U Y Y R Y { y.F.T.T ; 0.}.}.}.6X7X6X1XD.{.0.0.[ Y U J 6.6.6.D.D.%.=.u H H H %.M.t.;.",
"c.y.6.6.n.^.P.J.!.*XE.&X*XJ.(.c.m.3.[ U { ;.;.R R ;.u.E.W.F.T.Y , R [.1X+X+X[.F.;.w.6.0.R U Y Y T Y J J J J H H H I [ 0.M.{.T.;.",
"u.R T ] n.P.8X7X7X7X7X7X7X8X(.I.U.M.6.6.q.R >.W.W.W.(.N.e.b.E.>.E E u.E.{.E.q.G Y ;.y.;.Y Y R R y.w.Y Y U U J [ 0.Z.F.F.F.y.t.t.",
",.W %.*.x.1X,X7X7X6X6X6X7X6X7XP.U.3.[ U G , K c.W.(.Z.i.| i.(.Z.>.! ! ! ! ! E W >.E.W.t.y.>.;.q.E.T.T.F.F.F.A.D.F.R.F.T.y.0.t.t."
};
