/* XPM */
static char *result[] = {
/* columns rows colors chars-per-pixel */
"64 64 214 2 ",
"   c #000000",
".  c #080805",
"X  c #343407",
"o  c #3A591A",
"O  c #417317",
"+  c #4B5029",
"@  c #575A34",
"#  c #48732A",
"$  c #53732D",
"%  c #5E6438",
"&  c #5B7634",
"*  c #676926",
"=  c #6D6C3A",
"-  c #716D3C",
";  c #627536",
":  c #6C733B",
">  c #647A39",
",  c #697B3A",
"<  c #74773A",
"1  c #364951",
"2  c #384C53",
"3  c #6D6D41",
"4  c #716D43",
"5  c #6F7742",
"6  c #757243",
"7  c #797642",
"8  c #737943",
"9  c #7C7945",
"0  c #797649",
"q  c #7C794B",
"w  c #517474",
"e  c #597975",
"r  c #637F77",
"t  c #807D47",
"y  c #817E4A",
"u  c #817E51",
"i  c #008100",
"p  c #088405",
"a  c #66873C",
"s  c #7C8B3A",
"d  c #55A33A",
"f  c #7C824B",
"g  c #689647",
"h  c #75964A",
"j  c #72AB4B",
"k  c #7CAD53",
"l  c #768C79",
"z  c #888C43",
"x  c #84824D",
"c  c #88854F",
"v  c #8B9646",
"b  c #929649",
"n  c #94994C",
"m  c #858254",
"M  c #898654",
"N  c #8B8953",
"B  c #888559",
"V  c #8C895A",
"C  c #908D55",
"Z  c #918E5E",
"A  c #899957",
"S  c #989656",
"D  c #93915B",
"F  c #99955E",
"G  c #A19D5E",
"H  c #88A64D",
"J  c #88A657",
"K  c #9DA152",
"L  c #96AB58",
"P  c #84B257",
"I  c #8BB35C",
"U  c #91B75B",
"Y  c #A2A556",
"T  c #A4A05F",
"R  c #A6AA5B",
"E  c #A9AD5D",
"W  c #ADB15F",
"Q  c #8E8A60",
"!  c #8E946E",
"~  c #949361",
"^  c #9B9A62",
"/  c #989A64",
"(  c #A19E64",
")  c #95A967",
"_  c #90AF66",
"`  c #9CA368",
"'  c #9BB767",
"]  c #A4A065",
"[  c #A9A763",
"{  c #A4A46A",
"}  c #A9A56B",
"|  c #ACAA6D",
" . c #AEB263",
".. c #A4B469",
"X. c #A3BC6D",
"o. c #B3B865",
"O. c #B4B46C",
"+. c #A7A775",
"@. c #ABA775",
"#. c #A6AA70",
"$. c #ABAC72",
"%. c #ADAA79",
"&. c #B1AE71",
"*. c #B2AE7D",
"=. c #A7B375",
"-. c #ADB376",
";. c #B3B375",
":. c #B8B672",
">. c #B5B873",
",. c #BABB74",
"<. c #B4B37B",
"1. c #B8B67A",
"2. c #B6B97A",
"3. c #BBBC7D",
"4. c #C0BD7E",
"5. c #90C66A",
"6. c #9ACA78",
"7. c #A9C376",
"8. c #ADCA74",
"9. c #B3C274",
"0. c #BDC17C",
"q. c #B7C978",
"w. c #AED57A",
"e. c #C3C57B",
"r. c #C6C97D",
"t. c #C9CC7F",
"y. c #AF2DB6",
"u. c #B232B8",
"i. c #DF63E8",
"p. c #7B9587",
"a. c #6B95A7",
"s. c #6D97A8",
"d. c #7298A5",
"f. c #B6B381",
"g. c #BAB683",
"h. c #B7B986",
"j. c #BDBA85",
"k. c #BEBC88",
"l. c #C1BE83",
"z. c #C1BE8A",
"x. c #B4C786",
"c. c #BEC181",
"v. c #BEC38C",
"b. c #ACD689",
"n. c #B9D887",
"m. c #B0D892",
"M. c #BFE186",
"N. c #B9CFAE",
"B. c #C3C482",
"V. c #C6CA84",
"C. c #CACC84",
"Z. c #C5C38C",
"A. c #C9C78D",
"S. c #C7CA88",
"D. c #CBCC89",
"F. c #CDD284",
"G. c #CED18B",
"H. c #C7D888",
"J. c #D1D587",
"K. c #D2D58D",
"L. c #D6DA8B",
"P. c #D9DD8E",
"I. c #C5C690",
"U. c #C9C791",
"Y. c #C5CA92",
"T. c #CBCC94",
"R. c #D1CE97",
"E. c #CBD596",
"W. c #CED299",
"Q. c #D3D690",
"!. c #D6D992",
"~. c #DADD95",
"^. c #D2D49C",
"/. c #D5D89E",
"(. c #C7E38D",
"). c #CBE798",
"_. c #DDE294",
"`. c #DDE997",
"'. c #DEE299",
"]. c #D8E998",
"[. c #E4E997",
"{. c #E2E59C",
"}. c #E5EA9B",
"|. c #D7DAA0",
" X c #DADDA3",
".X c #C6E4A4",
"XX c #DDE1A5",
"oX c #D7EBA6",
"OX c #D3EAAA",
"+X c #DCEEB6",
"@X c #EBEDA3",
"#X c #E4E8A9",
"$X c #EEF2A6",
"%X c #E8F3A9",
"&X c #F1F4A7",
"*X c #F2F5AA",
"=X c #F6F9AD",
"-X c #F8FBAE",
";X c #F1ECB2",
":X c #E7F3B5",
">X c #FCFEB3",
",X c #F5F6B8",
"<X c #FFFEBB",
"1X c #FFA7FF",
"2X c #FFAAFF",
"3X c #A6CFDF",
"4X c #EFF8C6",
"5X c #F4FBC3",
"6X c #FFFFC4",
"7X c #FFFFCB",
"8X c #FFFFD2",
"9X c #FFFFDA",
"0X c LightYellow",
"qX c white",
/* pixels */
"O.Q  .[ z.!.^.*X-X=X<X7X6X7X6XZ.t.*.` } y x c V :.3.K.4.D ~ c.G.1.V M c m R u Y Y +.j.| } } Y Y ] g.g.g.f.<.f.<.*.f.1.f.g.#.T E ",
"Z V @ @ T !.|.>X>X-X7X7X7X6X7XB.C.*.<.{ 9 @ s B :.:.o.C z Z T.T.I.2.v.k.j.<X8X!.Q.g.g.g.{ ( ] K ] 1.<.<.<.F.G.E.W.D.F.<.f.{ q q ",
"z N V @ @ ~.Q.K.-X>X>X=X6X7X6XV.%.%.*.{ K q $.Z.Z.O.c c N 2.[.2.B.Z.<Xy.u.u.8X8X8X9XK.W.G.J.f.` ( ( <.*.<.F.T.*XT.*XC.D.F.*.q q ",
"c N  .m y !.|.Q.D.=X&X-X$XY.~ / %.$.%.f.<.1.j.z.z.;.c c N &.=.K y.y.y.<X8X8X7X8X7X7X7X9XG.F.<.^ - 4 *.*.t.T.7X7X7X6X7X&XT.=X^ 0 ",
" . .B m y &.~.Q.K.D.%.^ * * = = / %.%.*.*.<.g.j.z.j.$.f f y.y.y.K <X<X<X8X8X7X7X6X7X7X7X>X7XF 4 - 4 ^ %.&X6X7X6X6X7X<X6XZ.&XC.F ",
"U. .<.u y | ~.>X>X*.^ - = = = C @.V.S.C.C.F.<.` <.-.y.y.y.y.H 9 0 >X>X>X>X>X>X-X7X=X7X7X-X7X4 - - b %.t.$X6X6X7X6X$X$X6X6X@X$Xt.",
"XX<._.@.y +.g.g.{ ^ - - = b C r.V.7X7X7X7XV.V.y.y.y.y.y.y.=.9 9 < W.-X>X>X*XV.$X=X7X6X6X6X%.D b b / @.V.$X6X6X6X6X@X@X@X6X6X@XB.",
"{.@.z.| y y 9 ( ( - 4 b ^ @.V.B.6X7X7X,Xy.y.y.y.d y.y.y.v ^ 8 - <.W.T.C.S.V.S.$X=X=X=X6X6X@.%.%.&.%.@.B.7X6X6X,X@X1.{.,X<X6X}.k.",
"'.z.z.$.u 9 9 9 7 7 0 / %.@.Z.7X7X,Xu.y.y.y.y.y.y.y.y.v F ^ 6 6 F.Y.7.7.' I _ w.n.).:X7XV./ @./ / @.&.B.7X6X6X6X@X/ >.{.,X<X<Xk.",
"~.l.+.j.g.] 9 S { ( n ~ %.%.=X5Xy.y.i y.y.y.y.y.y.y.}.%.C.F - = h U                 6.b.9.+.F 3 4 @.%.e.6X7X<X@X{.:.>.'.{.;X<Xh.",
"!.j.+.g.g.L.f.<.*.( 4 - *X*Xy.y.y.y.y.y.y.y.y.y.y.,X7XB.C.A $ $     1 1 a.a.a.a.a.a.    k J F - 4 / %.e.<X@X$X$X{.>.>.'.{.<X<X'.",
"!.L.{ >X<X<X<XJ.F.n - - v.y.y.y.y.y.y.y.y.y.y.y.:X6X6X6Xx.X.    a.a.a.a.1 1 a.a.a.a.a.w     h 4 4 &./ %.*X*X$X}.1.2.O.~.{.;X<X'.",
"!.} >X>X<X>X<X8X*.n - y.u.y.y.y.y.y.y.i y.y.y.].<X6X<X:XH.  a.3X3X3X3Xa.a.a.1 1 a.a.a.a.w w   h F *.b z $X@Xv.k.2.>.>.f.{.;X>X~.",
"!.T -X<X>X7X7X8X*.b y.y.y.y.y.y.y.y.i y.y.y.y._.@X,X%XoX  a.3X3X3X3Xa.a.a.a.a.a.1 a.a.a.a.w w   J ^ - F V.Z.v.3.3.2.;.;.{.{.<X~.",
"/.g./.>X7X8X8X9X%.y.y.y.y.i y.y.y.i y.y.i.y.2.h.@X].H.  a.3Xa.3X3X3Xa.a.a.a.a.a.a.1 a.a.a.a.a.s.  ; - F C.B.c.0.3.2.;.>.#X>X<X'.",
"g.K Q.>X>X8X7X7Xy.y.y.y.i y.y.y.y.i y.y.y.y.2.2.h.E.  w w a.a.3X3X3Xa.a.a.a.a.a.a.1 w w w w a.a.  $ - *.V.B.B.0.0.      H.P.).I ",
"$.K Q.>X>X7X7X7Xy.y.y.i y.y.i.y.i y.y.i.y.1.1.2.&.'   w w w a.a.a.a.a.a.a.a.w w w w 1 w w w w w a.  $ C.(.X.'     s.a.a.      H ",
"y ] /.>X7X8X7Xy.y.y.y.i y.y.y.y.i y.y.i.y.1.>.2.' . w w w w a.a.a.a.a.a.w w w w w w 1 w w w w w w   # g       e w w w w a.a.a.  ",
"y { >X>X8X7Xy.y.i.y.i y.y.i.y.i y.y.i.y.3.,.1.=.'   w w w w s.a.a.a.a.w w w w 1 1 1   1 1 1 w w w       d.a.a.      w w       a.",
"x } >X8X8X8Xy.y.y.y.i y.y.i.y.i y.y.i.y.,.9.>.E   w w w w w a.a.a.a.w w w w 1 1 1 1   1 1 1 1 w   a.a.a.e     k I J     w   6.  ",
"x } <X<X8Xy.y.i.y.i y.y.i.y.i y.y.i.i.y.0.,.>...  w w w w a.a.a.a.w w w 1 1 1 1 1 1   1 1 1 1   a.a.a.    k I 9.0.2.  w   p.  g ",
"m | <X8X6Xy.y.i.y.i y.y.i.y.i y.y.i.y.c.e.>.>...  w w w a.a.a.a.a.w w 1 1 1 1 1 1   1 1 1 1   w a.w   a X.B.B.c.0.c.    w.    h ",
"c | 6X8Xy.y.i.y.i y.y.i.i.y.i y.y.i.y.B.c.3...  w w w a.a.a.a.a.w w w 1 1 1 1 1 1   1 1 1   w w w   O D V.B.B.0.0.0.    oX,X:X) ",
"N -.<X<Xy.y.i.y.i y.y.i.y.i i y.i.i.y.e.0.3.... w w a.a.a.a.a.a.w w 1 1 1 1 1 1 1         1 w w   g * S B.B.B.B.c.c.v.$X=X<X6X@.",
"N &.>Xy.y.i.i.y.i y.y.i.y.i y.y.i.i.y.e.e.3.... w w a.a.a.a.a.a.w w 1 1 1 1 1     2 w w w 1 1 1   k % S B.B.B.e.B.e.@X*X7X7X8X%.",
"N ;.<Xy.y.i.y.i i y.i.i.y.i y.y.i.i.V.e.B.3.... a.a.a.a.a.a.a.a.w w 1 1 1     w w 1 1 1 w w w 1 1   # a 9.B.e.0.e.e.@X6X7X7X7X%.",
"N ;.'.y.y.i.y.i y.y.i.i.y.i i.y.i.i.S.B.0.3.... a.3Xa.a.a.a.a.a.w w 1 1   1 w w w w w 1 1 w w w w 1     k P 9.e.e.V.=X=X7X7X=X` ",
"D ;.H.y.i.i.y.i y.y.i.i.i i i.y.i.i.D.B.e.3.>.L   3Xa.3Xa.a.a.a.w       1 1 1 a.w w w w 1 1 1 w w w 1 2     k P q.S.>X7X7X8XJ.( ",
"Z N y.y.i.i.y.i i.y.i.i.i i i.i.i.i.D.B.l.4.,.'   3X3X3Xa.a.a.    w w w w 1 1 1 a.a.w w w 1 1 1 w w w 1 1 w     I v.>X8X7X8XJ.] ",
"Z N y.y.i.i.4Xi i.y.i.i.i i i.i.i.i.D.V.e.3.>...  a.3X3Xa.a.  a.a.a.w w w w w 1 1 a.a.w w w 1 1 1 w w w w 1 w 1   _ >X>X8X9XL.} ",
"D N i.y.i.i.8Xi i.i.i.i.i d i.i.i.i.D.V.B.3.,.>.)   3Xa.a.  a.3X3Xa.a.w w w w w 1 1 a.w w w w 1 1 w w w w w 2 w 2   (.<X8X>X!.R ",
"D N i.y.i.i.i i i.i.i.i.; x.i.i.i.i.S.B.B.4.3.1.'   a.a.a.  a.3X3Xa.a.a.w w w w 1 1 1 w a.s.w w 1 1 w w w w w w w   6.-X6X~._.E ",
"D N i.i.i.i.i i i.i.i.i.> q.i.i.i.i.D.V.B.e.3.3.'.w.  3X  w 3X3Xa.a.a.a.w w a.a.w w 1 1 a.a.a.a.w 1 1 w w w w w w 1   ].k._.[.M ",
"Z N i.i.i.i.>XE.i.i.i.i.: / i.i.i.i.D.S.B.B.0.h.@XE.  a.  a.3Xa.a.a.w w w a.a.a.a.a.w 1 a.a.a.a.a.w 1 1 w w w w w 1   8.x $.&.V ",
"Z N i.i.i.i.>X-Xi.i.i.i.= D i.i.1Xi.C.C.r.e.e.@X$X,Xn.  a.a.a.a.a.w w         w a.a.a.a.1 a.a.a.a.a.a.1 w w w w w 1   > x $.2. .",
"o.N i.i.i.i.G.G.i.i.i.i.= : i.i.i.i.D.S.C.r.B.&X,X6Xn.  a.a.a.w w 1   1 1 1 1   a.a.a.a.a.a.a.3Xa.a.a.w 1 w w w w 1   a f >.T.h.",
"3.N i.i.i.i.W.=Xi.i.2Xi.4 = i.i.1Xi.D.D.C.t.&X=X6XoX  a.a.w w 1     w 1 1 1 1   w a.a.a.3X3Xa.a.a.a.a.a.w w w w w 1     J X.I.T.",
"h.N i.i.i.i.D.8Xi.i.i.i.%.b i.i.1Xi.D.D.D.T.>X6X7XOX  a.w 1     a.a.w w 1 1 1 1   a.a.3X3X3X3Xa.a.a.a.a.w w w w 1 1   e     J ..",
"N = i.i.1Xi.8X7Xi.i.2Xi.*Xq.s i.1Xi.T.G.G.=X>X>XOX  a.w 1   j   a.a.w w w w w 1   w a.3X3X3X3Xa.a.a.a.a.w w w w 1   w w w w   a ",
"% X i.i.i.i.7X7Xi.i.1Xi.*X&XA i.1X2Xi.W.K.-X>X+X  3Xa.w   U v.P   w w w w     qX    a.a.3X3Xa.a.a.a.a.w w w w 1     w       m   ",
"N @ i.i.1Xi.>X=XoXi.1Xi.7X=X+.i.1X1Xi.F.^.>X>X+X  3Xw w   7.T.V.'     qX  qX    5.  w 3X3Xa.a.a.a.w w w w 1 1 1     p.  h J     ",
";.E i.i.1Xi.>X-X%Xi.1X2Xi.$XY.A i.1X2X` Q.>X<X%X  a.w   & ` G.G.G.9.7.  P   w.w.b.  a.3Xa.a.  w w w w 1 1 1     x.q.  l   =.' J ",
"2.E a i.1Xi.T.Y.9.i.1X1Xi.7X&XS.i.1X1X< f.Q.K.'   a.s.  ; G K.K.G.F.t.9.9.7.%X].  w a.a.a.a.w     1 1 1     ).+X7XS.  !   #.@.| ",
"A.| t i.1X1Xi.V.e.].i.2X1X7X7X%.i.1X1X: 7 7 q 7 >   s.  , ] L.K.K.K.J.J.F.H.=XM.  a.3Xa.a.w w 1 1         w.oX6X6X7X$X    =.j.3.",
"A.| f i.1X1Xi.r.Y.*Xi.2X1X=XV.@.3 1X1Xi.0 0 0 q A   s.  , 9 L./.K.Q.J.J.K.D.*X  a.3Xa.a.w w 1 1     1 1 1     oX6X6X7XT.G.F.2.g.",
"A.-.y < i.1X1XV.&X%Xi.2X1X6XC.*.v i.1X1X] K q q A   a.  > 9 #.|.!.!.!.Q.K.K.Y.  3X3Xa.a.w 1     w 1 1 1 1 1 1       6X$XY.F.<.f.",
"A._.} 9 i.1X1XT.-X,X:X1X1Xi.%./ b : 1X1X-.3.A , >   a.e   8 9 j.|.!.!.K.Q.^.#.  3X3Xa.w     w w 1     w 1 1 1 2     6X6X$XT.*.<.",
"Z.B.} 9 i.1X1X$X=X6X:Xi.1X1X^ ^ F 8 i.2Xi.)       a.a.w   , 9 #.|.!.!././.f.S   a.a.w w w w 1     I k   w 1 w   5.E.<X6X$XT.C.&.",
"2.Z.| 9 , 2X2Xi.7X7X,X+X2X2X- n *.<.V.1X1X. 3X  w a.a.a.  > 9 q L.>X|.g.} ] 9 &   w w w 1     X.' X.  s.w w a.w     ;X6X7XY.S.` ",
";.;.| x < i.1X1X>X8X8X:Xi.2Xi.6 <.K.n.i.1X1X  i   a.  a.r   , 9 t g.+.] { 9 < S )         h q.S.D.B.  a.w     a.w   @X<X6X$XT.&.",
";.;. .y 9 H.1X1X5X7X8XS.x.1X1X^ g.>X8X+X1X1XO   a.a.  3Xa.  > 0 7 t ] [ 9 0 K g.} q n ] 7 G G.G.D.V.X.  a.  p       $X6X6X&XS.*.",
"D.A.;.x x !.i.1Xi.8X8X-Xq.i.1X2XF <X>X>X+X1X2X  3X  6.  a.. _ 0 7 9 9 9 K { g.g.{ 0 G ( 9 ( K.G.G.D.r.  a.a.  I ..}.&X6X6X&X*XC.",
"T.A.O.c y _.n.1X2X4X8X^.C.& 2X2X0 >X<X<X>XOX2X  3X  b.  3XN.. L.{ 1.g.g.g.j.g.#.#.] ] ] 9 ( Q.Q.G.D.D.9.      X.c.I.&X6X7X&XT.F.",
"R.R.O.c y {.!.i.1X1X8X>X` < o 2X2XL.>X>X>X=X(.2X  . .Xm.. . q.L.1.g.L.L.8X<X<Xg.j.#.k.{ y ( !.Q.Q.K.G.C.C.V.e.B.B.B.=X=X7X=X>XK.",
"0.}.:.N c  X!.`.1X1X-.^.^ + X o 2X` !.!.L.L.F.7.1X. OX%XOX%X<X!.g.g.L.8X<X<X9X8X~.j.k.] t } ~.!.!.Q.K.K.G.C.C.D.V.Y.>X7X8X=X>Xg.",
"3.T.:.M c [.>X>X8.1X1XJ.{ 8 + + > 2XK.!.!.!.L.H.q.x.<X7X<X^ ] h.j.L.L.9X<X9X8X9X XP.!.} y y !.~.~.Q.Q.K.J.F.F.C.D.D.>X>X8X>Xg.] ",
"~ 0.;.N M -.l.k.< , 1XJ g.( +.] q < 2X!.!.P.P.L.!.!.|.L.q Y K } j.] +.<X<X9X9X9X9X~.~.+.y y P. X~.~.!.L.K.J.J.F.K.G.-X>X8X<X!.@.",
"~ 3.1.V c x y $.t < v 1X5 q +.[ t t L.>X_.P._.~.XX<Xk.} x q Y z.| q z.>X6X8X9X9X9XXXXXR y x -.P.XX~.~.!.!.L.L.!.K.Q.>X/.#.~.} m ",
"D O.h.;.M x y q t K { J 2X0 ] [ y y y '.<X'.'.<X[.z.x x x Y l.z.R | l.'.<X<X9X0X9XXX#X| m y x $.[.<XXX~.~.~.!./.|.g.+.z.Y $.k.E ",
"F V ;.[.Z.} q 7 7 ;.K.<.-.{ g.g.u y y x Z.Z.Z.I.c c c c E Z.Z.&.x | {.'.'.6X6X0X0XXX_.Z.;.M m c ;.z.Z._.<X Xz.j.l.} } t x E -.E ",
"o.3.<.Z.z.j.g.g.K.G.W.W.G.J.g.g.+.y x x c c c M N V M W 1.A.I.B @ ;.}.{.}.6X7X<X<XZ.[.<.<.W m M c &.| ;.B.z.| | x x x c E B.<. .",
"j.1.;.$.z.!.K.G.W.=XT.=X-XG.^.g.z.$.E B W  . .Z V o.3.T.R.U.U.N % V }.<X#X#X}.U. .;.;.;.M N N N B N c c c c c x x m R <.I.{.Y. .",
"g.Q B R h.K.8X7X7X7X7X7X7X8XW.K.P.z.&.&.:.V o.R.R.R.^.h.,.l.R.o.N C h.T.}.T.:.z N  .2. .N N V V 2.;.N N B N c R -.B.Z.Z.T.2.;.1.",
"O.V E } g.<X>X7X6X6X6X6X7X6X7XK.L.%.E M z % z 3.R.^.B.e.~ 3.^.B.o.D C S D D C Z o.T.R.1.2.o.o.:.T.A.T.Z.A.A.B.A.A.A.A.T.2.;.1.1."
};
