/* XPM */
static char *result[] = {
/* columns rows colors chars-per-pixel */
"64 64 222 2 ",
"   c #000000",
".  c #0B0B08",
"X  c #13140D",
"o  c #191912",
"O  c #302C04",
"+  c #333426",
"@  c #187A0B",
"#  c #327817",
"$  c #454918",
"%  c #474A26",
"&  c #51562E",
"*  c #575A34",
"=  c #467B27",
"-  c #527A2E",
";  c #5D6139",
":  c #5B7934",
">  c #646624",
",  c #696B26",
"<  c #6D702A",
"1  c #676437",
"2  c #6D693A",
"3  c #716D3D",
"4  c #757537",
"5  c #364951",
"6  c #3C4D54",
"7  c #3F5154",
"8  c #45544A",
"9  c #4B5954",
"0  c #57665F",
"q  c #6D6A42",
"w  c #716D43",
"e  c #6E764D",
"r  c #757142",
"t  c #797642",
"y  c #7C7945",
"u  c #767149",
"i  c #797649",
"p  c #7D794C",
"a  c #5C7168",
"s  c #517474",
"d  c #5C7B75",
"f  c #807D47",
"g  c #807E4A",
"h  c #817E51",
"j  c #068504",
"k  c #228916",
"l  c #358A22",
"z  c #4C8F2E",
"x  c #579438",
"c  c #6D8F3A",
"v  c #51A138",
"b  c #6C9744",
"n  c #789A4E",
"m  c #76AE50",
"M  c #6C8878",
"N  c #78BD60",
"B  c #9D8D00",
"V  c #F7F701",
"C  c #888C43",
"Z  c #84824D",
"A  c #88854F",
"S  c #8E9447",
"D  c #919647",
"F  c #93954A",
"G  c #95994C",
"H  c #9A9D4E",
"J  c #858154",
"K  c #898654",
"L  c #8B8953",
"P  c #888559",
"I  c #8C895A",
"U  c #918D55",
"Y  c #918E5E",
"T  c #899D57",
"R  c #979855",
"E  c #94915C",
"W  c #99955E",
"Q  c #9C9A5C",
"!  c #A19D5D",
"~  c #86A45D",
"^  c #9DA152",
"/  c #89B85C",
"(  c #A2A556",
")  c #A4A35B",
"_  c #A6AA5B",
"`  c #A9AD5D",
"'  c #ADB15F",
"]  c #8E8A60",
"[  c #908E60",
"{  c #949361",
"}  c #9A9660",
"|  c #979964",
" . c #9C9A62",
".. c #9C9D69",
"X. c #A19D63",
"o. c #A29E6E",
"O. c #8FAF66",
"+. c #99A367",
"@. c #97B969",
"#. c #A4A065",
"$. c #A7A867",
"%. c #A4A46A",
"&. c #A9A56B",
"*. c #ACAA6C",
"=. c #B0AE69",
"-. c #AEB263",
";. c #A6BB6C",
":. c #B3B865",
">. c #B4B36C",
",. c #A8A674",
"<. c #ABA775",
"1. c #A5A970",
"2. c #ABAC72",
"3. c #AEAA7A",
"4. c #B1AE72",
"5. c #B2AE7D",
"6. c #AEB376",
"7. c #AEB977",
"8. c #B3B375",
"9. c #B8B672",
"0. c #B5B974",
"q. c #BCBC74",
"w. c #B4B37B",
"e. c #B9B67A",
"r. c #B6BA7A",
"t. c #BBBC7C",
"y. c #C0BD7E",
"u. c #81C25B",
"i. c #96C774",
"p. c #9FD271",
"a. c #A5C96F",
"s. c #ACC574",
"d. c #A7C378",
"f. c #B2C674",
"g. c #BEC077",
"h. c #BEC27E",
"j. c #B8CA7A",
"k. c #C2C47B",
"l. c #C6C97E",
"z. c #C9CD7F",
"x. c #6F908F",
"c. c #6B95A7",
"v. c #6E96A8",
"b. c #8EA99C",
"n. c #B6B381",
"m. c #BAB683",
"M. c #B6B984",
"N. c #BDBA85",
"B. c #BEBC88",
"V. c #C1BE83",
"C. c #C1BE8A",
"Z. c #BEC281",
"A. c #BDC48C",
"S. c #AAD68B",
"D. c #B8DB85",
"F. c #B8DC98",
"G. c #BFE09F",
"H. c #BFE0A2",
"J. c #C3C483",
"K. c #C6C985",
"L. c #CACC83",
"P. c #C5C38C",
"I. c #C9C78D",
"U. c #C4CA8B",
"Y. c #CACC89",
"T. c #CDD183",
"R. c #CED18B",
"E. c #D1D487",
"W. c #D2D48D",
"Q. c #D6DA8B",
"!. c #DADD8E",
"~. c #C9C791",
"^. c #C6C992",
"/. c #C8CA94",
"(. c #CBCC94",
"). c #D1CE97",
"_. c #CCD296",
"`. c #CED299",
"'. c #D3D690",
"]. c #D6D992",
"[. c #DADD95",
"{. c #D2D49B",
"}. c #D5D99E",
"|. c #C6E18B",
" X c #D3E392",
".X c #DDE194",
"XX c #D6E895",
"oX c #DEE299",
"OX c #E4E997",
"+X c #E5E997",
"@X c #E2E59C",
"#X c #E4E99E",
"$X c #D6DAA0",
"%X c #DADDA3",
"&X c #C6D6BC",
"*X c #DDE1A5",
"=X c #DEE7A9",
"-X c #DBEEB6",
";X c #E7EAA1",
":X c #EBEEA4",
">X c #E2E7AA",
",X c #EAF3A7",
"<X c #EEF1A6",
"1X c #F1F3A7",
"2X c #F2F5AA",
"3X c #F6F9AD",
"4X c #F9FCAF",
"5X c #F1ECB2",
"6X c #E5F4BB",
"7X c #F5FAB1",
"8X c #FCFEB3",
"9X c #F8F4B8",
"0X c #FFFEBB",
"qX c #A6CFDF",
"wX c #ECF7C7",
"eX c #F7FCC1",
"rX c #FFFFC4",
"tX c #FFFFCB",
"yX c #FFFFD3",
"uX c #FFFFDA",
"iX c LightYellow",
"pX c white",
/* pixels */
">.] -.$.C.].$X2X9X3X0XrXrXrXrX^.L.5.+.&.g Z L U y.y.R.y.E E Z.R.e.I A A J _ h ( ( 1.N.1.&.&.( ( %.m.m.e.n.n.w.w.n.w.w.m.m.1._ _ ",
"Y I * * ) ].$X3X8X3XtXtXtXrXtXK.L.3.w.1.y & c P 4.9.:.L C [ (./.~.w.P.C.B.0XyX].'.m.m.m.%.X.%.H X.e.e.n.w.T.R._.`.Y.T.w.n.%.p h ",
"C I L * * [.'.W.3X8X3X3XtXrXtXK.3.3.w.%.^ p 2.P.I.>.A L L r.OXw.K.P.rXuXuXyXyXyXyXuXR.`.W.E.w.%.X.X.n.5.w.T.(.2X/.1XL.L.T.5.i p ",
"C L -.J g [.$X'.W.3X2X3X<X^.{ { 3.2.3.n.e.e.N.C.C.4.A A K 8.w._ *.N.0X0X-X-XrXyXtXtXyXyXR.T.w. .3 w 5.5.z.(.tXrXtXtXtX1X(.3X .u ",
"=.=.P J g 2.[.W.W.Y.5.| , > 2 2 { 3.3.3.w.w.n.m.V.C.4.h h 4.*.h ^ 0X0X3X    S.tXrXtXtXtX8XtXW r 3 w ..<.1XrXtXtXrXtX0XtXI.1XL.W ",
"~.-.w.h g *.].8X8X5.Q 3 2 2 1 R <.K.L.Y.L.T.w.%.e.m.m.C.N.!.( y p 8X8X8X  qX  7XtX4XtXtX7XtXw 2 3 F <.l.<XtXrXtXrX<X<XrXrX:X:Xz.",
">X5..X<.g 2.N.n.%. .3 3 2 D E l.K.tXtXtXtXY.R.T.5.w.n.! 1.e.y y t `.3X,X  qX  1X3XrXtXrXrX3.W D D | <.K.<XrXrXrXrX:X:X<X0XrX:XJ.",
"[.4.C.*.g f y o.#.r w F | &.K.K.tXrXtXrXtXtXtXL.L.T.X.r H T - =     x /   c.  D.XXX + rXrX<.3.<.<.4.<.K.rXrXrX9X:Xr.oX9X0XrX;XB.",
"[.C.C.1.g f y y 4 r u ..3.<.U.tXrXtXrXrXrXtXtXtXrXK.a.s s s s s   qX  j   c.  u.  tX+ rXK.{ <. .{ 3.<.K.rXrXrXrX:X| q.;X5X0X0XB.",
"[.C.1.C.m.o.i H %. .F } 3.<.3XtXtXrX0XrX9XrXrXtX=Xs s c.c.s s c.    qX  s c.s   &Xo tXtXL.2.W w w *.<.l.rXrX9X:X@X9.w.[.;X5XrXM.",
"[.C.1.m.m.W.n.w.n. .u 3 2X7X3X2XtXrX1X,X<X<XXXc.c.c.c.s s c.c.c.c.c.  c.qXqXc.c.  6XtX<XY.<.{ 3 w | 3.k.rX1X1X:X@X0.8.oX@X0X0XoX",
"].Q.%.8X0X0X0XE.T.G 3 3 (.2X2X2X2X1X;Xt.t.].c.qXqXqXs c.c.c.c.c.c.s s   qXc.s   D.tX(./.Y.5.W w r 2.| <.3X1X,X@Xq.8.>..X@X5X0X.X",
"].&.8X8X0X8X0XyXn.F 3 W Y.2X<X2X1X;XB.g.;.c.qXqXqXs c.c.c.c.c.c.s s s s   s s   D.tX2X3XT.5.5.}  .2.F S <X<XA.B.e.0.8.M.oX5X0X[.",
"].! 4X0X0XtXtXtX3.F 3 4.K.K.K.V.J.g.t.t.c.qXqXqXc.qXc.c.c.c.c.s s s s 5   s   5 . 8XR.R.5...5.n.3. .3 W J.^.A.t.t.r.8.8.@X@X0X.X",
"}.e.}.8XtXtXtXuX3.F 3 Y.(.K.K.J.J.t.N.0.c.qXqXc.qXqXc.c.c.c.s s 5 5 5 5   c.  5 . 8.W.E.X.i H w.%.3 3 W l.J.Z.h.t.r.q.8.@X0X0X.X",
"N.^ W.0X9XyXtXyXn.w 3 L.I.K.K.J.J.h.h.c.qXqXc.qXqXqXc.c.c.c.s 5 c.c.5 5   c.    . t %.n.X.< r e.! 3 3 5.K.K.Z.h.g.t.8.M.#X@X0X0.",
"*.^ Q.8X8XtXtXtX.., W Y.Y.K.k.J.J.V.7.c.qXc.qXqXqXc.c.c.c.s 5 c.c.c.c.c.  c.s   . y %.m.%.i H E.%.w 3 L.1XK.Z.J.t.t.r.@X#X0XrX0.",
"p %.{.0XtXtXtX3.{ , <.Y.K.l.L.k.k.J.c.qXc.s qXqXc.c.c.c.c.5 c.c.c.c.c.c.  c.s   - y %.m.m.8X4XW.%.u 3 ..K.K.J.t.h.t.t.oX0X0X0X..",
"g #.8X0XyXtX3XY.F 2 Y.^.Y.K.l.l.k.0.c.qXs c.c.c.c.c.c.c.c.c.c.c.c.c.c.c.  s s   : ^ m.e.8X0X0XyXE.H r W K.K.k.k.g.q.N.:X:X0XrX..",
"Z &.8XyXtXyX2XL.q 2 /.Y.K.Y.L.L.Y.@.c.c.s c.c.c.c.c.c.c.c.c.c.c.c.c.c.s   s   # ^ w.m.%.8X0X0XyXR. .3 W Y.J.k.y.g.g.h.:XrX9XrXo.",
"Z &.0X0XyXyX3Xz.2 2 Y.Y.Y.Y.Y.Y.j.c.qXc.s c.c.c.c.c.c.c.c.c.c.c.c.c.c.s   c.  x M.w.#.'.0X0XtXyX4X.., W K.J.Z.k.k.t.N.<XrXrXrXo.",
"K *.0XyXtXyX2X3., 3 Y.Y.Y.Y.Y.Y.;.c.c.c.s c.c.c.c.c.c.c.s s s c.c.c.s s   c.  l +.H t +.8XtXyXyX3X5., { K.K.J.k.t.k.t.,X:X9XrX,.",
"A *.rXyXyXtX3X5.2 } n./.Y.Y.Y.Y.O.c.c.s c.c.c.c.c.c.c.s s s s 5 c.s s 5   qXs   x H r ..4X0XyXyX3X3., W J.J.J.J.J.h.Z.2XrXrXrX,.",
"L 6.0X0XtXyX3XL.w { | `.`.Y.I.j.c.qXc.s c.c.c.c.c.c.s s s s s 5 5 s 5   c.c.s   z ! 3  .8XyXtXyX3X5., U J.J.J.V.h.Z.B.2X1X0XrX,.",
"L 4.0XyXyXyX4XR.G 3 3 Q 3XR.R.s.c.qXc.s c.c.c.c.c.c.s s s s 5 5 5 s 5   qXqXc.  v E 3 +.8XrXyXtX2XL.2 R K.J.J.k.J.k.:X2XrXtXyX<.",
"L 8.0X0XyXyX4X3X4.w 3 w X.3XR.;.c.qXc.s c.c.c.c.c.c.s s s 5 5 5 5 s   s qXqXc.s   c 2 W (.yXtXyX2XL.q Y J.J.k.h.k.k.<XtXtXtXtX5.",
"L 8.oX0XyXyXyX`.W.3 r r w {.W.s.c.qXc.s c.c.c.c.c.s s s 5 5 5 5 s 5   s c.c.c.s   z 2 > <.7XrXtX1XY.q E K.K.J.k.k.K.3X3XtXtX3X+.",
"Y 8.oXrX0XtXyX7X4XX.u w u Y.W.s.c.qXc.s c.c.c.c.c.s s 5 5 5 5 s s 5   s s c.s 5   l 1 > { 7XtXtX3XL.} { K.K.Y.k.K.Y.3XtXtXtXW.X.",
"Y A *X0XuXyXyX`.W.5.X.r r R.W.s.s qXc.s c.c.qXqXc.s s 5 5 s s s   5   5 s s s 5   k L 1 Y 3X7XtXyXY.{ , 3.`.Y.Y.Y./.8XtXtXyXE.%.",
"E L >XrX0XyXyX`.{.5.X.r r R.W.s.s qXc.s c.c.qXqXc.s 5 5 c.s s   5 s 5 s s c.5 5 5   k > Y ,XtXtXyXY.} w } Y.Y.Y.Y.T.0X0XyXuXQ.&.",
"E L >X0XyXyXyX8XW.X.G u r ).R.f.s qXc.s c.c.c.c.c.s 5 c.s s 5   5 c.5 s c.c.5 5     k > U 1X7XrXtX(.n.w | R.R.R.R.R.8X0XyX8X!.) ",
"E L =XrX0XuXyX8X5.3 < w r ).W.g.s qXc.c.s c.c.c.c.c.c.c.s s   5 s c.5 s c.c.s 5   5   @ # k.rXtXtX0XY.|  .R.W.W.'.'.$X0X0X[..X` ",
"E L 0XrXuXyX8X3XQ $ o % w E.Y.T.f.s c.qXc.qXc.c.c.c.c.c.s s   s c.5 s s c.s 5   5 5 5     l p.7XyX3XR. .< E.{.'.'.].Q.0XN..X+XK ",
"Y L +X0XyXyX8X{.5.$ $ % w ..W.Y.j.s qXqXc.qXqXc.c.c.s s s 5       5 s c.s s 5   5 5 s s s     N F.yX5.H r %.E.8X$X$X0X!.J 4.8.P ",
"[ L 6.*XuXyX8X4XL.W w , 3 ! 5.).h.  qXqXc.qXqXc.c.s     s 5   5 5 5 s s 5 5   5 5 s s s c.c.s     i.+.G r t t m.m.N.C.g Z 4.w.-.",
":.L A C.$X'.W.Y.L.L.5.} 3 3 ..L.A.  qXqXc.qXqXc.s       s   5 5 5 5 5 5 5 5 5 5 5 s s c.c.c.c.c.s     c t t t y y y Z Z A r.^.t.",
"t.L A g %.W.{.3XE.Y.tX3.w 3 3 3 U.  c.qXqXc.qXc.s   B   s   5 5 5 5 5     5 5 5 5 5 c.qXqXc.c.c.v.v.s   b ^ i p p p p Z *.P.~.(.",
"t.I A y %.W.Y.tXyXtXyX1X3.F 3 3 T.d.  qXqXs c.c.s   V   s   5 5 5 5   s s s 5 5 5 s c.qXc.qXc.c.c.c.c.s   b X.o.1.m.V.J.P.r.>.9.",
"U 1 _ N.].{.yXtXtXtXyX7X,XL.F 2 ..Y.d.c.qXs c.c.c.    s 5   5 5   s s c.c.s s 5 5 s s c.c.c.c.qXqXc.c.c.s   : i ) m.m.B.*.A L L ",
"; O _ !.'.yXtXtXtXtXtXyX2X2X} w  .n.s.  c.qXs c.c.c.s s 5       s s c.c.qXqXs s 5 5 s s c.c.c.c.qXqXqXc.s   : u ) w.m.6.( A A L ",
"L ; *.N.0XrX8X4XtXtXrXtXtX3X3.W 2 r 8   s c.c.s c.s s 5 pX5   5 s c.c.c.qXqXc.s 5   5 s s s c.c.c.qXqXc.s   s.R.R.E.n.1.*.*.*.L ",
"9.` ( !.4X8X8X3X2X2XrX2XtX1X^...3 r 8 s     s s 5 s pX  5 s   5 s c.c.c.c.c.c.s 5 5   5 5 s s s c.c.c.s s   R.(.(.R.T.w.e.N.B.>.",
"r.` f 1.{.3X(.^.K.:X2XtXtXrX2XY.G 4 8 a   /     pX    s s s s 5 s c.c.c.c.c.s s 5 5       5 5 5 s s s s   F.eXtXtXL._.n.r.m.2.*.",
"U.*.f #.E.3X(.K.l.<X3X2XrXtXtX3.w 9 a   : i = =   z   s c.s s   5 s c.c.c.s s 5 5   m m       5 5 5     D.OXrXrXtXtX2XT.w.n.m.t.",
"I.=.Z y ! R.L.z.^.3XrXtXrX3XY.3.4 8 s   t y y p x ~   c.c.c.s s 5     s s s 5     m h.3.n   5 5 s s s s   D.1XrXrXrXrX(.R.T.r.m.",
"I.6.p 4  .R.L.K.,X2XrXrXtXtXK.3.G 8 s   n ^ p p b   s c.qXc.s s 5 5           / i.3.L.4.{ T   s s c.c.s s   |.rX9XrXrX<X~.T.w.n.",
"I..X*.y y R.Y.(.4XrXtX3X3XK.3...S 7 c.d   ~ %.y -   c.qXc.c.s s 5 5   / @.@.~ Q < w 4...w j.  5 c.5   c.  s   ].,X0XrXrX<X(.5.w.",
"U.P.%.y t R.R.2X3XrXtXtXtXY.| ..e x.c.c.M   c t :   qXqXc.c.s 5 5   0   S.n.X.t r H n.X.3 } f.  c.  @.  c.  . M.:X9XrXrX<X~.L.4.",
"0.P.*.y y W.R.3XtXtXrXtXY.} 3 G M c.c.s   M   T n   qXqXv.s s 5 5   5   ~ #.t i H w.W.X.< Q R.  b.  f.  c.X 7.0.t.:X9XrXtX^.Y. .",
"8.8.*.g y Q.{.8X0XtXtXtX`.} r u 1.7 c.  i.    d.i.  c.c.v.s 5   5 5 5   T i y H m.%.w.X.%. .R.L.o j.K.o X r.q.t.t.OX:XrXrX<X(.3.",
"8.w.>.Z y ].Q.0XtXtXyXR.{.+.Q ..M.6 v.  5 S.F.7X_.p.  s s     :   s s   : y H m.%.i H X.r ! R.Y.Y.K.J.k.Z.t.y.t.t.#X<XrXrX<XL.6.",
"Y.Y.*.Z Z [.}.0XyXyXyX4XW.X.X.X.^ 9 v.s   a uXuXyXwXS.    p.O.:   c.s a   T m.m.%.i ^ #.i X.W.W.R.Y.l.l.k.k.k.y.g.;X1X0XtX2X2XT.",
"(.I.=.Z A [.}.0X0XyXyX{.E.i t t i #X5 v.5   ,XtXyXyXyXG.i.3Xj.  M c.c.s   @.m.,.1.%.&.o.y o.W.W.R.R.L.L.k.k.J.y.Z.P.2XrXtX2X(.T.",
").R.>.A Z @X[.8X0XyXyX4X%.r % % 4 Q.XX    D.0X0X0X0XyXyXyXyXs.  5 c.5 s    X0XN.m.2.N.#.y #.].Q.'.R.R.L.L.L.K.J.J.K.3X3XtX3X8XR.",
"N.#X9.L Z %X.X8X0X8Xm.}.o.% O $ 4 1.Q.j.f.!.Q.}.0X0XtX0XyX0X8Xa.  5 s   x.  -XyX[.m.N.&.y &.[.Q.].'.).R.R.L.L.Y.K.^.3XtXtX3X0Xw.",
"t.R.e.L A +X0X0XQ.( #.Q.&.y % & p %.].].[.Q.!.Q.].}.0XtX8XX.#.w.O.    H.    6XuX$X!.!.&.g p [.[.[.'.].Q.E.T.T.L.R.Y.8X0XyX8Xn.&.",
"E Z.w.L L 6.J.N.4 y y %.n.%.1.#.p f [.].!.!.!.!.[.[.$XQ.p ^ ^ *.n.T +.7X,XwXuXuXuX[.[.1.g g .X%X[.[.].[.W.E.E.E.R.R.3X0XyX0X].1.",
"{ e.e.I Z Z g 2.f y ^ ,.i p *.$.f f [.0X[.!.[.[.*X0XC.&.g g ( N.*.g C.0XrXyXiXuXuX%X*X_ Z g 2..X%X[.[.[.].Q.Q.'.Q.W.8X}.1.[.*.h ",
"E >.r.r.J Z g p 4 H 1.%.i i #.#.g g g .X0X@XoX0X.XC.Z g Z _ V.C.) *.V.[.0XrXuXiXiX*X>X2.J Z Z *.+X0X%X[.[.[.'.}.$XN.1.N.^ 6.C._ ",
"E [ 8.@XP.*.p y p e.E.w.e.%.m.t.h g Z Z C.P.P.P.A A A A ` P.P.4.Z 4.@XoXoX0XrXiXuX%X+XP.w.J A J 6.C.J..X0X%XC.V.N.&.&.g Z ) w.-.",
":.t.8.P.C.N.m.n.W.R._.`.W.W.m.m.2.h g J A A J L L I L ' r.I.~.P * 8.@X@XoXrXrXrX0XP.+Xw.w.` L J A 4.4.4.J.C.4.*.Z Z Z Z _ J.w.-.",
"N.r.4.4.N.].W.R.).3X(.3X3XR.{.m.N.2.` P -.-.-.I I :.t.(.).I.~.L ; L OXrX>X>XOX~.-.8.8.4.I L A L P L A A A A Z A Z J _ w.I.OX^.-.",
"t.] P $.N.W.yXtXtXtXtXtXtXyX`.Q.!.C.8.=.9.I >.).).).).Z.q.N.`.:.U L t.(.OX(.9.C L -.r.:.L L I I r.8.L L J P A ` 6.J.I.I.~.r.w.8.",
">.I _ &.M.0X8XtXtXrXrXrXtXrXtXW.Q.2.` K C ; S e.{.{.J.t.{ y.{.J.:.E E E E E U Y :.(.).r.8.:.:.9.(.~.~.Y.I.I.K.P.U.I.I.~.r.8.e.t."
};
