/* XPM */
static char *result[] = {
/* columns rows colors chars-per-pixel */
"64 64 222 2 ",
"   c #000000",
".  c #0A0A08",
"X  c #10100C",
"o  c #302C04",
"O  c #454918",
"+  c #4D731D",
"@  c #474A26",
"#  c #51562E",
"$  c #575A34",
"%  c #4A6A26",
"&  c #546F2C",
"*  c #457727",
"=  c #54732D",
"-  c #5D6437",
";  c #5A7A32",
":  c #636523",
">  c #696C26",
",  c #6F722A",
"<  c #676335",
"1  c #6D693A",
"2  c #716D3C",
"3  c #687439",
"4  c #747439",
"5  c #364951",
"6  c #394C54",
"7  c #505B4F",
"8  c #48595A",
"9  c #6E6C42",
"0  c #716D43",
"q  c #6B7840",
"w  c #757142",
"e  c #757447",
"r  c #797642",
"t  c #7C7945",
"y  c #797649",
"u  c #7D7A4C",
"i  c #566663",
"p  c #56746E",
"a  c #517474",
"s  c #597A77",
"d  c #64736C",
"f  c #807D47",
"g  c #807E4A",
"h  c #817E51",
"j  c #3F8E27",
"k  c #588D36",
"l  c #539133",
"z  c #74903D",
"x  c #56A437",
"c  c #6B9847",
"v  c #77964E",
"b  c #7A944D",
"n  c #6AAA46",
"m  c #77AD51",
"M  c #66847A",
"N  c #748C79",
"B  c #9D8D00",
"V  c #F7F701",
"C  c #888B43",
"Z  c #84824D",
"A  c #88854F",
"S  c #8E9547",
"D  c #919647",
"F  c #93964A",
"G  c #95994C",
"H  c #9A9D4F",
"J  c #858154",
"K  c #898654",
"L  c #8B8953",
"P  c #888559",
"I  c #8C895A",
"U  c #918D55",
"Y  c #918E5D",
"T  c #889955",
"R  c #999857",
"E  c #93915B",
"W  c #99955E",
"Q  c #A19E5D",
"!  c #85A75D",
"~  c #9EA152",
"^  c #88B55A",
"/  c #A2A556",
"(  c #A4A35B",
")  c #A6AA5B",
"_  c #A9AD5D",
"`  c #ADB15F",
"'  c #8F8B60",
"]  c #949461",
"[  c #9A9662",
"{  c #969A62",
"}  c #9C9A62",
"|  c #9C9D69",
" . c #A19D63",
".. c #A29E6E",
"X. c #87A860",
"o. c #9BA669",
"O. c #8AB867",
"+. c #9CB966",
"@. c #A4A165",
"#. c #A7A867",
"$. c #A4A46A",
"%. c #A9A56B",
"&. c #ACAA6C",
"*. c #B0AE69",
"=. c #AEB263",
"-. c #A0B669",
";. c #A3BC6E",
":. c #B3B865",
">. c #B4B36C",
",. c #A8A674",
"<. c #ABA775",
"1. c #A6AA71",
"2. c #ABAC72",
"3. c #AEAA7A",
"4. c #B1AE72",
"5. c #B2AE7D",
"6. c #ADB376",
"7. c #ACBB76",
"8. c #B3B375",
"9. c #B8B672",
"0. c #B5B974",
"q. c #BCBC74",
"w. c #B4B37B",
"e. c #B9B67A",
"r. c #B6BA7A",
"t. c #BBBC7C",
"y. c #C0BD7E",
"u. c #99C369",
"i. c #9CCF74",
"p. c #A2C66E",
"a. c #A8C774",
"s. c #BEC077",
"d. c #B5C27A",
"f. c #BEC17E",
"g. c #B7C878",
"h. c #ABD47A",
"j. c #B4D17D",
"k. c #C2C47A",
"l. c #C6C97D",
"z. c #CACD7F",
"x. c #728F89",
"c. c #6B95A7",
"v. c #6E97A8",
"b. c #7097A6",
"n. c #749BA6",
"m. c #AFB689",
"M. c #B6B381",
"N. c #BAB683",
"B. c #B6B985",
"V. c #BDBA85",
"C. c #BDBC88",
"Z. c #98B5A9",
"A. c #C1BE83",
"S. c #C1BE8A",
"D. c #BEC281",
"F. c #BDCB85",
"G. c #BFC28D",
"H. c #B6DB8C",
"J. c #C3C482",
"K. c #C6C985",
"L. c #CACC85",
"P. c #C5C38D",
"I. c #C9C78D",
"U. c #CACC88",
"Y. c #CDD183",
"T. c #CED18B",
"R. c #C4DF8A",
"E. c #D1D487",
"W. c #D2D58D",
"Q. c #D6DA8B",
"!. c #DADD8E",
"~. c #C9C791",
"^. c #C6C993",
"/. c #C8CA94",
"(. c #CBCC94",
"). c #D1CE97",
"_. c #CDD196",
"`. c #CFD399",
"'. c #D3D690",
"]. c #D6D992",
"[. c #DADD95",
"{. c #D2D49B",
"}. c #D5D99E",
"|. c #D4E18F",
" X c #C7E498",
".X c #DDE194",
"XX c #D5EA96",
"oX c #DEE299",
"OX c #E4E997",
"+X c #E5E997",
"@X c #E2E59C",
"#X c #E4E99E",
"$X c #D6DAA0",
"%X c #DADDA3",
"&X c #C9E6A4",
"*X c #DDE1A5",
"=X c #D8E9A8",
"-X c #D8EDB2",
";X c #E7EAA1",
":X c #EBEEA4",
">X c #E2E7AA",
",X c #EAF2A7",
"<X c #EEF1A6",
"1X c #F1F4A7",
"2X c #F2F4AA",
"3X c #F6F9AD",
"4X c #F9FCAF",
"5X c #F1ECB2",
"6X c #E5F3BC",
"7X c #F8F6B6",
"8X c #FCFEB3",
"9X c #FFFEBB",
"0X c #A6CFDF",
"qX c #A9CFDD",
"wX c #AFD4D9",
"eX c #F6FCC6",
"rX c #FFFFC4",
"tX c #FFFFCB",
"yX c #FFFFD3",
"uX c #FFFFDA",
"iX c LightYellow",
"pX c white",
/* pixels */
">.' =.#.S.{.{.3X4X3X9XtXrXtXrXP.z.5.o...f Z A I y.y.I.y.E ] D.W.e.I L Z J ) u ) / 1.V.1.%.@./ / $.N.N.e.M.w.M.w.w.M.e.M.N.2.( ) ",
"Y I $ $ ( ].}.8X8X7XtXrXtXrXtXJ.z.5.5.&.f # z P >.9.:.U C ' (./.~.8.P.S.S.9XyX].'.N.N.N.$.@. .~  .e.e.M.w.Y.T._._.U.Y.w.M.$.u u ",
"C U L $ $ [.].W.3X8X3X3XrXtXrXK.3.3.5.$.~ u &.P.S.>.A L L r.OXr.J.S.rXuXyXyXyXyXyXuXT.`.Q.W.w.$. . .M.5.w.Y.(.1X(.1XL.L.U.w.y u ",
"C L *.h g !.$X'.E.3X2X8X<X^.] { 3.1.5.w.e.e.C.C.S.8.A A K 8.6.) &.S.9X9XyXyXtXyXtXtXyXuXU.Y.5. .4 0 5.3.z./.tXtXtXtXtX1X/.3X} y ",
">.=.P J g 2.].'.W.U.5.{ > : 1 1 { 3.3.5.w.w.M.N.A.S.<.g J 6.&.J / 9X9X9XyXyXtXtXrXtXtXtX8XtXW 0 2 0 { 5.1XrXtXtXrXtX9XtXI.2XL.W ",
"~.#.w.h g &.].8X8Xw.W 1 1 1 1 U ,.K.K.U.L.Y.w.$.e.N.A.S.V.!./ t t 4X8X9X8X8X4X4XtX3XtXtX4XtX0 2 2 F <.l.<XrXrXtXrX<X<XrXrX:X:Xz.",
">Xw.[.4.g 2.N.N.$.} 2 9 1 S E l.K.tXrXtXtXU.T.Y.5.8.M. .#.e.t r r `.3X8X8X2XK.<X3XrXtXrXrX3.W D D [ 3.K.<XtXrXrXrX:X:X:XrXrX;XJ.",
"[.4.S.<.g f t ..@.w w F [ &.K.K.tXrXtXtXtXtXtXU.U.E. .2 H  .e w 5.`._.U.L.K.K.<X3X3X3XrXrX,.3.<.3.<.,.K.rXrXrX7X:Xr.@X7X9X9X#XP.",
"[.S.S.1.h f t r r 4 e | 3.<.P.tXtXrXtXrX9XtXeXtXeXK.z.G W } 0 2 Y._.U.L.I.L.^.3X3XtXrXtXL.W <.{ } <.1.K.rXrXrXrX;X| 0.;X7X9XrXC.",
"[.S.1.S.N.@.y H $.} G [ 3.,.3XrXrXrX9XtX7XrXrXrXrX9X,X1.l.U 3 3 W U.U.L.K.K.K.3XtXrXtXtXK.<.W 0 9 <.<.l.tXrX7X:X@X9.8.[.@X5X9XB.",
"[.S.1.N.N.W.M.M.M.} 0 2 2X8X3X2XtXrX<X1X<X<X#X=Xx.s s a s a a     +.g.U.L.K.^.4XtXtXtX1XL.3.W 2 0 } 3.J.9X2X<X:X@X9.8.oX@X9X9XoX",
"'.Q.$.8X9X9X9XE.U.H 2 2 /.5X3X2X2X<X;Xt.8.j.M a c.c.a a c.v.c.a a     u.U.L.L.8X4XtX/./.L.5.[ 0 w 2.[ <.2X2X,X#Xq.8.>.oX@X5X9XoX",
"'.&.8X8X9X9X8XyX5.G 2 W L.2X<X2X2X;XC.-.v.c.c.c.a a c.c.c.c.c.c.6 5 5   p.I.U.3X8XtX3X2XY.5.5.[ [ 2.G S <X;XP.G.r.0.8.B.@X5X9X[.",
"].Q 4X9X9XtXtXtX5.G 2 <.L.K.J.J.J.q.+.b.0X0X0Xa c.c.c.c.c.c.a a a 5 5 5   g.U.4X8X9XT.E.5.o.5.5.5.[ 2 W K.P.G.t.r.r.0.8.@X@X9X[.",
"}.e.}.9XtXtXyXuX5.F 2 I./.P.K.J.D.;.c.0X0X0Xa c.c.c.c.c.c.a a a a 5 5 5   p.U.T.W.8.W.E. .y H 5.$.0 2 W K.J.J.f.t.q.8.8.@X9X8XoX",
"V.~ W.8X8XyXtXtX3.0 2 L.L.K.K.K.d.v.0X0X0Xc.0Xc.c.c.c.c.a a a a 5 5 5 5 5   F.Q. .r $.M. ., w M.Q 4 2 3.K.K.k.f.t.r.q.B.@X#X9X9.",
"1.~ Q.9X8XyXtXtX[ > [ U.K.K.l.J.+.c.0X0Xc.0X0Xc.c.c.c.a a 5 5 5 5 5 5 5 5   XXB.r y $.N.$.y H W.$.0 0 L.2XK.J.f.t.t.r.oX;X9XrX9.",
"g @.{.8XrXtXtX3.] > <.U.K.K.k.g.b.0X0Xc.0X0X0Xc.c.c.c.a 5 c.c.5 5 5 5 5 a   ! t r t 1.N.M.8X8XW.| e w } K.K.J.t.f.s.t.oX9X9X9X| ",
"g $.8X9XtXyX3XU.F 1 U./.L.K.l.+.c.0Xc.0X0X0Xc.c.c.c.a 5 c.c.c.c.c.a a a a a   3 t ~ B.e.8X9X9XyXE.H 2 W K.K.k.s.s.q.C.:X;XrXtX| ",
"Z %.8XyXyXtX2XL.9 1 (.U.I.L.l.n.0Xc.a 0X0Xc.c.c.c.c.5 c.c.c.c.c.c.a a a a 5   3 ~ e.N.#.4X9X9XuXW. .2 W K.K.J.k.s.s.f.:X9X7XrX..",
"Z &.9X9XyXtX3XL.1 1 U.L.U.L.g.v.0Xa c.c.c.c.c.c.c.c.c.c.c.c.c.c.c.a a a a 5   o.M.9.T       -XeX8X| > [ K.J.D.k.s.f.V.<XrXrXtX..",
"J &.9XyXtXyX3X3.> 1 U.I.U.U.;.v.c.a c.c.c.c.c.c.c.c.c.c.c.c.c.c.a a a a 5 5   T o.b   qXc.c.    XX2.> [ K.K.J.J.f.f.f.:X<X7XrX,.",
"A &.rXyXyXtX2X5.2 [ m./.T.K.n.0Xc.a c.c.c.c.c.c.c.c.c.c.c.c.c.c.a a a a 5   * 2 c   c.c.x.  x.s     +     . r.f.k.D.D.2XrXrXrX%.",
"L 6.9X9XtXyX3XL.2 ] { _._.K.b.c.c.a c.c.c.c.c.c.c.a a a c.c.c.a a a a a 5   * *   b.p     H.    s a   c.c.c.    ;.D.C.2X2XrXrX,.",
"L 4.9XyXyXyX4XT.G 2 2 } 7Xf.v.c.a c.c.c.c.c.c.c.a a a a 5 c.a a a a a 5 5       c.a   T ,XrXeXH.  c.c.c.    c.qX  ;.;X2XtXrXyX3.",
"L 8.9X9XyXyX4X3X2.0 2 w [ Z.0Xv.a c.c.c.c.c.c.a a a a a 5 5 a a a 5 5     a c.c.a   & [ /.tXtX&X  c.    c.a     qX  <XtXtXtXtX3.",
"L 8.oX9XyXyXyX`.T.0 w w 4 n.0Xc.a c.c.c.c.c.c.a a a a 5 5 5 a a 5 5   c.c.c.0Xc.  b 1 : 3.4XeX  Z.. * k   c.  n     8X3XtXtX3Xo.",
"Y 8.oX9X9XtXyX4X4X .w w w n.0Xc.a c.c.c.c.c.c.a a a 5 5 5 5 a 5 5   c.0X0X0Xc.a   b 1 : ] 3XtX. wX. b E   qX  ^ d.k.4XtXtXyXE. .",
"Y L *XrXyXyXyX`.W.5. .0 w n.0Xc.a c.c.c.c.c.a a a 5 5 5 5 a 5 5   5 c.0X0Xc.c.  X.J.E < Y 4X4X  . a.[ > X.    a.U.(.8XtXtXyXE...",
"Y L >XrX9XyXyX`.).5. .w 2 b.0Xc.a c.c.c.c.c.a a 5 5 5 5 a a 5     a c.c.c.a 5   a.;XE & Y <XtXtXtXU.W 0 [ U.U.U.U.T.8X9XyXuXQ.%.",
"E L >X9XuXyXyX8XW. .F e 2 s 0Xc.a c.c.0X0Xc.a a 5 5 a a a   5 a   a a a a 5   i.;X;X..< U 1X4XrXtX(.5.0 [ T.T.T.T.T.8X9XyX9X!./ ",
"] L *XrX9XyXyX8XM.0 , 0 2 s 0Xc.a c.c.0X0Xc.a 5 5 c.a a   5 c.a 5 a a 5 5 5   i.9X:X..< : l.rXtXyX8XU. .} T.W.'.W.'.}.9X9X[..X_ ",
"E L 9XrXuXyX8X4X| O o O 3 s 0Xc.a c.c.c.c.c.a 5 c.a a 5   a c.5 a a c.c.a   5   h.#Xg.< : E 8X3XtX3XU.} , W.{.W.].].].9XA..X+XK ",
"Y L OXrXyXyX4X{.M.@ o @ = s 0Xc.c.a c.c.c.c.c.c.c.a a   a c.a 5 a a c.c.a   5 5   H.f.C < E K.yXyXyXw.H w $.E.8X$X}.9X!.J &.8.P ",
"I L 8.*XuXyX8X4XL.[ 0 > & l a c.0Xc.0Xc.c.c.c.c.c.a a   a a 5 a a c.c.a   5 5 5 5   a.T < E &.^.8XyX5.H r r r N.N.V.S.g Z 6.e.=.",
":.L Z S.$X'.W.U.L.L.3.b 8   a 0X0Xc.0X0Xc.c.c.a a a 5       5 a c.a a 5   5 5 a a a     % - G <.U.3.Y.} r w r y t t g Z Z w.^.t.",
"f.L Z g $.W.{.3XY.U.tX8 p 5   0X0Xc.0X0Xc.c.a     a 5   5 5 5 a a 5 5   5 5 a a c.c.c.a     & 1 1 9 4.M.o.H t u u u g g 4.I./.(.",
"t.I Z g @.W.T.tXyXtX6Xi M     0X0Xc.0X0Xc.a       a   5 5 5 5 5       5 5 5 5 c.0X0Xc.c.c.a   & 1 F 3.w.M. . . .1.N.A.J.P.8.>.9.",
"E < ) A.].{.yXtXtXyX=Xp   m   c.0X0Xc.0Xc.a   B   a   5 5 5 5   a a a 5 5 5 a c.0X0X0Xc.c.c.a   = W 3.3.| 0 w y ( N.V.V.4.Z L L ",
"- o ) !.W.yXyXtXtXtX Xd   i.k   0X0Xa c.c.a   V   a   5 5   a a c.c.a a 5 5 a c.c.c.c.0Xc.c.c.a   T K.I.L.W w y Q w.N.6./ Z A L ",
"L $ &.V.9XtX8X4XtXeXi x.  XXc   c.0Xa c.c.c.    a 5   5   a a c.c.0X0Xa a 5 a a c.c.c.c.c.c.c.c.  +.K.^.2XU.L.T.E.E.N.1.%.&.*.L ",
"8._ ) Q.4X8X8X3X3XXX8 s   h.G.l   c.0Xa c.c.c.a a 5     5 a c.c.c.0X0Xc.a 5   a c.c.c.0X0Xc.c.c.a   -XrXtXtX2X(._.U.Y.w.e.V.J.2.",
"6._ Z #.{.3X/.^.K.|.8 a M   ,X^   a c.c.a c.a a 5 pX5   5 a c.c.c.c.c.c.a 5 6   a c.c.c.0X0X0Xc.c.  =X9XrXtXtXtXtXL._.w.e.N.2.&.",
"m.*.t @.E.3X^.L.z.H.8 c.a    X1.*     a a 5 a pX  5 a   5 a c.c.c.c.c.a a 5 6     a a c.c.0X0Xc.a   &X2XrX2XrXrXtXtX2XT.w.e.B.V.",
"C.&.Z r Q T.L.l.F.i v.c.c.M   o.q + *     pX    c.c.a a   5 a v.c.c.a a 5 5         a a a c.c.a a   R.2X1X2X<XrXrXrXtX/.U.Y.e.B.",
"I.6.t r  .T.L.K.;X8 c.c.a   7.  F , e v j   0X0Xc.c.a a 5     5 a a 5 6     m m   5   5 a a a a   h.#XG.f.#X<XrX9XrXrX<X/.Y.w.e.",
"I..X#.t r T.L.(.4X X5 c.  n     S e r m   0X0Xc.c.c.a a 5 5 5           ^ O.3.T   6 5 5 5       ! d.f.s.q.V.B.;X:X7XrXrX1X(.5.5.",
"P.P.&.t r T.T.3X8X=X8 c.  i z T W e H !   0X0Xc.c.a a 5 5     c O.u.p.a.{.B.~ e =   5 a a a a   O.J.k.f.t.t.t.C.<X7X9XrX<X/.L.4.",
"r.P.#.b r W.T.3XtX6Xi c.a . 7 G 5.w.W.p.  c.c.c.a a       a   ; Q.9X$XV.$.@.r y S   s a c.c.a M   +.J.f.t.t.t.q.0.,X7XtXrX~.L.} ",
"8.8.&.f t Q.{.8X9XtX-Xd c.7   0 5.E.W.T.&X  a a     x   a a   ; t N.1.@.$.t r H B.v   c.5   v.  N   d.D.f.t.t.t.t.#X<X9XtX:X_.3.",
"8.w.*.f t [.Q.8XyXrXyXg.X . R @.w.9XyXyXyX-X    m u.m   v.a p   t r @.@.t t ~ N.1.3   b.  l   v.    ;.k.f.f.f.t.t.#X<XrXrX<XU.3.",
"U.~.>.g Z [.$X9XyXyXyX4XE. . .o.Q 9X9X9XyXyXuXeXuX&X  x.v.v.a   4 t t t ~ @.N.N.$.e   n.  k   v.  ;.l.l.k.k.f.t.s.#X2X9XtX1X2XY.",
").I.>.A g [.%X9X9XtXyX{.E.y w r e 8X9X9X9XtX9XtXuXeX  6 c.6 a   ! e.V.N.N.N.N.1.1.%.v   ; v     u.K.I.l.l.k.J.J.f.P.2XrXtX2X(.Y.",
").~.>.A Z @X[.8X9XyXyX8X$.y @ @ r Q.8X8X8X9X9X9X7X7X=X  5 a   M   B.Q.Q.yX9X9XN.B.&.A.! r ..j.g.L.W.T.Y.L.L.J.K.J.J.3X3XtX3X9XT.",
"y.+X9.L A %X[.8X9X9XM.}. .@ o O 4 &.].].Q.Q.Q.}.8X9XyX X    i.    M.Q.tX9X9XyXyX'.S.S. .f %.].].].].T.T.T.Y.U.L.L./.4XtXtX3X8XN.",
"t.).9.L A +X9X9XQ.~ $.Q.&.t @ # f @.].[.].Q.Q.!.].$X9XtX4XT ! o.6.Q.Q.uX9XuXuXuX%X!.!.&.f f [.[.].].].W.Y.Y.Y.L.L.T.9X8XyX8XM.@.",
"] D.0.A L 6.A.V.4 f e #.M.$.1.@.u u [.[.!.!.!.Q.[.[.%X!.u / / 1.N.$.1.9X9XuXuXuXuX[.[.&.t Z [.%X[.[.[.].W.E.E.E.T.T.3X9XyX9XQ.1.",
"] e.r.P Z Z g 2.t t ~ 1.t u &.@.t g !.9X[.!..X[.%X9XV.%.t f / V.%.Z V.9XrXyXiXuXuX*X*X#.b Z 4.!.%X[.[.[.].Q.Q.'.].'.9X$X1.[.&.h ",
"Y :.V.r.K g g u t ~ %.$.y y $.@.g g t oX9XoXoX9X.XJ.Z g Z ) A.S.) &.A.oX9XrXuXiXuX*X>X<.h h J 4..X9X%X[.[.[.!.}.$XN.1.N./ 3.S.) ",
"W Y 8.@XP.&.u t y 8.E.w.e.$.N.t.h g Z Z P.P.P.P.A J A Z _ P.P.4.Z &.@XoXoX9XrXiXuX*X.XP.4.h A A 6.P.J..X9X%XV.S.t.%.&.g Z ) 6.=.",
">.e.w.P.S.V.N.M.W.T.`._.W.W.N.N.3.Z Z J A A L L L I L ` r.I.~.P $ 8.@X@X@XrXrXrXrXI.+X8.8._ L L A 4.8.4.P.P.&.&.u Z Z Z ) J.w.=.",
"t.e.w.4.S.].W.T.`.3X(.3X3XT.{.N.V.2.) K _ =.=.Y Y =.t.(.).I.~.L - I OXrX>X>XOXI.` 8.4.8.I P L L I A A A A Z Z Z Z J _ 8.P.OX^.=.",
"N.' P ( N.W.yXtXtXtXtXtXtXyX{.W.!.A.5.*.8.Y >.).).).).D.q.V.).:.U U t.(.+X(.9.C L =.r.=.L L L I t.8.L L K K A ` 8.J.I.I./.w.w.9.",
">.I _ %.B.9X8XtXrXrXtX9XtXrXyXE.Q.<._ K C - C t.).{.J.A.] y.{.D.:.E E E E E U Y :.(._.e.e.:.=.9./.(.I.P.I.I.K.P.P.^.I.~.r.8.e.t."
};
