/* XPM */
static char *result[] = {
/* columns rows colors chars-per-pixel */
"64 64 217 2 ",
"   c #000000",
".  c #080805",
"X  c #2A2600",
"o  c #3D380D",
"O  c #454918",
"+  c #474A26",
"@  c #51562E",
"#  c #575A34",
"$  c #56762B",
"%  c #5D6139",
"&  c #5C7334",
"*  c #5A7736",
"=  c #656826",
"-  c #696C26",
";  c #6D712A",
":  c #656E35",
">  c #6E6A3A",
",  c #716D3C",
"<  c #6C743B",
"1  c #747438",
"2  c #364951",
"3  c #3A4D52",
"4  c #3F5052",
"5  c #46524E",
"6  c #475857",
"7  c #58654E",
"8  c #53625B",
"9  c #5C695E",
"0  c #726D44",
"q  c #757242",
"w  c #747745",
"e  c #797642",
"r  c #7C7945",
"t  c #797649",
"y  c #7D794C",
"u  c #596961",
"i  c #5D766A",
"p  c #517474",
"a  c #6A796C",
"s  c #9D2424",
"d  c #807D47",
"f  c #807E4A",
"g  c #817E51",
"h  c #3A9427",
"j  c #5F943C",
"k  c #7D8C3A",
"l  c #6C9243",
"z  c #76974A",
"x  c #73974C",
"c  c #76AA4C",
"v  c #78A952",
"b  c #6F8478",
"n  c #888C43",
"m  c #84824D",
"M  c #88854F",
"N  c #889549",
"B  c #95994C",
"V  c #96994D",
"C  c #858154",
"Z  c #898654",
"A  c #8B8953",
"S  c #888559",
"D  c #8C895A",
"F  c #908D55",
"G  c #918E5E",
"H  c #899958",
"J  c #979B55",
"K  c #93915C",
"L  c #99955E",
"P  c #9C995D",
"I  c #A19E5D",
"U  c #87AB58",
"Y  c #9EA152",
"T  c #99A05F",
"R  c #8BB65C",
"E  c #92BB5E",
"W  c #A2A556",
"Q  c #A4A35C",
"!  c #A6AA5B",
"~  c #A9AD5D",
"^  c #ADB15F",
"/  c #8E8A60",
"(  c #8C956D",
")  c #949361",
"_  c #9C9A62",
"`  c #9A9965",
"'  c #A09D63",
"]  c #A29E6E",
"[  c #8BA762",
"{  c #95A465",
"}  c #8FBA65",
"|  c #93B562",
" . c #94BB64",
".. c #99B868",
"X. c #9EAD70",
"o. c #9ABA72",
"O. c #A4A165",
"+. c #A7A867",
"@. c #A4A46A",
"#. c #A9A56B",
"$. c #ACAA6C",
"%. c #B0AE69",
"&. c #AEB263",
"*. c #A3BA6A",
"=. c #B3B865",
"-. c #B4B36C",
";. c #A9A674",
":. c #A6A970",
">. c #ABAC72",
",. c #AEAB7A",
"<. c #B1AE72",
"1. c #B2AE7D",
"2. c #AEB376",
"3. c #A9B475",
"4. c #B3B375",
"5. c #B8B672",
"6. c #B6B973",
"7. c #BBBB74",
"8. c #B4B37B",
"9. c #B9B67A",
"0. c #B6B979",
"q. c #BBBC7C",
"w. c #C0BD7E",
"e. c #95C467",
"r. c #A4C36D",
"t. c #AAC576",
"y. c #B6C677",
"u. c #BEC177",
"i. c #BEC07E",
"p. c #AAD578",
"a. c #B5D87E",
"s. c #C3C57B",
"d. c #C6C97E",
"f. c #C9CC7F",
"g. c #6D929E",
"h. c #77979B",
"j. c #6B95A7",
"k. c #6C97A9",
"l. c #749BA5",
"z. c #91A392",
"x. c #B6B381",
"c. c #BAB683",
"v. c #B7B986",
"b. c #BDBA85",
"n. c #BDBC88",
"m. c #81A4A9",
"M. c #C1BE83",
"N. c #C1BE8A",
"B. c #BEC181",
"V. c #BBC58B",
"C. c #A8D684",
"Z. c #B9D985",
"A. c #B6DB93",
"S. c #C3C482",
"D. c #C6CA85",
"F. c #C9CC84",
"G. c #C5C38C",
"H. c #C9C78D",
"J. c #CACC88",
"K. c #CDD183",
"L. c #CED18B",
"P. c #D1D487",
"I. c #D2D58D",
"U. c #D6DA8B",
"Y. c #DADD8E",
"T. c #C5C690",
"R. c #C9C791",
"E. c #C6C992",
"W. c #CBCC94",
"Q. c #CBCE98",
"!. c #D1CE97",
"~. c #CCD196",
"^. c #CED299",
"/. c #D3D690",
"(. c #D6D992",
"). c #DADD95",
"_. c #D2D49B",
"`. c #D5D89E",
"'. c #C8E59A",
"]. c #D2E590",
"[. c #DDE194",
"{. c #D2E994",
"}. c #DEE399",
"|. c #E4E997",
" X c #E5E997",
".X c #E2E59C",
"XX c #E5E99E",
"oX c #E3F09F",
"OX c #D6DAA0",
"+X c #DADDA3",
"@X c #DDE1A5",
"#X c #D3EBAE",
"$X c #DBE8A9",
"%X c #E7EAA1",
"&X c #EBEDA4",
"*X c #E2E7AA",
"=X c #EEF1A6",
"-X c #ECF3A7",
";X c #F1F4A7",
":X c #F2F5AA",
">X c #F6F9AD",
",X c #F9FCAF",
"<X c #F1ECB2",
"1X c #EEF4B7",
"2X c #FDFEB3",
"3X c #F4F6B8",
"4X c #FBF5BA",
"5X c #FFFEBB",
"6X c #A6CFDF",
"7X c #A9CED9",
"8X c #F3FAC3",
"9X c #FFFFC4",
"0X c #FFFFCB",
"qX c #FFFFD3",
"wX c #FFFFDA",
"eX c LightYellow",
"rX c white",
/* pixels */
"-./ &.+.N.(.OX>X,X>X9X9X9X0X9XT.d.1.@.#.y M M D 5.q./.w.K L B.!.5.D Z M C ! g W W :.b.>.@.#.W Y @.c.c.9.x.8.x.8.8.x.0.x.b.>.Q ! ",
"G D # # Q )._.4X2X,X9X0X9X9X0XS.F.1.8.@.r @ k S 5.5.&.F n / W.R.E.0.G.N.n.5XqX/.(.x.c.c.#.' O.J O.9.c.8.8.K.L.~.~.J.K.8.x.] y g ",
"n D A # # (.(./.>X2X>X>X9X0X0XD.,.,.1.@.Y y >.G.G.-.M F A q. X8.S.N.9XwXwXqXqXqXqXqXL.^.I.K.x.@.I ' 8.1.8.K.W.:XW.;XJ.J.K.1.e y ",
"n A &.C f (.OX/.J.,X:X2X;XE.) ) ,.>.,.8.0.9.b.n.N.2.M M S <.8.Q $.M.5X5XqXqX0XqX0XqXqXwXL.K.8._ , 0 1.1.f.W.0X0X0X0X9X-XR.>X` t ",
"%.&.S C m >.(./.I.L.1.` - = > > ) ,.1.1.1.8.x.c.b.M.>.g g 2.$.z W 5X5X5XqX0X9XqX9X0X0X0X,X0X_ q , 0 _ ,.-X9X0X9X0X9X9X9XT.;XF.P ",
"H.%.8.g f $.(.2X,X1.L , > > > F ;.D.D.J.K.K.8.@.9.b.b.M.b.Y.W r y ,X2X2X5X2X,X,X0X>X0X0X,X0X0 , : N { y.=X0X9X0X9X&X=X9X9X&X=Xd.",
"*X1.[.$.f ;.b.b.@._ , , > N K s.D.0X0X0X0XD.L.K.1.9.x.O.:.9.r e e ^.>X2X2X;XD.;X>X0X0X9X9X,.L k   l   | a.5X9X9X9X&X&X&X5X9X&XS.",
").<.N.;.f f r ' ' 1 , B ` $.D.D.9X0X0X9X0X0X0XD.J.F.' , V O.e q 1.^.~.J.D.D.D.;X%Xs s s '.[ [   rX  rX    A.1X4X=X0..X3X5X9XXXn.",
").N.N.>.f d d 1 e q 0 ` 1.,.S.0X9X0X9X0X5X0X0X0X0XD.F.B L _ q 1 K.~.J.J.B.Z.G.{.s s s s s s x .     rX  rX  '.5X&X` 0.%X<X5X9Xn.",
").N.:.b.c.] t J @.' B _ ,.;.>X0X0X9X4X9X4X9X0X9X9X9X;X,.F.` , , _ J.J.D.s s | s s s s s s s s           rX  Z.[..X5.6.}.%X<X5Xv.",
").b.;.c.c.U.x.x.x._ 0 , ;X2X>X:X0X9X;X=X;X=X;X9X9X0X0XD.D._ 0 > > J.J.F.D.s s s 1X0X0X].. s s s           j.  Z..X6.4.)..X5X5X}.",
"(.U.@.2X5X5X5XK.J.V , , E.;X,X<X;X;X%Xi.q.%X&X9X4X9X9X9XE.d.L > > J.J.D.K.D.D.2X2X0XW.6 l.  s s s       j.p   a.7.6.-.)..X<X5X[.",
"(.#.2X2X5X2X5XqX1.V , ) J.:X=X:X;X%Xn.7.7.q.v.&X9X9X4X9X=XE.` > > ~.J.J.L.J.K.:X2X0X>X2 j.j.          j.p     X.7.0.2.x..X<X5X).",
"(.' ,X5X2X0X0XqX1.V , <.D.D.G.S.S.u.q.b.0.9.0..X&X4X9X9X9XG.;.> > K.>XL.L.L.L.>X2X2Xt.2 j.j.j.      j.p       ..0.0.4.6..X.X5X).",
"`.9.`.2X0XqX0XwX,.B , D.R.D.D.S.S.i.i.q.q.0.0.v.%X&X&X4X0X0Xs.> > , L.>XL.L.L.I.D.[ 4 p p j.j.j.j.j.p p       ..q.0.0.6..X5X2X[.",
"b.Y I.5X2XqX0XqX,.0 , J.J.D.D.S.S.B.q.q.9.0.0.0.v.&X&X9X4X9XE.K > , 1 L.,XI.~.y.6 2 k.k.p p p j.j.p p p       ..q.q.0.x.XX.X5X0.",
">.V U.5X2XqX0X0X` - _ J.D.D.s.H.S.w.q.q.9.0.0.7.6.q..X=X9X9X9XS.7 5 5 < Z.&Xu 6 p 6X6Xj.  p p p p p p p p p   *.q.q.0..X%X5X9X6.",
"f #._.2X9X0X0X,.) - ;.J.F.d.d.d.s.S.S.q.9.9.0.0.0.7..X&X4X9Xb b 7X6Xg.    3 j.6X6Xp j.6Xj.  p p p p p p p   | u.i.q.q.}.5X5X5X` ",
"f @.2X5X0XqX>XJ.N > D.Q.H.D.d.s.d.s.w.w.q.7.0.0.0.0.v.&X<Xa l.p   j.j.j.j.2 p j.j.6Xj.p j.p   p p p 2 p p   *.s.u.7.n.&X&X9X0X` ",
"m #.2XqXqX0X:XF.0 > Q.D.J.F.F.F.D.G.D.w.0.5.6.5.0.0.0.[.u l..   j.6X6X6Xj.j.j.j.p j.j.j.2 p   2 p 2 2 p j.  6.u.s.7.i.&X5X4X9X] ",
"C #.5X5XqX0X>XF.> > L.J.J.J.J.J.J.J.S.S.s.7.7.5.0.0.9 8 3   p j.j.j.6X6Xj.j.6X6Xj.2 j.j.p     2 2 2 p p   | B.s.s.i.c.=X9X5X0X] ",
"M $.5XqX0XqX>X,.- > J.J.J.J.J.J.J.D.S.S.i.0.7.0.9 8 l.j.j.j.j.p j.j.j.j.j.j.j.6X6Xp   p p   2 2 2 2 p p   ..S.S.q.q.i.=X=X4X9X;.",
"M $.5XqXqX0X:X1.0 L ,.E.D.D.D.D.J.H.d.s.i.3.9 8 6X6Xj.j.j.j.j.j.j.j.p p j.j.j.j.j.j.p     2 2 2 2 p p j.  ..S.B.S.i.S.=X9X9X9X;.",
"A 2.9X5X0XqX>XF.> ) { V.u u u u 8 8 y.*.*.. l.7X6X6X6Xj.j.j.j.j.j.j.j.p 2 p j.j.j.p p   2 2 2 2 2 p p j.  ..S.w.B.s.V.:X:X4X9X;.",
"A <.5XqXqXqX,XL.B , & 6 6X6Xk.j.j.m.8 8   p l.6X6X6X6Xj.j.j.j.j.j.j.j.j.p 2   p p p p j.  2 2 2 p p j.j.  | S.s.S.B.&X:X0X9XqX,.",
"A 4.5X5XqXqX,X>X>.& 5 j.6X6Xj.j.j.j.j.j.p j.j.j.6X6Xj.j.j.j.j.j.j.p j.j.p p 2     p 6X6X  2 2 2 p j.j.j.  E s.i.s.s.=X0X0X0X0X,.",
"A 4.}.5XqXqXqX^.L.$ 4 j.j.j.j.j.p p j.j.j.j.j.j.j.j.j.j.j.j.j.j.j.j.p p p 2 2 2   p j.6X  2 2 2 p j.j.p   | D.s.s.D.>X>X0X0X>X{ ",
"G 4.}.5X5X0XqX,X,XN 5 p p j.p k.j.j.p p p j.j.j.j.j.j.j.j.j.j.j.j.j.p p 2 2 2 2     p j.  2 2 2 p j.j.p   E B.d.d.J.,X0X0X0XI.' ",
"G A *X5XwXqXqX^.W.8.l   p p p 2 p j.l.p 2 p j.j.j.j.j.j.j.j.p j.j.j.j.p 2 2 2   2 2   j.j.  2 2 p p j.p 2   ..J.D.W.2X0XqXqXI.O.",
"G A @X9X5XqXqX^.Q.x.z   2 p p 2 2   p p   p p j.j.j.j.j.p p j.j.j.j.j.p p 2   2 2 2   j.j.  2 2 2 p j.j.p    .L.J.L.5X2XqXqXU.#.",
"K A *X9XqXqXqX2XL._ B *   3 2 2   v       2 p p j.j.j.p 2 j.6X6X6Xj.j.p 2   2 2 2 2   j.p   2 2 2 2 p j.p   } L.L.I.2X5XqX5XY.Q ",
"K A *X5X5XwXqX2Xx.0 ; , $   3 2 2   ....U   2 p p p p 2 j.6X6X6Xj.j.j.p   2 2 2 2 2   j.  2 2 2 2 2 p j.j.   ./.I./.`.5X5X).[.~ ",
"K A 5X9XwXqX2X>X) O X + , e.  6 3 .  .D.i.v   2 p p   j.6Xj.j.j.j.j.p   2 2 2 2 2   j.p   2 2 2 2 2 2 j.j.  } /./.(.U.5Xn.[. XC ",
"D A  X5XqXqX2X^.8.+ o + q H U   p 6   } d.i.c   2 2   j.j.j.6Xj.j.j.p   2 2 2 2 2   j.  2 2 2 2 2 2 2 p k.  e.2XOXOX5XY.m <.<.D ",
") A 2.@XwXqX2X2XK._ 0 - & l     2 p 6   y.s.u.e.    j.j.6X6Xj.j.j.p   p p 2 2 2   j.p   2 2 2 2 2 2 2 p k.  $ x.c.n.n.m M >.0.&.",
"=.A M N.OX/.I.J.K.D.,.l     j.j.j.p b   y.d.D.oXe.  j.6X6Xj.j.j.p 2   p p p     j.j.j.  2 2 2 2 2 2 2 p k.  $ r r r f m m 0.E.b.",
"q.A M y @.I.^.,XJ.J.A.  g.j.2 j.j.j.   .F.d.;XZ.  k.6X6Xj.j.p p     p p p   j.j.  j.j.p   2 2 2 2 2 2 p j.  * y y f y m <.T.R.W.",
"b.A f z #.L.L.0XqX0XA.    3   j.2 j.  y.L.W.2X$X  k.j.k.j.p     h   p p   6X    j.p   j.  2 2 2 2 2 p j.  l _ @.:.b.q.M.G.4.-.5.",
"F % ! M./.^.qX0X0XqX8Xp.p.  j.3   j.  B.L.>X5X5X'.  j.j.p     c U   p p     p   6X  p   j.  2 2 2 2 p j.  & e t O.x.b.S.$.M A A ",
"% o Q Y./.qX0X0X0X0X0XqXp.  h.    z.  ~.L.,X2XqX#X  p p 2 2   E ..  p p p p p   j.  p p     2 2 2 p p   E L q q I 0.c.>.! m M A ",
"A # $.M.5X0X2X,X0X0X0X0X3Xa.  l     & P._.2X5XqXqXZ.  2 2 6   r.J.c   p p p p     p p p p 2 2 2 p p k.  ].J.J.L.L.P.x.:.$.$.$.A ",
"5.~ W U.2X2X2X,X>X>X9X:X0X%Xo.H $ * q @.I.2X5X2X#.r.  3 2   ..L.J.*.. p p p p p p p p p p 2 2 p p j.  '.8X0X:XE.W.L.K.0.9.n.M.4.",
"9.! d $._.,XE.E.S.=X>X0X0X0X-XJ.V 0 q e x.(.U.c.Y Q z   2   t.I.I.K.R   p p p p p p p p p p p p j.  '.8X0X9X0X0X0XJ.W.8.5.c.:.$.",
"H.%.d ' P.>XR.D.d.=X:X:X9X0X0X,.0 q e e e e e r r Y [   p   r.(.I.I.P.R   k.p p p p p p p j.j.    '.9X:X9X:X9X9X0X0X:XK.8.c.c.q.",
"J.$.m e I L.J.d.T.:X9X9X9X>XJ.,.0 ; e J t r r y T [   6 k.i   V.I./.P.P. .    k.j.j.k.k.j.    C.A.:X;X;X-X:X;X9X9X9X0XW.J.K.0.c.",
"H.2.y e _ L.F.D.;X>X9X0X0X0XF.,.V ; w x.O.Y w *     l.l.j.p   Z.(.(.(.I.I.r.o.            x Z.:X>X:X%XG.i.%X=X9X4X9X9X=XW.L.8.8.",
"H.[.$.r 1 I.J.W.>X9X0X,X>XD.,.` V q e 8.v.[     g.k.j.j.2 j.  :.OX(.(.(./._.x.z $ & T x * d.:XE.E.S.S.q.u.q.v.XX=X4X9X9X=XW.1.8.",
"H.S.$.r e L.L.:X>X9X0X0X0XJ.L _ P q J v.X.. (       k.    j.  { OX(.(.`.`.x.I e 1 V 1._ , _ J.E.E.S.s.i.i.0.i.n.&X4X5X9X=XR.f.1.",
"0.G.$.r e I.L.>X0X0X9X0XJ.L , V 1.8.I.I.t.    j   k.  c   l.  l U.5X`.b.#.O.r e V 8.P.' ; P J.J.D.D.S.w.q.q.q.7.0.=X4X9X0XE.J._ ",
"<.0.$.y r U._.5X2X0XqX0X~.` 0 q 1.P./.I.qXZ.p.}   m.  v   h.  w e c.>.O.@.y e V x.#.x.' ] ' I.J.D.S.S.S.i.q.q.q.0.XX&X4X9X=X~.,.",
"4.0.&.m r ).U.2XqX0X0XJ._.{ ' ' 8.5XqX0XqXwXqXa.     .L.e.    e d e O.O.r w Y c.#.y V ' 1 I L.J.J.D.S.s.q.i.b.q.u.XX=X9X9X=XJ.>.",
"J.H.-.m m ).OX5XqXqXqX2XI.' ' ' I 5X5X5XwXqXwXqX#X#XqX2X^.oX2.y e r r e W @.c.c.@.y W ] 1 ] /.L.L.J.d.d.s.s.s.s.u.%X;X9X0X:X:XK.",
"W.R.%.M m ).`.5X5XqXqX_.P.t q e t 5X5X5X5X0X5X0XeXwXqXqX/.2X/.U.#.9.b.c.c.c.b.:.:.@.] O.e ] I./.L.L.F.F.s.s.M.w.S.G.:X9X0X;XW.K.",
"!.R.-.Z M [.).2X5XqXqX,X@.q + + 1 U.2X2X5X2X5X5X5X5XqXqXqXqXI.U.9.c.I.U.qX5X5Xc.c.:.c.#.f ' (.U.I.I.L.F.F.F.F.S.S.S.>X>X0X>X2XI.",
"B. X5.A m +X).5X5X2Xc.`.' + X + 1 $.(.(.U.U.U.`.5X5XqX5XqX5X5X(.x.b.U.qX5X5XwXqX(.b.M.#.r #.(.Y.(././.I.J.f.J.F.D.E.>X0X0X,X5X8.",
"q.!.5.A M  X5X5XU.W O.U.$.d + @ r @.).).(.U.Y.U.U.OX5X0X5XO.Q c.b.U.U.qX5XqXwXwXOXY.Y.#.f f ).).(.(././.P.P.K.F.J.L.2X5XqX2Xx.@.",
"K b.0.Z M 8.M.M.1 r e :.x.O.:.O.y r ).).Y.Y.Y.Y.).(.OXU.y W W :.b.@.>.5X5XwXwXwXwX).).$.y m Y.+X).).(.(.I.P.P.P.L.L.,X5X0X5X(.>.",
") 9.0.D m f f 3.1 d Y :.t y :.+.f f Y.5X).Y.).).@X5XN.$.r f W M.#.f b.5X9XqXwXwXwX+X@X+.d m 2.).@X).).).(.U.U./.I./.5X`.:.(.#.g ",
"L =.9.0.S m y r d V :.#.t t O.+.f f f }.5X)..X5X XM.m f m ! M.N.Q $.M.[.5X9XwXeXwX+X*X,.C m m >.[.5X+X).).).(.OX+Xb.#.n.W 2.N.+.",
"K / 8.|.G.#.y r t 9.P.x.0.#.c.9.f f m m N.H.T.G.M C M m ~ G.N.<.m <.}..X[.9X9XeXwX*X[.N.2.C M M 4.G.S.[.5X@XM.b.q.$.#.f f ! 2.^ ",
"=.q.4.G.G.b.x.c.I.L.~._.L.I.x.c.>.g f C M M A A Z D A ^ 9.H.R.D # 4.XX.XXX9X9X5X5XG. X0.2.^ Z A M <.$.4.G.G.$.$.m m m m ! S.0.&.",
"b.9.4.>.b.(.I.L.^.>XW.:X,XL._.c.b.2.~ C ~ &.&.G D =.q.R.W.W.R.A % A  X9X*X*XXXR.&.4.<.4.S A A A S A M M M M m m m C ! 4.G.XXR.&.",
"c.D S ! b.I.qXqX0X0X0X0X0XqX_.I.U.N.2.-.9.D =.!.!.!._.B.5.q.W.=.F F q.H.oXW.5.n A =.v.&.A A S D 9.6.A A S A M ^ 2.S.E.H.R.8.0.8.",
"=.D +.#.c.5X2X0X9X9X9X9X0X9X0XI.U.>.~ M d > n c.!._.S.w.` w._.S.=.G K K K F F G =.L.W.9.0.=.=.6.R.W.R.G.H.H.S.G.H.G.H.R.0.0.5.9."
};
