/* XPM */
static char *result[] = {
/* columns rows colors chars-per-pixel */
"64 64 225 2 ",
"   c #000000",
".  c #0B0B09",
"X  c #1A4000",
"o  c #314F12",
"O  c #3D7621",
"+  c #414715",
"@  c #51562E",
"#  c #565934",
"$  c #4B772B",
"%  c #597427",
"&  c #5B6634",
"*  c #577435",
"=  c #656826",
"-  c #696B26",
";  c #71742A",
":  c #6D6A3A",
">  c #686B3E",
",  c #716D3C",
"<  c #66793A",
"1  c #74753B",
"2  c #364951",
"3  c #3E5055",
"4  c #415355",
"5  c #6D6941",
"6  c #716D42",
"7  c #757142",
"8  c #797642",
"9  c #7C7945",
"0  c #767249",
"q  c #787549",
"w  c #7D7A4C",
"e  c #597367",
"r  c #517474",
"t  c #567976",
"y  c #5A7B76",
"u  c #9D2424",
"i  c #807D47",
"p  c #807E4A",
"a  c #817E51",
"s  c #588B2F",
"d  c #5B9335",
"f  c #6E8837",
"g  c #69903C",
"h  c #688C42",
"j  c #738944",
"k  c #6D9747",
"l  c #78994A",
"z  c #7F8753",
"x  c #7A9E53",
"c  c #72A64C",
"v  c #76A849",
"b  c #7EB654",
"n  c #668377",
"m  c #9D8D00",
"M  c #888B45",
"N  c #84824C",
"B  c #88854F",
"V  c #8D9446",
"C  c #919547",
"Z  c #92954A",
"A  c #96994C",
"S  c #9A9D4F",
"D  c #858154",
"F  c #898654",
"G  c #8B8953",
"H  c #888559",
"J  c #8C8A5A",
"K  c #918E56",
"L  c #908E5E",
"P  c #879B57",
"I  c #999557",
"U  c #93915C",
"Y  c #99955E",
"T  c #A09D5D",
"R  c #86AA5A",
"E  c #9EA152",
"W  c #90AF51",
"Q  c #84B559",
"!  c #A1A556",
"~  c #A4A35B",
"^  c #A6AA5C",
"/  c #A9AD5D",
"(  c #ACB15E",
")  c #8E8A60",
"_  c #908E60",
"`  c #949361",
"'  c #9A9662",
"]  c #969963",
"[  c #9C9A62",
"{  c #9C9D69",
"}  c #A19D63",
"|  c #A29D6E",
" . c #8DA562",
".. c #99A868",
"X. c #99B668",
"o. c #92B86C",
"O. c #9EAD70",
"+. c #A4A066",
"@. c #A3A46A",
"#. c #A9A56B",
"$. c #A7AB69",
"%. c #ACAA6C",
"&. c #B0AE69",
"*. c #AEB263",
"=. c #A8B76D",
"-. c #B3B866",
";. c #B4B36C",
":. c #A6A473",
">. c #ABA775",
",. c #A5AA71",
"<. c #ABAB72",
"1. c #ABA778",
"2. c #AEAA7A",
"3. c #B1AE72",
"4. c #B2AE7D",
"5. c #ADB375",
"6. c #AABC75",
"7. c #B3B375",
"8. c #B8B672",
"9. c #B6B873",
"0. c #BBBC74",
"q. c #B4B37B",
"w. c #B9B67A",
"e. c #B6B979",
"r. c #BBBC7C",
"t. c #C0BD7E",
"y. c #9CC36B",
"u. c #9BCF72",
"i. c #A7C776",
"p. c #BEC077",
"a. c #B6C977",
"s. c #BEC17D",
"d. c #AAD67A",
"f. c #B0D076",
"g. c #C2C47B",
"h. c #C6C97E",
"j. c #CACD7F",
"k. c #C0D47D",
"l. c #6E8B84",
"z. c #6B95A7",
"x. c #6E98A7",
"c. c #94AA9A",
"v. c #A3B18C",
"b. c #B6B481",
"n. c #BAB683",
"m. c #B6B886",
"M. c #BDBA86",
"N. c #BDBC88",
"B. c #C1BF83",
"V. c #C1BE8A",
"C. c #BEC181",
"Z. c #BFC18D",
"A. c #ADD384",
"S. c #B7D787",
"D. c #B9DD95",
"F. c #C3C482",
"G. c #C6C985",
"H. c #C9CC84",
"J. c #C5C38C",
"K. c #C9C78D",
"L. c #C7CA88",
"P. c #CACD89",
"I. c #C4D686",
"U. c #CDD183",
"Y. c #CED18B",
"T. c #D1D586",
"R. c #D2D48D",
"E. c #D5D98A",
"W. c #DADD8F",
"Q. c #C4C690",
"!. c #C9C791",
"~. c #C6C992",
"^. c #CBCC94",
"/. c #CCCE98",
"(. c #D1CE97",
"). c #CDD196",
"_. c #CFD29A",
"`. c #D3D690",
"'. c #D6D992",
"]. c #DADD95",
"[. c #D2D49B",
"{. c #D8DB9D",
"}. c #C1E28B",
"|. c #C9E595",
" X c #DDE194",
".X c #DEE299",
"XX c #D4E998",
"oX c #E3E59C",
"OX c #E5E998",
"+X c #E5E89E",
"@X c #D6DAA0",
"#X c #DADDA3",
"$X c #DCE1A5",
"%X c #D2EAAA",
"&X c #DCEBA9",
"*X c #E2E6A6",
"=X c #E6E9A1",
"-X c #EBEDA4",
";X c #EEF1A5",
":X c #E9F5A5",
">X c #EEF1A8",
",X c #F1F4A7",
"<X c #F2F5AA",
"1X c #F6F9AD",
"2X c #F9FCAF",
"3X c #EEE8B1",
"4X c #F1ECB2",
"5X c #E9F5B7",
"6X c #F5F1B6",
"7X c #F4FAB6",
"8X c #FDFEB3",
"9X c #FAF6BA",
"0X c #FFFEBB",
"qX c #A8CED5",
"wX c #A6CFDF",
"eX c #AAD1E1",
"rX c #DCEEC1",
"tX c #EDF7C6",
"yX c #FFFFC4",
"uX c #F4FBCB",
"iX c #FFFFCA",
"pX c #FFFFD2",
"aX c #FFFFD9",
"sX c LightYellow",
"dX c white",
/* pixels */
";.) *.^ V.'.@X1X2X1XyXyXyXiXyXQ.j.2.@.+.p N G K 8.t.Y.t.U U C.P.w.J G N D ^ a ! ! <.M.<.+.#.! ! +.n.n.w.b.q.q.q.b.q.q.b.n.<.~ / ",
"L L # # ~ '.[.9X8X7XyXiXyXyXiXG.j.4.q.,.w @ f H w.8.-.G M _ ^.^.!.e.J.V.V.0XpX'.E.b.m.b.,.} +.S +.w.w.b.q.U.Y./.).Y.U.q.b.+.w w ",
"M K H # # ].`.`.1X7X2X1XyXiXiXG.2.2.4.@.E w %.J.V.;.B G G r.OXq.J.J.0XaXaXpXpXpXpXaXR._.T.T.b.@.} } b.4.7.Y./.<X/.<XH.Y.H.q.q w ",
"M H *.F p '.@X`.T.1X,X2X>XQ.` ] 1.2.2.q.w.r.M.N.V.7.B B H 3.6./ %.M.0X0XpXpXiXpXiXpXpXaXP.T.4.[ , 6 4.2.h.^.iXiXyXiXiX;X^.1X[ 0 ",
"&.*.H D p <.].`.R.P.4.] - = : : ] <.2.4.4.q.b.n.V.V.>.a a 7.%.a ! 0X0X0XpXpXiXiXyXiXiXiX8XiX' 6 , 7 [ 2.,XyXiXyXiXyX0XyXQ.,XH.Y ",
"V.*.q.a p %.'.8X8Xq.Y , : : : K >.G.L.P.U.U.q.@.w.n.B.V.M.W.! 9 w 8X8X8X8X8X2X2XiX1XiXiX2XiX6 , : A 2.h.;XyXyXiXyX;X>XyXyX-X;Xj.",
"*X4.oX%.p <.M.n.@.[ , , : V I g.G.iXiXiXiXP.Y.U.4.7.b.T $.r.q 8 8 _.1X8X8X,XL.>X1XyXiXyXyX1.I C C ] 2.G.;XyXyXyXyX-X;X-XyXyX-Xg.",
"oX>.V.#.p p 9 } } 7 6 Z { #.G.G.iXiXyXiXiXiXiXH.P.T.} , A } 8 7 q././.H.H.H.G.>X1X1X1XyXyX1.2.2.2.2.>.g.iXyXyX9X-X0.oX6X0XyX=XN.",
"].V.N.<.a i 9 8 8 1 0 { 1.1.G.iXiXyXyXiXyXyXiXiXiXH.H.A Y } 1 6 U.).P.H.G.G.~.2X2XiXiXyXG.] >.] ] 1.>.G.yXyXyXyX-X{ 9.=X6X0XyXN.",
"].N.<.M.n.| q S @.[ A ' 1.1.1XiXiXyX9XyX9XyXyXiXiXyX,X>.H.' , , ] P.P.H.L.H.G.1XiXyXiXiXH.>.Y 6 5 %.>.h.yXyX0X-XoX9.7..XoX4X0Xm.",
"].N.,.n.n.T.b.b.b.} 6 , 1X2X1X<XiXyX>X>X,X;X;XyXyXyXiXG.H.] 6 , , L.H.P.P.G.~.1XiXiXiX>XH.>.' , 6 ] 1.h.9X<X;X-XoX;.7..XoX0X0X.X",
"'.E.#.8X0X0X8XT.P.A , , ^.,X6X<X,X,X=Xs.r.=X-XyX9XyXyXiX!.h.Y : : P.L.H.H.L.H.8X8XiX~./.P.4.Y 6 7 3.] >.1X<X;XoXw.9.;..XoX4X8X.X",
"'.#.8X8X0X8X8XpX4.A , ' H.>X>X<X>X=XZ.0.0.r.m.-XyXyX9XyX;XQ.] : : /.H.Y.H.P.U.1X8XiX1X1XH.4.4.' ] 2.C C ;X:XN.Z.r.q.9.b.oX3X8X.X",
"'.T 8X0X8XiXpXpX4.A , 3.H.G.F.F.g.p.r.r.e.e.e.oX-X9XyXyXiXQ.<.: : H.1XY.Y.Y.Y.1X8X8XY.Y.4...4.4.4.[ , I G.Z.J.r.r.e.7.7.oXoX8X.X",
"{.n.[.8XiXpXpXaX2.Z , L.!.G.G.F.F.M.r.r.r.9.e.m.-X-X-X9XyXiXh.5 , , P.1XY.Y.Y.Y.R.q.R.T.} 0 S b.} 8 , ' G.G.C.s.0.e.7.7.+X8X0X.X",
"n.E R.8X8XpXiXpX4.5 , L.L.G.G.G.F.s.M.r.r.e.e.e.m.-X-XyX9XyXJ.U : 1 , R.2XR.[.E.} 8 @.b.} ; , w.T 6 , 1.G.G.s.s.s.r.e.m.+X+X0X7.",
"<.E '.8X8XpXiXiX[ - ` L.H.L.h.F.B.B.r.r.r.r.7.r.9.r.oX-XyXyXiXG.Z , 7 7 Y.8X8Xm.1 q @.n.@.q S T.@.6 6 H.,XG.F.s.r.r.9..X=X0XyX9.",
"p +.[.8XiXiXpX2.' = >.H.G.H.h.h.g.F.F.r.r.7.e.7.9.9.oX-X9XyXyX>X2., , 7 8 b.b.8 9 9 ,.n.n.8X8XR...0 6 [ G.G.F.r.s.r.r.oXyX0X0X{ ",
"w @.8X8XpXiX1XH.Z : L.^.H.G.H.h.h.F.B.t.r.0.e.e.7.r.m.-X9XyXiXF.,XY 6 7 8 8 8 8 9 E m.w.8X0X0XpXT.A 6 I G.G.g.g.p.0.N.-X=X0XyX{ ",
"N #.8XpXpXiX1XH.6 : /.P.L.L.H.h.G.F.F.t.0.0.0.8.r.7.r.-X-X9XyX-XQ.Y ] A 7 0 q 8 S w.n.@.8X0X8XpXR.} 6 ' H.F.F.p.g.0.s.-XyX9XyX| ",
"N #.0X0XpXpX1Xh.: : L.L.P.K.P.P.L.G.F.F.r.0.0.0.w.7.r.=X0XyXyX=X:.: Z { O.....,.n.e.{ `.0X0XpXpX2X} - ' F.F.C.g.p.s.r.-X0XyXiX| ",
"F %.0XpXiXpX1X2.- , L.P.P.Y.P.P.L.G.G.t.s.e.=.=.=.r.m.=X=X0XyXJ.g.> V  .u u u u P E 8 @.8XiXpXpX6Xb.- Y G.J.F.F.C.t.C.>X;X9XyX#.",
"B %.0XaXpXpX1X2., ' 4./.P.P.P.P.P.L.G.F.C.9.      R .X=X0X0XoX+Xp.K P u u g u u u u 7 [ 8X8XpXpX1X2.- I G.F.F.s.C.g.F.>XyXyXyX,.",
"G 5.0X0XiXpX1XU.: Y { /.(.P.!.Y.P.H.H.g.p.X.  x.x.  i.4X0X0Xw.r...u u z K C , * u u < [ 8XpXiXiX1X2.- K G.F.F.t.C.C.V.>X,XyXyX1.",
"G 3.8XaXpXpX2XY.A , , [ 1XY.Y.Y.Y.P.G.h.g.r.c   2 x.  d.0X0Xb.w.{ 9.{ U U ] ] <.a.u u k   %X. tX,XH.: I G.F.F.g.F.F.-X<XiXiXpX2.",
"G 7.0X0XpXpX2X1X<.6 , 6 T 7XY.Y.P.P.h.g.F.v k     2 z.  S.|.X.W X.yXyX;Xs.g.:.:.:.u u   dX  dX  -XH.: L G.F.g.g.g.g.-XiXiXiXiX<.",
"G 7..X0XpXpXpX_.R.6 8 6 6 [.`.P.Y.P.L.F.R     wXz.z.z.y           }.0XyXyX,Xg.:. .u   dX  r r     s.5 U G.F.F.g.g.G.1X2XiXiX1X..",
"L 7..XyX0XiXpX2X2X} 6 8 6 `.Y.Y.Y.P.L.g.  wXz.  2 z.z.z.z.z.z.z.y   S.yX-X;XyX=.  u u   r r   m     U ] G.L.G.G.h.G.2XiXiXpXY.} ",
"L G $XyXpXpXpX_.Y.4.Y 8 7 Y.R.Y.^.P.G.r.      2 z.z.            z.n   &X6X-X0X  c.  u   r     m     l - 2./.L.P.G./.8XpXpXpXT.+.",
"L G *XyX0XpXpX_.[.4.} 7 <     a.Y.P.H.F.6.R   qX    y.S.|.C.y.  x.r   i.=X6X7X  z.z.  r r         r   5 ' P.P.P.P.Y.8X8XpXpXE.#.",
"U G *X0XaXaXpX8XR.} A *   t n     i.K.G.F.X.    R I.8X8X8X'..Xx   r r   y.6X|.  z.r r r r r     r z.  * [ P.Y.Y.Y.Y.8X0XpX8X'.^ ",
"U G *XyX0XpXpX8X4.6 %   r r r r y   X.H.G.r.=.=.b.*XoX3X0X'..XS.  r r r   i.XX  r   r r r r r r z.z.  P [ Y.R.R.R.'.{.0XyX]. X/ ",
"_ B XX&X5XuX8X8X} + X   r r r r r t   X.F.g.r.r..X+X0X0X0X].<.y.  r r r   b Q     r r r r r z.z.z.r   P ; T.[.`.`.'.'.0XV. XoXF ",
"J g         XX[.b.o   r r   z.z.r r t   a.=.X.o.S.$X0X0X7. .h       r r r     t r r r r r r z.z.z.r   C 7 @.T.8X@X@X8XW.N 3.7.H ",
"h   wXz.z.l.  |.H.h   r r   z.z.z.r r   v           d.S.c     r r r r     r r r r r r r r r r z.t    .S 8 8 9 b.n.M.N.p N 7.e.*.",
"v         z.t   b   t y   O   wXz.z.r r   r r r r r       r r r       r r r r r r r r r r r r r z.  a.[ 7 8 8 q 9 w p N B q.Q.r.",
"Q s   wXz.z.z.t     r   $ $   z.wXz.z.r r   r r r r r r r       r r r r r r r r r 2 2 r r r 2 z.  * 3.b.{ S w w 9 w p p %.Q.^.^.",
"R   wX      z.z.r r l.  <.g   z.wXz.z.r r   r r r r r     r r r r r r r r r r r 2 2 2 r r r 2 x.  M 2.4.b.} } } ,.M.t.F.J.q.;.8.",
"f       r   wXwXz.l.. XX,Xh.d   wXwXz.z.r r r r r r   r r r r r r r r 2 2 2 2 2 2 2 r r r 2 r   % U 4.4.{ 1 7 9 +.n.M.N.%.B B G ",
"& o l   n     wXz.  |.iX<X,Xh   z.wXwXz.z.r r r r   r r z.z.z.z.x.r 2 2 2 2 2 2 2 r r r 2 r   d V ] H.L.H.Y 6 0 T e.M.<.! B B G ",
"G # R     A.d.      yXiXiX2Xx   z.wXwXz.z.r r r   r z.z.z.z.z.z.z.z.2 2 2 2 2 2 2 r r 2 r   Q h.F.G.G.~.<XP.H.P.Y.T.b.,.#.%.&.G ",
"7./ ! U.1X8X:X}.|.:XyX<XiXI.  z.2 z.z.z.r z.r   r z.z.z.wXz.z.z.z.z.r 2 2 2 2 2 r r 2 r r   O.;XiXyXiXiXiXiX<X/.^.P.U.e.w.M.V.3.",
"r.^ p $.[.1X).~.G.-X<XiXiX|.  wXz.2 z.z.z.      z.z.z.wXwXwXz.z.z.z.r r 2 2 2 2 r r 2 r   Q :X-XiXiXyXyXyXiXiXiXiXH.).q.w.M.<.%.",
"Q.*.i +.T.1X~.H.h.-X1X1XyXD.  wXz.z.r r z.z.  z.z.z.z.z.wXz.z.z.z.z.z.r r 2 2 r r 2 r r   X.G.iXiXyXyX1XyX<XyXyXiXiX<XY.q.q.n.r.",
"K.%.N 9 ~ Y.H.h.~.1XyXiXiXd.  wXwXz.z.z.z.z.2 z.z.z.z.z.z.z.z.z.z.z.z.z.z.z.r r r 2 r   k G.iXiXyX1X>X>X;X>X>XyXyXyXyX^.P.U.e.n.",
"L.5.9 9 [ Y.H.G.;X<X7X5X5XS.v   wXz.r       2 z.z.2 2 2 2 2 2 z.z.z.z.z.z.z.z.r 2 r r   h <.2X2X1X,X-XZ.s.+X;XyX9XyXyX;X^.U.q.b.",
"K. X#.9 1 Y.P./.1X|.            wXz.z.r   2 z.z.2 2 2 2 2 2 2 2 z.z.2 2 z.z.z.r 2 r r   * H.,X~.Q.F.F.0.0.s.Z.+X;X9XyXyX;X^.4.q.",
"J.J.#.9 9 Y.Y.<X:X  eXwXz.z.z.r   wXz.z.z.2 z.2 r r r r r 2 2 2 2 2 2 2 z.z.z.z.2 r 2   * Y H.~.Q.F.F.g.r.r.r.N.-X9XyXyX-X^.H.3.",
"9.J.#.z 9 R.T.1X5X  wXz.r z.z.z.z.z.r z.z.2 z.r r r r r r r 2 2 2 2 2 z.z.z.z.z.2 r 2   % Y P.P.L.F.F.r.r.r.r.0.r.-X9XyXyXQ.P.{ ",
"7.7.%.i 9 E.[.8X8XD.  z.z.r z.z.z.z.z.    2 z.r r r r r r r r 2 2 2 2 z.z.z.z.2 r 2 2   R [ Y.P.H.G.F.F.s.r.r.0.r.+X-X0XiX-X/.3.",
"7.e.*.i 9 '.'.8XpX%X  z.z.r       z.z.t r 2 wXr r r r r r r r 2 2 2 z.z.z.z.z.2 r 2   k 1 T P.Y.P.G.G.g.M.s.t.r.s.+X:XyXyX,XH.2.",
"K.K.;.N N ].@X0XpXuXD.  r r r   d         2 z.z.r r r r r r r 2 2 z.z.z.z.z.r z.r 2   P 8 } R.R.P.H.H.g.g.g.g.r.p.+X;XyXyX,X<XU.",
"^.P.;.N N ].#X0X0XpXuXo.  r r   * d.d.d.u.2 wXz.z.r r r r r r 2 2 z.z.z.z.z.r z.r r   P 9 } `.R.R.P.P.h.h.g.g.B.s.J.,XyXiX<X/.U.",
"(.^.;.B N oX].8X0XpXpX:Xk   r e   T.8X8Xd.2 wXwXz.z.r r r r 2 z.z.wXz.z.z.r z.z.r   R +.9 +.].`.`.R.Y.P.H.H.H.F.G.G.6X2XiX1X8XY.",
"B.OX8.G N #X].8X0X8Xn.{.l   r r    .E.'.f.4 r z.wXwXwXz.z.z.wXwXz.z.z.z.r z.z.z.t   o.+.i #.'.'.'.`.`.Y.P.j.P.P.G.Q.7XiXiX2X8Xn.",
"w.(.8.G B OX8X0XE.! +.E.x $   r e   I.'.W.y.2 r wXwXwXwXz.z.wXwXz.z.z.r z.z.z.z.r   k.#.i p ].'.'.`.'.R.T.T.U.H.U.Y.8X8XpX8Xb.+.",
"U m.9.G B 5.V.N.; p q R     2 2 r e   '.W.a.3 qXz.z.wXwXwXz.z.z.r r r z.z.2 z.r   S.].#.p p ].$X].].].`.`.T.T.U.Y.Y.8X8XpX0X'.<.",
"] r.e.J B N p <.i <     e r r r r t   8X.XW.i.2 wXwXz.z.z.r r r z.z.z.z.2 2 z.t . @X#X^ p N <.W.#X].].].].E.E.`.`.`.8X[.,.].#.a ",
"U ;.w.q.D N p 9 1   n t 2 2 r r r   8 ].0X.X.X|.2 wXwXwXwXz.z.z.z.z.2 2 2 z.r . tX$X*X>.D N D <.OX0X#X].].].E.{.@XM.$.M.E 5.V.$.",
"Y L q.OXJ.%.w 9 <       r r t     f z N J.J.J.J.j 2 2 wXz.z.r r r 2 2 2 2     rXsX*X XJ.7.D B B 5.V.F. X0X#XV.V.M.#.#.p N ^ 7./ ",
"-.w.q.J.V.N.n.b.G.y.Q     t   R R p p N B B G G F D j 2 2 r r r r r 2     |.5XyX0XJ.OX7.7.( B H B 3.3.3.F.J.%.%.N N N N / F.q.*.",
"r.w.7.>.N.'.R.Y.).}.    d.    O.M.5.^ H ( *.*.H K *.m.6.o.2 2 2 2 2 4 S.A.*XOX!.( 7.7.7.G J B G H G B B B B N N N D / 7.J.oXQ.*.",
"n.J H ^ M.R.pXiXuX&X    D.  v.  E.V.q.;.7.L -.(.(.(.[.C.0.=.i.W j j X.^.OX^.8.M G *.r.*.G G J J w.7.G G H H B / 5.F.J.K.!.e.e.w.",
";.) / #.n.0X8XpXiX7X&X&X%Xu..   g.>./ a M & M t.[.[.F.r.` M.[.C.-.U U U Y K K L -.^./.w.e.-.*.8.^.^.!.L.K.K.G.K.J.Q.J.^.e.7.w.r."
};
