/* XPM */
static char *result[] = {
/* columns rows colors chars-per-pixel */
"64 64 214 2 ",
"   c #000000",
".  c #0A0A06",
"X  c #2A2600",
"o  c #3D380D",
"O  c #454918",
"+  c #4A751C",
"@  c #474A26",
"#  c #51562E",
"$  c #575A34",
"%  c #4A6C26",
"&  c #5E6437",
"*  c #597533",
"=  c #656A25",
"-  c #696C26",
";  c #6D712A",
":  c #676938",
">  c #6D6A3A",
",  c #716D3C",
"<  c #69773A",
"1  c #747637",
"2  c #364951",
"3  c #3D4E55",
"4  c #4A5B5A",
"5  c #515F57",
"6  c #4E605A",
"7  c #57665C",
"8  c #6D6A41",
"9  c #726D43",
"0  c #757142",
"q  c #767447",
"w  c #797642",
"e  c #7C7945",
"r  c #797649",
"t  c #7D7A4C",
"y  c #517474",
"u  c #5A7A76",
"i  c #577A78",
"p  c #687765",
"a  c #617E73",
"s  c #9D2424",
"d  c #807D47",
"f  c #807E4A",
"g  c #817E51",
"h  c #13800B",
"j  c #738C36",
"k  c #5C9B42",
"l  c #749246",
"z  c #7D9952",
"x  c #75A153",
"c  c #668379",
"v  c #738E7C",
"b  c #78BD63",
"n  c #9D8D00",
"m  c #F7F701",
"M  c #888C44",
"N  c #84824D",
"B  c #88854F",
"V  c #8F9246",
"C  c #93964A",
"Z  c #95994C",
"A  c #979B4C",
"S  c #858154",
"D  c #898654",
"F  c #8B8953",
"G  c #888559",
"H  c #8C895A",
"J  c #908D55",
"K  c #918E5D",
"L  c #879A54",
"P  c #999A57",
"I  c #93915C",
"U  c #99955E",
"Y  c #A09D5D",
"T  c #8EA156",
"R  c #9DA152",
"E  c #89B45C",
"W  c #94B85E",
"Q  c #A2A556",
"!  c #A4A35B",
"~  c #A6AA5B",
"^  c #A9AD5D",
"/  c #ADB15F",
"(  c #8E8A60",
")  c #908E60",
"_  c #949361",
"`  c #9A9663",
"'  c #969A63",
"]  c #9C9A62",
"[  c #9C9D69",
"{  c #A09D63",
"}  c #A29E6E",
"|  c #99A668",
" . c #95B764",
".. c #9EBD75",
"X. c #A4A165",
"o. c #A4A46A",
"O. c #A9A56B",
"+. c #A6A868",
"@. c #ACAA6C",
"#. c #B0AE69",
"$. c #AEB263",
"%. c #A5BA6D",
"&. c #B2B764",
"*. c #B4B36C",
"=. c #B5BB6A",
"-. c #A8A574",
";. c #ABA775",
":. c #A6A970",
">. c #ABAC72",
",. c #AEAA7A",
"<. c #B1AE72",
"1. c #B2AE7D",
"2. c #AEB376",
"3. c #ABBD72",
"4. c #B3B375",
"5. c #B8B672",
"6. c #B6B974",
"7. c #BBBB74",
"8. c #B4B37B",
"9. c #B9B67A",
"0. c #B6B979",
"q. c #BBBC7C",
"w. c #C0BD7E",
"e. c #98C86E",
"r. c #ADC373",
"t. c #BDC176",
"y. c #BEC17D",
"u. c #B6C97B",
"i. c #C2C47B",
"p. c #C6C97E",
"a. c #C9CD7F",
"s. c #7B9588",
"d. c #6B95A7",
"f. c #6D98A9",
"g. c #739BA4",
"h. c #7EA0A3",
"j. c #85A49F",
"k. c #B6B381",
"l. c #BAB683",
"z. c #B7B986",
"x. c #BDBA85",
"c. c #BDBC88",
"v. c #8BACA9",
"b. c #C1BE83",
"n. c #C1BE8A",
"m. c #B2C683",
"M. c #BEC181",
"N. c #BFC28D",
"B. c #A7D586",
"V. c #BBD882",
"C. c #C3C483",
"Z. c #C6C985",
"A. c #CACC84",
"S. c #C5C38C",
"D. c #C9C78D",
"F. c #C7CA88",
"G. c #CACD89",
"H. c #CDD184",
"J. c #CED18B",
"K. c #D1D487",
"L. c #D2D58D",
"P. c #D6DA8B",
"I. c #DADD8E",
"U. c #C5C690",
"Y. c #C9C791",
"T. c #C6C992",
"R. c #CBCC94",
"E. c #CCCE98",
"W. c #D1CE97",
"Q. c #CDD296",
"!. c #CED299",
"~. c #D3D690",
"^. c #D6D992",
"/. c #DADD95",
"(. c #D2D49B",
"). c #D5D89E",
"_. c #CBE291",
"`. c #DDE194",
"'. c #D6EB97",
"]. c #DEE299",
"[. c #E4E997",
"{. c #E5E997",
"}. c #E2E59C",
"|. c #E5E89E",
" X c #D6DAA0",
".X c #DADDA3",
"XX c #DDE1A5",
"oX c #DCEAA9",
"OX c #DFF0AF",
"+X c #E7EAA1",
"@X c #EBEDA4",
"#X c #E2E7AA",
"$X c #EEF1A6",
"%X c #EEF1A8",
"&X c #F1F3A7",
"*X c #F2F5AA",
"=X c #F6F9AD",
"-X c #F9FCAF",
";X c #F1ECB2",
":X c #E4F3BB",
">X c #F5F1B6",
",X c #FDFEB3",
"<X c #FAF6BA",
"1X c #FFFEBB",
"2X c #A6CFDF",
"3X c #A8D0DF",
"4X c #ECF6C0",
"5X c #FFFFC4",
"6X c #F2F9C9",
"7X c #FFFFCB",
"8X c #FFFFD3",
"9X c #FFFFDA",
"0X c LightYellow",
"qX c #FFFFFF",
/* pixels */
"*.( $.+.n.^. X=X-X=X5X5X5X7X5XU.a.,.o.o.t N F H 5.w.J.w.I _ M.G.9.H D B S ~ g Q Q :.x.:.O.X.! Q O.l.k.9.k.k.8.8.k.8.9.k.l.:.! ^ ",
"K H $ $ ! ^.(.<X,X,X5X7X5X5X7XZ.A.1.8.:.e # j G 9.5.&.J M ) Q.R.D.8.S.n.c.1X8X^.~.l.l.l.:.X.X.A X.9.8.k.4.H.J.Q.E.G.H.8.k.o.t t ",
"M H F $ $ /.~.L.*X,X-X=X7X5X7XZ.,.,.1.o.R t @.S.S.*.B F F 0.[.8.Z.S.1X9X9X8X8X8X8X9XJ.!.K.K.k.o.{ { 8.k.4.J.R.*XR.&XH.G.A.1.t t ",
"M F $.S f ^. X~.J.*X*X-X$XT._ ' ,.>.,.8.9.q.x.n.n.4.N B G 4.2.^ @.c.1X1X8X8X7X8X7X7X8X9XG.H.8.] , 9 1.,.a.R.7X7X7X7X7X$XR.=X] q ",
"#.$.G g B <./.~.L.G.,.] - = > > ' ;.,.,.1.8.k.l.b.n.<.S g 2.@.f Q 1X1X,X8X8X5X7X5X7X7X7X,X7XU 0 , 0 | ;.&X5X7X5X5X5X5X5XU.&XA.U ",
"n.$.8.g f O./.,X,X8.U , > > > J ;.F.G.G.H.H.8.o.9.l.l.b.x.I.Q e t ,X,X,X,X,X,X-X7X=X7X7X-X7X8 > , C ;.p.$X5X5X7X5X$X$X5X5X@X$Xa.",
"#X8.`.;.f ;.l.l.o.] , , , V I p.Z.7X7X7X7XG.J.H.1.9.k.{ :.q.r w w !.=X,X,X*XF.%X=X5X7X5X5X,.U C C ' ;.A.$X7X5X5X5X@X$X@X5X5X|.C.",
"}.;.n.@.f f e { X.0 9 C ' @.Z.C.5X7X5X7X5X7X7XA.G.A.{ , A { w 0 1.Q.R.G.G.p.F.$X=X=X=X5X5X;.;.,.,.;.;.Z.5X5X5X<X@X0.}.>X1X1X|.S.",
"/.n.n.>.g d e e w , q [ ,.;.S.5X5X5X7X7X1X7X7X7X7XG.a.Z ] { w , H.R.J.G.F.Z.Y.=Xv.v.j.s.v U >.[ ] ,.:.Z.7X5X5X1X@X[ 0.|.>X1X5Xc.",
"/.n.:.x.l.X.r A o.] A ` ,.;.=X7X7X5X<X5X<X5X7X5X7X5X&X;.A.U , , [ A.G.G.F.C.j.v.3X3Xd.y f.u 5 > 8 @.,.i.5X5X<X@X}.5.4.].}.;X1Xz.",
"/.n.:.l.l.L.k.k.k.] 9 , *X=X=X*X5X5X%X$X&X$X$X5X5X5X7XF.F.] 8 , , F.A.G.u.j.u   2Xd.d.d.y d.d.  : ' ;.p.5X$X$X@X}.6.6./.}.1X1X].",
"^.P.o.,X1X1X,XK.H.A , , R.*X>X*X*X*X+Xq.q.+X@X5X<X5X5X5XU.p.U > > A.F.u.h.y   m   d.d.d.qXy qXy   +.[ ;.*X*X$X|.0.5.*./.}.;X1X`.",
"^.O.,X,X1X,X,X8X1.Z , ` A.%X%X*X%X+Xc.t.7.q.z.@X5X5X<X5X$XT.' > > R.Z.h.2X  n     d.qXy qXy qXy qX. C V $X$XN.c.0.6.4.k.}.;X,X/.",
"~.Y ,X1X,X7X8X8X1.C , <.A.F.Z.C.i.i.x.q.0.0.0.}.@X<X5X5X5XS.;.> > a.v 2X2X    d.d.y qX  2   2   z.. > U Z.S.N.q.0.0.6.4.}.}.1X`.",
").l.(.,X7X8X8X9X,.C , G.Y.Z.Z.C.M.q.q.q.q.0.0.z.+X@X@X<X7X7Xp.: > : y 2Xf.d.d.d.y   2         x   < , ` p.C.C.q.q.0.6.4.}.1X1X`.",
"l.R ~.,X,X8X7X8X,.9 , F.F.F.Z.C.C.C.q.q.q.0.9.0.z.@X@X5X<X5XU.I * 2 f.d.d.d.d.y           y   | Y 0 , ,.F.F.M.y.y.q.q.z.}.}.1X6.",
">.R L.,X,X7X7X7X' - ` A.F.F.p.C.b.C.q.q.q.9.6.9.6.q.}.@X5X5X7Xr.2 d.2Xd.d.d.d.y           y    .| 0 * s s C.C.i.q.q.0.}.+X1X5X6.",
"f X.).,X7X8X7X,.` - ;.F.F.p.p.p.i.b.b.q.q.6.9.0.7.6.}.@X<X5XoX2 d.d.d.d.d.d.y 2         s s s s l * s s r.Z.C.i.y.q.q.}.1X1X1X[ ",
"f o.,X,X8X7X=XG.C > F.R.A.A.p.p.p.C.i.w.q.6.0.0.0.0.z.$X<XoX2 y d.d.d.d.d.d.d.d.    s s s s s s s s s s Z.F.i.t.t.7.c.@X+X1X5X[ ",
"N O.,X8X7X8X*XA.8 > E.G.D.F.A.p.F.C.C.b.7.7.7.*.0.0.0.].4 2 y 2 d.d.d.y     y d.d.    s s   y   s s s I Z.C.C.i.t.t.q.@X5X<X5X} ",
"N O.1X1X8X8X=Xa.> , F.F.G.G.A.G.Z.F.C.C.q.7.7.6.9.9.2.4 y y 2 2 d.d.y   y y     y y         s.  '.| - ` F.C.M.i.w.y.q.@X5X5X5X} ",
"D @.1X8X7X8X*X,.- > F.G.A.G.D.J.Z.F.C.C.C.7.7.0.6.7 3 d.y 2 2 d.d.y 2   d.y y y   y y y y i   :X-X,.- _ F.C.C.M.y.y.M.%X@X<X5X-.",
"B @.1X8X8X7X=X1., U k.E.G.G.H.D.G.G.p.C.y.y.q.6.6 2 d.d.d.d.d.d.y 2   d.d.y d.d.y           :X8X=X,.= _ Z.C.C.M.i.y.M.&X5X5X5X-.",
"D 2.5X1X7X8X=XA.9 _ ` W.W.G.G.G.G.A.p.i.q.x.9.5 y 2 d.d.d.d.y y 2 2 y 2 2Xd.y y 2   y   V.4X7X8X=X    M C.C.C.i.M.M.N.*X*X<X5X;.",
"F <.,X9X8X8X-XJ.Z , , ] -XD.J.W.J.G.A.i.t.q.7 y 2 f.f.d.y y 2     2 y d.y 2X2Xd.d.y     _.7X8X7X*X. p   %.6.. . C.C.@X*X7X5X8X,.",
"F 4.1X1X8X8X-X=X>.9 0 , { -XJ.J.G.G.A.i.x.p u y 2 f.d.y 2     y   y 2 d.2Xd.y y 2 2 y    .7X7X8X*Xr.  f.  E c . i.i.$X5X7X7X7X,.",
"F 4.].1X8X8X8X!.J.9 , w 0 W.J.J.J.G.F.C.C.5 y 2 d.d.y 2   d.2Xd.  y d.y y 2X2Xd.y y   2   V.7X7X&X3.  y d.  g.  i.Z.=X=X7X7X=X| ",
"K 4.].5X1X7X8X-X-X{ q 0 9 L.J.J.J.G.G.C.7 u y 2 d.y 2   2X2Xd.d.y   y d.d.y y 2 2 2   2 y   _.8X'.  f.d.d.2 d.. p.F.-X7X7X8XK.{ ",
"K B XX5X8X8X8X!.J.1.{ 9 9 L.L.W.J.G.F.Z.5 y 2 2 d.y   d.2X2Xd.y y y 2 y d.d.d.y y   y 2 y d.  B.. N.  2 d.d.  r.G.R.,X8X8X8XK.X.",
"I F #X5X1X8X8X!.(.1.{ 0 9 L.L.J.J.G.F.q.4 y 2 2 y 2   2Xd.d.y y   y d.2 y d.y 2   d.y y y d.f.      l   d.y   u.G.J.,X,X8X8XP.O.",
"I F #X1X9X8X8X,XJ.{ Z q 9 D.J.H.R.G.A.3.3 2 2 d.y   d.d.    y   y d.d.d.d.d.d.d.d.d.d.y y y d.  B.e.x   y i   J.J.J.,X1X8X,X^.~ ",
"_ D #X1X1X8X8X,X1.0 ; 0 d W.L.H.H.A.G.%.  2 2 y   d.d.  2Xd.    y y d.d.d.d.d.d.d.d.y y 2 y y i   e.  y i   u.L.L.~.).1X5X^.`.^ ",
"I F 1X1X9X8X,X-X] O X @ 9 K.G.K.H.A.G.3.  2 y   d.d.  2Xd.y d.d.  y y y y d.d.y y y y     2 y y y   y y   u.(.L.~.^.^.,Xn.`.{.S ",
") D {.5X8X8X,X!.,.@ o @ , [ L.G.A.G.A.u.  y y   d.y   d.d.d.    d.  2 y d.d.d.d.y 2   j %     y y f.y 2   | K.,X X).,XI.S <.<.H ",
") F 2.XX9X8X,X-XH.` 9 - , { 1.!.G.J.G.A.W   y   y   d.y   d.  2     y d.d.d.d.d.d.y   z : l L   2 y y   < w w k.l.x.n.d N >.0.$.",
"&.F B c. X~.L.G.A.A.1.U , , [ A.W.G.G.Z.r.  y 2     d.  2   d.  y y y y d.d.y y d.y   E & > J L       L w w w t e t N N B 0.T.x.",
"y.D B N O.L.!.-XJ.G.7X,.8 , , , W.G.G.G.a.W   2 2   d.  2 2     y y d.d.d.d.d.d.y 2 2   l : : > : : :.1.| R r t t t t N @.S.R.R.",
"x.F N e X.L.J.7X8X7X8X&X,.C , , A.W.J.J.J.m.  2 2 2   2 2     y y d.2X2Xd.d.d.d.d.y 2   W J > > > Z 1.,.8.] { X.:.x.w.b.S.0.*.5.",
"F & ^ x.~.(.8X7X7X8X8X-X*XZ.C > [ D.!.G.J.=XV.    2       y   y d.2X2X2X2Xd.d.d.d.y y 2   L K > > P ,.,.[ w 0 r ! z.x.n.@.B D F ",
"& o ~ I.~.8X7X7X7X7X7X8X&X&X` 9 ] k.L.(.Q.-X,Xe.b     y d.d.2 y d.2X2X2X2Xd.d.d.d.d.y y 2   z V V ' G.G.A.U 0 0 U 9.q.>.~ N B F ",
"F $ @.x.1X7X,X-X7X7X7X7X7X-X,.` , , 0 H.(.,X,X8Xb   d.d.d.d.y d.d.d.2X2Xd.d.d.d.d.d.y y 2 2   %.Z.Z.F.T.*XF.A.J.K.K.k.:.O.@.@.D ",
"5.^ Q P.-X,X,X-X=X*X5X*X7X&XT.[ , q 0 o.L.,X1Xe.  d.d.d.2Xd.d.d.d.d.d.d.d.d.d.d.d.y y y 2 y u   OX5X7X5X7X7X*XR.E.J.H.9.q.l.S.*.",
"0.^ e +.(.=XR.T.F.$X=X7X7X7X&XG.A 9 w w k.L.V.  d.2Xd.2X2Xd.d.y d.d.d.d.d.d.d.d.f.y y 2 y y f.i   oX5X5X5X7X7X7X7XA.!.8.9.l.:.@.",
"D.#.d o.H.=XR.Z.i.$X*X*X1X7X7X,.9 0 w 0 w w *   2Xd.d.2Xd.d.d.y y d.d.d.d.d.d.f.y y   y y 2X2Xd.i   OX*X5X*X5X5X5X7X*XJ.8.9.l.q.",
"D.;.l w Y J.A.p.T.=X5X5X7X=XZ.1.9 ; r A t w   2X2Xd.2Xd.d.y y y   y y d.d.d.y y y 2 2 y d.2X2X2Xd.i   _.&X$X&X5X5X5X7XT.G.H.9.l.",
"D.<.f w { J.A.F.$X*X5X5X7X7Xa.>.Z ; r k.X.R   2Xd.d.d.d.y y y y 2   2 y y y y 2     y d.d.d.d.d.2Xd.i   q.|.$X5X<X5X5X$XR.J.8.8.",
"S.{.@.e w J.A.R.-X5X7X=X=XF.1.[ A , r 9.k.q.  f.d.d.y y y y 2 2 2               +   i i d.d.d.2Xd.d.y    .q.c.+X$X<X5X5X$XR.,.8.",
"S.b.+.e w J.J.=X-X5X7X7X7XZ.U ] U q A 8.k.x.l   y y y y 2         2 2   e.| L < , j     y d.d.d.2Xd.f.y   3.0.c.@X<X1X5X$XR.a.8.",
"9.S.@.d e L.J.=X7X7X7X7XF.U , A 1.8.~.L.(.~.l.L           h     2 2 3   T X.e w A 2.  2   y y f.d.d.y y   %.q.6.q.@X<X7X5XT.A.[ ",
"4.4.@.d e P.(.,X,X7X7X7X!.] q 0 1.K.L.~.8X,X,X XQ.'.e.x k     y y 2   z X.e w P k.:.|   2     y y y y    .0.q.q.q.{.%X<X5X%XR.,.",
"4.6.#.N e ^.^.,X8X7X8XJ.(.| U { 8.1X8X8X8X8X8X,X).,Xu.      y   y y   P t e R l.:.t A   2 y 2           %.M.M.q.q.|.$X5X5X$XA.2.",
"G.F.<.N N /. X1X8X8X8X-XL.{ { { Y 1X1X,X9X9X9X8X8X8X8X    u       y   w Q X.z.l.o.r R L   y y y 2     W =.i.y.q.t.+X%X1X7X*X*XH.",
"R.Y.*.B f /..X1X1X7X8X(.K.r w w r ,X1X1X1X7X1X7X8X8X8X6X  . e.  y   ..l.l.l.l.:.:.X.O.|   y     u     c   t.C.i.C.N.&X5X7X&XR.H.",
"W.R.*.B N }./.,X1X8X8X,Xo.q @ @ w K.,X,X,X,X1X1X1X1X8X8X8X6Xu.      a.P.8X1X1Xl.l.:.l.{   a   E   c       u.Z.C.C.Z.=X=X7X=X,XL.",
"w.{.5.D B .X^.,X1X,Xl.).{ @ X O 1 @.^.^.I.P.P.).,X1X8X1X9X1X1XL.8.z.P.7X1X1X9X8X/.b.b.X.<     u.r.    u.Z.a.H.F.F.T.,X7X8X=X,Xl.",
"9.W.7.F B {.,X1XP.Q X.P.-.f @ # e } /.^./.P.I.P.^. X1X7X,XX.X.l.l.P.P.9X1X8X9X9X.XI.^.O.d l L.^./.~.L.P.K.H.H.H.G.A.,X,X8X,Xk.X.",
"_ q.9.D B 2.n.b.1 e e o.l.X.:.X.f f ^.^.I.I.I.I././..XP.t Q Q :.l.O.:.5X1X9X9X9X9X/./.:.f f I..X/./.^.^.~.K.L.H.J.L.-X1X8X1X^.>.",
"_ q.9.H B N f >.d e R -.r t @.X.d f ^.1X`.I././..X1Xb.@.d d Q b.@.t n.,X5X8X9X9X9X.XXX~ N f 4./..X/./.^.^.P.K.~.L.~.,X).:.^.O.g ",
"I =.0.0.S N d e w A :.o.r r O.X.f f f ].1X/.}.1X`.n.N f f ~ b.n.~ @.b.].1X5X9X0X9XXX#X>.S f N >.{.1X#X^.`.^.^. X Xl.:.x.Q >.n.^ ",
"I ( 4.|.S.O.t r r 9.K.8.6.:.l.q.f f g f n.Y.S.S.B B B S ^ S.n.<.N @.].].].1X5X0X9X#X/.S.4.G D N 4.n.b.`.1XXXn.b.b.O.O.f N ~ 2.$.",
"=.9.8.S.n.x.l.k.L.J.!.!.J.K.l.l.>.g f B B D D F D G F / 9.Y.U.G $ 4.{.}.}.5X5X5X1XU.{.8.8./ D D B <.<.<.n.n.@.#.f l N N ~ C.8.$.",
"q.9.1.>.c./.~.L.Q.=XR.=X=XJ.(.l.l.1.^ G / $.$.H K &.q.R.W.G.Y.F & H [.5X#X#X[.D.$.4.<.4.F F D D H B B B B B B N f D ^ 8.U.}.R.$.",
"l.H H ! z.L.8X8X7X7X7X7X7X8X!.K.P.n.4.*.4.H &.W.W.W.W.M.7.x.W.&.F J q.R.{.R.5.M F &.z.$.F F H H 0.6.F F F G B ^ 8.b.S.S.R.8.4.9.",
"*.H ^ O.l.,X,X7X5X5X5X5X7X5X8X~.P.<.^ g M & M w.(.(.M.b._ w.(.M.=.I I I I I J K &.J.R.9.9.&.&.6.Y.D.R.D.Y.D.C.D.D.D.D.Y.0.6.9.9."
};
