/* XPM */
static char *result[] = {
/* columns rows colors chars-per-pixel */
"64 64 215 2 ",
"   c #000000",
".  c #080805",
"X  c #302C04",
"o  c #454918",
"O  c #474A26",
"+  c #51562E",
"@  c #575A34",
"#  c #5C6636",
"$  c #577430",
"%  c #656826",
"&  c #696B26",
"*  c #6D722A",
"=  c #646C34",
"-  c #6D693A",
";  c #716D3D",
":  c #6B793B",
">  c #757737",
",  c #3A4B4F",
"<  c #364951",
"1  c #3A4D53",
"2  c #58675E",
"3  c #6E6C42",
"4  c #716D42",
"5  c #697841",
"6  c #757142",
"7  c #797642",
"8  c #7C7945",
"9  c #757448",
"0  c #797649",
"q  c #7D7A4C",
"w  c #56736B",
"e  c #517474",
"r  c #587A76",
"t  c #5C7C79",
"y  c #9D2424",
"u  c #807D47",
"i  c #807E4A",
"p  c #817E51",
"a  c #008100",
"s  c #14850D",
"d  c #3A9928",
"f  c #4F9334",
"g  c #6C8F3A",
"h  c #5BAC3F",
"j  c #76934B",
"k  c #6FAC51",
"l  c #6A8579",
"z  c #728C7B",
"x  c #79927C",
"c  c #9D8D00",
"v  c #888C43",
"b  c #84824D",
"n  c #88854F",
"m  c #8F9246",
"M  c #919647",
"N  c #93964A",
"B  c #95994C",
"V  c #999D4E",
"C  c #858154",
"Z  c #898654",
"A  c #8B8953",
"S  c #888559",
"D  c #8C895A",
"F  c #908D55",
"G  c #918E5E",
"H  c #8B9C5F",
"J  c #999757",
"K  c #93915C",
"L  c #99955E",
"P  c #A19E5D",
"I  c #85AD5B",
"U  c #9EA152",
"Y  c #8BB35C",
"T  c #94B75D",
"R  c #A2A556",
"E  c #A4A35B",
"W  c #A6AA5B",
"Q  c #A9AD5D",
"!  c #ADB15F",
"~  c #8F8B60",
"^  c #949361",
"/  c #989863",
"(  c #9C9A62",
")  c #9C9D69",
"_  c #A09D63",
"`  c #A29E6E",
"'  c #9AA367",
"]  c #8EB167",
"[  c #9BB767",
"{  c #A4A165",
"}  c #A4A46A",
"|  c #A9A56B",
" . c #A7A868",
".. c #ACAA6C",
"X. c #B0AE69",
"o. c #AEB263",
"O. c #A3BB6B",
"+. c #B3B865",
"@. c #B4B36C",
"#. c #A6A472",
"$. c #ABA775",
"%. c #A6A970",
"&. c #ABAC72",
"*. c #ABA778",
"=. c #AEAA7A",
"-. c #B1AE72",
";. c #B2AE7D",
":. c #A4B376",
">. c #AEB376",
",. c #B3B375",
"<. c #B8B672",
"1. c #B6B874",
"2. c #BBBC74",
"3. c #B4B37B",
"4. c #B9B67A",
"5. c #B6BA7A",
"6. c #BBBC7C",
"7. c #C0BD7E",
"8. c #97C76B",
"9. c #99C778",
"0. c #A3C56E",
"q. c #A8C672",
"w. c #BEC077",
"e. c #B2C579",
"r. c #BEC17D",
"t. c #B6C978",
"y. c #A9D37A",
"u. c #C2C47A",
"i. c #C6C97E",
"p. c #C9CD7F",
"a. c #779285",
"s. c #6B95A7",
"d. c #6E98A8",
"f. c #759BA3",
"g. c #7DA1A6",
"h. c #819B85",
"j. c #8AA497",
"k. c #B6B381",
"l. c #BAB683",
"z. c #B6B985",
"x. c #BDBA85",
"c. c #BDBC88",
"v. c #85A7AC",
"b. c #C1BE83",
"n. c #C1BE8A",
"m. c #BEC281",
"M. c #BCCA80",
"N. c #BEC18C",
"B. c #ABD787",
"V. c #B8DA86",
"C. c #B5DB94",
"Z. c #C3C482",
"A. c #C6C985",
"S. c #CACC84",
"D. c #C5C38C",
"F. c #C9C78D",
"G. c #CACD89",
"H. c #CDD183",
"J. c #CED18B",
"K. c #CADC8B",
"L. c #D1D487",
"P. c #D2D58D",
"I. c #D6DA8B",
"U. c #DADD8E",
"Y. c #C5C690",
"T. c #C9C791",
"R. c #C6C992",
"E. c #CBCC94",
"W. c #CCCE98",
"Q. c #D1CE97",
"!. c #CDD196",
"~. c #CED299",
"^. c #D3D690",
"/. c #D6D992",
"(. c #DADD95",
"). c #D2D49B",
"_. c #D5D89E",
"`. c #C9E599",
"'. c #D2E692",
"]. c #DDE194",
"[. c #D5E897",
"{. c #DEE299",
"}. c #E4E997",
"|. c #E5E997",
" X c #E2E59C",
".X c #E6E99E",
"XX c #D6DAA0",
"oX c #DADDA3",
"OX c #CAE6A4",
"+X c #DDE1A5",
"@X c #D7E7A8",
"#X c #E7EAA1",
"$X c #EBEDA4",
"%X c #E2E7AA",
"&X c #EEF1A6",
"*X c #ECF3A9",
"=X c #F1F3A7",
"-X c #F2F5AA",
";X c #F6F9AD",
":X c #F9FCAF",
">X c #F1ECB2",
",X c #E6F4B4",
"<X c #F6F7B5",
"1X c #FDFEB3",
"2X c #FAF5BA",
"3X c #FFFEBB",
"4X c #A6CFDF",
"5X c #E9F5C3",
"6X c #FFFFC4",
"7X c #F5FBCB",
"8X c #FFFFCB",
"9X c #FFFFD3",
"0X c #FFFFDA",
"qX c LightYellow",
"wX c white",
/* pixels */
"@.~ o. .n./.).;X:X;X3X6X8X6X8XD.p.;.' | i b A D 7.7.G.7.K K m.E.4.A n n C W p R R %.x.%.| | R U | l.l.4.k.3.k.3.3.k.3.l.l.%.W W ",
"G D @ @ { /.XX:X1X:X8X8X8X6X8XA.S.;.3.} q + g S @.<.o.F v ^ E.E.T.5.D.n.c.3X9X/./.4.l.l.} _ { V } 3.l.3.3.H.J.!.~.G.H.3.k.} q p ",
"v F A @ @ (.^.^.;X<X:X;X8X8X8Xi.=.=.;.} U q ..D.n.@.n F A 5.}.5.Z.D.6X0X0X0X0X9X0X0XJ.~.P.L.3.} _ P ;.;.3.H.E.=XR.=XH.S.H.;.0 q ",
"v D o.p i /.XX^.J.;X-X:X&XR.^ / =.&.=.3.4.4.c.n.n.<.n i S -.>.Q ..c.3X3X9X9X8X8X8X8X8X0XG.L.;._ ; 4 ;.;.S.G.8X8X8X8X8X=XE.;X( 9 ",
"o.X.S C p -./.^.P.J.;./ & % - - / =.;.;.3.3.k.l.n.n.$.p p ,...p R 3X3X3X9X8X8X8X6X8X8X8X1X8X/ 4 ; 4 ) =.=X8X8X8X6X8X3X8XD.=Xp.L ",
"D.X.3.p i | (.1X1X;.L ; - = - F &.Z.A.S.S.H.3.} 4.b.b.b.x.U.R 8 0 1X1X1X1X1X1X:X8X;X8X8X:X8X4 - ; B &.i.&X8X8X8X6X=X$X8X8X$X$Xp.",
"%X,.]...i &.x.l.' _ ; ; - m J u.Z.8X8X8X8XG.H.H.;.4.k._ %.6.7 8 7 ~.:X1X1X-XA.&X;X8X8X6X8X&.L N M ( $.A.&X6X6X3X6X$X$X$X3X6X#XA.",
"{.$.n.$.i u 8 _ _ 6 4 B / ..A.A.8X6X8X8X8X8X8XS.G.S._ ; V ( 6 6 3.~.E.G.S.i.A.*X;X;X;X6X6X*.&.=.$.$.$.A.6X6X6X2X$X2.{.2X3X6X.Xn.",
"(.n.n.&.i u 8 8 7 ; 9 ) *.*.A.8X8X6X6X8X3X8X8X8X8XS.S.B L _ ; 6 H.E.G.S.S.F.R.;X;X8X8X8XZ./ =./ / *.&.Z.8X6X6X6X$X/ 1.#X<X3X6Xc.",
"(.n.%.x.l.` 0 V } _ B / *.*.;X8X8X6X2X6X2X6X8X6X8X8X=X$.S.( ; ; ) S.G.G.A.G.Z.:X8X6X8X8XS.&.L 4 4 &.$.i.6X6X2X$X X<.,.{. X>X3Xz.",
"(.x.%.l.l.P.k.3.k.( 4 ; =X1X;X;X8X8X*X*X=X=X&X8X6X6X8Xi.S./ 4 - ; J.A.A.x x z h.j.7X6X=XS.*./ ; 4 / *.i.3X=X&X$X X<.1.(. X3X3X{.",
"/.I.#.1X3X1X3XL.L.B ; ; E.=X-X>X=X=X#X6.5..X$X6X2X6X8X8XY.p.J ; - t.z z d.4X4Xs.4Xt z e.S.;.L 4 4 &./ *.;X=X&X.X5.,.@.{. X>X1X{.",
"/.| 1X1X3X1X3X9X;.B ; / S.=X$X;X-X#Xc.w.2.5.z.$X3X6X2X8X$XY.H = = l f.e   4X4X4Xs.4Xs.  e.;.=./ ( -.N N &X$XN.N.5.1.1.k. X>X3X(.",
"/.P 1X3X1X8X8X9X;.B ; $.S.D.Z.Z.u.w.6.6.5.6.5. X$X2X3X2X,Xz t w e 4Xe   c   s.4Xs.4Xs.    ' ;.k.;.L - L A.Y.N.6.6.1.3.,. X X3X(.",
"_.l.).1X8X9X8X0X;.N ; G.E.Z.Z.Z.Z.x.u.6.5.5.3.:.'.v.g.a.a.s.s.e 4Xe   c     s.s.e s.s.c   5 V 3.' 6 ; L i.Z.Z.m.5.5.1.,..X3X1X{.",
"l.U ^.1X1X9X8X9X*.4 - G.G.G.S.Z.Z.b.6.6.5.4.[ f.f.4X4Xs.s.e < 4Xd.e       s.s.s.e s.s.      ; k.P 6 ; =.G.Z.r.u.r.5.5.k. X.X3X1.",
"&.U P.1X1X8X9X8X) & L G.Z.G.u.A.Z.Z.6.6.O.I f.4X4X4Xs.e e < s.s.s.s.e e s.s.s.e e e s.s.s.  V L.} 4 ; S.-XZ.Z.m.6.6.5. X#X3X8X<.",
"i { _.1X8X9X8X$.^ & &.G.S.i.S.u.u.b.b.[ f.f.4X4Xs.e e e < e s.s.s.s.s.s.s.e e   wX  wXe s.  :XP.} 9 ; ) G.Z.Z.u.r.6.6.{.3X3X3X/ ",
"i | 1X1X9X8X;XG.m - F.E.G.Z.S.u.u.Z.O.f.s.s.s.s.e e e < e s.s.s.s.s.s.e e   wX  wX  wXe e   3X0XP.B 4 J Z.A.u.2.w.2.c.$X#X3X8X) ",
"b | 1X9X9X8X;XS.3 - E.G.F.S.S.S.G.O.f.e e e e s.e e < < s.s.s.s.s.s.e e                   '.1X9XJ._ ; / S.Z.A.u.w.w.r.$X6X2X6X` ",
"b | 3X1X9X8X;XS.- ; G.A.G.G.G.G.w.z e e e < < s.s.< < s.s.s.s.e e s.s.        y y     wX. *X9X9X:X_ & L F.Z.Z.u.w.r.6.&X3X6X8X` ",
"Z ..3X0X8X9X-X=.& ; G.G.G.G.G.G.q.t e e < < s.s.s.s.s.s.s.s.e < e e e s.e   y y y y     V.8X9X9X;Xk.% L A.Z.Z.7.u.r.x.&X&X3X6X` ",
"n ..3X0X9X9X;X=.- / =.W.G.G.G.e.z w e < < s.s.s.s.s.s.s.e e < < <     e s.s.      y y   V.:X9X8X;Xk.% L A.Z.Z.Z.m.r.r.=X6X6X6X#.",
"A >.3X3X8X9X;XH.; / ) W.W.G.!.O.t e < < s.s.s.s.s.s.e < < < <     s.e     e s.s.e   y y   C.y 7X;X*.% F Z.Z.Z.7.Z.m.N.-X-X2X8X$.",
"A -.1X0X0X9X:XJ.B ; ; L :XJ.t.2 , < < < s.s.s.s.e < < <         e 4Xs.e e           < y y y OX7X    = F S.Z.Z.u.Z.r.$X-X8X8X8X$.",
"A ,.3X3X8X9X:X;X-.4 ; 6 ( :Xe.  , < < s.s.s.e < < <     e e   e < e 4X4Xs.e e     < < <   `.9X8X  j.  j Z.t.w.u.u.u.&X8X8X8X8X=.",
"A ,.{.3X8X0X9X~.P.; 6 6 6 ~.t.. s.s.s.s.s.e < < <   4X4Xs.e   e 4Xs.s.e <       <   < <   `.6X@Xy.  s.  ]     r.u.Z.;X;X8X8X;X' ",
"G ,.{.3X3X8X9X:X:X_ 9 6 6 J.M.  s.s.s.s.e < < < <   4X4Xs.e < e e 4X4X4Xs.e <   < s.    j *XB.      s.  Y z   u.S.A.1X8X8X9XP._ ",
"G A +X3X0X0X9X~.J.;._ 4 6 Q.A.  e s.s.e < < < <   4Xs.s.s.e < e s.e s.e e e <   < e s.  j [.  v.t s.s.s.  v.  M.G.W.1X8X8X8XL.{ ",
"G A %X6X3X8X9X).).;._ 6 6 L.i.. < e e e < < < <   s.s.e e e e < s.s.s.s.s.<   s.e < e s.  q.    C.< s.s.s.  e.G.G.J.1X1X0X0XI.| ",
"K A %X3X0X0X9X:XJ._ B 9 6 Q.L.q.  < < < < < <   e e e e   e s.s.e s.s.e < e s.s.s.e e e   y.'.`.C.< s.e   q.G.J.J.J.1X3X0X1X(.W ",
"^ A +X6X3X0X9X:X;.6 * 4 4 Q.Q.u.. 1 < < <     4Xs.      a   e s.s.s.s.s.s.s.s.s.e e < e e   B.B.  e e   j J.^.P.^.^._.3X3X(.].W ",
"K A 3X6X0X9X1X:X/ o X O ; P.P.S.q.    < <   4Xs.e s.d.  a   e e e e s.s.e e e e e <   e e   8.  r r   j * L.).P.P././.3Xn.].|.C ",
"G A }.3X8X0X1X~.k.O X O 4 _ J.J.L.A.[       s.s.s.    d.  a     s.s.s.s.s.s.e < <     < e r   t e   I B 9 } P.1XXXXX1XU.b -.-.D ",
"G A >.+X0X0X1X;XS.( 4 & ; _ ;.W.J.S.S.O.Y   e   s.  d     s   e e e s.s.s.s.s.e <   8.  , e e e   OX=.V 7 7 7 l.l.x.n.b b ,.5.o.",
"+.A n n._.P.P.G.S.S.;.L ; ; ) S.W.G.J.A.O.  r e   s.  k d   e e s.s.s.s.e e s.e   y.N.I   w e 1   ' S.) 7 6 7 7 8 u i i b ,.E.z.",
"6.A n b { /.~.1XH.S.8X=.4 ; - ; W.J.G.G.A.T     8.    h   e s.4X4Xs.s.s.s.s.e <   B..X$Xj       $ 3 -.k.' V q q q q i i ..D.E.E.",
"x.Z b 8 { P.G.8X0X8X0X-X*.N 4 ; L.E.J.G.G.W.'.C.,XB.k   < s.4X4X4X4Xs.s.s.s.s.e <   I N.6.j # $ = N =.;.k._ _ _ %.x.x.Z.D.5.@.<.",
"F = Q c./.).8X9X8X9X9X:X-XS.N ; ) G.~.J.J.:X:X<X@X9.<   e s.4X4X4X4Xs.s.s.s.s.e < 1   :.u.#.K = - L $.;.) 6 6 0 E l.x.c...n Z A ",
"# X W U.P.9X9X8X8X8X8X8X=X=X/ 3 / k.J.).J.:X1XB.< < e e s.s.s.4X4Xs.s.s.s.s.s.e e <   Y u.{ / v m / S.G.S.L 6 9 P 3.x...W b n A ",
"A @ ..x.1X8X:X:X8X8X8X8X8X1X=.L ; 4 6 P.).*Xy., e s.s.s.s.s.s.s.s.s.s.s.s.s.s.e e < <   j =.A.i.A.A.S.R.-XA.G.H.J.L.x.%.| ..X.Z ",
"4.Q R U.1X1X1X:X;X;X3X-X8X&XR.) ; 6 9 } 0., < s.s.4X4Xs.e s.s.s.s.s.s.s.s.s.e e e < e t   H N.*X8X8X8X8X8X8X-XE.E.J.H.3.4.c.D...",
"1.Q u %.).;XE.R.Z.&X;X8X8X8X=XS.V 6 6 > < d.4Xs.4X4Xs.s.e e s.s.s.s.s.s.s.e e e e e s.s.r     K.6X8X6X3X8X8X8X8X8XS.!.3.,.x.&...",
"F...u { L.;X!.Z.i.&X-X-X6X8X8X=.4 4 7 $ < 4Xs.s.4Xs.s.e e < e s.s.s.s.e e e e   e s.4X4Xs.s.t   OX6X8X=X8X=X6X8X8X8X=XH.3.3.x.6.",
"F...j 8 P J.S.i.R.-X6X8X8X;XA.;.9 * 6   4X4Xs.4Xs.s.e e e   < e e e e e e e < < e s.s.4X4Xs.s.t   '.*X=X*X-X=X6X6X6X8XG.G.H.,.x.",
"D.-.u 7 _ J.S.A.&X-X3X8X8X8Xp.=.N * 9   s.s.s.s.e e e e < <             <     e e s.s.s.4Xs.s.e   K.$XN.r.#X&X6X2X6X8X&XE.J.3.3.",
"F.]...7 7 J.G.E.:X8X8X:X;XA.=.) B 6 6   r s.e e e < < < < < <   8.q.0.0.0.[ k   e e s.s.s.4Xs.s.r   O.2.w.w.c..X&X2X6X8X&XE.;.3.",
"F.n...8 7 J.J.-X;X6X8X8X8XS.L ( J 9 B ]   e e <           < < 2   M./.XX_.k._ $     e e s.s.s.s.e   [ u.r.5.5.c.$X<X6X6X&XE.S.-.",
"4.D...8 7 I.J.;X8X8X8X8XS.L ; B ;.3.P.P.9.      f f f   < < < 1 . 1XoXl.} { 7 9 g     e e e e e e   [ m.6.6.5.2.5.&X2X8X6XF.S.( ",
"<.,...i 8 I.).1X1X9X8X8XW./ 9 9 ;.L.P.^.0X[.`.I k .   e e < 1   > x.%.{ { 8 7 U [   <     e e e   Y r.Z.u.5.6.6.5.|.=X2X8X&XE.>.",
",.3.@.u 8 (./.1X9X8X9XJ.).' L _ k.3X9X0X0X9X5X      e   e e   : q 8 { { q 8 U l.} $   e <       Y e.Z.u.m.x.6.6.r..X&X8X8X&XG.=.",
"G.F.@.b b (._.3X0X8X9X:XP._ _ { P 3X1X1X9X0X9X    l       l . 5 0 7 8 8 U { l.l.} 5   e e e <     [ i.u.u.u.u.6.w.#X-X3X8X&X-XH.",
"E.F.@.n b (.oX3X3X8X0X).L.0 7 7 0 1X3X3X3X8X3XOX    B.  e   t.I.%.4.x.k.l.z.l.%.%.'   e     e     w   t.p.u.Z.Z.x.D.*X6X8X=XE.H.",
"Q.E.@.n b {.(.1X3X0X9X1X} 6 O O 7 L.1X1X1X1X3X3X*X[.OX      J.I.4.l.I.I.8X3X3Xl.z.%.. r . f   t . .   t.S.S.S.Z.Z.A.;X:X8X;X1XP.",
"r.}.<.A n oX(.3X3X1Xl.XX_ O X o > .././.I.I.I._.1X3X9X*X7X3X3XI.l.l.I.9X3X3X0X8X/.x.%.    H 8.  . e.t.J.J.S.S.G.A.R.1X8X8X;X1Xl.",
"6.Q.4.n n |.1X1XI.R { I.| 8 O + q _ (.(.(.I.U.I./.XX3X8X3X{ { l.x.I.I.0X3X0X0X0X+XU.U.} 8 i (.I.H.I.^.^.L.H.H.S.G.H.1X1X9X1Xk.{ ",
"^ 6.1.Z n ,.n.x.> > 0 %.l.} #.{ u u /./.U.U.U.U./.(.XXI.q R R ..x.{ %.3X3X0X0X0X0X(.(.&.u i U.oX(.(./.(./.L.L.S.J.P.1X1X0X3X/.&.",
"^ 6.3.D n b u &.u u U } 7 q ..{ u i (.3X(.U.(.(.+X3Xn...u u R n...q c.3X6X0X0X0X0X+X+XW i i &.].oX(.(.(./.I.I./.P.^.1X_.} (.| p ",
"L +.6.5.S b i q u V #.} 0 0 } { i i i (.3X X X3X|.n.b i i W b.n.R ..b.{.3X3X0XqX0X+X%X..C i b &.|.3XoX(.(././.XXXXl.%.b.U &.n.Q ",
"K ~ ,.{.D.| q 7 6 4.L.k.4.} x.6.p i p n D.n.D.D.n b n n Q n.n.-.n ..{.{.{.3X8XqXqX+X].D.3.S Z b ,.n.Z.].3XoXb.b.x...| u C W >.o.",
"+.6.;.D.n.c.l.k.P.J.!.!.J.L.l.l.&.p p i n Z Z A Z S A o.5.F.D.S @ ,.|. X X6X8X3X3XD.|.3.3.! Z Z n -...@.b.D...| j b b b Q D.3.o.",
"x.5.-.-.c.(.P.P.!.;XE.;X:XJ.).l.x.-.Q S ! o.o.D D +.6.E.E.E.E.A # D |.6X%X%X|.F.o.,.,.,.D A n A D Z n Z n n n n i C Q 5.D.}.R.o.",
"l.~ S Q z.L.9X8X8X8X8X8X8X8X~.L./.n.-.<.<.D +.Q.Q.Q.Q.m.2.x.Q.+.A F 6.E.}.E.<.v A o.6.o.A A D D 5.,.Z Z C Z n Q -.n.D.D.T.5.,.4.",
"@.D Q | l.3X1X8X8X6X8X6X8X8X9XP.I.-.Q p v # v 6.).).Z.7.^ 7.).Z.+.G K K K K F G @.J.W.5.,.+.o.<.E.T.E.G.F.F.F.F.F.F.F.T.5.<.4.5."
};
