/* XPM */
static char *result[] = {
/* columns rows colors chars-per-pixel */
"64 64 216 2 ",
"   c #010100",
".  c #0A0A05",
"X  c #0E0E09",
"o  c #14140C",
"O  c #1D1D17",
"+  c #322D07",
"@  c #434A17",
"#  c #484B27",
"$  c #51562E",
"%  c #565A33",
"&  c #585B35",
"*  c #4E742A",
"=  c #527B2D",
"-  c #5D6139",
";  c #646624",
":  c #696B26",
">  c #71742A",
",  c #686637",
"<  c #6D6A3A",
"1  c #716D3C",
"2  c #6B7032",
"3  c #74753A",
"4  c #3F4D4F",
"5  c #394A52",
"6  c #46534A",
"7  c #555B4A",
"8  c #465555",
"9  c #525E5A",
"0  c #5D6858",
"q  c #6D6941",
"w  c #716D43",
"e  c #757142",
"r  c #797642",
"t  c #747A42",
"y  c #7C7945",
"u  c #767249",
"i  c #797649",
"p  c #7D7A4C",
"a  c #69715C",
"s  c #597368",
"d  c #527373",
"f  c #5C7B76",
"g  c #66726C",
"h  c #9C2A29",
"j  c #A0322F",
"k  c #807D47",
"l  c #807E4A",
"z  c #817E51",
"x  c #7B8F3C",
"c  c #709549",
"v  c #7DA657",
"b  c #77AF54",
"n  c #68857D",
"m  c #9C8C00",
"M  c #F7F708",
"N  c #888C43",
"B  c #84824D",
"V  c #88854F",
"C  c #8D9246",
"Z  c #8F9B48",
"A  c #919647",
"S  c #93964A",
"D  c #959A4C",
"F  c #9A9D4F",
"G  c #858154",
"H  c #898654",
"J  c #8B8953",
"K  c #888559",
"L  c #8C895A",
"P  c #918D55",
"I  c #918E5D",
"U  c #899956",
"Y  c #999656",
"T  c #93915C",
"R  c #99945E",
"E  c #A09D5D",
"W  c #9DA152",
"Q  c #8BB45A",
"!  c #8FB45C",
"~  c #A2A556",
"^  c #A4A35B",
"/  c #A6AA5B",
"(  c #A9AD5D",
")  c #ADB15F",
"_  c #8E8A60",
"`  c #908E60",
"'  c #949461",
"]  c #9A9660",
"[  c #969963",
"{  c #9C9A62",
"}  c #9B976A",
"|  c #9C9D69",
" . c #A19D63",
".. c #A29E6E",
"X. c #9CA568",
"o. c #97B966",
"O. c #A4A165",
"+. c #A7A867",
"@. c #A4A46A",
"#. c #A9A56B",
"$. c #ACAA6C",
"%. c #B0AE69",
"&. c #AEB263",
"*. c #A2BC6C",
"=. c #B3B865",
"-. c #B4B36C",
";. c #A6A473",
":. c #ABA774",
">. c #A6A970",
",. c #ABAC72",
"<. c #ABA778",
"1. c #AEAA7A",
"2. c #B1AE72",
"3. c #B2AE7D",
"4. c #AEB376",
"5. c #ADB27B",
"6. c #B3B375",
"7. c #B8B672",
"8. c #B6B874",
"9. c #BCBC74",
"0. c #B4B37B",
"q. c #B9B67A",
"w. c #B6BA7A",
"e. c #BBBC7C",
"r. c #C0BD7E",
"t. c #9FC06B",
"y. c #A7C26B",
"u. c #A9C372",
"i. c #BEC077",
"p. c #B6C67B",
"a. c #BEC17D",
"s. c #B1D47C",
"d. c #C2C47A",
"f. c #C6C97E",
"g. c #CACD7F",
"h. c #73908B",
"j. c #6B94A5",
"k. c #779BA6",
"l. c #7FA4AA",
"z. c #8EA99D",
"x. c #B6B381",
"c. c #BAB683",
"v. c #B6B985",
"b. c #BDBA85",
"n. c #BEBC88",
"m. c #A1B59A",
"M. c #89AAAB",
"N. c #90AFAF",
"B. c #C1BE83",
"V. c #C1BE8A",
"C. c #BEC381",
"Z. c #BEC28C",
"A. c #BECA8D",
"S. c #BFDD86",
"D. c #C3C482",
"F. c #C6C985",
"G. c #C9CC84",
"H. c #C5C38D",
"J. c #C9C78D",
"K. c #C7CA88",
"L. c #CACD89",
"P. c #CDD183",
"I. c #CED18B",
"U. c #D1D487",
"Y. c #D2D58D",
"T. c #D6DA8B",
"R. c #DADD8E",
"E. c #C4C690",
"W. c #C9C791",
"Q. c #C6C992",
"!. c #CBCC94",
"~. c #CCCE98",
"^. c #D1CE97",
"/. c #CDD196",
"(. c #CED299",
"). c #D3D690",
"_. c #D6D992",
"`. c #DADD95",
"'. c #D2D49B",
"]. c #D5D89E",
"[. c #CCE295",
"{. c #DDE194",
"}. c #D7E997",
"|. c #DEE299",
" X c #E4E997",
".X c #E5E997",
"XX c #E2E59C",
"oX c #E5E89E",
"OX c #D6DAA0",
"+X c #DADDA3",
"@X c #C9E5A2",
"#X c #DDE1A5",
"$X c #DDE9A9",
"%X c #E7EBA1",
"&X c #EBEDA3",
"*X c #E1E5A9",
"=X c #E5EAAC",
"-X c #EEF1A6",
";X c #EEF1A8",
":X c #F1F3A7",
">X c #F2F5AA",
",X c #F6F9AD",
"<X c #F9FCAF",
"1X c #F1ECB2",
"2X c #EBF6B8",
"3X c #F8F6B6",
"4X c #FCFEB3",
"5X c #FFFFBB",
"6X c #A5CEDE",
"7X c #E6F4C1",
"8X c #FFFFC4",
"9X c #FFFFCB",
"0X c #FFFFD3",
"qX c #FFFFDA",
"wX c LightYellow",
"eX c white",
/* pixels */
"-._ &.+.V._.OX>X4X>X5X8X8X8X9XE.g.3.X.@.l B V L 7.q.^.r.T ' C.I.q.L H V G / z ~ ~ ,.b.,.@.#.~ ~ @.c.c.c.x.0.x.0.0.x.0.x.c.,./ / ",
"I L & & ^ _.OX3X4X4X9X9X9X8X9XF.G.3.3.#.y $ x K 7.7.=.P N ` !.W.W.0.H.V.n.5X0X_.).c.c.x.#. . .W  .q.q.0.0.P.I./.~.I.P.0.x.O.p p ",
"N I J & % `.).).,X4X,X>X8X9X8XF.1.1.3.@.W p ,.H.H.-.V J J w. Xw.D.H.5XqXqX0X0X0X0XqXI.(.U.I.0.@. . .0.x.0.G.!.>X~.:XG.I.G.0.i p ",
"N J &.z l _.OX).I.,X>X<X;XQ.' [ 1.,.1.0.q.e.b.V.B.6.V V H 6.5./ $.V.5X5X0X0X9X0X9X9X0XqXI.P.0.{ 1 w 3.1.g.!.9X9X8X9X9X-X!.,X{ u ",
"%.&.K z z ,._.).I.I.1.{ : ; < < [ <.3.3.3.0.c.v.b.V.,.G B 4.,.B ~ 5X5X4X0X0X8X0X8X9X9X9X4X9XR w 1 w | <.:X8X9X8X8X8X8X9XE.:XG.{ ",
"W.+.0.z l $.`.4X4X3.{ 1 < < < P :.F.F.G.G.P.0.@.q.c.c.V.b.R.~ y p 4X4X4X4X4X4X,X9X,X9X9X<X9Xw 1 1 S 1.f.;X8X9X9X8X;X&X8X8X&X&Xf.",
"*X0.`.2.l ,.c.c.X.{ 1 1 < C T f.F.9X9X9X9XL.L.P.0.q.x.E >.e.r r e '.,X4X4X>XF.;X,X8X9X8X8X<.R A A { <.F.;X8X8X8X8X&X&X&X5X8X&XF.",
"XX$.V.$.l k p  . .e w S { $.F.F.9X8X9X8X9X9X9XF.L.G. .e D  .e e 0.(.~.L.G.f.G.;X,X,X,X8X8X<.,.<.<.2.,.D.8X8X8X3X&Xe.XX3X5X8XoXn.",
"`.V.V.,.l k y y r e u | <.<.F.9X9X8X8Xh.n n k.M.8XG.G.D R  .w 3 G.~.L.G.K.F.Q.<X,X9X9X8XF.R <.[ { 1.,.F.8X8X8X5X&X} 6.%X1X5X8Xn.",
"`.n.,.c.c...i F @. .S ] <.<.>X8X8Xg n j.d j.6X6Xl.N.:X,.G.] 1 1 | G.L.G.F.F.F.,X9X8X9X9XF.,.R w q :.<.d.9X8X5X&X.X7.8.|.%X1X5Xv.",
"`.n.>.c.c.T.x.3.0. .w 1 >X<X;X;XO j.j.d j.j.j.6X  f N.C.G.{ w < < L.L.G.G.K.Q.<X9X9X9X:XL.:.R 1 q { <.f.5X;X;X&X|.7.8.`..X5X5X|.",
"_.T.;.4X5X4X5XU.P.D w 1 Q.&X}.. d eXd eXj.j.j.  M   d N.Q.f.R < < L.L.G.L.G.G.<X4X9XQ.!.L.3.] w e ,.{ <.>X>X;XoXw.8.-.|.XX1X5X{.",
"`.#.4X4X5X4X5X0X3.D 1 ] L.[.  eXd eXd eXd eXj.    m   6XM.Z.[ < < ~.G.I.G.L.I.,X4X9X,X,XP.3.3.] { <.S A ;X&XZ.n.w.8.8.x.|.1X5X`.",
").E 4X5X4X9X0X9X3.D 1 :.L.*.  eX  5   5   eXd j.j.    6X6Xn >.< < G.,XI.I.I.I.<X4X4XI.I.3.| x.3.1.{ 1 R F.H.Z.e.e.w.8.6.%X|.5X`.",
"].c.].4X9X0X9XqX3.S 1 K.!.F.Q   b         5   d j.j.j.j.6Xn a.< < 1 I.<XI.I.I.I.Y.0.Y.U. .u F 3. .3 1 R G.D.D.a.e.w.8.6.oX5X5X`.",
"b.W Y.4X4X9X0X0X1.w < p.p.F.F.D.Q   d           d j.j.j.j.j.8 L < 1 1 Y.<XI.].U. .r @.x. .> 3 x. .w 3 <.D.F.C.d.e.w.0.v.XXoX5X8.",
",.F Y.4X4X9X9X9X| : T h j u.d.p.b   d           d j.j.j.j.6Xj.8 C q e t Y.4X4Xx.r r #.x.>.i F U.@.w 1 G.:XF.D.C.e.e.w.|.%X5X8X7.",
"l @.'.5X9X0X9X1.' : ,.a.j h *.Q h h h h         5 d j.j.j.j.j.j.8 2 1 w e 0.c.r y y >.c.x.4X4XI.@.u 1 | F.F.D.9.a.e.e.XX5X5X5X| ",
"l O.4X4X9X0X,XL.S < K.!.j j h h h h h h h h     j.j.j.j.j.j.j.j.d 4 < 3 e r r r r W c.q.4X5X5X0XU.D w Y F.F.d.d.i.9.n.&X&X8X8X| ",
"B #.4X0X0X9X,XG.q < ~.K.C.h h h   d   h h     j.j.d     d j.j.j.5 d 5 9 e i i r W x.c.>.4X4X5X0XY. .w ] L.D.D.d.d.9.e.&X8X3X8X..",
"B #.5X5X0X9X>XG.< < L.K.L.C.C.p.  f         d d     d d   d j.j.5 5 d d 9 0.x.c.v.0.@.).5X4X0X0X<X| : R H.D.D.e.d.e.e.;X5X8X9X..",
"G $.5X0X9X0X,X1.: 1 L.L.L.L.I.I.o.  d d d d d   d d d j.  5 d j.j.5 5 d j.9 a  .@.F e @.4X9X0X0X<X3.: R F.D.D.D.e.d.b.&X&X5X8X..",
"V $.8X0X0X0X,X1.1 ] 1./.L.K.C.I.L.o.          d j.j.d j.j.  5 d j.j.j.j.j.j.5 7 { W e { <X5X0X0X>X1.: R F.D.D.d.D.a.D.;X8X8X8X;.",
"J 4.5X5X9X0X,XP.q ' X./.A.    L.L.G.i.o.  d   5 d d j.6X5 d 5 5 d d j.j.j.j.5 d a Y e { 4X9X0X0X,X3.: P D.D.D.B.D.a.Z.:X:X8X8X:.",
"J -.5X0X0X0X<XI.o . 1 U . z.  I.I.L.F.*.    d j.j.6X6Xd j.d 5     5 d d j.j.j.5 f 0 < | 4X8X9X9X,Xf.< P D.D.C.d.d.C.&X>X8X9X9X1.",
"J 6.5X8X0X0X<X,XX s 2   j.. u.I.I.L.f.!   d 5 5 d d j.6Xj.5 d   d     5 d j.j.5 d s 6 { ~.0X0X9X>XG.q R F.D.d.d.d.d.;X9X9X9X9X1.",
"J 6.{.5X0X0X0X(.. h.. j.d   u.I.L.L.o.  5   d d j.6X6Xd d j.d   j.6Xj.  5 d j.j.5 d 6 ; :.<X8X0X:XK.q I K.D.D.f.f.F.,X,X9X9X,XX.",
"I 6.|.8X5X9X0X<XX j.5 j.j.k.  p.Y.o.  d 5   5 5 5 d d j.j.d   d j.j.6X6X  5 d j.4 d d 6 ' <X9X9X4XG.R R L.K.K.f.F.F.<X9X9X0XI. .",
"I J #X5XqX0X0X(.I.. j.j.5   m.. o.  j.d 5 d   d d j.j.j.d 5 d d d j.6X6Xj.  d j.5 5 d 4 I <X<X0X0XL.] : 1.!.K.L.K.~.4X0X9X0XU.@.",
"I J *X8X5X0X0X(.(.. d j.  u.      j.j.d d d j.  5 d j.d 5 j.d   d d j.j.6X  5 d 5 5 d 6 I &X9X9XqXF.] q ] L.L.L.L.I.4X4X0XqXT.#.",
"T J *X8XqX0X0X4X/.. d d   p.p.y.  j.d d d j.j.j.j.j.j.j.j.j.j.d   d     j.j.  d j.5 5 4 P :X<X8X0X!.3.u { I.I.I.I.Y.4X5X0X4XR.^ ",
"T J *X5X5X0X0X4X3.e . d d   t.  d d d 5 d d j.j.j.j.j.j.j.j.d d     j.6X  j.j.  d 5 5   ; f.8X9X9X4XG.{ { I./.Y.Y.).OX5X5X`.{.( ",
"T J 5X8XqX0X4X<X| # +   d d   d d d 8     d d d d j.j.d d d d   j.j.d j.6X  j.j.  d 5   ; [ 4X,X9X,XL.{ > U.'.).)._._.4XV.{..XG ",
"I J  X8X0X0X4X(.0.+ @ . 5 d j.d f   . o.o.  5 d j.j.j.j.d 5   j.    j.j.j.  d j.  d d   , T F.9X0X0X0.D e @.U.4XOXOX5XR.G 2.2.L ",
"I J 8.+X0XqX4X<XG.{ w : . d d 5   p.F.G.o.  d j.j.j.j.j.j.d     5   j.  d j.  d   d   | , P $.W.4X0Xx.F r r r c.c.n.V.l B ,.w.&.",
"&.J B V.OX).Y.L.G.G.3.] <       A.L.L.G.!   d j.d d j.j.d d d d   j.  5   j.    5 f   a., , P 3.L.3.G.{ r e r r y y l B V w.W.e.",
"C.J V l @.Y.'.<XG.L.9X1.w 1 < 1 ~.L.L.o.  5 5 d j.j.j.j.j.j.d d     5 5   j.  5 5   [.&XP , , < < q 2.x.X.F p p p p l l ,.H.W.!.",
"e.K B l @.Y.L.9X0X9X0X>X1.A 1 1 P.~.I.o.  5 d j.j.j.j.j.6X6Xj.d d     5 5   5 5 5 . Z.Z.D.P < < < S 1.3.x. . . .>.c.B.D.H.w.-.7.",
"J % ( n.).'.0X0X9X9X0X4X>XF.S w | /.o.  5 d d j.j.j.j.6X6X6X6Xj.d   d       5     $X&Xn.d.;.I < < R 2.1.| w e i ^ c.b.n.$.V J P ",
"- @ ~ R.Y.0X9X9X9X9X9X0X>X>XR q { v   5 d d j.j.j.j.j.6X6X6X6Xj.d 5 j.j.d     s.[.8X%XD.d.#.' C C [ L.K.G.] e u E 0.b.,.~ B V J ",
"J % $.b.4X9X4X4X9X9X9X9X9X<X<.] *   5 5 d d j.j.j.j.j.j.6X6Xj.j.j.d j.j.j.j.  s.8X8XZ.Z.;.;.D.F.F.F.F.Q.>XG.G.I.Y.U.x.>.+.$.%.J ",
"7.( ~ R.4X4X4X,X,X,X8X>X9X:X!.c   d d 5 d d d j.j.j.j.j.j.j.j.j.j.j.j.6Xj.j.j.  [.9X;XE.' :.E.&X8X9X8X9X9X9X>X!.!.L.P.0.e.b.V.2.",
"q./ k +.'.,XQ.Q.F.&X>X8X9X9XS.  d j.d d 5 d d j.j.j.j.j.j.j.j.j.d j.j.6X6Xj.6Xj.  Z.E.F.;.D.&X&X9X9X8X8X9X8X9X9X9XG./.x.q.c.,.$.",
"J.%.k O.U.,X!.G.f.;X>X,X5X$X  d j.6X6Xd d   d d j.j.j.j.j.j.j.d d j.j.j.6Xj.j.6X  }.;Xf.<.F.F.8X8X8X9X>X8X>X8X8X9X9X>XP.0.x.c.e.",
"J.$.k y R P.G.f.Q.>X8X9X2X  d j.6X6X6Xj.d 5 5 d d d j.j.j.d d   d d d j.j.6Xj.6X6X  L.<.:.L.9X9X9X>X:X:X>X;X:X8X8X9X8X!.I.P.0.c.",
"J.6.l t O.I.L.G.;X,X5X9X  d j.6Xj.j.j.j.j.d     5 d d d d 5   5 d d d d j.j.j.j.6X. G.2.R :.4X>X>X>X&XZ.d.oX;X8X3X8X8X;XQ.P.0.e.",
"H. X$.y e I.L.Q.<X8X9X}.  d j.j.6Xj.j.j.d d   =               5 5 5 d d d d j.j.j.. ,.| w G.:XQ.E.D.D.e.r.e.v.%X;X5X8X8X-X~.3.3.",
"H.B.$.y t I.I.,X,X8X9X  d j.j.6Xj.j.j.d     x t t t U X.  5 5         5 d d d d   Z 0.{ 1 R G.!.E.D.D.d.e.e.e.v.&X3X5X8X-XW.G.2.",
"w.H.$.y t Y.Y.,X9X9X8X  d d j.j.j.d d   5   0.@...>.>.0.  5 5 5     b           D 3.Y. .> Y L.K.F.D.D.r.e.e.e.9.w.-X3X8X9XW.L.| ",
"6.6.$.B y T.'.4X4X9X0X@X  d d d d     5   }.4XOX'.4XT.v.5.  5 d d   . v U t y F x.@.q. .@.{ I.L.L.D.D.D.a.e.9.e.w. X&X5X8X&X!.1.",
"6.0.&.l y `._.4X0X9X0Xp.          5 d 5   0XqX4X].4XY.).T.. d d   d . . . r W v.@.i F  .u E L.Y.L.L.F.d.C.b.r.e.p.oX&X8X8X-XG.1.",
"K.J.-.B B `.OX5X0X0X0X<Xu.    5 d d d   7XqX0X0X0X0X0X4X'.X d       d   . @.c.c.@.p ~  .r  .).I.L.L.f.d.d.d.d.e.e.&X:X8X9X-X,XP.",
"!.L.-.V l {.+X5X5X9X0X  9     d     d   5X0X5X9XqX0X0X0XY.4X. d   X.X o c.v.c.,.>.@.@.O.y ..Y.).Y.L.K.f.f.d.B.d.b.E.>X8X9X:X~.P.",
"^.!.-.V l XX`.4X5XqX0X      d   =   f   4X4X5X5X5X5X0X0X0X0Xo X X c.T.T.0X5X5Xc.c.>.c.#.y O._.T.Y.Y.Y.G.G.L.F.F.D.D.,X>X9X,X4XU.",
"B.oX7.J V +X`.4X5X4Xc.'.X.    @ >     _.T.T.T.].4X5X9X5X0X5X5XT.c.v.T.0X5X5XqX0X_.V.V.#.y #._._.).).).Y.G.G.L.G.G.Q.4X9X9X<X4Xc.",
"e.!.7.J V .X4X5XT.~  .T.@.r $ # y @.`.`._.T.T.T._.OX5X0X4X@.O.c.v.T.T.0X5XqX0XqXOXT.T.#.l l `.`.`.).).Y.U.U.G.P.L.L.4X4X0X4Xx.@.",
"' e.w.J V 4.V.b.3 y y @.v.@.>.O.p k `.`.T.T.R.R.`.`.OXT.y W W #.b.#.,.5X5XqXqXqXqX`.`.,.l l R.+X`.`._.`.Y.U.U.U.I.Y.<X5X0X5X_.,.",
"' e.q.K V B l ,.y k W #.i p $.O.k l R.5X`.`.`.`.#X5Xn.#.B l ~ V.#.k n.5X8X0XwXqXwX+X#X/ l l 4.{.+X`.`.`._.T.T.).Y.).4X].>.`.#.z ",
"I -.w.0.H l l p y F >.@.i i O.+.l l l {.5X|.XX5X{.B.B B B / B.V.^ $.B.`.5X8XqXwXqX#X*X,.G l B $.{.5X+X`.`._._.OXOXb.>.b.~ ,.V./ ",
"R T 0..XH.$.l r r 6.U.x.q.@.c.e.z l l B H.H.H.H.V V G V / H.H.2.B 2.|..X|.5X8XwXqX+X.XH.0.H G V 6.H.D.{.5X#XV.B.r.#.#.l B / 5.&.",
"=.q.0.E.V.n.c.x.U.I./.(.I.Y.x.c.,.l B G V V H H H K J &.8.W.W.K & 2.XXoXXX5X9X5X5XH..X0.0.) H H V 2.$.6.H.H.+.$.B B B B / H.w.&.",
"e.q.2.2.n.).).I.(.,X~.,X<XI.'.c.V.,./ K ) &.&.I L =.e.!.!.!.W.J - L .X8X=X=X XW.&.6.6.6.J K J J K J V V V V B B B G ( 0.H. XE.&.",
"c._ K +.v.T.0X9X9X9X9X9X9X0X'.U.R.V.2.-.q.L =.!.!.^.'.C.9.b.!.=.P P p.!.oX!.6.N J &.e.&.J J L L e.6.J K H H V ( 4.D.J.H.J.w.6.q.",
"-.L ( +.c.5X4X9X9X8X8X8X9X8X0XY.T.<.( z N , N r.'.'.D.r.] r.'.D.=.I P T T T P T -.I.!.w.0.=.&.7.W.L.!.K.J.J.F.J.H.H.J.J.w.q.q.w."
};
