/* XPM */
static char *result[] = {
/* columns rows colors chars-per-pixel */
"64 64 217 2 ",
"   c #000000",
".  c #0B0B07",
"X  c #13130C",
"o  c #1C1C11",
"O  c #201F14",
"+  c #322D07",
"@  c #26261A",
"#  c #2F4A10",
"$  c #424716",
"%  c #464925",
"&  c #51562E",
"*  c #575A34",
"=  c #4D752B",
"-  c #5D6139",
";  c #5B7230",
":  c #597B33",
">  c #656826",
",  c #696B26",
"<  c #6F722A",
"1  c #686738",
"2  c #6D693A",
"3  c #716D3C",
"4  c #6A743C",
"5  c #74773B",
"6  c #394A52",
"7  c #465658",
"8  c #57655F",
"9  c #6D6A42",
"0  c #716D43",
"q  c #757142",
"w  c #797642",
"e  c #7C7945",
"r  c #75724A",
"t  c #797649",
"y  c #7D794C",
"u  c #56746F",
"i  c #527373",
"p  c #5B7A75",
"a  c #5D7C78",
"s  c #9C2929",
"d  c #807D47",
"f  c #807E4A",
"g  c #817E51",
"h  c #008000",
"j  c #1B8811",
"k  c #2F921F",
"l  c #369224",
"z  c #4D9331",
"x  c #718F37",
"c  c #6E9545",
"v  c #769349",
"b  c #799E53",
"n  c #69A645",
"m  c #76AE4D",
"M  c #77AC54",
"N  c #7FB455",
"B  c #68857A",
"V  c #778F79",
"C  c #9C8C00",
"Z  c #888C43",
"A  c #84824D",
"S  c #88854F",
"D  c #8B9547",
"F  c #93964A",
"G  c #96994C",
"H  c #979B4C",
"J  c #858154",
"K  c #898654",
"L  c #8B8953",
"P  c #888559",
"I  c #8C895A",
"U  c #908D55",
"Y  c #918E5D",
"T  c #8C9A5A",
"R  c #979657",
"E  c #94915C",
"W  c #99955E",
"Q  c #A09D5D",
"!  c #9EA152",
"~  c #88B55B",
"^  c #96BA5F",
"/  c #A2A556",
"(  c #A4A35B",
")  c #A6AA5B",
"_  c #A9AD5D",
"`  c #ADB15F",
"'  c #949361",
"]  c #9A9660",
"[  c #979964",
"{  c #9C9A62",
"}  c #9C9D69",
"|  c #A19D63",
" . c #A29E6E",
".. c #97A768",
"X. c #9EA169",
"o. c #97BA64",
"O. c #97BB70",
"+. c #A4A165",
"@. c #A7A867",
"#. c #A4A46A",
"$. c #A9A56B",
"%. c #ACAA6C",
"&. c #B0AE69",
"*. c #AEB263",
"=. c #A4BE6F",
"-. c #B3B865",
";. c #B4B36C",
":. c #A6A473",
">. c #ABA775",
",. c #A6A970",
"<. c #ABAC72",
"1. c #ABA778",
"2. c #AEAA7A",
"3. c #B1AE72",
"4. c #B2AE7D",
"5. c #ADB277",
"6. c #B3B375",
"7. c #B8B672",
"8. c #B6B973",
"9. c #BCBC74",
"0. c #B4B37B",
"q. c #B9B67A",
"w. c #B6BA7A",
"e. c #BBBC7C",
"r. c #C0BD7E",
"t. c #A6C36D",
"y. c #A6C672",
"u. c #ACC173",
"i. c #BEC077",
"p. c #B7C679",
"a. c #BEC17E",
"s. c #A3D272",
"d. c #C2C47A",
"f. c #C6C97E",
"g. c #C9CC7F",
"h. c #728D87",
"j. c #749391",
"k. c #6B94A5",
"l. c #759AA4",
"z. c #7BA0A1",
"x. c #839E94",
"c. c #91A896",
"v. c #B6B381",
"b. c #BAB683",
"n. c #B6B985",
"m. c #BDBA85",
"M. c #BEBC88",
"N. c #92B0AB",
"B. c #C1BE83",
"V. c #C1BE8A",
"C. c #B7C186",
"Z. c #BEC281",
"A. c #BFC18D",
"S. c #BADD8D",
"D. c #C3C482",
"F. c #C6C985",
"G. c #C9CC84",
"H. c #C5C38C",
"J. c #C9C78D",
"K. c #C0C98F",
"L. c #CACD89",
"P. c #C6D283",
"I. c #CDD183",
"U. c #CED18B",
"Y. c #D1D487",
"T. c #D2D58D",
"R. c #D6DA8B",
"E. c #DADD8E",
"W. c #C5C690",
"Q. c #C9C791",
"!. c #C6C993",
"~. c #CBCC94",
"^. c #CCCE98",
"/. c #D1CE97",
"(. c #CCD296",
"). c #CED299",
"_. c #D3D690",
"`. c #D6D992",
"'. c #DADD95",
"]. c #D2D49B",
"[. c #D5D89E",
"{. c #D0E493",
"}. c #DDE294",
"|. c #D7E997",
" X c #DEE299",
".X c #E4E997",
"XX c #E5E997",
"oX c #E2E59C",
"OX c #E5E99E",
"+X c #D6DAA0",
"@X c #DADDA3",
"#X c #CAE7A6",
"$X c #DDE1A5",
"%X c #DFE4A8",
"&X c #E7EBA1",
"*X c #EBEDA4",
"=X c #E3E8AA",
"-X c #EEF1A6",
";X c #EAF2A9",
":X c #F1F3A7",
">X c #F2F5AA",
",X c #F6F9AD",
"<X c #F9FCAF",
"1X c #F1ECB2",
"2X c #E7F4BE",
"3X c #FCFEB3",
"4X c #F8F4B8",
"5X c #FFFEBB",
"6X c #A5CEDE",
"7X c #EBF6C3",
"8X c #F2F9C3",
"9X c #FFFFC4",
"0X c #FFFFCA",
"qX c #FFFFD3",
"wX c #FFFFDA",
"eX c LightYellow",
"rX c white",
/* pixels */
";.Y &.@.V.`.+X,X3X,X5X0X9X9X0XH.f.4.X.$.y S L I r.r.J.r.E W C.U.q.I L A J ) y ) / <.m.<.+.$.! ! $.b.b.q.v.v.0.0.v.0.q.b.b.,.( ) ",
"Y I * * ( `.].4X3X,X0X0X0X9X0XF.F.v.0.#.e & x P ;.7.-.U Z Y ~.~.L.0.H.V.V.5XqX`._.b.b.v.#.+.+.! +.w.0.b.0.I.U.(.).L.I.0.v.#.e g ",
"Z U L * * '._._.,X3X,X,X0X0X0Xf.2.2.4.#.! y %.H.H.;.S L L w..X0.H.V.9XwXwXqXqXqXqXwXU.).T.Y.b.#.| | 0.v.0.I.~.:X~.>XF.G.L.0.t y ",
"Z K *.J f `.+X_.U.,X>X<X-X!.' [ 2.<.2.0.q.w.M.V.B.6.S S P 6.5._ @.B.5X5XqXqX0XqX0X0XqXqXU.I.2.{ 5 0 2.2.G.L.0X0X0X0X0X:X~.,X{ r ",
"&.&.P J f <.'._.T.L.2.{ , , 1 2 ' 2.2.4.4.0.b.b.B.V.3.J g 5.%.g / 5X5X5XqXqX0X0X9X0X0X0X3X0XW q 3 0 { <.>X0X0X9X9X0X5X0XH.:Xg.W ",
"W.*.0.g g %.'.3X3X4.{ 3 1 2 2 U 1.F.P.L.I.I.0.#.q.b.b.B.M.E./ e t 3X3X3X3X3X3X,X0X,X0X0X<X0X0 2 3 F >.f.-X0X0X0X9X-X-X0X0X*X-Xg.",
"=X0.oX%.f <.b.b.#.{ 3 3 2 D R d.D.0X0X0X0XL.I.I.4.6.v.Q ,.w.e w w ).<X3X3X>XF.-X,X0X0X9X0X2.W F F { 1.F.-X9X9X9X9X*X*X*X5X9X*Xd.",
"'.>.V.$.f d e | | q 0 F { %.F.F.0X9X0X9X0X0X0XG.J.Y.| 3 H | w q 0.).~.I.F.G.F.-X,X,X,X9X9X:.>.1.1.1.1.F.9X9X9X4X*X9. X4X5X9X&XA.",
"'.V.V.<.g e e e w 5 r } 1.1.F.0X0X9X9X0X5X0X0X0X0XG.G.U W | 0 5 I.~.L.F.J.G.!.,X,X0X0X9XD.[ >.{ } >.1.D.9X9X9X9X*X[ 8.&X1X5X9XM.",
"'.M.<.b.b.+.t H #.{ G ] 1.1.,X0X0X9X4X0X4X9X9X9X0X0X-Xv.G.W 3 3 } L.L.G.F.F.F.,X0X0X0X0XG.>.W 0 9 %.1.f.0X9X5X*XoX7.q. X&X1X5Xn.",
"'.M.<.b.b.R.v.v.v.| 0 3 :X4X,X>X9X9X-X:X*X{. Xx.c.c.c...G.{ 9 3 2 L.G.L.L.F.!.<X0X0X0X:XG.1.W 3 9 { 2.d.5X*X-X*XoX8.6.'.oX5X5X X",
"'.R.#.3X5X5X5XY.L.H 3 3 ~.>X,X>X>X>X&Xd.o.a p 6Xk.6X6Xl.B V R 2 2 L.I.F.G.P.F.3X<X0X~.~.G.4.{ 0 q <.{ 1.,X:X;XOXq.8.;.}.oX1X3X X",
"_.,.3X3X3X5X3XqX4.G 3 { G.:X>X>X>X&XM.u.X k.6Xk.6X6X6X  i k.p 1 1 A.G.G.L.G.!.,X<X0X,X,XG.4.4.{ W >.G D :X*XH.M.w.w.8.v.oX1X3X'.",
"`.Q 3X3X5X0XqX0X4.G 3 >.G.F.F.B.d.e.m.@   k.6Xk.6Xk.  C   i 6Xi i i B S.p.F.P.3X3X3XU.Y.4.X.4.4.0.{ 3 W D.K.A.e.w.8.0.6.oXoX5X'.",
"[.b.[.3X0XqX0XwX2.F 3 L.Q.F.F.D.D.Z.8.@ C k.k.i k.k.    C   i 6Xi k.k.i a z.x.P.I.0.T.Y.| t H v. .5 3 W F.D.D.a.e.8.8.6.oX5X5X X",
"b.! _.3X3X0XqXqX2.0 2 G.J.F.F.D.Z.e.@ .   k.k.i k.k.k.      i k.6X6 i k.k.6X6Xz.j.q ..b.| < q 0.Q 3 3 4.F.F.d.a.e.e.q.n.OXoX5X8.",
"<.! T.3X3X0X0X0X{ , ' G.G.F.f.D.D.D.X k.k.k.i i i k.k.k.i i k.k.k.k.6 i i k.6X6X6Xh...5.#.t H Y.#.3 0 G.:XF.D.Z.e.e.w.oXOX5X0X8.",
"f +.[.3X0XqX0X2.] , >.J.F.G.f.f.d.B.  k.i rX  rX  i i k.k.k.k.k.k.k.i 6 i i i k.6X6Xl.x.5.3X3XT.X.r 3 } F.F.D.e.a.e.e. X5X5X5X{ ",
"f +.3X5XqXqX,XL.F 2 L.~.J.F.F.f.f.e.  i i rX  rX  rX  i i k.k.k.k.k.k.i 6 i i i k.k.k.k.N.;X3XqXY.G 3 W F.F.d.d.i.9.M.*X&X9X0X} ",
"A $.3XqX0X0X,XG.9 2 ~.G.G.G.g.G.F.F.~                   i i k.k.k.k.k.k.6 6 i i k.i i i a N.;XqXU.| 5 W F.F.d.r.d.9.a.*X9X4X5X .",
"A $.5X5XqXqX>XG.2 2 L.L.L.L.L.L.J.F.o.  rX    s s         k.k.i i k.k.k.k.6 6 k.k.6 6 i i i h.2X3X} , W F.D.Z.d.i.a.e.-X5X9X0X .",
"J %.5XqX0XqX,X>., 2 J.J.L.L.L.L.G.F.D.n     s s s s   i k.i i i 6 i k.k.k.k.k.k.k.k.6 6 i i h.2X4X4., W F.F.D.d.Z.r.Z.*X-X5X9X .",
"S %.5XqXqX0X,X4.3 ] v.^.L.L.L.L.J.o.p.n   s s       k.k.i     6 6 6 i i k.k.k.k.k.k.k.6 6 i i h.|.4., W F.B.D.B.D.a.a.:X9X0X9X:.",
"L 5.9X5X0XqX,XI.0 ' [ ^.).L.T.L.=.s m   s s   i k.k.i     i k.    6 6 6 6 i k.k.k.k.k.k.6 6 i p |.4.> U D.D.d.D.Z.a.A.:X:X5X9X1.",
"L ;.5XwXqXqX<XU.G 0 3 { <XF..   f.M s s s 6           i i k.6Xi         6 6 6 i k.k.k.k.6 6 6 6 7 u.2 R F.D.D.d.D.d.*X>X0X0X0X1.",
"L 6.5X5X0XqX<X,X<.0 0 3 T . L.  L.L.~   6 6 6     i i k.6X6Xi 6 i   i i     6 6 6 i k.k.k.6 6 6   8.9 E D.D.d.i.d.d.-X0X0X0X0X2.",
"L 6. X5XqXqXqX).Y.O X 4   l.X o.O.L.~   6 6   6       6 i k.k.6Xi   i k.6X6X  6 6 6 i k.k.k.k.k.  u.9 E F.F.D.D.d.F.,X,X0X0X,XX.",
"Y 6. X5X5X0XqX3X3XO r 4   k..     M G.k     k.6   6 i k.6X6X6Xi i 6 i k.6X6X  6 6 6 6 i k.k.k.k.  t.' W L.F.F.f.F.F.3X0X0X0XT.{ ",
"Y L %X9XqXqXqX).L.@ }   k.k.k.a l.. =.k   k.i 6   6 i i i k.i k.i 6 i k.k.k.6X  6 6 6 6 i k.k.i   p.[ , 2.^.J.L.L.~.3XqXqXqXT.+.",
"Y L %X5X5XqXqX).].4.X k.k.k.7 ^     m   k.i 6 i k.  6 k.k.k.k.k.6 i i i i k.k.  6 6 6 6 i i i 6   L.' 0 { L.L.L.L.U.3X3XqXqXR.$.",
"E L %X9XwXwXqX<XL.| F . i k.8 t.=.=.N   i i i k.k.k.i 6 i k.k.i k.k.i   i i i i   6 6 6 6 6 6   #X^.4.r { L.U.U.U.U.3X5XqX3XE.) ",
"' L =X5X5XqXqX3Xv.0 < 4   a h.. o.^   i i 6 i i k.k.k.k.k.k.k.k.k.i   h       k.6X    6 6 6 6   8X3XG.{ { U.T._._._.+X5X5X'.}._ ",
"E L 5X9XwXqX3X3XQ $ o % 4 . p V   ~   i i   6 i i i i i k.k.i i i i   h   k.k.i k.6X  6 6     {.0X,XU.{ < T.]._._.`.'.3XV.}.XXP ",
"Y L .X5XqXqX3X).4.$ $ % 0 T . a V   B p 6     6 6 i k.k.k.k.k.k.    h   k.    k.k.k.      c 8.0X0XqXv.H q #.Y.3X[.+X3XE.g 3.3.P ",
"Y I 5.$XwXqX3X,XG.Q 0 , 3 { ... i i i 7   n   6 i k.k.k.k.k.i i i   h     h   k.  i   c = U >.Q.3XqX2.H w w w v.m.m.V.f A 3.w.*.",
"*.L S M.+X_.T.U.G.L.4.{ 3 3 T . 7 i B   N g.n   i k.i i k.k.k.k.i i   j l   k.  i i   ~ - 1 R >.L.2.I.} w w w t e e f A S 0.~.e.",
"a.L S A $._.).,XL.G.0X2.9 3 0 ;       ~ G.f.N   6 i k.k.k.k.k.6X6Xk.i   z     N     y.OXU 2 2 2 2 0 3.v.X.H y y e y g f <.H.~.~.",
"e.P S e +.U.U.0XqX0XqX:X2.F 3 2 o.O.o.L.U.M   6 i k.k.k.k.k.6X6X6X6Xk.6   n s.;XS.S.C.A.D.U 1 1 2 F 2.4.v.| | | ,.m.m.D.H.8.;.7.",
"U 1 ) m._.].qX0X0XqXqX3X-XG.F 3 } U.(.U.~   6 6 i k.k.k.k.k.6X6X6X6Xk.i   7 y.{.;X0X&XA.d.:.E 2 2 W 4.2.} 5 0 t ( b.M.B.%.S K L ",
"- + ) E._.qX0X0X0X0X0XqX>X:X] 0 { 2.U.).N   6 i i k.k.k.k.k.k.6X6Xk.k.k.i i 6 7 {.9X&XD.d. .[ Z D ' G.G.G.{ r q Q 0.b.<./ S S L ",
"L * %.m.3X0X3X<X0X0X0X0X0X3X2.W 3 q q m   6 6 i i k.k.k.k.k.k.k.k.k.k.k.k.k.k.p 7 ;XC.A.:.:.D.f.D.F.F.!.>XL.L.I.U.Y.b.,.$.%.%.L ",
"8.` / R.3X3X3X<X,X,X5X>X0X-X!.} 2 4 =   i i 6 i i i k.k.k.k.k.k.k.k.k.i k.6X6Xk.k.6 7 C.W :.W.;X0X0X0X0X0X0X>X~.~.U.I.q.q.m.D.3.",
"8._ y ,.].,X!.!.F.-X,X0X0X0X:XF.x     i k.k.i i i i i k.k.k.k.k.k.k.i i k.k.6X6Xk.6Xk.6 { D.*X*X0X9X9X5X0X0X9X0X0XG.(.0.q.b.,.%.",
"L.%.d +.Y.,X~.F.d.-X>X>X9X0X0Xb   i k.k.6X6Xk.i   i i i i k.k.k.k.i 6 i i k.k.6Xk.l.6X6 ..F.F.0X0X9X0X>X9X:X0X9X0X0X>XU.0.w.b.m.",
"Q.%.v w Q U.G.f.!.,X5X0X0X,Xu.  i k.k.6X6Xk.k.i 6 6 i i i i i i i 6   i i i k.k.6Xk.6X6X  y.0X0X0X:X>X:X-X>X-X0X9X9X0X~.L.I.q.b.",
"H.3.f w | U.G.F.-X>X9X0X0X0X^   i k.k.6Xk.k.k.i i     6             6 6 i i i i k.k.k.k.  ..<X<X,X:X*XA.a.OX-X9X4X9X9X-X~.I.0.b.",
"J.XX$.e w U.G.~.<X9X0X,X,Xu.  i k.k.6Xk.k.k.i i   : x b : : z b   6 6 6 6 6 6 i i i k.i   p.,X!.W.D.a.i.i.e.M.OX-X5X9X9X-X~.2.0.",
"H.V.%.e w U.U.,X<X0X0X0X0Xu.  i k.k.k.k.i i     : e #.m.#.e w   6 6 6           6 i i   ; { J.!.!.D.d.a.e.e.e.n.*X4X9X9X-X!.G.3.",
"6.J.%.e e U.U.,X0X0X0X0XG.v   i i i i i i     b | :.,.b.,.e t   7 6 6 6   c : :       T < W L.L.F.D.d.Z.e.e.e.8.e.-X4X0X0XH.G.X.",
"6.6.3.d e R.].3X3XqX0X0X^.T =   i i i     6   (.+X3XR.b.b.+.e 5   6 6 i i     D ,.#.0.| #.{ U.L.J.F.D.D.a.e.9.e.w..X*X5X9X-X~.2.",
"6.0.&.A e '.R.3XqX0XqXU.).X.D z       6 i   #X3X[.3XT._.R.b.e e 5   i i   i       t ! | w Q T.L.J.G.D.d.d.m.e.e.e.&X-X9X0X-XG.2.",
"J.F.;.A A '.+X5XqXqXqX<XU.{ c     6 i i i   7XqXqXqXqX3X[.3Xb.t e . u       p     y ! +.w | T.U.L.L.f.f.d.d.D.e.i.&X:X9X0X:X>XI.",
"L.Q.;.S A '.@X5X5X0XqX].T.  6     i     i   5X0XwXqXqXqXT.3X_.R.,.q.. i   ..    ,.$.#.#.t +.T.T.Y.U.L.f.f.d.D.d.D.A.:X9X0X:X(.I.",
"/./.;.S A  X'.3X5XqXqX<X#.      i   s.  B   5X5X5X5XqXqXqXqX_.R.q.n.X   . 5X9Xm.m.,.m.+.e $.`.`._.T.U.L.G.G.F.D.D.F.,X,X0X>X3XT.",
"a.OX7.S S @X X5X5X3Xb.[.@.% #     b y.    P.R.@X3X5X0X5XqX5X5XT.b.n.R.0X5X5XwXqX'.b.m.+.e $.`.`._._._.T.L.g.G.L.F.!.3X0X0X<X3Xb.",
"w./.7.L S .X3X3XR./ #.R...e % % e $.'.`.`.R.R.E.`.[.5XqX3X+.+.m.b.R.R.wX5XwXqXwX@XE.E.,.e f '.'.'._._.T.Y.Y.I.G.L.L.3X3XqX3Xv.+.",
"E Z.6.L S 5.V.M.5 e e ,.b.+.1.+.f e '.`.E.R.E.R.'.`.+XE.e / ! <.m.+.<.5X9XwXwXwXwX'.'.%.f f }.@X'.'.`.'._.Y.Y.Y.U.T.3X3XqX5X`.<.",
"' e.q.P S A f <.d e H ,.t e ,.@.d d '.5X}.E.'.'.$X5XV.$.f f / V.$.f V.3X5XqXeXwXwX@X%X( A A <.}.@X'.'.'.`.R.R.T.T._.3X[.:.'.$.g ",
"E ;.w.0.P A f e w H ,.#.t e +.@.f f f '.5X'.oX5X}.V.A A f ) B.V.) %.B.'.5X5XwXeXwX@X=X3.g A A %.XX5X@X'.'.`.`.@X+Xb.#.m.! <.V._ ",
"E ' 6..XH.%.e t t q.Y.0.q.#.b.q.g f J A V.Q.H.W.S S A S _ H.V.3.A <.oXoX X5X0XeXwX=X'.V.5.P J S 5.V.D.}.5X$Xm.B.B.$.%.f J ) 5.*.",
"-.q.0.H.V.m.b.b.T.U.(.(.U.U.b.b.<.g f A S S P L L I L ` w.Q.Q.P * 6.oXoXoX9X0X5X5XW.XX0.q._ K L S 3.3.3.H.V.%.%.f A A A _ H.w.*.",
"m.q.6.<.M.`._.U.^.,X^.,X3XU.].b.M.<._ P _ *.*.U I *.e./.~.L.Q.L - I .X5X=X=XXX!.` 6.6.6.P L K S L K S S S A S A A J _ 6.H..XW.*.",
"b.I P ) M.T.qX0X0X0X0X0X0X0X).T.E.V.6.&.q.I -././._./.Z.9.m./.-.U U w.^.*XQ.7.Z L *.w.*.L L I I w.6.I L L P S _ 5.F.H.Q.!.w.6.q.",
";.I _ $.b.3X3X0X0X9X0X9X0X0X0XT.R.<._ K Z - Z m./.].D.m.' r.].Z.-.E E U R E U Y -.~./.q.w.-.-.9.Q.Q.!.F.J.J.F.H.J.H.Q.L.w.6.q.q."
};
