/* XPM */
static char *_ff8f47ec41e47daef14fc5d28833a978AJeaZcUH1ZIbVC4[] = {
/* columns rows colors chars-per-pixel */
"64 64 182 2 ",
"   c black",
".  c #3B0001",
"X  c #2A2700",
"o  c #3D3909",
"O  c #472F1E",
"+  c #5D3C25",
"@  c #464917",
"#  c #464925",
"$  c #494C27",
"%  c #51562F",
"&  c #575A34",
"*  c #575A35",
"=  c #6E462A",
"-  c #5D6138",
";  c #676A25",
":  c #6A6D28",
">  c #6D712A",
",  c #6C6837",
"<  c #6A663E",
"1  c #6D693A",
"2  c #716D3D",
"3  c #767931",
"4  c #74703F",
"5  c #293440",
"6  c #6D6A42",
"7  c #716D43",
"8  c #757142",
"9  c #797543",
"0  c #7C7946",
"q  c #767249",
"w  c #79754A",
"e  c #7C794D",
"r  c #7E7A50",
"t  c #807C47",
"y  c #817D4A",
"u  c #966D50",
"i  c #817D51",
"p  c #7F8438",
"a  c #868A41",
"s  c #8A8D44",
"d  c #84824D",
"f  c #88854F",
"g  c #8F9246",
"h  c #919647",
"j  c #93964A",
"k  c #96994C",
"l  c #9A9D4F",
"z  c #858154",
"x  c #898654",
"c  c #8B8953",
"v  c #888559",
"b  c #8C895A",
"n  c #908D56",
"m  c #918E5D",
"M  c #969154",
"N  c #9B9E51",
"B  c #94915B",
"V  c #99955D",
"C  c #9D9A5B",
"Z  c #A09D5D",
"A  c #9EA152",
"S  c #A2A556",
"D  c #A5A857",
"F  c #A3A05F",
"G  c #A6AA5B",
"H  c #A9AD5C",
"J  c #ADB15F",
"K  c #8E8A60",
"L  c #908E60",
"P  c #949361",
"I  c #9A9660",
"U  c #969962",
"Y  c #9C9A63",
"T  c #9B976A",
"R  c #9E9D6A",
"E  c #A19D64",
"W  c #A29E6E",
"Q  c #9EA168",
"!  c #A4A165",
"~  c #A9A564",
"^  c #ACAC65",
"/  c #A4A46A",
"(  c #A9A56B",
")  c #A6A96F",
"_  c #ACAA6D",
"`  c #B0AE69",
"'  c #AEB262",
"]  c #B2B664",
"[  c #B4B865",
"{  c #B4B36C",
"}  c #B7B96E",
"|  c #A8A674",
" . c #ABA775",
".. c #ABAC72",
"X. c #AEAA7A",
"o. c #B1AE72",
"O. c #B2AE7D",
"+. c #AEB376",
"@. c #B3B375",
"#. c #B8B672",
"$. c #B5B876",
"%. c #BBBC74",
"&. c #B4B37B",
"*. c #B9B67A",
"=. c #B6BA7B",
"-. c #BBBC7C",
";. c #C59968",
":. c #C0BD7E",
">. c #BEC077",
",. c #BEC07E",
"<. c #C2C47B",
"1. c #C6C97E",
"2. c #C9CD7F",
"3. c #B6B381",
"4. c #BAB683",
"5. c #B6B985",
"6. c #BDBA85",
"7. c #BDBC88",
"8. c #929FAD",
"9. c #D4AD81",
"0. c #C1BE83",
"q. c #C1BE8A",
"w. c #BEC281",
"e. c #BFC18D",
"r. c #C3C483",
"t. c #C6C985",
"y. c #C9CC84",
"u. c #C5C38C",
"i. c #C9C78D",
"p. c #C7CA88",
"a. c #CACD89",
"s. c #CED184",
"d. c #CED18B",
"f. c #D1D487",
"g. c #D2D58D",
"h. c #D6DA8B",
"j. c #DADD8E",
"k. c #C5C690",
"l. c #C9C791",
"z. c #C6C993",
"x. c #CBCC94",
"c. c #CCCE98",
"v. c #D1CE97",
"b. c #CDD196",
"n. c #CED299",
"m. c #D3D690",
"M. c #D6D992",
"N. c #DADD95",
"B. c #D2D49C",
"V. c #D5D89E",
"C. c #DBE08F",
"Z. c #DDE194",
"A. c #DEE299",
"S. c #E4E997",
"D. c #E5E997",
"F. c #E3E59C",
"G. c #E5E89E",
"H. c #D6DAA0",
"J. c #DADDA3",
"K. c #DDE1A5",
"L. c #DFE4A8",
"P. c #E7EAA1",
"I. c #EBEEA4",
"U. c #E1E5A9",
"Y. c #E5EAAC",
"T. c #EEF1A6",
"R. c #EEF1A8",
"E. c #F1F3A7",
"W. c #F2F5AA",
"Q. c #F6F9AD",
"!. c #F9FCAF",
"~. c #F1ECB2",
"^. c #F6F5B3",
"/. c #FCFEB3",
"(. c #FAF6BA",
"). c #FFFEBB",
"_. c #BECCCC",
"`. c #FFFFC4",
"'. c #FFFFCB",
"]. c #FFFFD3",
"[. c #FFFFDA",
"{. c LightYellow",
/* pixels */
"{ K ] ~ q.N.B.Q.!.Q.).'.`.'.`.i.y.&.Q / 0 f c b } -.g.:.B B w.a.*.b c d z G i S S  .7.| / ( S A ( 4.4.*.3.&.3.&.&.3.$.3.4. .G G ",
"m b & & ! M.V.^./.^.'.'.`.`.'.r.y.X.&.) 0 % p v @.#.] n s m x.x.l.=.u.q.7.).].M.g.4.*.4./ ! ! A ! $.&.3.&.s.d.b.b.a.s.&.3.W 0 r ",
"s n x & & N.M.g.Q.!.!.Q.`.'.'.t.X.X.&./ A r ..u.u.{ f c c =.S.=.r.u.`.[.[.].].].].[.d.n.f.f.3./ E E &.O.+.d.x.E.x.W.y.y.y.*.w r ",
"a b ' z y j.H.m.g.Q.W.!.R.u.U V X...X.3.*.*.6.7.q.@.f f v @.+.G _ 6.).).].].'.].'.'.].].d.s.*.U 8 6 O.X.2.a.'.'.'.'.'.W.x.Q.Y q ",
"^ ^ v z y X.M.m.d.d.X.U ; ; , < V ..X.X.O.&.4.4.6.7.X.z d +...z S ).).).].].'.'.`.'.'.'./.'.C 7 2 7 Q  .R.'.'.'.`.'.).'.u.W.2.V ",
"l.^ &.i y _ M././.&.Y 4 1 1 , M  .t.p.a.s.s.&./ *.4.4.0.4.j.A 0 e /./././././.Q.'.Q.'.'.!.'.7 , 2 j  .1.T.`.'.'.`.T.T.'.'.I.T.1.",
"U.&.Z...y ..6.4.Q Y 1 1 1 g B 1.t.'.'.'.'.p.s.s.&.&.4.F ) *.0 9 4 B.Q././.W.t.T.Q.'.'.`.'. .V h h C  .t.T.`.`.`.`.I.I.I.).`.I.<.",
"F._ q._ y 0 0 W E 9 8 j Y ) t.t.`.'.'.'.'.'.'.y.a.s.I 8 l Y 9 9 &.b.b.a.y.1.y.R.Q.Q.Q.`.`. .X.X.X.X. .t.'.`.).(.I.%.A.(.).`.P.e.",
"Z.7.q...i 0 0 9 9 4 q T X. .r.'.'.`.`.'.).'.'.'.'.y.2.k I E 2 2 s.c.a.y.p.t.z.Q.Q.'.'.'.t.U X.U U X. .t.'.`.`.`.I.T $.P.^.).`.4.",
"N.6. .6.4.( w N / Y k V X. .Q.'.'.`.(.`.(.`.`.'.`.'.W.X.y.C 2 2 Y a.p.y.y.p.t.Q.'.'.'.'.t._ B 7 6 .. .<.`.`.(.I.F.} @.A.P.~.).5.",
"N.6.) 4.4.f.3.O.&.Y 7 2 Q.^.Q.W.'.`.R.R.E.T.T.`.`.`.'.r.a.U 2 2 1 p.p.d.p.y.z.!.'.'.'.E.a.X.V 2 6 U X.1.).T.R.P.F.} @.N.F.).).A.",
"m.j.) /.).).).f.s.l 2 2 x.W.^.W.W.W.P.-.-.G.I.`.(.`.`.'.z.1.V 1 1 p.y.y.y.p.y.!./.'.z.a.p.O.V 7 7 o.U  .Q.W.R.S.@.$.} N.F.~.).A.",
"M.) /./.)./.).].O.k 2 V y.W.I.Q.W.P.7.>.%.-.5.I.).'.(.'.E.l.U 2 1 b.d.a.a.d.y.Q./.'.Q.Q.y.O.O.I C o.k g T.T.e.e.$.$.@.3.F.~./.N.",
"M.! /././.'.].'.O.k 2  .t.t.r.r.          . . . . . . . . . . . . . . . . . . . .           O.3.&.U 2 I r.u.e.,.-.$.=.@.F.F.).N.",
"V.4.V./.'.].'.[.O.j 2 a.x.t.r.r.  u u . = = = = = = = = = = = = = = = = = = = = = = . u u   l &./ 2 2 V y.r.<.,.-.=.@.@.P./.).Z.",
"4.A g././.].'.'.O.6 2 p.p.t.t.t.  ;.;.u ;.;.;.;.;.;.;.;.;.;.;.;.;.;.;.;.;.;.;.;.;.;.u ;.;.  8 &.C 2 2 X.t.r.r.,.-.-.$.5.G.G.).$.",
"..A g././.'.'.'.Y : P a.a.r.r.r.  ;.;.u ;.;.9.9.9.9.9.9.9.9.9.9.9.9.9.9.9.;.;.;.;.;.u ;.;.  l g./ 7 2 y.E.r.r.w.-.-.=.F.G.).'.} ",
"y ! V./.'.].'.X.I ; ..p.a.y.1.<.  9.9.= = = = = = = = = = = = = = = = = = = = = = = = 9.9.  !.g.Q q 8 Y a.t.r.>.w.>.-.F.).).).R ",
"y ( /./.].].Q.a.j 1 a.x.t.t.1.1.. 9.9.u 9.9.9.9.9.9.9.9.;.;.;.;.;.;.;.;.;.;.;.;.;.;.u 9.9.. ).].f.k 8 V a.r.<.<.>.%.5.I.P.).'.R ",
"d ( /.].'.'.Q.y.6 1 x.p.a.t.y.y.. 9.9.u 9.9.9.9.9.9.9.9.9.9.9.9.9.9.9.9.9.9.9.9.9.9.u 9.9.. /.].g.Y 2 V r.r.r.<.>.>.,.I.`.(.).W ",
"d _ ).).].'.W.y.1 1 p.p.a.a.a.a.. ;.;.u ;.;.;.;.;.;.9.9.9.9.9.9.9.9.9.9.9.9.9.9.9.9.u ;.;.. ].].!.R : I p.r.r.>.<.-.-.R.).`.'.W ",
"d _ ).].'.].Q.X.; 2 a.a.a.a.a.i.. ;.;.= = = = = u u u u u u u u u u u u u = = = = = = ;.;.. ].].Q.O.; I p.r.r.w.-.r.-.I.R.(.'./ ",
"x ) ).[.].].Q.X.2 V O.c.a.a.a.d.. u u u 9.9.9.9.9.9.9.9.9.9.9.9.9.9.9.9.;.;.;.;.;.;.u u u . ].].!.X.; B r.r.r.w.r.,.w.W.`.`.`.) ",
"c @.).).'.].Q.s.2 I T c.v.a.l.d.. u u u 9.9.9.9.9.9.9.9.9.9.9.9.9.9.9.9.;.;.;.;.9.9.u u u . ].].Q.X.; M r.r.r.r.w.,.q.R.W.).'. .",
"c o./.[.].].!.d.k 4 2 C Q.a.d.d.. u u = ;.;.;.;.9.9.9.9.9.9.9.9.9.9.9.9.;.;.;.;.9.9.= u u . '.'.Q.y.1 M t.r.w.<.<.r.I.W.'.'.'.X.",
"c @.).).].].!.Q.X.2 7 2 E /.d.d.. u u O O O O O = = = = = = = = = = = = = O O O O O O u u . ].'.W.y.6 m t.r.<.<.<.<.T.'.'.'.'.X.",
"c @.Z.).].].].n.g.2 4 4 2 v.d.d.. = = = ;.;.;.;.;.;.;.;.;.;.;.;.;.;.;.;.;.;.;.;.;.;.= = = . '.'.W.r.6 B p.r.r.<.1.t.Q.^.'.'.Q.Q ",
"m @.A.`.).'.].!.!.Y 8 8 8 d.g.d.. = = = u u u u u u u u u u u u u u u u u u u u u u = = = . '.'.!.y.V P y.p.p.1.1.t.Q.'.'.'.g.Y ",
"m c L.`.].].].n.g.O.E 2 8 g.v.g.. = = = u u u u u u u u u u u u u u u u u u u u u u = = = . Q.'.].a.Y : X.c.p.a.y.x./.'.].].f./ ",
"m c U.).).].].n.n.O.E 4 8 g.d.d.. = = . . . . O O O O O O O O O O O O O O O O O . . . = = . '.'.].p.I 6 I a.a.a.a.d.)./.].].h.( ",
"B c U.`.[.].]./.g.E k q 8 g.g.f.. = = O u u u u u u u u u u u u u u u u u u u u u u O = = . Q.'.'.c.O.q C d.d.d.d.d./.).]./.j.G ",
"B c U.).).].]./.O.7 : 8 2 v.d.a.. = = O = = = = = = = = = = = = = = = = = = = = = = O = = . '.'.'./.y.U Y d.b.m.m.m.V.).`.N.Z.G ",
"B c ).`.[.]./.!.U @ X # 2 f.a.g.  = = O = = = = = = = = = = = = = = = = = = = = = = O = =   Q.Q.'.Q.d.U > f.B.m.m.M.N.).7.j.S.v ",
"m c S.).].]./.n.&.@ O # 2 R g.p.  O O . . . . . . . . . . . . . . . . . . . . . . . . O O   y.'.].].O.l 8 ( f./.H.H./.j.z o.o.x ",
"m b +.K.[.].!.!.s.U 7 : 2 Y *.n.                                                             .x./.].O.l 9 9 9 5.4.7.q.d d o.=.] ",
"] c f q.H.m.g.d.y.y.O.V 2 2 Y y.. = = = = = = = = = = = = = = = = = = = = = = = = = = = = . M X.y.X.s.Y 8 8 9 0 0 0 0 d f =.l.5.",
",.c d 0 / g.B.Q.y.a.'.X.6 2 2 2 . = = = = = = = = = = = _._._._._.= = = = = = = = = = = = . , 1 1 6 @.O.Q N w e e e y d _ i.z.x.",
"-.b f 0 ! g.d.'.].'.].W.X.j 1 2 . . . . . O O O O O O 5 8.5   5 _.5 O O O O O O O O . . . . < , 1 k X.O.3.E E ! ) 4.-.0.u.=.{ #.",
"c - H 7.M.B.].].'.'.].^.W.y.k 7   = = = = = = = = = = = 8.      _.= = = = = = = = = = = = . B , 1 V X.X.Y 8 8 w ! 4.6.7.o.f f c ",
"- o D j.m.].'.'.'.'.'.].R.W.V 6   = = = = = = = = = = = 8.      8.= = = = = = = = = = = =   B g g U y.a.y.U 8 8 Z $.6.) G d f c ",
"n & _ 6./.'./.!.'.'.'.'.'.!.X.I   . . . . O O O O O O 5 8.8.  8.8.5 O O O O O O O O . . .   r.1.t.t.t.l.W.a.y.d.g.f.4...( ) { b ",
"} H D h./././.!.Q.Q.).W.'.E.z.Y   = = = = = = = = = = = _.      8.= = = = = = = = = = = =   l.T.`.'.'.'.'.'.W.a.x.d.s.$.*.4.u._ ",
"=.H y ) n.Q.l.x.t.I.W.'.'.'.W.p.  = = = = = = = = = = = _._.8.8.8.= = = = = = = = = = = =   I.I.`.'.`.).'.'.'.'.'.y.c.&.#.4.) _ ",
"i.^ t ! f.Q.x.t.1.I.Q.Q.).'.'.X.  + + + + + + + + + + + O O O O O + + + + + + + + + + + +   r.'.'.`.'.W.`.W.'.`.'.'.W.s.&.*.4.-.",
"u.` d 4 Q s.y.1.k.Q.).'.'.Q.y.X.          . . . . . . . . . . . . . . . . . . . . . .       '.'.`.W.W.R.R.W.R.'.`.`.'.x.a.s.$.4.",
"p.+.y 0 C d.y.y.R.W.`.'.'.'.y.X.k > q 4.! S e 0 E ( 4.( 0 0 ) H.M.M.M.g.g.g.B.a.c.O.y...V o.Q.Q.W.R.I.e.,.G.R.).(.`.`.T.x.d.&.4.",
"i.Z.( 0 9 d.a.c.!.'.'.Q.W.y.X.R k 8 8 &.4.4./ 0 e 0 S ) r 0 0 6.H.M.M.M.g.B.3.Y : 8 o.R 7 y.W.z.u.r.r.>.>.-.e.G.T.(.`.`.R.x.X.&.",
"p.u._ 0 9 d.d.W.Q.`.'.'.'.t.V C C q l 4.3.4.N 9 0 0 E 4.) 0 0 ) H.M.M.V.V.4.Z 8 8 l O.E 2 I a.z.k.r.r.,.-.-.%.5.I.(.`.`.T.l.y.o.",
"&.u._ 0 0 g.g.Q.'.'.'.'.a.V 2 l O.&.g.d.H.m.4./ E ) ) 4.) e 0 0 h./.H.4.) / 9 8 l O.f.E > M a.a.p.t.r.,.-.-.-.%.%.I.(.`.'.k.y.Q ",
"@.@._ y 0 h.B././.'.'.'.c.U 7 8 O.f.g.m.]././.V.H./.f.4.4./ 0 0 0 6. .! / 0 9 N 4./ 3.E / E g.a.y.r.r.w.,.-.-.-.=.G.T.(.`.T.x.X.",
"$.$.{ d 0 M.M./.].'.].d.n.Q Z E 3.).].].].[.]./.V./.m.M.f.4.0 0 0 0 E ~ 0 9 A 4.( w N E 8 Z d.a.a.t.r.1.w.-.-.-.,.G.R.'.'.T.y.X.",
"a.u.` d d N.H.).].].].!.d.E E E Z ).)./.[.].].[.].].]./.B./.4.e 9 0 0 9 S / 4.4./ w S E 0 E g.g.a.a.1.1.<.<.<.,.>.P.R.).`.E.W.s.",
"x.i.{ f y N.J.).).'.].B.g.8 9 8 q /.).).).'.).].[.].].].g./.m.h.) *.4.4.4.4.4.) ) / ! ( 0 W g.g.g.a.a.1.1.<.r.:.,.u.W.'.'.W.x.s.",
"g.x.{ f d F.N./.).[.]./.) 9 $ $ 0 f././././.).).).).].].].].g.h.*.4.h.h.'.`.).6.4.) 4./ 0 / M.m.m.g.d.y.y.a.y.r.r.r.Q.Q.'.Q./.g.",
"7.S.#.c f J.N./.)./.*.V.~ $ X $ 3 ) M.M.h.h.h.H./.).'.).].).).h.4.4.h.].).).[.].N.4.0.( 0 ( N.M.M.m.g.g.y.2.y.a.y.z./.'.'.Q./.4.",
"-.x.#.c f S./.).j.A / h.( 0 $ $ 0 / N.N.M.j.h.h.M.H.).]././ ! 4.4.h.h.].).].[.[.H.j.j.( t t N.N.N.m.m.g.g.f.s.y.d.a././.]./.3.! ",
"V 5.$.c f +.q.7.3 0 9 ) 3./ ) E r w N.N.j.j.j.j.N.N.V.j.w S S ) 4.) | ).).[.[.[.[.N.N._ y y j.J.N.N.M.M.g.h.f.f.d.d././.].).M. .",
"P *.*.v f f t ..0 0 N ) w e ) ~ t y N.).N.j.Z.N.J.).0.( t t S 0.) 0 q./.`.].[.[.{.K.K.G d y +.j.K.N.N.N.M.g.f.m.g.m./.V.) N.) i ",
"B [ =.=.v d y 0 0 N ) ) w w ! ~ t y y Z.).Z.A.).Z.q.y d y G 0.q.G _ 0.N.).).[.{.[.J.K.o.z y z ..S./.J.N.N.N.M.H.H.4.) 4.S ..q.H ",
"B L @.S.u.( r 9 w $.d.&.*.) 4.-.i y d d u.u.u.u.f f f x H u.u.o.f _ F.F.A.).'.{.{.K.S.q.+.v f f &.q.u.Z./.K.q.0.6.^ _ y d G +.^ ",
"} *.&.u.q.7.4.3.g.d.b.b.g.f.4.4...y d z x x c c c v c ' $.l.l.v & @.F.P.F.`.'.).).u.S.$.+.J f x f o.o._ u.q._ ^ y d d d H r.&.' ",
"-.*.@.o.6.M.m.g.b.Q.c.Q.Q.d.B.4.6.o.G v J J ] x b [ -.c.x.x.l.c - b D.).Y.Y.S.i.J @.o.@.b b c c b f f c f f f d d z H +.i.S.z.' ",
"4.b v F 6.g.].'.'.'.'.'.'.'.v.f.h.q.o.o.@.b { v.v.g.v.e.%.6.c.] c n 5.x.S.x.#.a b ' 5.] c c b b -.@.b c x v f H @.r.i.i.l.=.&.$.",
"[ b ~ ^ 4././.'.'.`.'.`.'.'.].m.j...H c a - s -.v.B.r.:.P :.B.r.[ B M B B B n m [ d.c.$.$.] ] #.l.l.i.p.i.l.r.u.p.z.l.l.=.@.*.*."
};
