/* XPM */
static char *_7de70bbbc8747c6e7f8850bbc1442830IGL1lozYY0WAPAu[] = {
/* columns rows colors chars-per-pixel */
"64 64 244 2 ",
"   c #010200",
".  c #0B0301",
"X  c #020C01",
"o  c #0B0B01",
"O  c #03040A",
"+  c #0B040A",
"@  c #040C0B",
"#  c #0A0C0B",
"$  c #120301",
"%  c #1A0500",
"&  c #130B01",
"*  c #1B0C01",
"=  c #12040B",
"-  c #18030F",
";  c #130B0D",
":  c #1A0C0C",
">  c #011200",
",  c #0B1201",
"<  c #05120B",
"1  c #0B120C",
"2  c #131202",
"3  c #1B1203",
"4  c #12120B",
"5  c #1A140B",
"6  c #040313",
"7  c #0C0512",
"8  c #040C13",
"9  c #0B0B14",
"0  c #0E071A",
"q  c #050A1B",
"w  c #0C0C1B",
"e  c #130413",
"r  c #120C14",
"t  c #15071B",
"y  c #130C1B",
"u  c #190A19",
"i  c #041214",
"p  c #0B1213",
"a  c #0F1B14",
"s  c #0D131C",
"d  c #131214",
"f  c #1C1213",
"g  c #14131C",
"h  c #1B121D",
"j  c #1E1A1B",
"k  c #21130E",
"l  c #250D17",
"z  c #26151A",
"x  c #0C0D24",
"c  c #0D092A",
"v  c #150626",
"b  c #140D24",
"n  c #1A0D23",
"m  c #140D2B",
"M  c #1B0D2B",
"N  c #0D1321",
"B  c #0C1628",
"V  c #141225",
"C  c #1A1324",
"Z  c #151924",
"A  c #14132C",
"S  c #1A132B",
"D  c #171A2C",
"F  c #1B182B",
"G  c #150736",
"H  c #160D31",
"J  c #1C0D34",
"K  c #170B39",
"L  c #1C0E3B",
"P  c #0C1432",
"I  c #151233",
"U  c #1C1333",
"Y  c #151931",
"T  c #1B1935",
"R  c #15163C",
"E  c #1D133A",
"W  c #1D1C3B",
"Q  c #240C27",
"!  c #230E2D",
"~  c #21122D",
"^  c #261828",
"/  c #240D34",
"(  c #2A0C34",
")  c #220D3A",
"_  c #2A0C3D",
"`  c #320B3F",
"'  c #211234",
"]  c #2A1233",
"[  c #241933",
"{  c #2A1B36",
"}  c #23133C",
"|  c #2A143D",
" . c #241B3B",
".. c #2A1A3A",
"X. c #33173D",
"o. c #292123",
"O. c #1C0E43",
"+. c #1D1647",
"@. c #1C1943",
"#. c #1D1854",
"$. c #240E43",
"%. c #2B0E43",
"&. c #2E074E",
"*. c #240E4A",
"=. c #2D0E4A",
"-. c #340D45",
";. c #3B0E41",
":. c #330E4C",
">. c #380E4F",
",. c #241244",
"<. c #2B1344",
"1. c #241A43",
"2. c #2B1A44",
"3. c #25134B",
"4. c #2B134C",
"5. c #241A4B",
"6. c #2C194B",
"7. c #321245",
"8. c #331945",
"9. c #391846",
"0. c #32134C",
"q. c #33194C",
"w. c #39194B",
"e. c #2E0E53",
"r. c #320E53",
"t. c #380E53",
"y. c #310E58",
"u. c #3A0E5E",
"i. c #261353",
"p. c #2D1453",
"a. c #271C53",
"s. c #2C1A53",
"d. c #2A165C",
"f. c #2D1B5C",
"g. c #331353",
"h. c #3B1453",
"j. c #331B54",
"k. c #391954",
"l. c #34145A",
"z. c #3B135C",
"x. c #341B5B",
"c. c #3A195C",
"v. c #2C2149",
"b. c #36214B",
"n. c #2D2256",
"m. c #342257",
"M. c #3A225D",
"N. c #2C1864",
"B. c #361463",
"V. c #3C1462",
"C. c #341C63",
"Z. c #3C1B63",
"A. c #33136A",
"S. c #3D136B",
"D. c #341D6A",
"F. c #3C1B6B",
"G. c #351D77",
"H. c #3D1D73",
"J. c #3D1C7B",
"K. c #2D2867",
"L. c #3D2263",
"P. c #382566",
"I. c #3E236B",
"U. c #3D2473",
"Y. c #3A277B",
"T. c #441858",
"R. c #43195D",
"E. c #42225D",
"W. c #421362",
"Q. c #431C65",
"!. c #461669",
"~. c #431A6B",
"^. c #491B6C",
"/. c #52116F",
"(. c #451675",
"). c #441C72",
"_. c #4A1B74",
"`. c #441C7A",
"'. c #4B1C7B",
"]. c #521C7C",
"[. c #581E7E",
"{. c #432365",
"}. c #43236B",
"|. c #49236C",
" X c #472869",
".X c #442374",
"XX c #4B2374",
"oX c #4A2A75",
"OX c #46247B",
"+X c #4C247B",
"@X c #44297C",
"#X c #542879",
"$X c #461E82",
"%X c #4D1D82",
"&X c #4C1D8B",
"*X c #521E83",
"=X c #581E85",
"-X c #521D8B",
";X c #5B1E8C",
":X c #4E1E92",
">X c #581D94",
",X c #4D2482",
"<X c #4C2687",
"1X c #542384",
"2X c #5A2385",
"3X c #532A83",
"4X c #5A2984",
"5X c #53248A",
"6X c #5B248B",
"7X c #532A8B",
"8X c #5B2A8C",
"9X c #593385",
"0X c #542494",
"qX c #5B2594",
"wX c #532994",
"eX c #5C2A94",
"rX c #5B269B",
"tX c #592A9B",
"yX c #5A3397",
"uX c #612B86",
"iX c #64288C",
"pX c #64338F",
"aX c #622594",
"sX c #632C93",
"dX c #672C9B",
"fX c #64379A",
"gX c #71359E",
"hX c #5C2AA5",
"jX c #6B2DA2",
"kX c #672AA8",
"lX c #6B35A4",
"zX c #6C38A8",
"xX c #7237A9",
"cX c #6B29B2",
"vX c #732DB7",
"bX c #6E35B9",
"nX c #7938B9",
"mX c #7842B3",
"MX c #7639C1",
"NX c #7C35D0",
"BX c #8E47B4",
"VX c #9543CC",
"CX c #A347CE",
"ZX c #9F4DE0",
/* pixels */
"k.s.l.XX2XF./ n J n > o C ) j.w.k.T.B.F.F.^.}.I.}.{.E.c.A.c.j.M X o g X V j.S.C.k.l.c.V.Q.F.I.q.' D 1.0.q.0.c.Z.F.S.F.(.Q.g.E | ",
"-.M J j.{.q.    X X     o J =.k.R.j.*.e.e.e.c.XXkXdX_.u.l.1...L 1 o o   $ ;.w.6.=.h.L.I.%._ k.q.)  .l.~.C.6.%.:.q.q.2.q.%.m m $.",
"g   w 2.}.^.w   s F X   n j.c.Q.~.| 7 t + X   b |.8XXXj. .s.x.s.' >   y -.Q.g.1.<.k.{.{.M @  .Q.c.f.e.=.H   X o     > > X   X c ",
"      . ..|.}.Z.c.R.6.O.C..X.X`.F.s   o     X X N ' ' X   U D.Q.H.' @ ,..X.XC.W +.j.j.Z.s.1.q.6.s.s.4       o 9               X ",
"  > X   X  .XXeXXXc.Q.|.x.+.6.Z.6.O X     X . M I 0         7 -.R.z.T.Z.|.c.A > Y F._.~.Q.9.5   . h o X     1.x.) x @ o .     @ ",
"> # [ X X J x.fXlX+X!.Q.E     * ,           + . w F +           X x.1XOXF.} . X   j.OX8.3           7 S i D W.c.s.W B Z       S ",
"y o Y w w $.=.oXlXfXaX).I                       b j.^ <         O Q.&X_.!.4.y       0                 E m $.R.:.*.M 8 S #   n <.",
"'   @ E *.=.-.x..X+XaX'.6.Z C 0   # <.g o + X + 6.s.v.m.E i.Z.f.F.~.W._.uX~.C       G         X       r.c.=.k.8.c.2.' h.Q.j.T.3.",
"c.r @ =.T.t.k.A.z.Z.H.l.<. .s.x. .M.rX&XF.$Xl.U W p Z L.z.Z.I.M.n.B.p.{.7Xx.g x   7 `.F.3     , .   X [ c.2.4.0.{.E.!.4XpXpX8X^.",
"#XM.6.R.k.k.~.~.~.|.F.( . o 6.U.D.F.*XwX].*X5XJ.s.V .. .+   . & 2 S 3.c.Q.C X < X X C.0X2.          > < q.c.p.Z.z.%.l.}. X{.4X#X",
"|..Xc.M X D c.V.Q.`.'.x..   . O t s w C .   _ )..Xx.F.x.9       o i 3.c.R.U X > > + ,.$Xx.7   0 7.Q.j.T p.L.XX1Xj.v m j.g._ h.{.",
"M.{.|     X y ,.z.!.].'.}   . . o             n  .9 9 f.Z.H X b v.f.<X'.^.z.} 1.6.4.0.Q.^.Z.Z.1XkXqXZ.4.c.|.#X].k.q @ 3.q.( X.0.",
"s.c.u.=.) # X I E } y.&XP.r $ : z o   . O : k Z N     w H.wX7XI.N.@XkXcX6X).x.P.~..X{.B.#XlXzXpX<Xq.) 6.E.{.^.k.0.( / q.7.[ ..g.",
"K K e.*X2XZ.8.s.$.O @ 3.a.r . t m & .   x +X{.C s.i.r U `.rX<X6.9 y D.rXcX4X} 3.Q.%X<X%XqXxXeXq.E I / 9.j.s.%.%.1.g.Z.M.j.E I J ",
"> o # :.~.).XXXXQ.I     @ 7   X 3.& .   n hX).0 Q.;XV.l.H.P.V       X V ^.%Xt X U C.d.C.'.+XU.a.,.2.q.t.) w x  .4.Q.9X Xz.3.9 X ",
"o     1 g.F.^._.+Xx.#   & <.; # p.u   o a.dX^.y V.6XZ.3.F.,.          X 5 P.3.X   X X +     { P.Z.}.}.R.n X w *.x.oX4XQ.z.-.X   ",
"U # X 5 | p.c.XX,X`.C.I Z 1X6X}..XS X S P.8X,XV.!.C.A V 4.e             > { s.3.t & X       o S 6.~..Xk./ T 6.!.c.4.c.}.V.0.n X ",
"x.4.C.] * < V Z.>X;XP.s s 5XNXvXeX6.s ,.D.l.I.`.x.g > U s.#             , 2 2 F ,.u       X o   V 3.6.3.p.+X1X1Xm.S p.Z.x.6.6.M ",
"F.F.W.h o     n XX+Xv., o s.cXcX,XD. .~ 5.A 6.D.E o & 0.N.5.+           o p X $     $ 7 w 2.j.<.J g ,.1.M %.s.p.1.h t.k.M 1.l.j.",
"OX+Xj.g #       9 M k.Q   m tX7X| W.k.S U V E D.S       4 4._.k.s       I W $     . | ).'.`.Z.2.I U Z.j.X     X   . :.' X ) !.~.",
"7X+X%X$X4.& .       Q X.r 1.hXL.& Q  .w C X @ F.w.# g <   :.-XrXXX~ s C.<Xx.2       # F.).| . X 1 c.qX+XR 6         g.x.m 8..X2X",
"7X`.&XwX..5 k e V t $ ^ k C `.n     r y #   . V.x.h <.s.4.S.].qX<XU.D.XX1XZ.W 1.$.  O / n C ,   N ~.iX).s.a.g 3 o   S.rX~.XX+XaX",
"h.S.J.6.    & $ Y ' = y f 5.F.6   $ $ 6 X 2 4.'.,X^.c.x.}.`.}.}.}.sXzX+Xg.*.5.x.x.I Z s X g.2Xc.} 4.Z.z.Z.).C.f.[ s 5XvX+Xj.k._.",
"; C v.:   . o     + + q G `.J.v y f   6 g <.`.&XkXvXXX2.OX6X}.k.L.zXNXsXy.} 5.<.U V i >   Z.jX].V.t.W.Q.x.6.t X o 5 Q.`.h   * ' ",
"& o 8   . 5 &   . .   O r ~ v G j.J 7 Z b.OX`.<.+XqX~   | Q.}.}.{.eXdX+XA.c.g.H # V , , V x.F.A.-XyXwX}.5           O # X   o 4 ",
": +   . ; u v . X s ' h $     % ^ h % 5 o.x.S 5 Z.g.      > 6.W.Q.{.k.c.{.R.4.    L c.{.OXZ.*.0.].wXyXJ.        .     w g 2 & d ",
"d o     . x t = 6 N.#Xb.u + . . , $     X i X Q H.4.< U w   r x.x.q.0.j.s.2.M   X d.<XdX1XZ. .o ] '.sX).    o o o o $ c.P.g # s ",
"a.[ .     O     + G.yX8.= . .   + .     / a.3.A.A.,.5.6.o     s.B.x.R.( o X M 6.h.x.u.~.~.C.I     } '.`.v           . C.C.X X 1 ",
"1XhX(.+ . +       ' Y.V     O 7 5 &     l.`.Z.D.$.b k.*.    S XXF.$.y       2.|.XXc.=.:.Z.H.x.m     u Q.0.            @ g i g D ",
"%XkX#XQ 5 F .   $ X.@X0   + 0 t 3 = O = ~ U C ^ .   b *.K I #XBX#XK       ' Z.Z.Q.{.c.u.Z.~.Z.,.      : 6             X v.F.p.c.",
"*.s.j $ $ ^ 4   g hXhX6   7 h z $ O ) .   X 1 3 X   + ,.Z.B.lXCXgXW.w X M Z.|.|.k.[ 2.!.Q.`.r.                2 E S.S.m.qX_.t / ",
"s V o   % $     s.bX0Xt G x.q.1.+ e R # @ 5.@Xx.{ :.k.}.~.x.XXiX1X2XXX0.2.W.|.R._ r J }.XX.X{           < X . Q.tX&X'.).tXc.X   ",
"X g U <.l.=   t <XtXj.*.G.,X.XS : 6.P.n.I.hXMX0XF.#X,X+Xc.' p.Q.x.C.S.{.W 1.8.r r / 6.W.~.Q.1.X     %.E  .g X x.qX).c.j.c.,.9 C ",
"X i x.7X7XT r +XcXP.s 7 n n.L.# 5 I.d.x.<XnXvX^.0.k.Z.Z.n O J / b J p.c.y   ,   X s.R.R.!._.F.4.s < j.s.s.C.U g k.Q.H.<.s ,.g.=.",
"i p 0.[.sX).a.wXqXm       v.m.1.+. .y | ).%X!.g.t.l.z.7.. X X     x t.k.x   .   w ~.).6.1.6.k.D.1.p I a._.;Xz.E 4.Q._.t.+ S -.<.",
"4.] C p.=XV.X n 6.+ $ $ = g I I.B.m | @XwXS.0.k.Q.Q.(.%.k g X   b c.Q.Z.s.=.! > o (.x.@ X   X 5.c.1.U *.].jX/.4.J ' l.Z.' o d E ",
"h.0./ ,.P.6.    . % * 7 O o ~ OX_.k.).bXbX`.).%X`.J.l.p.!.'.z.u.(..X}.XXXX].A.o X =.L >       x c._.c.4.|.aX!.x > $ 0.C.E F 6.w.",
"R.k.x.+.x.~.3.    $ o     - XXcXeXOXtXnX<XU p.}.c.v.X 5 C.B.S.'.g.L L.XXT.!.(.S w c.6.o         =.jXjX{.c.).p.1     [ 5.  # c.W.",
"3XW.k.U O.%XI.s V 3.r       j.7XL.m.oXoXj X 4 z 3     3 F O 4.Z.o X m J + S 6.*.c.1XI.[     h ) ~.mXxX|.d.e.t.Q     b x     w.Z.",
"1XQ.] + X ..x.i p x.C.C X   # j .   & .     d ..;     ,.i X C.r.> > s       X M ~.W. .K M m c.7X9X#X|.{.l.e.j.6.o X s >   v c.V.",
"M.M.Z./   > .      .K.n.h o A U             . t = . ' C.i a 4.+ $ j.1.b <   X T B.2.    b b g.8X#Xh.0.k.q.q.I.L.Z > >   > %.V.z.",
"w.{.7X+X( o       V F V     v.C.q                 $ g.f.W Y 7   . ..m D V X D P.{.2.w b _ 0.z.^.T.X.7.| Q %.~.XX)         M L.c.",
"6.l.Z.Z.e.5.E   o 3         p.<Xp.X                 O @ D p     X >   < & M c.T.k.<.S ' M / >.k.8.` _ J b _ c.Z.m     X X X g.C.",
"q.%.$.%.m J N.:.| { X     X t.;X`.S >                 q @     : F ,       6.~.-.0._ X X     M q.9.X.) / U _ g.F.I     0 A A q.L.",
"g.g.j.q.Q @ / j.f.~.c.{ , . ^.nX`.P > o           t P.%Xk.t 7..X#XZ.b O x XX8X|.W._ O X x } g.x.k.0.J _ 7.-.g.Z.g.) 0 # ( 0.h.M.",
"d.c.g.q.<.%.Q.}.0.V.`.H.| 4.gXVX5XT , X O     o | ).-X=Xz.l.'.0X<X+Xx. .C.XXuXsX4X.X0.J 0 s 8 t <.m.s.p.<.( ( k.z.0. .A <.h.E.k.",
"c.0.! ) -.R.dXlX}.C.H..Xg.c.bXnX`.c.c.Z.4.    <.`.'.Q.,.s 3.F._.~.0.L ,.k.=.V.8XzXmX3X-.X X     / Z.oX Xq.b X J =.<.g.P.Q.8XuXc.",
"c./ O x 5.4.2XdXoXZ.F.}.x.{.mXfXC.k.1XtX+X,.s.5X8XL.1. .,.g._.+X_.0.L @.=.=.=.I.pXfX|.s.7.b.1.4.m.M.oX3XH.| @ X m I 2.c.W.1X8X}.",
"j.V   w m ,.s.l.V.Z.x.k.s.x.sX#XZ.C.~.6X).`.zXnXjXZ.n.Q.^..X_.Z.g.c.|.Z.k.=.:.j.R.j.0.g.{.`.`.V.q.2.Q.fXfX0.  w 5.5.=.t.=.=.B.H.",
"l.m   > p -.}   h Z.~.t.O.E V.~.c.C.=.4.Z.gXZXnX-XF.Q. X^..X`.g.O.~.jXiX{.T r / %.) ( 8.T.M.z.q.0.z.uXBXlX-.. y 6.=.e.u.$.  b ~.",
"!.L + s | z.*.X o  .Z.Z.S K c.I.C.e.&.0.}.nXxXp.c 6.P.C.L.^.^.F.U.3XsX<Xj.V i 2.c.=.%.8.8.-.0.q.k._.iXxXtXB.d       + 5.+.    ,.",
"_.x.+.+.a.c.s.V > X t h 2 4.+X}.c.V.+XaX,XZ.U     2  .1.3.w.Q.'.U.1.V n N 1.|.1XXX!.!.c.q.=.1.i.c.P.I.'.XX~.4.        a.d.    + ",
"y.<.O.3.j.`.s.O           k.+X{.}.4X5X~.)       O , o O J c.`.k.        X ) c.h.<.7.,.6.!.Z.B.}.}.(..X+X}.!.~.4.*     R #.O   . ",
", . 0 y.Q.~.$.    X       3.~.Q.4XuXt.X       + 1 X       6.Q.&             X   + O   p V U 1.6.%.=._ $.$.<.4.U.Q.U < 8 < X o 2 ",
"2 $ 1 R x q O   O O X     | c.j.XXXXt.q     O V 0       X  .s.o   . $   8 6.s.1.4._ 4.| p p V p O 6 O       X @.OX(.x.x   . , & ",
"3 , d 1 X X   $  .t   . k c.Q.j.}.4X5X,.    U g         # s.n.8   & & # q Q.<XZ.C.&X-XZ.5.2.d.+.Y E V X        .OX1X.XU   . . 3 ",
"2 3 2 d a.p..   : + 7 ! 6.OX#XQ.~.#XaXs.# 6 y V -     X   e V @   . &   X E q.d p 6.6.q i F @.g 4 = o > 2 R q.Z.c.!.'.V.y.;   , ",
"i o & d C.:Xi.      .   w ~.~.q.q.k._.F.U X X V 8.u   X               . g V o o   . o     X           2 [ 6.6.U , M ~.].,X:.X X ",
"b 1 r S U ).).            c.^.i.,.j.~.Q.p.> X W C.<.A p X & & +   9 g.3X3XE . .                       V <.V g       ) k..XS.E @.",
"c.6.5.O.q 1.Z.z &   * l p.s.6.H I q.R.c.D X   [ F.Z.x.5.i.3.p.F.).qXhXqX$XC.3.3.A.i.g o           . n S <.w.6.b     r 4.Q.'.~.V.",
"_.).Z.D.U A A.).Q..X XZ.k.4 > > p 4.Q.=.o     } ~.{.I.F.F.D.OXeX7X_.l.- g x.U.$XqXZ.N S w   U Z.c.C.Q.>.k.XX|.x.S o Q t.W.5X_.k.",
"} | u.'.).c.(.p.U f.j.U p     S 0.w.W.t.V D x ! j.c.F.F.H._.`.).U   o o X g 1.3.} p @ 4.F.P.5X<XQ.,.} 6.6.k.R.T.c.:.t.h.c.~.l.=.",
"O   } ^.].1XQ.r X < d     C g 0.~.k.t.:.*.C. .y 2.S.p.Z. X_._.4.X   o r o + p # r F E R.].+X.XZ.'     U ) { _ :.V.y.-.q.0.j.0.=.",
"} / t.~.].oXZ.U < 1 o   @ L p.h.c.x.B.x.c.V.q.X.c.c.c.x.}.!.Z.,.# o y q 9 X d [ c.W.Z.).~.}.c.h.g.~ ] :.<.1.| q.l.j.k.j.q.0.4.[ "
};
