/* XPM */
static char *_4e7fb91eaa646c0c8d62724d57904886OmSzslrpkCcskyQ[] = {
/* columns rows colors chars-per-pixel */
"64 64 197 2 ",
"   c #2A2700",
".  c #3D3909",
"X  c #464917",
"o  c #5B5C1A",
"O  c #464925",
"+  c #494C27",
"@  c #51562F",
"#  c #575A34",
"$  c #595A35",
"%  c #5D6138",
"&  c #626521",
"*  c #666925",
"=  c #696C26",
"-  c #6A6D28",
";  c #6D712A",
":  c #71742C",
">  c #666234",
",  c #696436",
"<  c #6C6837",
"1  c #6A663E",
"2  c #6D693A",
"3  c #716D3D",
"4  c #767931",
"5  c #74703F",
"6  c #6D6941",
"7  c #716D43",
"8  c #757142",
"9  c #797543",
"0  c #7C7945",
"q  c #767248",
"w  c #79754A",
"e  c #7C794C",
"r  c #7E7A50",
"t  c #807C47",
"y  c #817D4A",
"u  c #817D51",
"i  c #7F8438",
"p  c #878A41",
"a  c #8A8D44",
"s  c #84824D",
"d  c #88854F",
"f  c #8F9246",
"g  c #919547",
"h  c #929549",
"j  c #96994C",
"k  c #9A9D4F",
"l  c #858154",
"z  c #898654",
"x  c #8B8953",
"c  c #888559",
"v  c #8C895A",
"b  c #918D55",
"n  c #918E5B",
"m  c #969154",
"M  c #989455",
"N  c #9B9E51",
"B  c #93915B",
"V  c #99955D",
"C  c #9C9A5B",
"Z  c #A19D5D",
"A  c #9EA152",
"S  c #A2A556",
"D  c #A5A857",
"F  c #A4A05F",
"G  c #A6AA5B",
"H  c #A9AD5C",
"J  c #ADB15F",
"K  c #8E8A60",
"L  c #938F62",
"P  c #949561",
"I  c #9A9660",
"U  c #969962",
"Y  c #9C9B63",
"T  c #9A9569",
"R  c #9D9C6A",
"E  c #A19D64",
"W  c #A29E6D",
"Q  c #A39E70",
"!  c #9EA167",
"~  c #9EA169",
"^  c #A4A065",
"/  c #A9A564",
"(  c #ACAC65",
")  c #A4A46A",
"_  c #A9A56B",
"`  c #A6A96F",
"'  c #ACAA6D",
"]  c #B0AE69",
"[  c #AEB262",
"{  c #B2B664",
"}  c #B4B865",
"|  c #B4B46D",
" . c #B8B66F",
".. c #B7B96E",
"X. c #A7A373",
"o. c #ABA675",
"O. c #A6AB71",
"+. c #ABAC72",
"@. c #ABA778",
"#. c #AEAA7A",
"$. c #B1AE72",
"%. c #B2AE7D",
"&. c #AEB274",
"*. c #AFB07E",
"=. c #B3B475",
"-. c #B8B672",
";. c #B6B874",
":. c #BBBC74",
">. c #B4B37B",
",. c #B9B67A",
"<. c #B7B979",
"1. c #BBBC7C",
"2. c #C0BD7E",
"3. c #BEC077",
"4. c #BEC17D",
"5. c #C2C47B",
"6. c #C6C97E",
"7. c #C9CC7F",
"8. c #AFB080",
"9. c #B6B481",
"0. c #BAB683",
"q. c #B6B886",
"w. c #BDBA85",
"e. c #BDBC88",
"r. c #C1BE83",
"t. c #C1BE8A",
"y. c #BEC181",
"u. c #BEC18D",
"i. c #C3C482",
"p. c #C6C985",
"a. c #CACC84",
"s. c #C5C38D",
"d. c #C9C78D",
"f. c #C7CA88",
"g. c #CACD89",
"h. c #CED184",
"j. c #CED18B",
"k. c #D1D487",
"l. c #D1D58D",
"z. c #D6DA8B",
"x. c #DADD8E",
"c. c #C4C690",
"v. c #C9C791",
"b. c #C6C992",
"n. c #CBCC94",
"m. c #CCCE98",
"M. c #D1CE97",
"N. c #CDD196",
"B. c #CED299",
"V. c #D3D690",
"C. c #D6D992",
"Z. c #DADD95",
"A. c #D2D49C",
"S. c #D5D89E",
"D. c #DEDF9A",
"F. c #DBE08F",
"G. c #DDE194",
"H. c #DEE299",
"J. c #E2E594",
"K. c #E4E997",
"L. c #E2E49C",
"P. c #E6E89F",
"I. c #E9EE9B",
"U. c #D6DAA0",
"Y. c #DADDA3",
"T. c #DDE1A5",
"R. c #DFE4A8",
"E. c #E6E7A0",
"W. c #E6E9A1",
"Q. c #EBEDA4",
"!. c #E1E5A9",
"~. c #E9E8AE",
"^. c #EEF1A6",
"/. c #EEF1A8",
"(. c #F1F3A7",
"). c #F2F5AA",
"_. c #F6F9AD",
"`. c #F9FCAF",
"'. c #EEE8B1",
"]. c #F1ECB3",
"[. c #F5F1B6",
"{. c #F6F9B0",
"}. c #FAFEB1",
"|. c #FDFEB3",
" X c #FAF5BA",
".X c #FFFEBB",
"XX c #FFFEBE",
"oX c #FFFFC3",
"OX c #FFFFC6",
"+X c #FFFFC8",
"@X c #FFFFCA",
"#X c #FFFFCB",
"$X c #FFFFCD",
"%X c #FFFFD1",
"&X c #FFFFD3",
"*X c #FFFFDA",
"=X c LightYellow",
/* pixels */
"| K [ H t.C.A._.{._.XXOXOXOXOXc.7.#.) ) e d x v :.1.j.2.B B y.g.1.v x s l G r D S O.0.O._ _ D A ) 0.0.,.q.>.9.>.>.>.>.9.w.+.G G ",
"n K $ # F Z.U.{.|.{.+XOXOXOX+Xp.a.%.>.` 0 @ i c =. .{ b a L n.n.c.=.s.t.t..X%XC.C.0.0.0.O.E E N E ,.9.>.>.h.j.N.B.j.h.>.9.E e u ",
"a v c $ @ Z.C.l.`.|.`._.+X+X+Xp.#.#.>.) A e ' s.s.| d x x <.K.<.s.s.oX*X*X&X%X&X%X*Xj.B.k.k.>.) Z E >.%.#.h.n.).b.).a.g.a.%.w r ",
"a x ( l s C.U.l.l.).).`.^.c.P U @.+.#.>.,.1.w.e.t.=.d d z &.*.G ( e..X.X&X%X$X%X+X$X%X*Xg.k.%.E 3 7 %.%.7.n.+X+X+X+X+X).n._.Y q ",
"[ ( c l y #.C.C.j.g.#.! * * < 1 U @.#.%.>.>.9.0.w.t.+.l l &.' s S .X.X.X&X%X+X$XOX$X$X$X}.$XV q 3 8 Y @.).+X+XOXOXOX.XOXs.(.7.C ",
"v.( >.u y ' C.|.}.>.Y 2 2 2 < m @.p.f.g.a.h.>.) ,.0.0.t.w.x.D 0 e `.|..X|.|.}.{.+X_.+X+X}.$X6 2 3 h @.6.^.OXOX+XOX/.^.OXOXQ.Q.a.",
"!.>.G.+.y +.0.0.) Y 2 3 2 f M 6.p.+X+X$X$Xg.j.h.%.>.9.Z ` 1.9 9 5 A._.}.}.).p./._.+X+XoXoX@.V g g T +.p.^.OXOXoXoXQ.Q.^.oXoXQ.i.",
"H.+.t.' y t 0 W ^ 8 8 h Y X.p.p.+X+X+X+X+X+X$Xa.g.h.E 5 k Y 8 8 >.N.N.g.a.a.f.^._._._.oXOX+.#.@.o.$.+.p.OXoXoX XQ.:.L.[..X.XP.u.",
"D.t.r.#.y t 0 9 5 5 q R @.@.p.+X+XOXOXOXXX+XOX+X+Xa.a.h C Y 8 3 h.N.g.p.f.a.b._._.OX+X+Xa.V #.Y Y @.+.i.OXoXoXoXQ.T <.W.[..X.Xq.",
"Z.t.O.0.0.W 0 N ) Y j I #.@._.+XOXOXXXoX XOXOXOX+XOX(.#.a.V 3 3 Y g.g.a.a.f.p._.+XOX+X+Xf.+.m 6 6 +.@.6.OXoX XQ.J.-.=.H.L.[..Xq.",
"C.w.` 0.0.l.9.%.>.Y 7 3 _.{._.).+XOX/.^.(.Q.(.OXOXOXOXp.p.Y 7 3 2 g.f.a.f.a.b.`.+X+X$X/.f.o.C 3 7 U @.6..X/.^.^.L...=.Z.J..X.XH.",
"C.z.` |..X.X.Xk.k.j 3 3 n./.{.).(.(.W.1.1.P.Q.OX XOXOXOXc.6.V 2 2 g.a.a.f.a.f.`.}.$Xn.n.f.%.V 7 7 $.U @._.)./.P.1.<.| G.L.]..XH.",
"C.` |.|.XX|..X%X%.j 3 C f.(./.).^.W.e.3.-.1.q.Q.OXoX XOXQ.c.U 2 2 N.h.g.h.g.j._.}.$X_.).h.%.%.I C o.h g ^.Q.u.q.<.;.=.>.L.'..XG.",
"C.F `..X|.+X$X%X%.j 3 o.f.p.i.i.5.5.w.1.<.1.<.L.Q. XoXoXOXc.@.2 2 a._.j.j.j.j.`.|.XXj.j.%.! %.%.%.Y 3 V p.s.u.4.1.<.=.=.L.L..XH.",
"S.0.S.|.$X%X$X*X#.h 3 f.v.p.p.i.y.1.1.1.1.<.<.q.W.Q.Q.XXOXOX6.6 2 2 j.`.j.j.j.j.j.<.l.k.E 8 k 9.! 5 3 V 6.p.y.4.1.<.<.=.J..X.XG.",
"0.A k..X|.%X$X%X#.7 3 g.f.p.p.p.i.i.4.1.<.<.<.<.q.Q.Q.oXXXOXs.B 2 8 5 j.`.j.B.z.^ 8 ) 9.E : 8 >.Z 5 5 o.p.p.i.4.4.<.<.q.P.P..X=.",
"' A k..X|.$X$XOXY - V g.f.f.6.i.i.i.1.1.1.,.<.;.-.<.L.^.oXOX+Xp.h 3 5 5 V._.|.9.9 9 ) 0.) w k k.) 7 3 a.).p.i.i.1.1.<.H.Q..XOX..",
"y ^ A..XOX$X$X#.P = o.f.f.6.6.6.5.r.r.1.1.;.<.,.<.<.L.^. XOXOX^.#.3 5 8 8 ,.0.9 0 0 ` 0.0.|.}.l.! q 8 Y a.i.i.3.4.4.1.H..X.X.XR ",
"s _ }.XX%X$X_.g.h 2 f.n.f.a.6.6.6.i.i.1.1.:.<.;.<.<.e.Q. XOXOXi.(.V 7 8 9 9 9 9 0 A 0.,..X.X.X%Xk.j 5 V f.i.5.5.3.:.e.Q.Q..XOXR ",
"y _ |.%X%X$X).a.6 2 n.f.g.f.6.a.p.i.i.r.<.:.:.-.<.<.<.W.Q. XoXQ.s.V V j q 8 w 9 A >.,.` `..XXX%Xl.Y 3 V f.i.i.3.3.3.1.Q.oX[.oXW ",
"s _ .XXX%X$X_.a.2 2 f.g.g.g.g.g.f.f.i.r.1.:.:.-.<.<.<.W.oX.XOXQ.X.< h Y %.>.9.9.q.>.) l..X.X%X%X`.R = I s.i.i.5.3.w.1.Q.oXoXOXW ",
"z ' .X%X$X%X_.#.= 3 g.g.g.g.g.d.f.f.i.i.5.<.:.1.<.<.q.W.W.oX.Xu.5.1 h #.#.=.Y E ) N 9 ~ `.+X%X%X_.%.= I p.p.i.y.4.5.y./.^. XoXX.",
"d ' oX%X%X$X).%.3 V %.m.g.g.g.j.g.g.5.p.i.1.<.<.<.=.H.P..X.XJ.P.3.v @.X.V V 3 5 Y k 8 Y _..X%X%X`.#.* B p.i.i.1.5.y.y.(.OXOXoXX.",
"x &..X.X$X%X_.a.3 V T m.M.g.j.d.g.7.6.5.2.1.;.<.=.9.E.]..X.X<.1.R X.B B B g 3 3 ! C 8 Y .X%X%X%X_.#.* m i.i.i.i.y.y.u.(.(.XXOXO.",
"x $..X%X&X&X{.j.j 3 3 Y _.g.j.j.j.g.i.5.3.1.1.<.<.Z.L.'..X.X9.<.R 3.R B P U U ' a.V 3 ~ {.+X$X$X).6.1 M i.i.y.5.i.5.Q.).+X+X%X#.",
"x =..XXX%X%X}._.$.3 7 3 E |.j.j.j.g.a.5.i.y.1.<.=.Z..X.X.X.X=.| <..XoX^.4.4.X.o.@.M 2 V m.$X%X$X_.a.6 n p.p.5.5.5.5.^.+X+X$X$X#.",
"x =.H..X%X%X%XB.l.3 8 5 5 M.j.j.j.g.g.i.4.1.<.;.9.L.D..X|.>.C.=.9..XoXoXoX/.4.O.o.B < * @.{.OX+X).f.6 B p.p.p.5.5.p._._.$X$X_.! ",
"n =.H.oXXX$X&X}.`.E 8 8 5 l.M.j.j.g.g.i.i.1.:.=.=.L..X~..X&.C.&.H..X[..XQ.^.OX3.y.B 1 & P {.$X$X`.a.I B f.p.p.i.i.a.}.$XOX%Xk.Y ",
"n x R..X*X%X&XB.l.%.E 3 8 j.V.j.j.d.g.r.r.2.:...=.L..X.X|.C.C.>..X.X.XXX[.Q.oX4.u.5.n , B {.{.+X%Xf.T = #.m.f.g.g.n.|.$X%X&Xk.) ",
"n x !.oX.X%X&XB.B.%.E 8 8 j.j.j.j.j.g.p.5.2.;.-.| L.D.~..XC.D.$..X.X.X'.W.[..XoXP.Q.B & n /.+X$X%Xf.Y 7 I g.g.g.g.h..X.X%X&Xz._ ",
"B x !.oX*X*X&X`.l.E j w 8 j.M.h.j.g.g.i.i.1.:.-.=.L..X.X|.C.D.$.|..XL.E.H.[.W.oXP.P.W > b (._.OX$Xn.%.7 Y j.j.j.j.j.}..X%XXXx.G ",
"B x !..X.X%X&X}.%.3 = 7 8 M.l.h.a.a.g.i.i.r.1.1.9.L.L.'.|.C.D.~.|.L.H.9.9.E.oX.XOX^.W > & 6.OX$X$X|.h.Y Y j.j.V.l.V.U..X.XZ.G.G ",
"B x .XoX*X%X|.`.Y .   O 5 l.l.h.a.a.f.p.i.y.1.<.L.E..X.XoXZ.+.D.L.H.H.=.=.P.W..X.XW.3.> & P {.{.$X_.j.Y ; k.S.l.V.C.z..Xw.G.J.x ",
"n x J.oX%X%X`.B.8.O X O 3 R g.g.h.g.g.p.5.i.5.e.Q.[..X.X=.=.P L.L.L.H.| <.H.L.oXoXoX4.p , B p.$X$X%X8.j 8 ) z.}.U.U..Xx.l ' =.v ",
"L x &.Y.*X&X}.`.g.C 7 - 3 Y >.B.j.g.g.a.a.5.5.Q.Q. X.X.X<.T =.>.Z.9.=.=.| H.W.[.[.oXP.) > B _ n.}.$X%.N 8 9 9 0.0.w.w.s s &.>.[ ",
"} x z t.U.V.l.j.a.g.#.C 3 3 Y a.B.g.g.g.6.6.i.(.XXOXoX.X-.$ T L.9.<.=.=.<.q.W.oX.XoXe.4.> , m #.f.%.h.Y 8 9 9 0 0 e s s d <.d.q.",
"1.x d t ^ l.A.}.a.f.$X#.6 3 3 3 M.g.g.g.a.7.(._.oXoXW.W.Q o x <.<.<.<.<.<.<.J.Q. XoXW.Q.b < < < 2 7 $.%.) N w e e e u s ' s.n.n.",
"1.v d e ) l.g.$X%X$X&X(.#.h 3 3 a.B.j.j.g.n.}.OX+X$Xv.i.a > Q 1.1.:.1.1.1.1.L. X.XoXu.u.i.v 6 < 3 h #.%.%.Y E ^ O.w.1.i.s.<.| -.",
"b % G w.C.B.%X%X$X%X%X{./.a.h 7 R g.m.j.j._.XX|.$X%Xf.B < X.i.i.3.3.3.:.1.:.W.Q.Q.oXQ.u.4.X.B < 2 V #.%.! 3 9 w Z q.w.w.' d x x ",
"% . D x.C.%X$X$X+X+X$X%X).).V 6 Y %.j.A.j.`.|.%X%Xm.%.7 = a.c.p.5.5.5.5.i.y.Q.(.oXoXQ.4.5._ P f f U f.a.a.Y 7 8 Z ,.0.+.D s d x ",
"x # ' w..X+X|.`.+X$X+X+X+X{.#.I 3 5 7 k.S.`..X%X%X`.%.3 3 a.m.g.p.i.7.i.p.i.Q.(.+XOXs.u.X.X.p.6.p.p.p.b.).g.g.j.l.k.9.` _ ' ] x ",
"..H D z.`.|.}.`._._.oX).$X(.b.Y 3 8 8 ! l.|..X|.` k.` 9 8 ) j.g.g.g.a.a.a.v._._.+X+XQ.b.B X.c.Q.OX+X+X+X+X+X/.n.n.g.h.<.,.w.s.$.",
"<.H y ` A._.n.c.p.Q._.+X+X$X).g.j 3 9 9 9.C.z.0.N F E w 9 Z l.l.j.h.h.a.a.a.`.`.+Xb.b.p.X.p.^.Q.+X+XOXoX+X+XOX+X+Xg.N.>.<.0.` ' ",
"d.( t ^ k._.n.f.6.^.).).oX+X+X#.7 5 9 9 9 9 0 9 0 S 0._ 0 ^ C.V.l.l.h.k.a.g.).`.$X).^.6.X.p.p.+X+XOXOX).OX).OXOX+X+X).j.>.,.0.1.",
"c.] s 5 C j.f.7.c._.oX+X+X_.p.%.7 : 9 N e e 0 0 ^ 0.z.E 0 0 l.S.C.V.k.k.l.g.`.|.}.g.a.#.@.p.+X+X+X).(.(././.).oXoXOXOXn.g.h.1.0.",
"c.&.y 0 ^ h.a.p.(.).oXOX+X+X7.#.j - 8 9.E A e e ) ^ w._ 0 0 ' U.C.C.C.l.l.l.A.g.B.#.a.$.V +.`._.).).Q.u.4.P.^.oX XoXoX^.n.g.>.>.",
"f.J.' 9 5 j.g.n.`.oX+X{.{.p.#.R j 8 9 >.9.0.) 0 e 0 A ' r e 0 e.U.C.C.C.l.A.9.Y - 8 %.Y 7 a.(.c.c.i.i.1.:.4.u.P.^. XoXOX^.n.%.>.",
"s.s.' 0 9 j.j._.{.OX+X+X$Xg.V I C 8 N 9.9.0.N 9 0 0 _ q.^ 0 0 O.U.C.C.S.S.9.Z 8 8 k %.Y 3 I f.n.c.i.5.4.3.1.<.q.^. XoXoX^.v.a.$.",
"<.s.' 0 0 l.k._.+X+XOX$Xg.I 3 j %.>.l.l.S.C.0.^ ^ _ ` 9.` e 0 0 z.|.Y.0.` ) 9 9 k %.k.Y - C g.a.f.p.5.w.1.1.1.:.:.Q. XOX+Xc.a.! ",
"| =.' y 0 z.S..X|.$X$X$XN.I q q %.k.l.l.%X}.}.S.S..Xz.9.0.^ 9 0 0 0.` / E 0 9 N 9.` 9.E ) E j.g.f.p.i.5.4.1.1.1.1.P.Q.XXOX^.n.#.",
"<.;.| s 0 C.z.|.%X+X%Xj.A.~ C Y %..X%X%X%X*X&XXXS.XXl.C.z.0.0 9 0 0 E / 0 0 A 0._ w A E 9 C j.g.g.f.p.5.i.1.5.1.1.L.^.OXOX^.a.#.",
"p.c.] s s Z.U..X&X&X%X{.j.E Y E Z .X.X.X*X&X*X&X%X%X%X|.S.|.9.e 0 0 0 9 S ) 0.0.) e N ^ 0 E l.l.a.g.a.5.5.5.1.2.3.Q.^..X+X^._.h.",
"n.d.] d s Z.Y..XXX%X%XA.k.w 9 9 w |..X.X.X$X.X$X%X&X&X&XV.}.C.z.) ,.0.0.0.0.0.O.` / ) ) 0 W l.l.l.g.g.6.6.5.i.2.5.s.).oX+X).n.h.",
"M.n.] d s L.Z.|..X%X%X|.) 9 + + 0 k.|.|.|.|..X.X.XXX%X%X&X&Xl.z.,.0.z.z.%X.X.X0.0.` r.W 0 ^ C.C.C.l.j.g.7.f.p.i.i.i._._.$X_..Xj.",
"1.I. .x d T.Z.|..X.X9.S.^ +   X 4 ` C.C.z.z.z.U.|..X$X.X*X.X.Xz.0.0.z.%X.X.X%X%XC.t.0._ 0 _ Z.C.C.V.l.j.j.7.g.p.g.b._.$X$X_.|.9.",
"1.M.;.x d J..X.Xz.A ) z.` 0 + @ 0 ) Z.Z.Z.z.x.z.C.U..X$XXX^ F 0.0.z.z.*XXX*X*X*XY.x.z._ y t Z.Z.C.C.C.l.k.h.h.h.j.g..X|.%X|.0.^ ",
"V w.<.x x &.t.e.4 0 0 ) q.) ` ^ e 0 Z.C.x.x.x.x.C.Z.Y.z.0 S S O.q._ O..X.X*X*X*X*XZ.D._ e s F.Y.Z.Z.C.z.C.k.k.k.j.j.`..X$X.XC.O.",
"P ,.>.v d s y +.0 0 A ) w e ` / t t Z.XXZ.x.F.Z.T..Xw.' 0 y S r._ y w.XXoX%X*X*X=XY.T.G s s +.G.T.Z.Z.Z.C.z.k.V.l.V..XS.` Z._ u ",
"B } <.<.l s y 0 0 N ) ` w e ^ / y y y H..XH.L..XJ.t.y s y H r.t.G ' r.Z..XOX=X=X*XT.!.' y s s O.G..XT.Z.Z.Z.Z.S.U.w.` w.A &.t.H ",
"B K >.K.s._ r 9 0 <.j.>.>.) 0.1.u y s s s.s.s.s.d d d d ( t.t.$.s $.H.L.H..XOX=X=XT.J.s.*.z s d &.s.s.F..XT.w.r.1._ _ y s G =.( ",
"} ,.=.s.t.w.q.,.l.j.B.B.l.k.0.0.+.u u s d d z z x c x [ 1.s.s.c # =.P.L.K.oXOX.X.Xs.J.>.*.J x z d $.+.$.s.s.' ' y s s s G s.=.[ ",
"w.1.$.+.t.C.l.l.n._.n._._.j.S.0.e.$.H c J [ { v v { 1.n.n.n.n.x % v K..X~.!.P.v.J =.=.=.x z x x x x d d s d s s s z G <.c.K.b.[ ",
"0.K c H q.k.%X$X$X+X+X$X+X%XB.k.z.t.$.$.-.v { M.M.B.B.y.-.w.B.} x b 1.n.I.n...p x { <.[ v x v v <.<.x x z z d J &.i.d.s.v.>.<.<.",
"| v H _ 0..X.X$X+XoX+XoX+XOX%Xl.z.$.H z p % a 2.M.A.i.2.I 2.A.4.} B B b B B B v } M.n.<.<.{ { ..v.v.v.d.d.d.p.s.d.c.v.v.<.=.,.,."
};
