/* XPM */
static char *_440f1b7353b455ec6869fd95ce549c5SKRy4kaypHjhA0YD[] = {
/* columns rows colors chars-per-pixel */
"64 64 198 2 ",
"   c #2E0005",
".  c #302D03",
"X  c #480007",
"o  c #4C0009",
"O  c #52000A",
"+  c #5C000B",
"@  c #68020D",
"#  c #74030F",
"$  c #7C0411",
"%  c #464917",
"&  c #474A26",
"*  c #51562F",
"=  c #575A34",
"-  c #5D6138",
";  c #666925",
":  c #676925",
">  c #6D712A",
",  c #71742C",
"<  c #696436",
"1  c #696538",
"2  c #6D693A",
"3  c #716D3D",
"4  c #767931",
"5  c #74703F",
"6  c #6D6941",
"7  c #716D43",
"8  c #757142",
"9  c #797543",
"0  c #7C7945",
"q  c #767248",
"w  c #79754A",
"e  c #7C794C",
"r  c #7E7A50",
"t  c #8A0312",
"y  c #930415",
"u  c #95101C",
"i  c #AE0B18",
"p  c #B6051B",
"a  c #982530",
"s  c #9C333D",
"d  c #C7011E",
"f  c #C4172F",
"g  c #CA172C",
"h  c #D41E37",
"j  c #DD2F46",
"k  c #CB3949",
"l  c #807C47",
"z  c #817D4A",
"x  c #817D51",
"c  c #D24D5D",
"v  c #7F8438",
"b  c #888C43",
"n  c #84824D",
"m  c #88854F",
"M  c #8F9246",
"N  c #919547",
"B  c #929549",
"V  c #96994C",
"C  c #9A9D4F",
"Z  c #858154",
"A  c #898654",
"S  c #8B8953",
"D  c #888559",
"F  c #8C895A",
"G  c #918D55",
"H  c #918E5B",
"J  c #989653",
"K  c #93915B",
"L  c #99955D",
"P  c #9C9A5B",
"I  c #A19D5D",
"U  c #9EA152",
"Y  c #A2A556",
"T  c #A4A35C",
"R  c #A6AA5B",
"E  c #A9AD5C",
"W  c #ADB15F",
"Q  c #8E8A60",
"!  c #908E60",
"~  c #949561",
"^  c #9A9660",
"/  c #969962",
"(  c #9C9B63",
")  c #9D9C6A",
"_  c #A19D64",
"`  c #A29E6D",
"'  c #A39F70",
"]  c #9EA169",
"[  c #A4A065",
"{  c #ABA865",
"}  c #A4A46A",
"|  c #A9A56B",
" . c #A6A96F",
".. c #ACAA6D",
"X. c #B0AE69",
"o. c #AEB262",
"O. c #B3B666",
"+. c #B4B865",
"@. c #B4B36D",
"#. c #B7B96E",
"$. c #A7A373",
"%. c #ABA675",
"&. c #A6AB71",
"*. c #ABAC72",
"=. c #ABA778",
"-. c #AEAA7A",
";. c #B1AE72",
":. c #B2AE7D",
">. c #AEB376",
",. c #B3B475",
"<. c #B8B672",
"1. c #B6B873",
"2. c #BBBC74",
"3. c #B4B37B",
"4. c #B9B67A",
"5. c #B6B979",
"6. c #BBBC7C",
"7. c #C0BD7E",
"8. c #BEC077",
"9. c #BEC17D",
"0. c #C2C47B",
"q. c #C6C97E",
"w. c #C9CC7F",
"e. c #AFB080",
"r. c #B6B381",
"t. c #BAB683",
"y. c #B6B886",
"u. c #BDBA85",
"i. c #BDBC88",
"p. c #C1BE83",
"a. c #C1BE8A",
"s. c #EC97A2",
"d. c #E9A5AF",
"f. c #EDB1BA",
"g. c #BEC181",
"h. c #BEC18D",
"j. c #C3C482",
"k. c #C6C985",
"l. c #CACC84",
"z. c #C5C38D",
"x. c #C9C78D",
"c. c #C7CA88",
"v. c #CACD89",
"b. c #CED184",
"n. c #CED18B",
"m. c #D1D487",
"M. c #D1D58D",
"N. c #D6DA8B",
"B. c #DADD8E",
"V. c #C4C690",
"C. c #C9C791",
"Z. c #C6C992",
"A. c #CBCC94",
"S. c #CCCE98",
"D. c #D1CE97",
"F. c #CDD196",
"G. c #CED299",
"H. c #D3D690",
"J. c #D6D992",
"K. c #DADD95",
"L. c #D2D49C",
"P. c #D5D89E",
"I. c #DBE08F",
"U. c #DDE194",
"Y. c #DEE299",
"T. c #E4E997",
"R. c #E5E997",
"E. c #E2E49C",
"W. c #E6E89F",
"Q. c #D6DAA0",
"!. c #DADDA3",
"~. c #DDE1A5",
"^. c #DFE4A8",
"/. c #E7EAA1",
"(. c #EBEDA4",
"). c #E4E7A8",
"_. c #EEF1A6",
"`. c #EEF1A8",
"'. c #F1F3A7",
"]. c #F2F5AA",
"[. c #F6F9AD",
"{. c #F9FCAF",
"}. c #F1ECB2",
"|. c #F6F4B4",
" X c #FCFEB3",
".X c #FAF5BA",
"XX c #FFFEBB",
"oX c #F5CED3",
"OX c #F5CED4",
"+X c #FFFFC3",
"@X c #FFFFC6",
"#X c #FFFFC9",
"$X c #FFFFCB",
"%X c #FFFFCD",
"&X c #FFFFD3",
"*X c #FFFFDA",
"=X c #F9DFE3",
"-X c LightYellow",
/* pixels */
"@.Q o.E a.J.L.[.{.[.XX#X@X@X@XV.l.-.} } e n S F 2.4.M.7.K K g.n.4.F S n Z R r Y Y  .u.*.| } Y Y [ 6.t.r.r.3.3.3.r.3.3.r.t.&.R R ",
"H Q = = R P.Q.|. X X#X#X@X@X#Xk.l.3.3.&.l * v D ,.<.O.G b ! A.A.V.5.z.a.a.XX&XJ.N.t.r.t. ._ } C _ 4.3.3.:.b.n.F.F.n.b.3.r.[ e r ",
"b G D = * K.J.H.[. X{.[.@X#X#Xk.=.-.:.] U e ..z.z.@.m S S 5.T.5.c.z.+X*X*X*X*X&X&X*Xn.G.m.m.r.} _ _ :.:.3.b.A.].A.].l.n.l.3.w r ",
"b F o.x z J.Q.H.n.].'.{.`.Z.~ ~ -.*.-.r.5.4.u.a.a.>.m m D ,.>.E | u.XXXX&X&X#X%X#X%X&X*Xv.m.:.( 3 8 :.:.w.A.#X@X#X#X#X`.A.[.( q ",
"X.X.D x n *.J.H.n.n.-./ : : < 2 / =.-.3.r.3.r.t.u.a.*.Z Z >...r Y XXXXXX&X%X@X%X@X%X%X%X X%XP 7 3 3 ( %.'.#X%X@X@X@X+X@XV.'.l.P ",
"C.o.3.x z ..K. X X3.( 3 2 2 2 J %.k.l.v.l.b.3.} 4.t.t.p.u.B.Y 0 e  X X X X X X{.#X[.#X#X{.#X7 3 3 V -.q.`.@X@X#X@X`.(.@X@X(.(.q.",
").3.U.*.z %.u.t.} ( 3 2 2 M K q.j.#X#X#X#Xv.n.b.3.4.r.I  .6.9 9 9 G.[. X X].k.`.[.@X#X+X@X=.L N N ( -.k._.@X+X+X+X(.`.(.+X@X(.j.",
"K.%.a...z z 0 _ [ 5 5 B ( %.k.j.#X#X#X#X#X#X%Xl.v.l._ 5 V _ 9 8 :.G.F.l.l.q.k.`.[.[.[.+X@X%.=.=.-.%.%.q.@X+X+X.X(.2.Y.|.XXXXW.z.",
"K.a.a.*.z l 0 0 9 5 q ) =.=.k.#X#X@X@X#XXX#X@X#X#Xl.l.V P ( 5 5 b.A.n.l.c.k.Z.[.[.@X#X#Xl./ -./ / -.%.q.@X+X+XXX(.) 1./.|.XX+Xt.",
"K.a. .u.r.` w C } ( V ^ =.=.[.#X@X@XXX@X.X@X@X@X#X@X'.=.l.L 3 3 ) l.v.l.c.c.k.[.#X+X#X#Xj.*.L 3 6 *.%.q.@X@XXX(.W.@.,.Y./.}.XXy.",
"K.u. .t.t.N.r.r.3.( 7 3 '.{.[.[.#X@X`.`.'.(.`.@X@X@X@Xk.c.( 7 3 2 v.l.c.v.c.Z.{.#X#X#X`.c.-.L 3 7 ( =.k.XX`.`.(.E.1.,.K.Y.XXXXY.",
"J.N.$. XXXXX Xm.b.V 3 3 A.'.|.].'.'./.6.6./.(.@X.X@X@X@XZ.q.L 2 2 c.l.l.l.l.v.{.{.%XA.A.l.:.L 7 7 *./ =.].].`.W.2.,.@.U.E.}.XXY.",
"J. . X XXX XXX&X:.V 3 L c.'.`.'.`./.i.8.1.6.y.(.+X+X.X@X(.V./ 2 2 S.l.v.n.l.l.[. X&X[.].b.:.:.^ P -.N M _._.h.i.5.5.>.r.E.}. XY.",
"J.T {.XX X#X&X%X:.V 3 ;.c.c.k.j.j.8.6.6.6.6.5.E.(..X+X+X@XV.=.2 3 l.[.n.n.n.n.[. X Xn.n.:.] r.:.:.( 3 L k.V.h.6.5.1.5.,.E.E.XXU.",
"P.t.P. X#X&X%X*X-.B 3 c.C.k.k.j.j.9.6.6.5.<.5.y./.(.(.XX@X#Xq.6 3 3 n.[.n.n.n.M.n.3.M.b._ w C :.] 5 3 L q.j.g.9.8.5.5.,.E.XXXXU.",
"t.U H. X X&X%X&X-.7 3 c.c.c.k.j.j.9.u.6.6.5.5.5.y.(.(.+XXX@Xz.K 2 3 3 n.{.M.L.m.[ 9  .3._ , 8 3.I 5 3 -.k.k.j.9.9.5.1.y.W.E.XX<.",
"..U N.XX X&X%X@X) : L v.c.c.j.j.j.j.6.6.6.5.5.5.@.6.E.(.@X@X#Xk.B 5 5 8 M. X Xt.9 9  .r.&.w C m.} 7 3 l.'.k.j.j.6.6.5.E.W.XX@X#.",
"z } P. X#X%X%X=.^ : *.c.c.q.q.q.0.j.j.6.6.<.<.4.6.1.E.(..X@X@X'.-.2 5 8 8 3.r.9 0 9  .t.r. X Xm.] 8 8 ( c.j.j.8.9.6.5.E.XXXXXX) ",
"z }  X X%X%X[.v.B 2 c.A.c.l.q.q.q.j.p.7.6.2.5.5.5.5.y.(..X@X@Xj._.L 7 8 8 9 9 9 0 U t.4. XXXXX*Xm.V 3 P c.k.0.0.8.2.i.(.(.XX@X) ",
"n |  X&X&X&X].l.6 2 A.c.v.c.l.q.k.j.j.7.2.2.1.<.4.5.5.(.(..X@X(.Z.L L V 8 9 w 9 P 4.t. . X X X&XM.( 3 L k.j.j.0.8.8.6.(.+X.X+X' ",
"n | XX X&X%X[.l.2 3 c.v.v.v.v.v.c.c.j.0.6.2.2.<.5.5.5./.+XXX+X/.$.2 B ) :.r.r.r.t.5.[ H.XXXX&X&X X) > L k.j.j.8.8.6.6.`.XX+X#X` ",
"A ..XX*X#X&X[.=.: 3 c.v.c.v.v.x.c.c.j.j.9.2.1.5.5.5.y././.+XXXh.0.< M -.-.,.( ( ] U 9 ]  X%X&X&X[.-.: L c.j.j.g.9.j.9.(.(.XX+X' ",
"m ..XX*X&X%X[.=.2 ^ -.S.v.v.v.n.v.c.q.j.u.6.6.5.5.,.K./.XXXXE.W.8.F %. .L P 5 8 ( V 9 ) [. X&X&X[.:.: L k.j.j.9.j.9.g.'.@X@X@X$.",
"S >.XXXX%X&X{.b.3 L ) S.D.n.x.n.v.l.q.0.0.6.6.5.,.y./.}.XXXX5.5.) $.K K K N 2 2 ] P 3 (  X&X%X%X[.=.: K j.j.j.p.g.g.h.'.].XX@X%.",
"S ;. X*X&X&X{.n.V 3 3 ( [.v.n.n.n.v.k.q.8.9.6.5.<.K./.}.XXXXr.5.) 2.' K K / / *.l./ 2 )  X@X%X&X].l.2 G k.j.g.0.j.0.(.].@X#X&X=.",
"S ,.XXXX%X&X{.[.;.3 7 3 _  Xn.n.v.v.j.0.9.9.5.5.3.K.XXXXXXXX,.#.2.+X@X`.9.9.$.%.=.J 2 L A.%X%X%X].l.6 L k.j.0.0.0.0.`.#X#X#X%X-.",
"S ,.U.XX%X*X&XG.M.3 5 5 3 D.n.n.n.b.v.j.0.u.5.3.r.E.K.XX Xr.          +X+X_.9.$.%.K < : =. X@X%X].c.6 H k.k.k.0.0.k.[.[.%X%X[.] ",
"H ,.Y.+XXX%X&X{.{.( 8 8 8 M.D.n.n.v.x.k.g.9.2.@.>.E. X}.XX  OXf.d.c c   (.`.+X8.g.Q 1 : ~ [.%X%X[.l.L ~ k.k.k.j.k.k. X#X@X&Xm.( ",
"H S ^.+X*X&X&XG.M.:.I 7 8 n.M.m.n.v.l.j.q.7.2.<.,.E. X X  oXf f f f k f   (.+X9.h.j.G < H [.[.%X&Xc.( : -.S.c.v.v.A. X&X&X%Xm.} ",
"H S ).XXXX%X&XG.L.:._ 8 8 n.D.n.n.v.x.k.7.7.1.#.@.E.E.  d.f OXs.j j y c i   +XXXW./.K : H `.#X%X*Xc.P 7 ( v.v.v.v.n. X X&X*XN.| ",
"K S ).+X*X*X&X{.n._ V w 8 n.D.b.n.v.v.k.j.6.2.1.,.!.  oXf =Xh h h g g t p t   +X/./.) < G '.{.@X%XS.:.7 ( v.n.n.n.n. XXX*X XB.R ",
"K S ^.+XXX*X&X{.:.7 > 3 8 D.m.b.v.x.k.j.j.7.6.6.r./.  d.f OXh d d d t y + $   XXXX(.` < : q.@X#X&X Xl.( ( n.M.M.H.H.Q.XXXXK.I.R ",
"K S XX+X*X&X{.{.( % . & 7 b.M.l.l.l.c.k.j.j.6.5.Y./.  d.g j h d d p + a o #   XXXX/.2.< : K {.{.&X[.n.( > m.L.M.H.J.J. Xa.U.T.Z ",
"F S T.XX%X*X XL.e.& . & 3 } v.n.b.v.v.k.q.j.8.i.(.|.  c f j g d p # + s X @   XX+X+X9.b < F k.%X%X&X:.V 9 ] M. XQ.Q. XB.Z ;.;.F ",
"K F ,.~.*X*X X{.v.P 7 > 3 ( :.G.n.v.v.l.k.0.0.(.(..X  c k y g y @ + s o @ O   |.|.@X/.} < K | Z. X&X3.V 9 8 9 t.t.u.a.l n *.5.o.",
"+.S m a.P.M.M.v.l.v.:.^ 3 3 ( b.D.v.v.l.q.q.j.]..X@X@X  f c y u u s X @ o   (.XXXX+Xi.0.< < J =.c.:.b.( 9 9 9 0 0 e n n m 5.A.y.",
"6.S n n } N.S.{.l.c.%X=.7 3 3 3 S.v.v.v.l.q.'.[.@X#X(./.  i p $ + X @ O   5.E.(..X+XW.W.F 2 < < 2 6 ,.:.] C q e e e e n ;.z.A.A.",
"6.F n 0 } M.v.%X&X%X*X].=.B 2 3 l.L.M.v.v.A. X@X#X#XV.j.b   t $ # @ o   6.6.E..X+X+Xh.h.9.K 2 2 2 V -.:.r._ _ }  .t.p.j.z.,.@.<.",
"G < E u.J.L.&X%X#X&X%X{._.l.V 7 ) v.S.n.v.{. X X#X*Xc.L 2 %.          2.6.2.W.(.(.+X(.h.0.$.K 2 2 L -.-.) 5 8 q T t.u.i.X.m m S ",
"- . R B.H.&X%X%X#X#X#X&X].'.L 6 ( :.n.L.n. X X&X%XS.:.7 : l.Z.k.j.9.0.0.j.g.(.'.+X@X/.0.0. .K M M / l.v.l.P 8 8 P 4.t.*.R n m S ",
"S - ..u. X@X X X#X#X#X#X%X X=.P 3 5 8 b.L. X X*X&X{.:.5 5 b.S.c.l.q.q.k.j.j.`.].@X@Xz.h.$.$.j.k.j.k.k.Z.].l.v.n.n.m.r. .| ..X.S ",
"<.E Y B. X X X[.[.].+X].#X`.Z.) 3 8 8 } M. XXX X| m. .5 8 ] M.v.v.v.l.k.c.Z.[.].@X@X`.V.K $.V.(.#X#X#X#X#X#X].A.A.n.b.5.4.u.z.*.",
"5.R l  .L.[.Z.Z.k.`.].#X#X#X'.v.V 5 8 9 t.H.N.t.I I _ z 9 I m.M.n.b.b.l.l.l.{.{.#XZ.V.k.| k.`.(.@X#X@X+X#X#X#X#X%Xl.G.3.6.t.....",
"V.X.0 [ b.[.A.l.q.(.[.[.+X#X%X=.7 8 5 9 9 9 0 9 0 Y t.[ 0 } M.H.M.M.b.b.b.v.].{.%X].`.q.%.k.k.#X#X@X@X].@X].@X@X#X#X].n.3.r.t.6.",
"x.X.n 0 _ n.l.q.Z.].+X@X#X[.l.=.7 > 9 C w 9 0 e _ p.N.[ 0 0 N.P.J.H.m.m.n.n.{. X Xl.c.;.=.c.#X@X#X].].]._.`.`.@X+X@X@XA.l.b.5.t.",
"c.>.l 5 I n.l.k.`.].+X@X#X#Xl.:.V > q r.} U e e } } t.` 0 0 ..P.H.J.J.H.M.n.G.v.G.-.l.*.L ..{.|.].].(.h.9.W._.@XXX@X@X_.A.b.3.r.",
"z.U. .0 9 n.v.A.[.+X#X[.[.k.=.) V 5 9 3.t.t.} 0 e 0 U  .r 0 e u.Q.K.J.H.M.L.r.( > 7 ;.) 7 l.'.V.z.j.0.6.8.6.y.W.(..X@X@X`.A.-.3.",
"c.z...0 9 n.n.]. X@X#X#X%Xv.L ( P 8 C r.r.t.C 9 0 0 } t.| 0 0  .Q.J.J.P.P.t.I 9 8 C r.( 3 ^ c.A.Z.j.0.9.8.6.6.i.(..XXX@X_.A.l.;.",
"5.z...0 0 M.n.[.#X#X@X#Xv.L 3 V :.:.M.M.Q.H.t.[ [ $. .t. .w 0 0 N. XP.t. .} 9 9 C :.m._ > P v.v.k.k.j.6.8.6.6.1.2.(..X@X@XV.l.] ",
",.,...z 0 N.L. X X%X%X%XS.( 8 8 r.m.H.M.*X X XL.P. XN.r.t.} 0 0 0 u...[ _ 0 9 C r.} r._ ` ( m.v.c.k.j.j.9.6.6.6.6./.`..X#X`.A.-.",
"<.5.@.l 0 K.J. X*X@X&Xn.G.] P ( r. X&X*X&X*X&X XP. XM.H.N.t.0 0 l 0 } _ 0 0 U t. .w C _ 9 I n.v.v.c.j.0.u.9.7.6.8./.`.@X@X_.l.-.",
"c.z.@.n n K.Q.XX&X&X&X{.M._ _ _ I XX X X*X&X&X*X&X*X&X XL. Xt.e 9 0 0 0 U } t.t.} e Y _ 9 _ M.M.v.v.q.q.0.0.0.7.8./.`.XX@X'.].b.",
"A.A.O.n n K.!.XXXX#X*XL.m.q 9 9 w  XXXXXXX%XXX&X*X&X&X&XM. XH.N. .4.t.t.t.t.t. . .} _ | 0 } H.M.M.v.v.l.q.0.j.0.g.z.'.+X#X].A.b.",
"A.A.@.m n E.K. XXX*X&X X$.9 & & 9 N. X X X XXXXXXX X&X*X*X&XH.N.4.t.N.N.%XXXXXu.t...t.| 0 [ H.J.N.M.n.v.l.k.j.j.j.j.[.[.%X[. Xn.",
"7.T.2.m m ~.K.XXXX X6.L.[ & . % 4  .J.J.N.N.N.Q. XXX%XXX&XXX XN.t.t.M.&XXXXX*X&XK.u.t.| 0 | J.J.J.H.H.n.n.w.l.v.k.Z. X%X%X{. Xt.",
"4.D.4.S n T. X XN.Y } M. .0 & * 0 | J.K.K.N.B.N.J.Q.XX%X X[ [ t.t.N.N.*XXX*X*X*XQ.B.B.| l z K.K.J.J.H.M.m.b.b.l.v.v. X X&X Xr.} ",
"L y.5.S m >.a.u.4 0 w  .t.}  .[ e l K.K.N.K.B.N.K.J.!.N.w Y Y ..u.| *.XXXX*X*X*X*XK.K.| z z B.!.K.K.J.J.N.m.m.m.M.n.{. X*XXXJ.*.",
"~ 4.5.F m m z *.0 0 C } w w  .{ z z N.XXK.B.B.K.~.XXa...z z Y p.| l u.XX+X*X*X*X-X!.^.R z n >.K.~.K.K.K.J.N.N.H.N.H. XP. .K.| x ",
"K +.5.3.D n z 0 0 C  . .w w } T z z z Y.XXY.E.XXT.p.n z z R p.a.R ..p.U.XX+X*X-X-X!.).*.Z n n ..I.XX!.K.K.K.J.P.Q.u. .u.U *.a.E ",
"K ! ,.T.z.| r 9 9 5.m.r.4. .t.6.x z z n z.z.z.z.Z n m n E z.z...n ..E.Y.Y.XX@X-X*X).U.a.>.D n A ,.z.z.U.XX!.a.p.u.| | z Z R 3.E ",
"#.4.3.z.a.u.t.t.m.n.S.L.n.M.t.t.%.x n n m n S A S F S W 4.C.x.D = @.E.E.E.+X@X+XXXV.T.5.3.W m D m ;...@.j.a.....n z n n E j.3.o.",
"6.4.,.*.u.J.H.n.G.[.A.].[.n.L.t.p.*.E D o.o.o.F H o.6.A.A.A.C.F - F T.+X).).T.x.W <.,.;.F S m S F A m m m m m n n A E 3.z.T.Z.o.",
"t.F D R y.N.&X%X%X#X#X%X#X&XD.N.B.a.:.X.<.F O.D.D.D.D.g.2.6.F.+.G F 6.A.T.A.<.b F o.t.o.S S F F 5.,.F S D D m E >.j.z.V.Z.3.5.5.",
"@.F E | t.XX X%X#X+X#X+X#X@X%XM.N.*.E A b - b 7.L.L.g.p.~ 7.L.j.+.K K K K K G H +.v.S.5.1.O.O.@.A.A.C.c.x.x.k.z.c.z.x.A.5.<.4.4."
};
