/* XPM */
static char *e98953917ba24e92f2352694c890d766xBRoYyIRwV7MDQ7e[] = {
/* columns rows colors chars-per-pixel */
"64 64 16 1 ",
"  c #6B0000",
". c #6E0000",
"X c #720000",
"o c #770000",
"O c #7B0000",
"+ c #7F0000",
"@ c #840000",
"# c #850000",
"$ c #870000",
"% c #8E0000",
"& c #940000",
"* c #970000",
"= c #9C0000",
"- c #9F0000",
"; c #A40000",
": c #A50000",
/* pixels */
"::::::;-**&*&%*&**---;:::::::::--**&*&&***=--:::::--***&%%*&**--",
"::::;;--*%**%%&*%*=-;;:::::::;:--***&%%&%**--:::::--**&*%%%*%*--",
"---:;;-**&&%%%%**&--;::::;:;;;--**%%&%%****--:::::--*%*%%%%*&**-",
"----;--***%%&%%&**--;;;---=---*=%%%%%$%%&&*-:::::;--*&&%&%%%&*%*",
"**;--=-*%&%%%%%***--;------**=*%&$$@@$$&%**-::::::--*&*%%%%&%&%*",
"%%%*******%%%%%*&**---******&%%@@@@@@$@$@&%=:::;::--*&*%&%%%%%$%",
"$%**&*&**%&&&*%%*&*-*****%%$@$@++++++@@$@%**-:;;::--**%%%%$$$@@&",
"$+$@%%%%%%$@$$%%%%**%%%$$@@+@++ooXXOo+O@$%%*---;::--*&%%@$@@@++@",
"+++@@+@@@$@@$@$&@@&%@@@+@@+++++XoXXoXOoO$@%**------**$&@@$@+++O+",
"++O+OO+O+++++OO++@$+@@+++++++oOoXXX  XoXO+$&*=***-**%@@$$$++OXO+",
"++O+oOoOXooOoXOOoO++++++++++++OXoXX XXXXOO@@$%%*&=*%@$@@@+OXXoXO",
"+O++oOXoXXXXXXooO+++++++++@@@+OOXXXOXXXoO+@$$@$@%%$%$$+OOXXoXXO+",
"@+O+OOXXoX XXXXXXo+++@@$@$@$@$@++OOoooXXOoO+++@++@$@OoooOXXXXoo+",
"$@$@+OooXXXXXoXoOO+$@$@@@&%&%$@$++++oOOooO++++++++++OoXXXXXXooO@",
"$@@&@++OXooXoXooO+@$@&%%*&&*%%$@$$@@+++++++@++++++oXOXX  XXoO+@$",
"&%%%$$+O+oOoOO+O+@@%%&&&***&&%$@@$$$@++$@@$@@+++++OoXXXoXXXXO@$%",
"%%%%*$@@+++++++$@@%******-=*&%%%$$$@$$$%%%%%$@@@@OOXOXXXoXO++@%*",
"*%&&%%$$@@+++@@@@&%***=----=**&$&%$@$$$%%**%%&$$@++OXXoXOO+@$&**",
"*****%&$$@@@@@@@$%&*=---;::--*&%%%&%*%%&&***=&%&&$+++++++@@@%%*-",
"-****&%%$@$+$@$@@&*--;;;:::--*&&%%%%%****-******%%$@+++@$@$%%*--",
";:----*%%@@$$@$%%&*-;::::::--*&*%%%%%&**-----***&%$$$$$$@@%$&-;;",
";:;:;-*&%%&%%%&@**-;:::::::-=*&&&%&%*&**-;;-----**$@$$$@$&%&*-::",
"::::;;-*&&%%%%%%&*-;::::::;--*&&%&%%%**--:;;:---*%%%&@$%&@%*--::",
"::;;;;--*&*&%%%%%**--;-::;;--*&*%%%%%&*--:::::::-=*%%%&%%%&*--::",
"::::::--*&%%&%@&%&&*--------**&*%%%&&&**-:::::::-*%&$$$&%&&*=-;;",
"::::::-*&%%$$@$$$@%%****=--**&%%&%%%&&**-:::::;-*&%@@$@@%%**--::",
"::::;--**%$$$$++$@@$%*&=******%&%%&%%&*--::::;-=*%@$++@$@&%*-:::",
"::----*&%@@@++ooooO@+$%%%&*%%%$$@%%%%&*--:::---*&@@+oo++@$%&--::",
"----****$@++OXoXXoOoO@@@@@%%$$$$$$%&%&**-;;:--*&$++OoOoO$@$%*---",
"**&**%%@+OOXXXoXXXOXo++@++@+@@@@$@@$%&%%----&**@@+Xo  XXX+@@%=**",
"%%&%$@$@OOXoXXX oXXoO+++++$++++$$@$@$@%%*******$OXoX oX oX++$%%%",
"$@@+@@++oOoXXXXXXXXXO+++++@O+oooo@O@@$@&%=**%%$+OOX o  X XX+@@$$",
"+++++++++OXooXoXoXOo+O@@++++OXooXoXOO++$$&%$$@@+XXXXXX oXXXO++++",
"+++++++++o+oOOOO++++@@$$+@++oXoXXXXoXO+@@@@@$@+oOoXXXX  XXoO++++",
"++++++@@@++O++++++@@$@@%$@$@+ooXXXXOXXOoO+@@@++o+XooooXoXoOoO+++",
"@@@+$@$@$@@$@@@@@$$$@&%*&%%@+++XXo  XXoXO+++++O+OO++OOOOOO++$@@$",
"@$@$$%&%&%@$$$$$@$$$$%***&&%@+oOXXXXXXXoo+++++++OO@+OO+++O+@@@$@",
"&%%&%%&&*&%$$@@$$$@&%&%****-%$++oOooXoooOO+@@@@$@@@$+++++@@$&%%&",
"&&&******%*@%%$$%%%%***--=***%@@+++OXXX+oO@$@$$$@$$$@++@@$@&*&&*",
"&*******-***%%&%%%%*%*-;;---**%$@@++++++@$@%%=%%%$$$@@$+$$%%&&&&",
"**&**-----**&*%%&%*&**-;::;--*&%$$@@@$@@@@%=**&%@%%%@@$@$$%*****",
"=-------:--*&&&%%%%&*--;:::::=%%$$$$$$$$$%%**-*&*%&&%&@&%&&**-**",
"----:;;;;--*&*%%%%%&*--;::::::*&%%$$$@$@%%%*---**&&%$%%%%&**----",
";;;;:::;;--*&&%%%&*&**-:::::::-***&*&%&%***-;;--*&*%%&%%***-:;;;",
"----:;:::--*&&%%%%&&**-;::::::-**%$%%&%*&*=-;;:-*%&%%%%%%**--:--",
"--------:--*&&&%&%%**--;:::::;-*%%%%%%%*&**-::;-***%%%&%@%&*----",
"*****=---=*%*&%%%%%&*--:::::--*%%@@@@$&%***-:::-***%%&$$%%$&****",
"%%*&****-***%%&%%%*&**-::::---=%%@@$$$@%&&*-;::-**%%$$$$$$@$%*%%",
"$@$%%%*&*&&$%&%%%%*&**-;;--=**&@$O+O+@$@%&*--;;-*%%$@$$@@++++@@$",
"@@@$$@@&&%%%@@$%%&%***--:--**&%++oXOO+@$@%%=*--*&%$$$++@oo++O+@@",
"++++@+@@@@$@$$@$$$%&&*&--&**%$@+oXXoXoo+$@%%****%$@@ooXXXoXOo+@+",
"+++++++@$+@@$$@$$@@%$*%****%$@@+OXo  XOXo@@$@%%&@++OoXXoXXXoO+++",
"++++++++++ooO++O+@@$$%&=*%%@+++oXX  X oooXoO++$@+oOXXo XXXXoO+++",
"$+@$@+++O+OooooXOo++$$%%@$@@+++++oo X X XXoO+++++OoXXX XXooOO+@$",
"%@@@@+@++oXOXXXXooO+@@@@$@@++++O+OXX X XXXooO++++OooXXXXXXo+@@%%",
"*&&&%&@$++XoXo XXXXXoO++@+++++$+++OoOXXXXoXO++++OooXoooO+@+$@%**",
"**&&&%%%++oXXXXXoXXoOO++++++@@$$$+++OXooXOo++$@@++++o++O+@@@$$**",
"******=%%@+oOXXXXXooo++@+++@$@$%@@+++++++++@@@$$$@@@@+@$@@$$&%**",
"--==-**&%$@@+oOXoXXoo++$@+@$@%%%*$@$++++$@@$&%%%%$$$$@@@$@$@%&*-",
"--;----*&%$$@++++++++$@@@$%%**&*&%@@@@@+$@$%%**&*&%$$$@$$$&%**--",
";:::::-**%$@@$@+@+@@$$@%&%&&****&%%@$@@$@&%%*&***%%%@@$%$%%&*--;",
";::::::-*&&@$$$@$@$@&%*&****=----&%@%%%&@%%********%%%&%&&***--;",
"::::::;--*&%$$$$@%%%&****&-------=**%%*%&&*&*===--**&*&&&&***--;",
"::::::;---*&&%%&%%*&*--------:::;---******----------****&***---;"
};
